<?xml version="1.0" encoding="utf-8"?>
<!-- Generator: Adobe Illustrator 25.1.0, SVG Export Plug-In . SVG Version: 6.00 Build 0)  -->
<svg version="1.1" id="_x31_px" xmlns="http://www.w3.org/2000/svg" xmlns:xlink="http://www.w3.org/1999/xlink" x="0px" y="0px"
	 viewBox="0 0 512 512" style="enable-background:new 0 0 512 512;" xml:space="preserve">
<style type="text/css">
	.st0{fill:#999999;}
</style>
<path class="st0" d="M256,234.7c-51.4,0-106.7-13.4-106.7-42.7s55.3-42.7,106.7-42.7s106.7,13.4,106.7,42.7S307.4,234.7,256,234.7z
	 M256,170.7c-56,0-85.3,15.9-85.3,21.3s29.3,21.3,85.3,21.3s85.3-15.9,85.3-21.3S312,170.7,256,170.7z"/>
<path class="st0" d="M256,362.7c-51.4,0-106.7-13.4-106.7-42.7V192c0-5.9,4.8-10.7,10.7-10.7s10.7,4.8,10.7,10.7v128
	c0,5.5,29.3,21.3,85.3,21.3s85.3-15.9,85.3-21.3V192c0-5.9,4.8-10.7,10.7-10.7c5.9,0,10.7,4.8,10.7,10.7v128
	C362.7,349.3,307.4,362.7,256,362.7z"/>
<path class="st0" d="M256,298.7c-51.4,0-106.7-13.4-106.7-42.7c0-5.9,4.8-10.7,10.7-10.7s10.7,4.8,10.7,10.7
	c0,5.5,29.3,21.3,85.3,21.3s85.3-15.9,85.3-21.3c0-5.9,4.8-10.7,10.7-10.7c5.9,0,10.7,4.8,10.7,10.7
	C362.7,285.3,307.4,298.7,256,298.7z"/>
<path class="st0" d="M16.4,320c-4.9,0-9.3-3.4-10.4-8.3c-4-17.7-6-36.5-6-55.7C0,114.8,114.8,0,256,0c81.1,0,158.1,39,205.9,104.4
	c3.5,4.8,2.5,11.4-2.3,14.9c-4.8,3.5-11.4,2.4-14.9-2.3C400.9,57.1,330.3,21.3,256,21.3C126.6,21.3,21.3,126.6,21.3,256
	c0,17.6,1.9,34.8,5.5,51c1.3,5.8-2.3,11.5-8.1,12.8C18,319.9,17.2,320,16.4,320L16.4,320z"/>
<path class="st0" d="M256,512c-81.7,0-159-39.5-206.8-105.7c-3.5-4.8-2.4-11.5,2.4-14.9c4.8-3.5,11.4-2.4,14.9,2.4
	c43.8,60.7,114.7,96.9,189.5,96.9c129.4,0,234.7-105.3,234.7-234.7c0-17.9-1.9-35-5.7-50.9c-1.4-5.7,2.2-11.5,7.9-12.8
	c5.8-1.4,11.5,2.2,12.8,7.9c4.1,17.5,6.3,36.2,6.3,55.8C512,397.2,397.2,512,256,512L256,512z"/>
<path class="st0" d="M54.4,512c-5.8,0-10.6-4.7-10.7-10.6l-1.1-106.7c0-2.8,1.1-5.6,3.1-7.6c2-2,4.7-3.2,7.6-3.2H160
	c5.9,0,10.7,4.8,10.7,10.7c0,5.9-4.8,10.7-10.7,10.7H64.1l1,95.9c0.1,5.9-4.7,10.7-10.6,10.8C54.5,512,54.4,512,54.4,512L54.4,512z"
	/>
<path class="st0" d="M458.7,128H352c-5.9,0-10.7-4.8-10.7-10.7s4.8-10.7,10.7-10.7h96v-96C448,4.8,452.8,0,458.7,0
	c5.9,0,10.7,4.8,10.7,10.7v106.7C469.3,123.2,464.6,128,458.7,128z"/>
</svg>
