<?xml version="1.0" encoding="utf-8"?>
<!-- Generator: Adobe Illustrator 25.1.0, SVG Export Plug-In . SVG Version: 6.00 Build 0)  -->
<svg version="1.1" id="Layer_1" xmlns="http://www.w3.org/2000/svg" xmlns:xlink="http://www.w3.org/1999/xlink" x="0px" y="0px"
	 viewBox="0 0 444 80" enable-background="new 0 0 444 80" xml:space="preserve">
<g id="그룹_484" transform="translate(-200 -1013)">
	<rect id="사각형_161" x="200" y="1013" fill="#FFFFFF" width="444" height="80"/>
	<g enable-background="new    ">
		<path fill="#999999" d="M372.83,1054.79v2.86h5.65v7.24h-2.95v-4.95h-11.46v-2.29h5.85v-2.86h-7.7v-2.31h12.89
			c0.19-0.92,0.31-1.76,0.36-2.52c0.05-0.75,0.08-1.47,0.08-2.14h-11.07v-2.33h13.95v1.63c0,0.76-0.02,1.58-0.04,2.44
			c-0.03,0.87-0.15,1.84-0.35,2.93h2.55v2.31H372.83z"/>
		<path fill="#999999" d="M386.16,1057.46c0.79-0.03,1.62-0.08,2.5-0.15c0.87-0.07,1.79-0.2,2.76-0.37l0.24,2.44
			c-1.33,0.25-2.58,0.41-3.74,0.48c-1.16,0.07-2.24,0.11-3.26,0.11h-1.41v-13.09h2.9V1057.46z M399.85,1044.61v20.26h-2.79v-10.1
			h-1.85v9.15h-2.68v-18.94h2.68v7.44h1.85v-7.81H399.85z"/>
		<path fill="#999999" d="M410.19,1049.14c0,0.91,0.09,1.81,0.28,2.71c0.18,0.9,0.47,1.74,0.85,2.53s0.87,1.51,1.45,2.15
			c0.59,0.64,1.29,1.15,2.11,1.55l-1.76,2.29c-1.06-0.54-1.94-1.28-2.67-2.22c-0.72-0.94-1.3-2.02-1.72-3.23
			c-0.44,1.29-1.05,2.45-1.82,3.46s-1.73,1.81-2.87,2.37l-1.74-2.35c0.85-0.4,1.59-0.92,2.21-1.58s1.14-1.4,1.54-2.22
			s0.7-1.7,0.9-2.63c0.2-0.93,0.3-1.87,0.3-2.81v-2.95h2.95V1049.14z M421.52,1054.84h-2.95v10.05h-2.9v-20.26h2.9v7.79h2.95
			V1054.84z"/>
		<path fill="#999999" d="M439.89,1044.63v10.89h-2.9v-4.07h-3.21c-0.13,0.56-0.36,1.06-0.68,1.51c-0.32,0.45-0.71,0.84-1.17,1.17
			c-0.46,0.33-0.97,0.58-1.54,0.76s-1.19,0.26-1.85,0.26c-0.76,0-1.47-0.12-2.11-0.36s-1.21-0.58-1.68-1s-0.85-0.94-1.12-1.53
			c-0.27-0.59-0.41-1.24-0.41-1.95s0.13-1.35,0.41-1.95c0.27-0.59,0.64-1.1,1.12-1.53s1.04-0.76,1.68-1s1.35-0.36,2.11-0.36
			c0.64,0,1.25,0.09,1.83,0.26c0.57,0.18,1.09,0.42,1.54,0.75c0.46,0.32,0.84,0.7,1.16,1.14c0.32,0.44,0.55,0.93,0.69,1.47h3.23
			v-4.47H439.89z M428.56,1052.73c0.75,0,1.36-0.21,1.85-0.64c0.48-0.42,0.73-1.02,0.73-1.78c0-0.76-0.24-1.36-0.73-1.78
			c-0.48-0.43-1.1-0.64-1.85-0.64s-1.36,0.21-1.84,0.64c-0.48,0.42-0.71,1.02-0.71,1.78c0,0.76,0.24,1.36,0.71,1.78
			C427.2,1052.51,427.81,1052.73,428.56,1052.73z M437,1056.4h2.88v8.25h-13.42v-8.25h2.88v1.94H437V1056.4z M437,1060.54h-7.66
			v1.83H437V1060.54z"/>
		<path fill="#999999" d="M461.51,1055.32v2.31h-18.33v-2.31h7.68v-1.69h-5.35v-8.27h2.88v1.98h7.9v-1.98h2.88v8.27h-5.41v1.69
			H461.51z M448.31,1062.23h11.15v2.31h-14.06v-5.72h2.9V1062.23z M448.4,1051.34h7.9v-1.76h-7.9V1051.34z"/>
		<path fill="#999999" d="M481.77,1058.6h-7.79v6.31h-2.9v-6.31h-7.66v-2.31h18.35V1058.6z M479.6,1054.38h-14.08v-8.98h2.88v2.31
			h8.34v-2.31h2.86V1054.38z M476.74,1049.98h-8.34v2.09h8.34V1049.98z"/>
	</g>
</g>
<g>
</g>
<g>
</g>
<g>
</g>
<g>
</g>
<g>
</g>
<g>
</g>
</svg>
