<?xml version="1.0" encoding="utf-8"?>
<!-- Generator: Adobe Illustrator 25.1.0, SVG Export Plug-In . SVG Version: 6.00 Build 0)  -->
<svg version="1.1" id="Layer_1" xmlns="http://www.w3.org/2000/svg" xmlns:xlink="http://www.w3.org/1999/xlink" x="0px" y="0px"
	 viewBox="0 0 365.7 398.8" style="enable-background:new 0 0 365.7 398.8;" xml:space="preserve">
<style type="text/css">
	.st0{fill:#999999;}
</style>
<g>
	<path class="st0" d="M106.5,177.7c0,42.2,34.2,76.3,76.3,76.3s76.3-34.2,76.3-76.3s-34.2-76.3-76.3-76.3
		C140.7,101.4,106.6,135.6,106.5,177.7z M245.2,177.7c0,34.4-27.9,62.3-62.3,62.3s-62.3-27.9-62.3-62.3s27.9-62.3,62.3-62.3l0,0
		C217.2,115.4,245.1,143.3,245.2,177.7z"/>
	<path class="st0" d="M157.7,177c-2.5-2.9-6.9-3.3-9.9-0.8s-3.3,6.9-0.8,9.9c0.2,0.2,0.3,0.4,0.5,0.5l20.7,21.9
		c1.3,1.4,3.2,2.2,5.1,2.2c0.1,0,0.2,0,0.4,0c2.1-0.1,4-1.1,5.2-2.7l39.8-51.9c2.4-3,1.9-7.4-1.1-9.8c-3-2.4-7.4-1.9-9.8,1.1
		c-0.1,0.1-0.1,0.2-0.2,0.2l-34.8,45.4L157.7,177z"/>
	<path class="st0" d="M363,65.5c-0.2-2.8-2.1-5.1-4.7-6L185.1,0.4c-1.5-0.5-3-0.5-4.5,0L7.4,59.4c-2.6,0.9-4.5,3.3-4.7,6
		C0.5,109.1,5.5,152.9,17.3,195C35.2,259.7,78,347.5,179.7,398.1c2,1,4.3,1,6.2,0C287.7,347.5,330.4,259.7,348.4,195
		C360.2,152.9,365.2,109.1,363,65.5z M182.8,384C14.8,298.1,15.1,103.3,16.3,71.2l166.5-56.8l166.5,56.8
		C350.6,103.3,351.1,298,182.8,384z"/>
	<path class="st0" d="M330.8,79.6L185.1,30c-1.5-0.5-3-0.5-4.5,0L34.8,79.6c-2.9,1-4.8,3.7-4.7,6.7c0.4,34.8,5.3,69.4,14.7,102.9
		c22.7,80.2,68,139.8,134.6,177c2.1,1.2,4.7,1.2,6.8,0c66.7-37.3,112-96.8,134.6-177c9.4-33.5,14.3-68.1,14.7-102.9
		C335.6,83.3,333.7,80.6,330.8,79.6z M307.4,185.4c-21.2,75.1-63.1,131.2-124.6,166.7c-61.5-35.5-103.4-91.5-124.6-166.7
		c-8.5-30.7-13.2-62.3-14.1-94.2L182.8,44l138.6,47.3C320.7,123.1,315.9,154.7,307.4,185.4L307.4,185.4z"/>
</g>
</svg>
