<svg xmlns="http://www.w3.org/2000/svg" width="58" height="19.998" viewBox="0 0 58 19.998"><path d="M1863.187-757.819h0s-4-1.2-5.572-1.823c-1.13-.448-1.793-1.246-1.381-2.49.48-1.438,2.788-1.4,4.443-1.4h2.5c3.171,0,5.3-2.988,5.254-3.8-.013-.216-.138-.182-.319-.182h-8.329c-2.869,0-6.861.229-8.294,3.037-1.191,2.331-.964,5.506,4.656,7.255h0s3.995,1.2,5.567,1.825c1.131.444,1.794,1.244,1.38,2.487-.478,1.441-2.784,1.4-4.437,1.4h-2.507c-3.171,0-5.3,2.99-5.253,3.8.013.216.137.182.315.182h8.331c2.875,0,6.861-.23,8.3-3.039C1869.032-752.893,1868.8-756.068,1863.187-757.819Z" transform="translate(-1850.899 767.522)" fill="#fff"/><path d="M2216.271-767.539a9.945,9.945,0,0,0-8.116,4.185,9.939,9.939,0,0,0-1.85,5.78,9.965,9.965,0,0,0,9.966,9.965,9.959,9.959,0,0,0,7.745-3.692,9.917,9.917,0,0,0,2.222-6.273A9.966,9.966,0,0,0,2216.271-767.539Zm0,16a6.035,6.035,0,0,1-6.035-6.033,5.989,5.989,0,0,1,1.053-3.4,6.012,6.012,0,0,1,4.982-2.636,6.033,6.033,0,0,1,6.033,6.032,5.992,5.992,0,0,1-1.426,3.892A6.015,6.015,0,0,1,2216.271-751.541Z" transform="translate(-2168.238 767.539)" fill="#fff"/><path d="M2046.39-753.924c-.638-.372-1.6-.556-2.754.918s-3.812,1.97-3.812,1.97c-3.782.493-4.385-1.506-4.385-1.506l11.253-9.342a1.411,1.411,0,0,0-.12-2.028c-5.175-5.41-10.257-3.2-10.924-2.92a1.851,1.851,0,0,0-.232.118,9.477,9.477,0,0,0-5.948,7.559,9.69,9.69,0,0,0-.057,2.145,10.511,10.511,0,0,0,.3,2.063,9.549,9.549,0,0,0,1.672,3.524,9.452,9.452,0,0,0,2.94,2.607,9.84,9.84,0,0,0,3.565,1.2,9.9,9.9,0,0,0,3.757-.235,9.057,9.057,0,0,0,3.529-1.751C2047.822-751.754,2047.025-753.561,2046.39-753.924Zm-12.808-1.516a5.837,5.837,0,0,1-.453-3.189,5.687,5.687,0,0,1,6.41-4.9,5.63,5.63,0,0,1,2.779,1.231l-.541.474Z" transform="translate(-2010.244 767.515)" fill="#fff"/></svg>