<?xml version="1.0" encoding="utf-8"?>
<!-- Generator: Adobe Illustrator 25.1.0, SVG Export Plug-In . SVG Version: 6.00 Build 0)  -->
<svg version="1.1" id="Layer_1" xmlns="http://www.w3.org/2000/svg" xmlns:xlink="http://www.w3.org/1999/xlink" x="0px" y="0px"
	 viewBox="0 0 444 80" enable-background="new 0 0 444 80" xml:space="preserve">
<g id="그룹_488" transform="translate(-902 -1013)">
	<rect id="사각형_162" x="902" y="1013" fill="#FFFFFF" width="444" height="80"/>
	<g enable-background="new    ">
		<path fill="#999999" d="M1092.69,1058.6h-7.79v6.31h-2.9v-6.31h-7.66v-2.31h18.35V1058.6z M1090.52,1054.38h-14.08v-8.98h2.88
			v2.31h8.34v-2.31h2.86V1054.38z M1087.66,1049.98h-8.34v2.09h8.34V1049.98z"/>
		<path fill="#999999" d="M1105.21,1054.68c-1.07-0.34-1.98-0.83-2.73-1.47c-0.75-0.65-1.33-1.39-1.76-2.24
			c-0.45,0.95-1.08,1.79-1.87,2.5c-0.79,0.71-1.77,1.25-2.93,1.62l-1.5-2.27c0.84-0.25,1.56-0.59,2.17-1.01
			c0.61-0.42,1.1-0.91,1.48-1.44s0.66-1.11,0.85-1.73c0.18-0.62,0.27-1.25,0.27-1.89v-1.45h2.95v1.45c0,0.6,0.09,1.19,0.26,1.77
			c0.18,0.58,0.45,1.12,0.82,1.63c0.37,0.51,0.84,0.96,1.41,1.36c0.57,0.4,1.25,0.72,2.04,0.96L1105.21,1054.68z M1112.1,1062.41
			v2.27h-13.9v-5.54h10.47v-1.12h-10.49v-2.22h13.35v5.43h-10.47v1.19H1112.1z M1108.62,1049.91h-3.7v-2.31h3.7v-2.97h2.9v10.3h-2.9
			V1049.91z"/>
		<path fill="#999999" d="M1124.4,1054.68c-0.5,0.51-1.09,0.92-1.77,1.21c-0.68,0.29-1.42,0.44-2.21,0.44
			c-0.75,0-1.44-0.13-2.09-0.4c-0.65-0.26-1.21-0.63-1.69-1.1c-0.48-0.47-0.86-1.02-1.13-1.66c-0.27-0.64-0.41-1.34-0.41-2.1
			c0-0.75,0.14-1.44,0.41-2.09c0.27-0.65,0.65-1.2,1.13-1.66s1.05-0.83,1.69-1.09c0.65-0.26,1.34-0.4,2.09-0.4
			c0.79,0,1.52,0.14,2.19,0.42c0.67,0.28,1.25,0.67,1.75,1.19h4.51v-2.82h2.9v14.83h-2.9v-4.77H1124.4z M1117.82,1051.08
			c0,0.85,0.24,1.52,0.73,2c0.49,0.48,1.1,0.73,1.86,0.73c0.75,0,1.37-0.24,1.87-0.73c0.49-0.48,0.74-1.15,0.74-2
			c0-0.84-0.25-1.5-0.74-1.98c-0.49-0.48-1.12-0.73-1.87-0.73c-0.75,0-1.37,0.24-1.86,0.73
			C1118.06,1049.58,1117.82,1050.24,1117.82,1051.08z M1132.23,1062.23v2.31h-13.82v-6.53h2.9v4.22H1132.23z M1125.58,1049.76
			c0.04,0.21,0.08,0.42,0.11,0.64c0.03,0.22,0.04,0.45,0.04,0.68c0,0.22-0.01,0.44-0.03,0.66c-0.02,0.22-0.06,0.43-0.12,0.64h3.28
			v-2.62H1125.58z"/>
		<path fill="#999999" d="M1153.39,1056.75h-7.79v8.14h-2.95v-8.14h-7.57v-2.33h12.76c0.25-1.29,0.4-2.44,0.46-3.45
			s0.09-1.96,0.09-2.84h-11.22v-2.33h14.06v1.83c0,0.95-0.02,1.97-0.07,3.05s-0.19,2.33-0.44,3.75h2.66V1056.75z"/>
		<path fill="#999999" d="M1173.65,1060.16v2.33h-18.35v-2.33h7.63v-4.53h2.9v4.53H1173.65z M1171.85,1056.27
			c-1.79-0.32-3.32-0.93-4.59-1.81s-2.23-1.96-2.89-3.22c-0.66,1.25-1.62,2.32-2.88,3.21c-1.26,0.89-2.78,1.5-4.55,1.83l-1.19-2.4
			c1.14-0.19,2.16-0.51,3.04-0.97c0.88-0.46,1.62-0.99,2.22-1.6c0.6-0.61,1.06-1.27,1.36-1.98s0.46-1.42,0.46-2.12v-1.45h3.1v1.45
			c0,0.72,0.15,1.44,0.46,2.16c0.31,0.72,0.76,1.38,1.36,1.98c0.6,0.6,1.34,1.13,2.22,1.57s1.9,0.77,3.06,0.96L1171.85,1056.27z"/>
	</g>
</g>
<g>
</g>
<g>
</g>
<g>
</g>
<g>
</g>
<g>
</g>
<g>
</g>
</svg>
