<?xml version="1.0" encoding="utf-8"?>
<!-- Generator: Adobe Illustrator 25.1.0, SVG Export Plug-In . SVG Version: 6.00 Build 0)  -->
<svg version="1.1" id="Layer_1" xmlns="http://www.w3.org/2000/svg" xmlns:xlink="http://www.w3.org/1999/xlink" x="0px" y="0px"
	 viewBox="0 0 690 142" enable-background="new 0 0 690 142" xml:space="preserve">
<g id="그룹_477" transform="translate(-60 -630)">
	<line id="선_103" fill="none" stroke="#C7C7C7" x1="406" y1="671" x2="406" y2="701"/>
	<path id="패스_194" fill="none" stroke="#C7C7C7" d="M668.25,731v-30h-526.5v29.97"/>
	<rect id="사각형_161" x="60" y="731" fill="#FFFFFF" width="163" height="41"/>
	<rect id="사각형_191" x="235" y="731" fill="#FFFFFF" width="164" height="41"/>
	<rect id="사각형_192" x="411" y="731" fill="#FFFFFF" width="164" height="41"/>
	<g enable-background="new    ">
		<path fill="#999999" d="M122.08,756.28v1.51H110.4v-1.51h4.9v-1.92h-3.56v-4.37h7.2v-1.39h-7.21v-1.47h9.03v4.3h-7.18v1.44h7.48
			v1.48h-3.91v1.92H122.08z"/>
		<path fill="#999999" d="M134.94,752.58v1.46h-11.66v-1.46h4.9v-1.02h-3.42v-4.89h1.83v1.09h5.03v-1.09h1.83v4.89h-3.43v1.02
			H134.94z M130.04,754.91c0,0.31,0.08,0.62,0.25,0.92s0.41,0.59,0.75,0.85s0.76,0.48,1.27,0.67c0.51,0.19,1.12,0.32,1.83,0.41
			l-0.63,1.41c-1.07-0.14-1.98-0.4-2.72-0.78s-1.3-0.85-1.69-1.41c-0.39,0.56-0.96,1.03-1.69,1.41s-1.64,0.64-2.72,0.78l-0.63-1.41
			c0.71-0.08,1.32-0.22,1.83-0.41c0.51-0.19,0.94-0.41,1.27-0.67s0.58-0.54,0.74-0.85s0.24-0.62,0.24-0.92v-0.21h1.89V754.91z
			 M126.6,750.12h5.03v-0.97h-5.03V750.12z"/>
		<path fill="#999999" d="M142.25,752.71c-0.32,0.33-0.69,0.58-1.13,0.77c-0.43,0.19-0.9,0.28-1.41,0.28
			c-0.48,0-0.92-0.08-1.33-0.25c-0.41-0.17-0.77-0.4-1.08-0.7c-0.31-0.3-0.55-0.65-0.72-1.06s-0.26-0.85-0.26-1.34
			c0-0.48,0.09-0.92,0.26-1.33c0.17-0.41,0.41-0.76,0.72-1.06s0.67-0.53,1.08-0.69c0.41-0.17,0.85-0.25,1.33-0.25
			c0.5,0,0.97,0.09,1.39,0.27c0.42,0.18,0.8,0.43,1.11,0.76h2.87v-1.79h1.85v9.44h-1.85v-3.04H142.25z M138.07,750.41
			c0,0.54,0.15,0.97,0.46,1.27c0.31,0.31,0.7,0.46,1.18,0.46s0.87-0.15,1.19-0.46c0.31-0.31,0.47-0.73,0.47-1.27
			c0-0.53-0.16-0.95-0.47-1.26c-0.31-0.31-0.71-0.46-1.19-0.46s-0.87,0.15-1.18,0.46C138.22,749.46,138.07,749.88,138.07,750.41z
			 M147.24,757.51v1.47h-8.79v-4.16h1.85v2.69H147.24z M143.01,749.57c0.03,0.13,0.05,0.27,0.07,0.41c0.02,0.14,0.03,0.29,0.03,0.43
			c0,0.14-0.01,0.28-0.02,0.42c-0.01,0.14-0.04,0.28-0.08,0.41h2.09v-1.67H143.01z"/>
		<path fill="#999999" d="M160.7,754.02h-4.96v5.18h-1.88v-5.18h-4.82v-1.48h8.12c0.16-0.82,0.26-1.55,0.29-2.2
			c0.04-0.64,0.06-1.25,0.06-1.81h-7.14v-1.48h8.95v1.16c0,0.61-0.01,1.25-0.04,1.94c-0.03,0.69-0.12,1.48-0.28,2.39h1.69V754.02z"
			/>
		<path fill="#999999" d="M173.6,756.19v1.48h-11.68v-1.48h4.86v-2.88h1.85v2.88H173.6z M172.45,753.72
			c-1.14-0.21-2.11-0.59-2.92-1.16c-0.81-0.56-1.42-1.25-1.84-2.05c-0.42,0.79-1.03,1.47-1.83,2.04c-0.8,0.57-1.77,0.96-2.9,1.16
			l-0.76-1.53c0.73-0.12,1.37-0.33,1.93-0.62s1.03-0.63,1.41-1.02c0.38-0.39,0.67-0.81,0.87-1.26c0.2-0.45,0.29-0.9,0.29-1.35v-0.92
			h1.97v0.92c0,0.46,0.1,0.92,0.29,1.37c0.2,0.46,0.48,0.88,0.87,1.26s0.85,0.72,1.41,1c0.56,0.29,1.21,0.49,1.95,0.61
			L172.45,753.72z"/>
	</g>
	<g enable-background="new    ">
		<path fill="#999999" d="M276.05,758.2c-0.65,0-1.27-0.12-1.85-0.35c-0.58-0.23-1.08-0.57-1.51-1.02c-0.43-0.45-0.77-1-1.02-1.67
			c-0.25-0.66-0.37-1.43-0.37-2.3c0-0.85,0.13-1.61,0.39-2.28c0.26-0.67,0.6-1.24,1.04-1.71c0.44-0.47,0.95-0.82,1.53-1.06
			c0.58-0.24,1.2-0.36,1.85-0.36c0.66,0,1.25,0.13,1.76,0.4c0.51,0.27,0.94,0.58,1.27,0.93l-1.09,1.32
			c-0.26-0.25-0.55-0.46-0.85-0.62c-0.31-0.16-0.66-0.25-1.05-0.25c-0.39,0-0.76,0.08-1.09,0.25c-0.34,0.16-0.63,0.4-0.87,0.71
			c-0.24,0.31-0.43,0.68-0.57,1.12s-0.21,0.94-0.21,1.5s0.06,1.06,0.19,1.51c0.13,0.45,0.31,0.83,0.55,1.14s0.52,0.55,0.85,0.71
			c0.33,0.16,0.7,0.25,1.11,0.25c0.45,0,0.85-0.1,1.2-0.29s0.67-0.44,0.94-0.74l1.09,1.29c-0.43,0.5-0.92,0.88-1.47,1.14
			C277.33,758.07,276.72,758.2,276.05,758.2z"/>
		<path fill="#999999" d="M284.7,758.2c-0.65,0-1.27-0.12-1.85-0.35c-0.58-0.23-1.08-0.57-1.51-1.02c-0.43-0.45-0.77-1-1.02-1.67
			c-0.25-0.66-0.37-1.43-0.37-2.3c0-0.85,0.13-1.61,0.39-2.28c0.26-0.67,0.6-1.24,1.04-1.71c0.44-0.47,0.95-0.82,1.53-1.06
			c0.58-0.24,1.2-0.36,1.85-0.36c0.66,0,1.25,0.13,1.76,0.4c0.51,0.27,0.94,0.58,1.27,0.93l-1.09,1.32
			c-0.26-0.25-0.55-0.46-0.85-0.62c-0.31-0.16-0.66-0.25-1.05-0.25c-0.39,0-0.76,0.08-1.09,0.25c-0.34,0.16-0.63,0.4-0.87,0.71
			c-0.24,0.31-0.43,0.68-0.57,1.12s-0.21,0.94-0.21,1.5s0.06,1.06,0.19,1.51c0.13,0.45,0.31,0.83,0.55,1.14s0.52,0.55,0.85,0.71
			c0.33,0.16,0.7,0.25,1.11,0.25c0.45,0,0.85-0.1,1.2-0.29s0.67-0.44,0.94-0.74l1.09,1.29c-0.43,0.5-0.92,0.88-1.47,1.14
			C285.99,758.07,285.37,758.2,284.7,758.2z"/>
		<path fill="#999999" d="M291.51,749.38h-2.91v-1.74h7.92v1.74h-2.94V758h-2.07V749.38z"/>
		<path fill="#999999" d="M296.85,747.64h2.17l1.37,5.04c0.16,0.58,0.3,1.13,0.43,1.67c0.13,0.53,0.27,1.09,0.44,1.68h0.07
			c0.16-0.59,0.31-1.15,0.44-1.68c0.14-0.53,0.28-1.09,0.44-1.67l1.34-5.04h2.1L302.48,758h-2.46L296.85,747.64z"/>
		<path fill="#999999" d="M314.93,747.91c0,0.91-0.07,1.77-0.22,2.58c-0.15,0.82-0.4,1.59-0.76,2.32c-0.35,0.73-0.83,1.41-1.44,2.04
			c-0.6,0.63-1.35,1.21-2.25,1.73l-1.08-1.29c0.64-0.37,1.2-0.77,1.67-1.2c0.47-0.43,0.86-0.89,1.18-1.37s0.56-1,0.74-1.55
			c0.17-0.55,0.29-1.14,0.34-1.78h-3.26v-1.47H314.93z M320.42,746.31v12.89h-1.78v-6.55h-1.16v6.01h-1.71v-12.01h1.71v4.52h1.16
			v-4.86H320.42z"/>
		<path fill="#999999" d="M328.79,752.53h-6.17v-5.66h1.82v1.54h2.53v-1.54h1.82V752.53z M325.72,757.68h7.03v1.43h-8.86v-3.56h6.68
			v-0.78h-6.69v-1.4h8.51v3.5h-6.66V757.68z M326.97,749.8h-2.53v1.29h2.53V749.8z M334.08,748.8v1.5h-1.69v2.56h-1.85v-6.55h1.85
			v2.49H334.08z"/>
		<path fill="#999999" d="M349.96,753.11v1.47h-11.66v-1.47h4.89v-1.08h-3.4v-5.26h1.83v1.26h5.03v-1.26h1.83v5.26h-3.44v1.08
			H349.96z M341.56,757.51h7.1v1.47h-8.95v-3.64h1.85V757.51z M341.61,750.58h5.03v-1.12h-5.03V750.58z"/>
		<path fill="#999999" d="M362.85,755.2h-4.96v4.02h-1.85v-4.02h-4.87v-1.47h11.68V755.2z M361.46,752.51h-8.96v-5.71h1.83v1.47
			h5.31v-1.47h1.82V752.51z M359.64,749.71h-5.31v1.33h5.31V749.71z"/>
	</g>
	<g enable-background="new    ">
		<path fill="#999999" d="M449.28,750.41c0,0.47-0.09,0.9-0.27,1.3c-0.18,0.4-0.42,0.75-0.74,1.04s-0.69,0.52-1.11,0.68
			c-0.42,0.16-0.88,0.25-1.38,0.25c-0.5,0-0.96-0.08-1.39-0.25c-0.43-0.16-0.8-0.39-1.11-0.68s-0.56-0.63-0.74-1.04
			s-0.27-0.83-0.27-1.3c0-0.48,0.09-0.92,0.27-1.32s0.43-0.75,0.74-1.04c0.31-0.29,0.68-0.52,1.11-0.68
			c0.43-0.16,0.89-0.25,1.39-0.25c0.49,0,0.95,0.08,1.38,0.25s0.8,0.39,1.11,0.68c0.32,0.29,0.56,0.63,0.74,1.04
			C449.19,749.5,449.28,749.94,449.28,750.41z M444.07,750.41c0,0.52,0.17,0.93,0.5,1.22c0.33,0.29,0.73,0.44,1.21,0.44
			c0.49,0,0.89-0.15,1.21-0.44s0.48-0.7,0.48-1.22c0-0.53-0.16-0.95-0.48-1.24s-0.73-0.44-1.21-0.44c-0.48,0-0.88,0.15-1.21,0.44
			C444.24,749.47,444.07,749.88,444.07,750.41z M453.11,757.51v1.47h-8.9v-4.31h1.85v2.84H453.11z M452.81,755.58h-1.88v-9.25h1.88
			V755.58z"/>
		<path fill="#999999" d="M466.6,752.08v1.46h-11.61v-1.46h4.3v-2.25h1.85v2.25H466.6z M460.72,754.35c0.7,0,1.33,0.06,1.89,0.17
			c0.56,0.11,1.04,0.27,1.44,0.48s0.71,0.47,0.92,0.77c0.21,0.3,0.32,0.64,0.32,1.02s-0.11,0.71-0.32,1.01s-0.52,0.55-0.92,0.76
			s-0.88,0.37-1.44,0.48c-0.56,0.11-1.19,0.17-1.89,0.17c-0.69,0-1.32-0.06-1.88-0.17s-1.04-0.27-1.44-0.48
			c-0.4-0.21-0.7-0.46-0.92-0.76c-0.21-0.3-0.32-0.63-0.32-1.01s0.11-0.71,0.32-1.02c0.21-0.3,0.52-0.56,0.92-0.77
			c0.4-0.21,0.88-0.37,1.44-0.48C459.4,754.4,460.03,754.35,460.72,754.35z M463.04,751.21c0.15-0.58,0.24-1.09,0.28-1.55
			c0.04-0.45,0.06-0.89,0.06-1.32h-7.08v-1.46h8.93v1.06c0,0.51-0.02,1.05-0.05,1.61c-0.03,0.56-0.14,1.17-0.31,1.83L463.04,751.21z
			 M460.72,757.82c0.88,0,1.55-0.09,2.03-0.26c0.48-0.17,0.71-0.43,0.71-0.78c0-0.35-0.24-0.62-0.71-0.79s-1.15-0.26-2.03-0.26
			c-0.88,0-1.55,0.09-2.02,0.26c-0.47,0.17-0.71,0.44-0.71,0.79c0,0.34,0.24,0.6,0.71,0.78
			C459.16,757.73,459.84,757.82,460.72,757.82z"/>
		<path fill="#999999" d="M472.83,749.78c0,0.52,0.07,1.05,0.2,1.58c0.13,0.53,0.33,1.02,0.59,1.49c0.27,0.47,0.6,0.89,0.99,1.26
			c0.4,0.37,0.87,0.67,1.41,0.9l-1.01,1.46c-0.76-0.33-1.39-0.79-1.9-1.39s-0.91-1.29-1.2-2.07c-0.29,0.85-0.69,1.61-1.21,2.27
			c-0.52,0.66-1.16,1.17-1.91,1.51l-1.05-1.47c0.54-0.24,1.01-0.56,1.41-0.97s0.73-0.85,1-1.34c0.27-0.49,0.46-1.01,0.59-1.57
			c0.13-0.56,0.2-1.11,0.2-1.66v-0.71h-2.69v-1.53h7.22v1.53h-2.66V749.78z M478.52,746.31v12.89h-1.85v-12.89H478.52z"/>
		<path fill="#999999" d="M492.4,752.08v1.47h-11.66v-1.47H492.4z M486.52,754.39c0.7,0,1.33,0.05,1.88,0.16s1.02,0.26,1.41,0.47
			c0.39,0.21,0.68,0.46,0.89,0.76s0.31,0.63,0.31,1.01c0,0.38-0.1,0.72-0.31,1.01s-0.5,0.54-0.89,0.75
			c-0.39,0.21-0.86,0.36-1.41,0.47s-1.18,0.16-1.88,0.16s-1.33-0.05-1.88-0.16s-1.02-0.26-1.4-0.47s-0.68-0.46-0.88-0.75
			s-0.31-0.63-0.31-1.01c0-0.37,0.1-0.71,0.31-1.01s0.5-0.55,0.88-0.76c0.38-0.21,0.85-0.36,1.4-0.47S485.82,754.39,486.52,754.39z
			 M491.1,750.99h-8.9v-4.45h1.85v2.98h7.06V750.99z M486.53,757.76c1.73,0,2.6-0.33,2.6-0.98s-0.87-0.98-2.6-0.98
			s-2.6,0.33-2.6,0.98S484.79,757.76,486.53,757.76z"/>
		<path fill="#999999" d="M499.17,747.91c0,0.91-0.07,1.77-0.22,2.58s-0.4,1.59-0.76,2.32c-0.35,0.73-0.83,1.41-1.44,2.04
			c-0.6,0.63-1.35,1.21-2.25,1.73l-1.08-1.29c0.64-0.37,1.2-0.77,1.67-1.2c0.47-0.43,0.86-0.89,1.18-1.37s0.56-1,0.74-1.55
			c0.17-0.55,0.29-1.14,0.34-1.78h-3.26v-1.47H499.17z M504.66,746.31v12.89h-1.78v-6.55h-1.16v6.01h-1.71v-12.01h1.71v4.52h1.16
			v-4.86H504.66z"/>
		<path fill="#999999" d="M513.03,752.53h-6.17v-5.66h1.82v1.54h2.53v-1.54h1.82V752.53z M509.97,757.68H517v1.43h-8.86v-3.56h6.68
			v-0.78h-6.69v-1.4h8.51v3.5h-6.66V757.68z M511.21,749.8h-2.53v1.29h2.53V749.8z M518.33,748.8v1.5h-1.69v2.56h-1.85v-6.55h1.85
			v2.49H518.33z"/>
		<path fill="#999999" d="M524.63,754c-0.5-0.24-0.93-0.56-1.26-0.94c-0.34-0.38-0.61-0.82-0.81-1.3c-0.23,0.55-0.54,1.05-0.92,1.48
			c-0.38,0.44-0.86,0.79-1.43,1.06l-1.01-1.4c0.44-0.21,0.81-0.48,1.12-0.78c0.31-0.31,0.56-0.64,0.76-1
			c0.2-0.36,0.34-0.74,0.43-1.13c0.09-0.39,0.13-0.78,0.13-1.16v-1.65h1.78v1.65c0,0.38,0.04,0.76,0.12,1.12
			c0.08,0.36,0.21,0.71,0.38,1.03c0.18,0.32,0.41,0.62,0.69,0.9c0.28,0.28,0.63,0.51,1.03,0.71L524.63,754z M530.66,757.51v1.47
			h-8.99v-4.14h1.83v2.67H530.66z M526.03,750.75h-1.53v-1.5h1.53v-2.72h1.71v9.04h-1.71V750.75z M530.34,755.96h-1.74v-9.65h1.74
			V755.96z"/>
		<path fill="#999999" d="M534.66,754.82c0.87-0.01,1.67-0.04,2.42-0.08c0.75-0.04,1.52-0.13,2.31-0.26l0.17,1.48
			c-0.47,0.08-0.92,0.13-1.37,0.17c-0.45,0.04-0.9,0.08-1.36,0.1s-0.93,0.04-1.41,0.05c-0.49,0.01-1,0.01-1.54,0.01h-1.05v-8.92
			h5.96v1.48h-4.13v2.1h3.7v1.44h-3.7V754.82z M543.06,746.3v12.94h-1.85v-6.9H539v-1.48h2.21v-4.55H543.06z"/>
	</g>
	<rect id="사각형_162" x="587" y="731" fill="#FFFFFF" width="163" height="41"/>
	<g enable-background="new    ">
		<path fill="#999999" d="M628.6,749.73c0,0.54,0.04,1.08,0.13,1.6c0.08,0.53,0.22,1.03,0.42,1.5c0.2,0.48,0.45,0.91,0.77,1.31
			c0.32,0.4,0.71,0.73,1.18,1l-1.08,1.34c-0.58-0.34-1.05-0.77-1.42-1.32c-0.37-0.54-0.66-1.15-0.87-1.83
			c-0.22,0.74-0.52,1.41-0.91,2.01c-0.38,0.6-0.87,1.08-1.45,1.45l-1.09-1.36c0.47-0.3,0.86-0.66,1.19-1.09
			c0.33-0.42,0.59-0.89,0.79-1.39c0.2-0.5,0.35-1.03,0.43-1.58c0.09-0.55,0.13-1.11,0.13-1.66v-0.63h-2.07v-1.5h5.74v1.5h-1.89
			V749.73z M631.23,746.52h1.71v12.1h-1.71v-6.41h-1.64v-1.5h1.64V746.52z M635.57,746.3v12.89h-1.74V746.3H635.57z"/>
		<path fill="#999999" d="M644.15,753.81v1.05h3.51v4.2h-8.9v-4.2h3.54v-1.05h-4.9v-1.47h11.65v1.47H644.15z M640.06,748.13h-1.64
			v-1.47h9.59v1.47h-1.64v1.95h1.54v1.47h-9.41v-1.47h1.55V748.13z M645.84,756.31h-5.28v1.3h5.28V756.31z M644.54,748.13h-2.65
			v1.95h2.65V748.13z"/>
		<path fill="#999999" d="M655.85,747.91c0,0.91-0.07,1.77-0.22,2.58s-0.4,1.59-0.76,2.32c-0.35,0.73-0.83,1.41-1.44,2.04
			c-0.6,0.63-1.35,1.21-2.25,1.73l-1.08-1.29c0.64-0.37,1.2-0.77,1.67-1.2c0.47-0.43,0.86-0.89,1.18-1.37s0.56-1,0.74-1.55
			c0.17-0.55,0.29-1.14,0.34-1.78h-3.26v-1.47H655.85z M661.34,746.31v12.89h-1.78v-6.55h-1.16v6.01h-1.71v-12.01h1.71v4.52h1.16
			v-4.86H661.34z"/>
		<path fill="#999999" d="M669.71,752.53h-6.17v-5.66h1.82v1.54h2.53v-1.54h1.82V752.53z M666.65,757.68h7.03v1.43h-8.86v-3.56h6.68
			v-0.78h-6.69v-1.4h8.51v3.5h-6.66V757.68z M667.89,749.8h-2.53v1.29h2.53V749.8z M675.01,748.8v1.5h-1.69v2.56h-1.85v-6.55h1.85
			v2.49H675.01z"/>
		<path fill="#999999" d="M683.24,750.41c0,0.47-0.09,0.9-0.27,1.3c-0.18,0.4-0.42,0.75-0.74,1.04s-0.69,0.52-1.11,0.68
			c-0.42,0.16-0.88,0.25-1.38,0.25c-0.5,0-0.96-0.08-1.39-0.25c-0.43-0.16-0.8-0.39-1.11-0.68s-0.56-0.63-0.74-1.04
			s-0.27-0.83-0.27-1.3c0-0.48,0.09-0.92,0.27-1.32s0.43-0.75,0.74-1.04c0.31-0.29,0.68-0.52,1.11-0.68
			c0.43-0.16,0.89-0.25,1.39-0.25c0.49,0,0.95,0.08,1.38,0.25s0.8,0.39,1.11,0.68c0.32,0.29,0.56,0.63,0.74,1.04
			C683.15,749.5,683.24,749.94,683.24,750.41z M678.03,750.41c0,0.52,0.17,0.93,0.5,1.22c0.33,0.29,0.73,0.44,1.21,0.44
			c0.49,0,0.89-0.15,1.21-0.44s0.48-0.7,0.48-1.22c0-0.53-0.16-0.95-0.48-1.24s-0.73-0.44-1.21-0.44c-0.48,0-0.88,0.15-1.21,0.44
			C678.2,749.47,678.03,749.88,678.03,750.41z M687.07,757.51v1.47h-8.9v-4.31h1.85v2.84H687.07z M686.77,755.58h-1.88v-9.25h1.88
			V755.58z"/>
		<path fill="#999999" d="M700.57,752.26v1.46h-11.65v-1.46H700.57z M689.43,750.33c0.61-0.06,1.14-0.15,1.61-0.27
			s0.86-0.27,1.19-0.45c0.33-0.17,0.59-0.36,0.78-0.57c0.2-0.21,0.33-0.43,0.41-0.65h-3.43v-1.47h9.53v1.47h-3.44
			c0.07,0.22,0.21,0.44,0.41,0.65c0.2,0.21,0.46,0.4,0.78,0.57c0.33,0.17,0.72,0.32,1.19,0.45s1.01,0.22,1.62,0.27l-0.64,1.44
			c-1.22-0.11-2.23-0.38-3.01-0.8s-1.34-0.94-1.68-1.55c-0.35,0.62-0.91,1.13-1.69,1.55c-0.78,0.42-1.79,0.69-3.01,0.8
			L689.43,750.33z M694.72,754.42c0.7,0,1.33,0.05,1.88,0.16s1.02,0.26,1.41,0.47s0.68,0.46,0.89,0.76c0.21,0.3,0.31,0.63,0.31,1.01
			c0,0.38-0.1,0.72-0.31,1.02c-0.21,0.3-0.5,0.55-0.89,0.76s-0.86,0.36-1.41,0.47s-1.18,0.16-1.88,0.16c-0.7,0-1.33-0.05-1.88-0.16
			s-1.02-0.26-1.4-0.47c-0.38-0.21-0.68-0.46-0.88-0.76c-0.21-0.3-0.31-0.64-0.31-1.02c0-0.37,0.1-0.71,0.31-1.01
			c0.21-0.3,0.5-0.55,0.88-0.76c0.38-0.21,0.85-0.36,1.4-0.47S694.02,754.42,694.72,754.42z M694.72,757.79
			c1.73,0,2.6-0.33,2.6-0.98c0-0.34-0.22-0.58-0.65-0.73c-0.43-0.15-1.08-0.23-1.95-0.23c-0.87,0-1.51,0.08-1.95,0.23
			c-0.43,0.15-0.65,0.4-0.65,0.73C692.13,757.46,692.99,757.79,694.72,757.79z"/>
		<path fill="#999999" d="M709.75,753.06c-0.46,0.08-0.91,0.13-1.35,0.18c-0.44,0.04-0.91,0.07-1.39,0.1s-1,0.04-1.55,0.05
			c-0.56,0.01-1.17,0.01-1.85,0.01h-1.11v-6.34h6.2v1.46h-4.37v0.98h3.99v1.43h-3.99v1.02c0.56,0,1.07-0.01,1.53-0.02
			s0.9-0.03,1.32-0.05c0.42-0.02,0.82-0.05,1.21-0.09c0.39-0.04,0.78-0.09,1.18-0.15L709.75,753.06z M703.93,754.5h8.6v4.56h-8.6
			V754.5z M705.75,757.61h4.96v-1.67h-4.96V757.61z M712.53,746.32v7.64h-1.88v-7.64H712.53z"/>
	</g>
	<line id="선_111" fill="none" stroke="#C7C7C7" x1="317.25" y1="701" x2="317.25" y2="731"/>
	<line id="선_126" fill="none" stroke="#C7C7C7" x1="492.75" y1="701" x2="492.75" y2="731"/>
	<rect id="사각형_158" x="296" y="630" fill="#1F98D5" width="218" height="41"/>
	<g enable-background="new    ">
		<path fill="#FFFFFF" d="M385.08,653.2h-4.96v4.02h-1.85v-4.02h-4.87v-1.47h11.68V653.2z M383.69,650.51h-8.96v-5.71h1.83v1.47
			h5.31v-1.47h1.82V650.51z M381.87,647.71h-5.31v1.33h5.31V647.71z"/>
		<path fill="#FFFFFF" d="M393.04,650.71c-0.68-0.21-1.26-0.53-1.74-0.94c-0.48-0.41-0.85-0.89-1.12-1.43
			c-0.29,0.61-0.69,1.14-1.19,1.59c-0.5,0.45-1.12,0.8-1.86,1.03l-0.95-1.44c0.53-0.16,0.99-0.37,1.38-0.64s0.7-0.58,0.95-0.92
			c0.24-0.34,0.42-0.71,0.54-1.1c0.12-0.39,0.17-0.79,0.17-1.2v-0.92h1.88v0.92c0,0.38,0.06,0.76,0.17,1.13
			c0.11,0.37,0.29,0.71,0.52,1.04c0.24,0.32,0.54,0.61,0.9,0.87c0.36,0.26,0.79,0.46,1.3,0.61L393.04,650.71z M397.43,655.62v1.44
			h-8.85v-3.53h6.66v-0.71h-6.68v-1.41h8.5v3.46h-6.66v0.76H397.43z M395.21,647.67h-2.35v-1.47h2.35v-1.89h1.85v6.55h-1.85V647.67z
			"/>
		<path fill="#FFFFFF" d="M405.25,650.71c-0.32,0.33-0.69,0.58-1.13,0.77c-0.43,0.19-0.9,0.28-1.41,0.28
			c-0.48,0-0.92-0.08-1.33-0.25c-0.41-0.17-0.77-0.4-1.08-0.7c-0.31-0.3-0.55-0.65-0.72-1.06s-0.26-0.85-0.26-1.34
			c0-0.48,0.09-0.92,0.26-1.33c0.17-0.41,0.41-0.76,0.72-1.06s0.67-0.53,1.08-0.69c0.41-0.17,0.85-0.25,1.33-0.25
			c0.5,0,0.97,0.09,1.39,0.27c0.42,0.18,0.8,0.43,1.11,0.76h2.87v-1.79h1.85v9.44h-1.85v-3.04H405.25z M401.07,648.41
			c0,0.54,0.15,0.97,0.46,1.27c0.31,0.31,0.7,0.46,1.18,0.46s0.87-0.15,1.19-0.46c0.31-0.31,0.47-0.73,0.47-1.27
			c0-0.53-0.16-0.95-0.47-1.26c-0.31-0.31-0.71-0.46-1.19-0.46s-0.87,0.15-1.18,0.46C401.22,647.46,401.07,647.88,401.07,648.41z
			 M410.24,655.51v1.47h-8.79v-4.16h1.85v2.69H410.24z M406.01,647.57c0.03,0.13,0.05,0.27,0.07,0.41c0.02,0.14,0.03,0.29,0.03,0.43
			c0,0.14-0.01,0.28-0.02,0.42s-0.04,0.28-0.08,0.41h2.08v-1.67H406.01z"/>
		<path fill="#FFFFFF" d="M423.7,652.02h-4.96v5.18h-1.88v-5.18h-4.82v-1.48h8.12c0.16-0.82,0.26-1.55,0.29-2.2
			c0.04-0.64,0.06-1.25,0.06-1.81h-7.14v-1.48h8.95v1.16c0,0.61-0.01,1.25-0.04,1.94c-0.03,0.69-0.12,1.48-0.28,2.39h1.69V652.02z"
			/>
		<path fill="#FFFFFF" d="M436.6,654.19v1.48h-11.68v-1.48h4.86v-2.88h1.85v2.88H436.6z M435.45,651.72
			c-1.14-0.21-2.11-0.59-2.92-1.16c-0.81-0.56-1.42-1.25-1.84-2.05c-0.42,0.79-1.03,1.47-1.83,2.04c-0.8,0.57-1.77,0.96-2.9,1.16
			l-0.76-1.53c0.73-0.12,1.37-0.33,1.93-0.62c0.56-0.29,1.03-0.63,1.41-1.02c0.38-0.39,0.67-0.81,0.87-1.26
			c0.2-0.45,0.29-0.9,0.29-1.35v-0.92h1.97v0.92c0,0.46,0.1,0.92,0.29,1.37c0.2,0.46,0.48,0.88,0.87,1.26s0.85,0.72,1.41,1
			c0.56,0.29,1.21,0.49,1.95,0.61L435.45,651.72z"/>
	</g>
</g>
</svg>
