<?xml version="1.0" encoding="utf-8"?>
<!-- Generator: Adobe Illustrator 25.1.0, SVG Export Plug-In . SVG Version: 6.00 Build 0)  -->
<svg version="1.1" id="Layer_1" xmlns="http://www.w3.org/2000/svg" xmlns:xlink="http://www.w3.org/1999/xlink" x="0px" y="0px"
	 viewBox="0 0 1380 218" enable-background="new 0 0 1380 218" xml:space="preserve">
<g>
	<line id="선_103" fill="none" stroke="#C7C7C7" x1="690" y1="54" x2="690" y2="104"/>
	<path id="패스_194" fill="none" stroke="#C7C7C7" d="M1216.5,164v-60h-1053v59.94"/>
	<rect id="사각형_161" y="164" fill="#FFFFFF" width="327" height="54"/>
	<rect id="사각형_191" x="351" y="164" fill="#FFFFFF" width="327" height="54"/>
	<rect id="사각형_192" x="702" y="164" fill="#FFFFFF" width="327" height="54"/>
	<g enable-background="new    ">
		<path fill="#999999" d="M138.39,196.79v1.94h-15.01v-1.94h6.3v-2.47h-4.57v-5.62h9.25v-1.78h-9.27v-1.89h11.61v5.53h-9.23v1.85
			h9.61v1.91h-5.02v2.47H138.39z"/>
		<path fill="#999999" d="M154.93,192.03v1.87h-14.99v-1.87h6.3v-1.31h-4.39v-6.28h2.36v1.4h6.46v-1.4h2.36v6.28h-4.41v1.31H154.93z
			 M148.63,195.02c0,0.4,0.1,0.79,0.32,1.19c0.21,0.4,0.53,0.76,0.96,1.09s0.98,0.62,1.64,0.86c0.66,0.24,1.45,0.41,2.36,0.52
			l-0.81,1.82c-1.38-0.18-2.54-0.51-3.49-1c-0.95-0.49-1.67-1.09-2.18-1.81c-0.5,0.72-1.23,1.32-2.18,1.81
			c-0.95,0.49-2.11,0.82-3.49,1l-0.81-1.82c0.91-0.11,1.7-0.28,2.36-0.52c0.66-0.24,1.21-0.53,1.64-0.86
			c0.43-0.33,0.75-0.69,0.95-1.09c0.2-0.4,0.31-0.79,0.31-1.19v-0.27h2.43V195.02z M144.2,188.87h6.46v-1.24h-6.46V188.87z"/>
		<path fill="#999999" d="M164.32,192.2c-0.41,0.42-0.89,0.75-1.45,0.99c-0.56,0.24-1.16,0.36-1.81,0.36
			c-0.61,0-1.18-0.11-1.71-0.32c-0.53-0.22-0.99-0.52-1.39-0.9s-0.71-0.84-0.93-1.36c-0.22-0.52-0.33-1.09-0.33-1.72
			c0-0.61,0.11-1.18,0.33-1.71c0.22-0.53,0.53-0.98,0.93-1.36s0.86-0.67,1.39-0.89c0.53-0.22,1.1-0.32,1.71-0.32
			c0.65,0,1.24,0.11,1.79,0.34c0.55,0.23,1.02,0.55,1.43,0.97h3.69v-2.3h2.38v12.13h-2.38v-3.91H164.32z M158.94,189.24
			c0,0.7,0.2,1.24,0.6,1.64c0.4,0.4,0.9,0.59,1.52,0.59s1.12-0.2,1.53-0.59c0.4-0.4,0.61-0.94,0.61-1.64c0-0.68-0.2-1.22-0.61-1.62
			c-0.4-0.4-0.91-0.59-1.53-0.59s-1.12,0.2-1.52,0.59C159.14,188.02,158.94,188.56,158.94,189.24z M170.73,198.37v1.89h-11.3v-5.35
			h2.38v3.46H170.73z M165.3,188.16c0.04,0.17,0.07,0.34,0.09,0.52c0.02,0.18,0.04,0.37,0.04,0.56c0,0.18-0.01,0.36-0.03,0.54
			c-0.02,0.18-0.05,0.35-0.1,0.52h2.68v-2.14H165.3z"/>
		<path fill="#999999" d="M188.05,193.89h-6.37v6.66h-2.41v-6.66h-6.19v-1.91h10.44c0.2-1.06,0.33-2,0.38-2.83s0.07-1.6,0.07-2.32
			h-9.18v-1.91h11.5v1.49c0,0.78-0.02,1.61-0.05,2.49c-0.04,0.88-0.16,1.91-0.36,3.07h2.18V193.89z"/>
		<path fill="#999999" d="M204.63,196.68v1.91h-15.01v-1.91h6.25v-3.71h2.38v3.71H204.63z M203.15,193.49
			c-1.46-0.26-2.72-0.76-3.75-1.49c-1.04-0.73-1.83-1.6-2.37-2.64c-0.54,1.02-1.33,1.9-2.36,2.63c-1.03,0.73-2.27,1.23-3.73,1.49
			l-0.97-1.96c0.94-0.16,1.76-0.42,2.48-0.79c0.72-0.37,1.33-0.81,1.82-1.31c0.49-0.5,0.86-1.04,1.12-1.62
			c0.25-0.58,0.38-1.16,0.38-1.74v-1.19h2.54v1.19c0,0.59,0.13,1.18,0.38,1.76s0.62,1.13,1.12,1.62s1.1,0.92,1.82,1.29
			c0.72,0.37,1.55,0.63,2.5,0.78L203.15,193.49z"/>
	</g>
	<g enable-background="new    ">
		<path fill="#999999" d="M462.35,199.25c-0.84,0-1.63-0.15-2.38-0.45c-0.74-0.3-1.39-0.74-1.94-1.31s-0.99-1.29-1.3-2.14
			c-0.32-0.85-0.48-1.84-0.48-2.95c0-1.09,0.16-2.07,0.49-2.93s0.78-1.6,1.34-2.2c0.56-0.6,1.22-1.06,1.97-1.37
			c0.75-0.31,1.54-0.47,2.39-0.47c0.85,0,1.61,0.17,2.27,0.51c0.66,0.34,1.21,0.74,1.64,1.2l-1.4,1.69c-0.34-0.32-0.7-0.59-1.1-0.8
			s-0.85-0.32-1.35-0.32c-0.5,0-0.97,0.11-1.4,0.32s-0.8,0.51-1.12,0.91c-0.31,0.4-0.56,0.88-0.74,1.44
			c-0.18,0.56-0.27,1.21-0.27,1.93c0,0.72,0.08,1.37,0.24,1.94s0.4,1.07,0.7,1.47c0.31,0.4,0.67,0.71,1.1,0.92s0.9,0.32,1.43,0.32
			c0.58,0,1.09-0.12,1.54-0.37c0.45-0.25,0.85-0.56,1.21-0.95l1.4,1.66c-0.55,0.65-1.18,1.14-1.89,1.47
			C464,199.09,463.21,199.25,462.35,199.25z"/>
		<path fill="#999999" d="M473.47,199.25c-0.84,0-1.63-0.15-2.38-0.45c-0.74-0.3-1.39-0.74-1.94-1.31s-0.99-1.29-1.3-2.14
			c-0.32-0.85-0.48-1.84-0.48-2.95c0-1.09,0.16-2.07,0.49-2.93s0.78-1.6,1.34-2.2c0.56-0.6,1.22-1.06,1.97-1.37
			c0.75-0.31,1.54-0.47,2.39-0.47c0.85,0,1.61,0.17,2.27,0.51c0.66,0.34,1.21,0.74,1.64,1.2l-1.4,1.69c-0.34-0.32-0.7-0.59-1.1-0.8
			s-0.85-0.32-1.35-0.32c-0.5,0-0.97,0.11-1.4,0.32s-0.8,0.51-1.12,0.91c-0.31,0.4-0.56,0.88-0.74,1.44
			c-0.18,0.56-0.27,1.21-0.27,1.93c0,0.72,0.08,1.37,0.24,1.94s0.4,1.07,0.7,1.47c0.31,0.4,0.67,0.71,1.1,0.92s0.9,0.32,1.43,0.32
			c0.58,0,1.09-0.12,1.54-0.37c0.45-0.25,0.85-0.56,1.21-0.95l1.4,1.66c-0.55,0.65-1.18,1.14-1.89,1.47
			C475.12,199.09,474.34,199.25,473.47,199.25z"/>
		<path fill="#999999" d="M482.22,187.91h-3.74v-2.23h10.19v2.23h-3.78V199h-2.66V187.91z"/>
		<path fill="#999999" d="M489.1,185.68h2.79l1.76,6.48c0.2,0.74,0.39,1.46,0.55,2.14c0.16,0.68,0.35,1.4,0.57,2.16h0.09
			c0.2-0.76,0.39-1.48,0.57-2.16c0.17-0.68,0.36-1.4,0.57-2.14l1.73-6.48h2.7L496.33,199h-3.17L489.1,185.68z"/>
		<path fill="#999999" d="M512.34,186.02c0,1.16-0.1,2.27-0.29,3.32c-0.19,1.05-0.52,2.04-0.97,2.98c-0.46,0.94-1.07,1.81-1.85,2.62
			c-0.77,0.81-1.74,1.55-2.89,2.22l-1.39-1.66c0.83-0.48,1.54-1,2.14-1.55c0.6-0.55,1.1-1.14,1.51-1.76c0.41-0.62,0.72-1.29,0.95-2
			c0.22-0.71,0.37-1.47,0.44-2.29h-4.19v-1.89H512.34z M519.39,183.97v16.58h-2.29v-8.42h-1.49v7.72h-2.2V184.4h2.2v5.81h1.49v-6.25
			H519.39z"/>
		<path fill="#999999" d="M530.16,191.96h-7.94v-7.27h2.34v1.98h3.26v-1.98h2.34V191.96z M526.21,198.59h9.04v1.84h-11.39v-4.57
			h8.59v-1.01h-8.6v-1.8h10.94v4.5h-8.57V198.59z M527.82,188.45h-3.26v1.66h3.26V188.45z M536.96,187.17v1.93h-2.18v3.29h-2.38
			v-8.42h2.38v3.2H536.96z"/>
		<path fill="#999999" d="M557.37,192.72v1.89h-14.99v-1.89h6.28v-1.39h-4.37v-6.77h2.36v1.62h6.46v-1.62h2.36v6.77h-4.43v1.39
			H557.37z M546.57,198.37h9.13v1.89h-11.5v-4.68h2.38V198.37z M546.64,189.46h6.46v-1.44h-6.46V189.46z"/>
		<path fill="#999999" d="M573.95,195.4h-6.37v5.17h-2.38v-5.17h-6.26v-1.89h15.01V195.4z M572.17,191.94h-11.52v-7.34h2.36v1.89
			h6.82v-1.89h2.34V191.94z M569.83,188.34h-6.82v1.71h6.82V188.34z"/>
	</g>
	<g enable-background="new    ">
		<path fill="#999999" d="M809.79,189.24c0,0.6-0.11,1.16-0.34,1.67c-0.23,0.52-0.55,0.96-0.95,1.33c-0.41,0.37-0.89,0.66-1.43,0.87
			s-1.14,0.32-1.77,0.32c-0.64,0-1.23-0.11-1.78-0.32s-1.03-0.5-1.43-0.87c-0.4-0.37-0.72-0.82-0.95-1.33
			c-0.23-0.52-0.35-1.07-0.35-1.67c0-0.61,0.12-1.18,0.35-1.69c0.23-0.52,0.55-0.96,0.95-1.33c0.4-0.37,0.88-0.66,1.43-0.87
			s1.15-0.31,1.78-0.31c0.64,0,1.23,0.1,1.77,0.31s1.02,0.5,1.43,0.87c0.41,0.37,0.73,0.82,0.95,1.33
			C809.67,188.07,809.79,188.63,809.79,189.24z M803.09,189.24c0,0.67,0.21,1.2,0.64,1.58c0.43,0.38,0.94,0.57,1.56,0.57
			c0.62,0,1.14-0.19,1.56-0.57s0.62-0.9,0.62-1.58c0-0.68-0.21-1.21-0.62-1.59s-0.93-0.57-1.56-0.57c-0.61,0-1.13,0.19-1.56,0.57
			C803.3,188.03,803.09,188.56,803.09,189.24z M814.72,198.37v1.89h-11.45v-5.54h2.38v3.65H814.72z M814.32,195.89h-2.41v-11.9h2.41
			V195.89z"/>
		<path fill="#999999" d="M832.05,191.39v1.87h-14.92v-1.87h5.53v-2.9h2.38v2.9H832.05z M824.49,194.3c0.9,0,1.71,0.07,2.43,0.22
			c0.72,0.14,1.34,0.35,1.85,0.62c0.52,0.27,0.91,0.6,1.19,0.99c0.28,0.39,0.41,0.83,0.41,1.3c0,0.48-0.14,0.91-0.41,1.3
			c-0.28,0.38-0.67,0.71-1.19,0.98c-0.52,0.27-1.13,0.48-1.85,0.62s-1.53,0.22-2.43,0.22c-0.89,0-1.7-0.07-2.42-0.22
			c-0.73-0.14-1.34-0.35-1.85-0.62c-0.51-0.27-0.9-0.6-1.18-0.98c-0.28-0.38-0.41-0.82-0.41-1.3c0-0.48,0.14-0.91,0.41-1.3
			c0.28-0.39,0.67-0.72,1.18-0.99c0.51-0.27,1.13-0.48,1.85-0.62C822.8,194.37,823.6,194.3,824.49,194.3z M827.48,190.27
			c0.19-0.74,0.31-1.41,0.36-1.99s0.07-1.15,0.07-1.7h-9.11v-1.87h11.48v1.37c0,0.66-0.02,1.35-0.06,2.07
			c-0.04,0.72-0.18,1.51-0.4,2.36L827.48,190.27z M824.49,198.77c1.13,0,2-0.11,2.61-0.33c0.61-0.22,0.92-0.55,0.92-1
			c0-0.46-0.31-0.79-0.92-1.02c-0.61-0.22-1.48-0.33-2.61-0.33s-2,0.11-2.6,0.33c-0.61,0.22-0.91,0.56-0.91,1.02
			c0,0.44,0.3,0.78,0.91,1C822.5,198.66,823.36,198.77,824.49,198.77z"/>
		<path fill="#999999" d="M840.06,188.43c0,0.67,0.08,1.35,0.25,2.03c0.17,0.68,0.42,1.32,0.76,1.92c0.34,0.6,0.77,1.14,1.28,1.62
			c0.51,0.48,1.11,0.86,1.81,1.15l-1.3,1.87c-0.97-0.42-1.79-1.01-2.44-1.78c-0.65-0.77-1.17-1.66-1.54-2.66
			c-0.37,1.09-0.89,2.06-1.56,2.92c-0.67,0.85-1.48,1.5-2.46,1.94l-1.35-1.89c0.7-0.31,1.3-0.73,1.82-1.24
			c0.52-0.52,0.95-1.09,1.29-1.72c0.34-0.63,0.6-1.3,0.77-2.02c0.17-0.71,0.25-1.42,0.25-2.13v-0.92h-3.46v-1.96h9.29v1.96h-3.42
			V188.43z M847.39,183.97v16.58h-2.38v-16.58H847.39z"/>
		<path fill="#999999" d="M865.23,191.39v1.89h-14.99v-1.89H865.23z M857.67,194.36c0.9,0,1.7,0.07,2.41,0.21
			c0.71,0.14,1.31,0.34,1.81,0.6s0.88,0.59,1.14,0.97c0.26,0.38,0.4,0.82,0.4,1.3c0,0.49-0.13,0.93-0.4,1.31
			c-0.26,0.38-0.64,0.7-1.14,0.96c-0.5,0.26-1.1,0.46-1.81,0.6c-0.71,0.14-1.51,0.21-2.41,0.21c-0.9,0-1.7-0.07-2.41-0.21
			s-1.31-0.34-1.8-0.6c-0.49-0.26-0.87-0.58-1.13-0.96c-0.26-0.38-0.4-0.81-0.4-1.31c0-0.48,0.13-0.91,0.4-1.3
			c0.26-0.38,0.64-0.71,1.13-0.97c0.49-0.26,1.09-0.46,1.8-0.6C855.96,194.42,856.77,194.36,857.67,194.36z M863.55,189.98H852.1
			v-5.72h2.38v3.83h9.07V189.98z M857.67,198.69c2.23,0,3.34-0.42,3.34-1.26c0-0.84-1.11-1.26-3.34-1.26
			c-2.23,0-3.34,0.42-3.34,1.26C854.34,198.27,855.45,198.69,857.67,198.69z"/>
		<path fill="#999999" d="M873.94,186.02c0,1.16-0.1,2.27-0.29,3.32c-0.19,1.05-0.52,2.04-0.97,2.98c-0.46,0.94-1.07,1.81-1.84,2.62
			c-0.77,0.81-1.74,1.55-2.89,2.22l-1.39-1.66c0.83-0.48,1.54-1,2.14-1.55c0.6-0.55,1.1-1.14,1.51-1.76c0.41-0.62,0.72-1.29,0.95-2
			c0.22-0.71,0.37-1.47,0.44-2.29h-4.19v-1.89H873.94z M880.99,183.97v16.58h-2.29v-8.42h-1.49v7.72h-2.2V184.4h2.2v5.81h1.49v-6.25
			H880.99z"/>
		<path fill="#999999" d="M891.76,191.96h-7.94v-7.27h2.34v1.98h3.26v-1.98h2.34V191.96z M887.82,198.59h9.04v1.84h-11.39v-4.57
			h8.59v-1.01h-8.6v-1.8h10.94v4.5h-8.57V198.59z M889.42,188.45h-3.26v1.66h3.26V188.45z M898.56,187.17v1.93h-2.18v3.29h-2.38
			v-8.42h2.38v3.2H898.56z"/>
		<path fill="#999999" d="M906.66,193.85c-0.65-0.31-1.19-0.71-1.63-1.21c-0.44-0.49-0.79-1.05-1.05-1.67
			c-0.3,0.71-0.69,1.34-1.18,1.91c-0.49,0.56-1.1,1.02-1.83,1.37l-1.3-1.8c0.56-0.28,1.04-0.61,1.44-1.01
			c0.4-0.4,0.72-0.83,0.97-1.29s0.43-0.95,0.55-1.45s0.17-1,0.17-1.49v-2.12h2.29v2.12c0,0.49,0.05,0.97,0.15,1.44
			c0.1,0.47,0.27,0.91,0.5,1.32c0.23,0.41,0.52,0.8,0.89,1.15c0.37,0.35,0.81,0.66,1.32,0.91L906.66,193.85z M914.42,198.37v1.89
			h-11.56v-5.33h2.36v3.44H914.42z M908.46,189.68h-1.96v-1.93h1.96v-3.49h2.2v11.63h-2.2V189.68z M914.01,196.37h-2.23v-12.4h2.23
			V196.37z"/>
		<path fill="#999999" d="M919.57,194.91c1.12-0.01,2.15-0.04,3.11-0.1c0.96-0.05,1.95-0.17,2.97-0.33l0.22,1.91
			c-0.6,0.1-1.19,0.17-1.76,0.23c-0.58,0.05-1.16,0.1-1.75,0.13c-0.59,0.03-1.19,0.05-1.82,0.06c-0.62,0.01-1.28,0.02-1.98,0.02
			h-1.35v-11.47h7.67v1.91h-5.31v2.7h4.75v1.85h-4.75V194.91z M930.37,183.95v16.63h-2.38v-8.87h-2.84v-1.91h2.84v-5.85H930.37z"/>
	</g>
	<rect id="사각형_162" x="1053" y="164" fill="#FFFFFF" width="327" height="54"/>
	<g enable-background="new    ">
		<path fill="#999999" d="M1165.05,188.36c0,0.7,0.05,1.38,0.16,2.06c0.11,0.68,0.29,1.32,0.54,1.94c0.25,0.61,0.58,1.17,0.99,1.68
			s0.91,0.94,1.51,1.29l-1.39,1.73c-0.74-0.43-1.35-1-1.82-1.69s-0.84-1.48-1.12-2.36c-0.29,0.95-0.67,1.81-1.16,2.58
			c-0.49,0.77-1.11,1.4-1.87,1.86l-1.4-1.75c0.6-0.38,1.11-0.85,1.53-1.4c0.42-0.55,0.76-1.14,1.02-1.78
			c0.26-0.64,0.44-1.32,0.56-2.03c0.11-0.71,0.17-1.42,0.17-2.13v-0.81h-2.66v-1.93h7.38v1.93h-2.43V188.36z M1168.44,184.24h2.2
			v15.55h-2.2v-8.24h-2.11v-1.93h2.11V184.24z M1174.02,183.95v16.58h-2.23v-16.58H1174.02z"/>
		<path fill="#999999" d="M1185.05,193.62v1.35h4.52v5.4h-11.45v-5.4h4.55v-1.35h-6.3v-1.89h14.98v1.89H1185.05z M1179.79,186.31
			h-2.11v-1.89h12.33v1.89h-2.11v2.5h1.98v1.89h-12.1v-1.89h2V186.31z M1187.23,196.82h-6.79v1.67h6.79V196.82z M1185.55,186.31
			h-3.4v2.5h3.4V186.31z"/>
		<path fill="#999999" d="M1200.1,186.02c0,1.16-0.1,2.27-0.29,3.32c-0.19,1.05-0.52,2.04-0.97,2.98c-0.46,0.94-1.07,1.81-1.84,2.62
			c-0.77,0.81-1.74,1.55-2.89,2.22l-1.38-1.66c0.83-0.48,1.54-1,2.14-1.55c0.6-0.55,1.1-1.14,1.51-1.76c0.41-0.62,0.72-1.29,0.95-2
			c0.22-0.71,0.37-1.47,0.44-2.29h-4.19v-1.89H1200.1z M1207.15,183.97v16.58h-2.29v-8.42h-1.49v7.72h-2.2V184.4h2.2v5.81h1.49
			v-6.25H1207.15z"/>
		<path fill="#999999" d="M1217.92,191.96h-7.94v-7.27h2.34v1.98h3.26v-1.98h2.34V191.96z M1213.98,198.59h9.04v1.84h-11.39v-4.57
			h8.59v-1.01h-8.6v-1.8h10.94v4.5h-8.57V198.59z M1215.58,188.45h-3.26v1.66h3.26V188.45z M1224.72,187.17v1.93h-2.18v3.29h-2.38
			v-8.42h2.38v3.2H1224.72z"/>
		<path fill="#999999" d="M1235.31,189.24c0,0.6-0.11,1.16-0.34,1.67c-0.23,0.52-0.55,0.96-0.95,1.33s-0.88,0.66-1.43,0.87
			c-0.54,0.21-1.14,0.32-1.77,0.32s-1.23-0.11-1.78-0.32c-0.55-0.21-1.03-0.5-1.43-0.87c-0.4-0.37-0.72-0.82-0.95-1.33
			c-0.23-0.52-0.35-1.07-0.35-1.67c0-0.61,0.12-1.18,0.35-1.69c0.23-0.52,0.55-0.96,0.95-1.33c0.4-0.37,0.88-0.66,1.43-0.87
			c0.55-0.21,1.15-0.31,1.78-0.31s1.23,0.1,1.77,0.31c0.55,0.21,1.02,0.5,1.43,0.87c0.41,0.37,0.73,0.82,0.95,1.33
			C1235.19,188.07,1235.31,188.63,1235.31,189.24z M1228.61,189.24c0,0.67,0.21,1.2,0.64,1.58c0.43,0.38,0.94,0.57,1.56,0.57
			c0.62,0,1.14-0.19,1.56-0.57s0.62-0.9,0.62-1.58c0-0.68-0.21-1.21-0.62-1.59s-0.93-0.57-1.56-0.57c-0.61,0-1.13,0.19-1.56,0.57
			C1228.82,188.03,1228.61,188.56,1228.61,189.24z M1240.24,198.37v1.89h-11.45v-5.54h2.38v3.65H1240.24z M1239.84,195.89h-2.41
			v-11.9h2.41V195.89z"/>
		<path fill="#999999" d="M1257.59,191.62v1.87h-14.98v-1.87H1257.59z M1243.26,189.14c0.78-0.07,1.47-0.19,2.07-0.35
			c0.6-0.16,1.11-0.35,1.53-0.58c0.42-0.22,0.76-0.47,1.01-0.74c0.25-0.27,0.43-0.55,0.52-0.84h-4.41v-1.89h12.26v1.89h-4.43
			c0.1,0.29,0.27,0.57,0.52,0.84c0.25,0.27,0.59,0.52,1.01,0.74c0.42,0.22,0.93,0.41,1.53,0.58c0.6,0.16,1.3,0.28,2.09,0.35
			l-0.83,1.85c-1.57-0.14-2.86-0.49-3.87-1.03s-1.73-1.21-2.16-2c-0.44,0.79-1.17,1.46-2.18,2s-2.3,0.88-3.87,1.03L1243.26,189.14z
			 M1250.07,194.39c0.9,0,1.7,0.07,2.41,0.21c0.71,0.14,1.31,0.34,1.81,0.6s0.88,0.59,1.14,0.97c0.26,0.38,0.4,0.82,0.4,1.3
			c0,0.49-0.13,0.93-0.4,1.31s-0.64,0.71-1.14,0.97s-1.1,0.46-1.81,0.6c-0.71,0.14-1.51,0.21-2.41,0.21c-0.9,0-1.71-0.07-2.41-0.21
			c-0.71-0.14-1.31-0.34-1.8-0.6s-0.87-0.59-1.13-0.97s-0.4-0.82-0.4-1.31c0-0.48,0.13-0.91,0.4-1.3c0.26-0.38,0.64-0.71,1.13-0.97
			s1.09-0.46,1.8-0.6C1248.36,194.46,1249.17,194.39,1250.07,194.39z M1250.07,198.73c2.23,0,3.34-0.42,3.34-1.26
			c0-0.43-0.28-0.75-0.83-0.94c-0.56-0.2-1.39-0.3-2.5-0.3s-1.95,0.1-2.5,0.3c-0.56,0.2-0.83,0.51-0.83,0.94
			C1246.74,198.31,1247.85,198.73,1250.07,198.73z"/>
		<path fill="#999999" d="M1269.4,192.65c-0.59,0.1-1.17,0.17-1.74,0.22c-0.57,0.05-1.17,0.1-1.78,0.13c-0.62,0.03-1.28,0.05-2,0.06
			c-0.71,0.01-1.51,0.02-2.38,0.02h-1.42v-8.15h7.97v1.87h-5.62v1.26h5.13v1.84h-5.13v1.31c0.72,0,1.38-0.01,1.97-0.03
			c0.59-0.02,1.16-0.04,1.7-0.06c0.54-0.02,1.06-0.06,1.56-0.12c0.5-0.05,1-0.12,1.52-0.19L1269.4,192.65z M1261.91,194.5h11.05
			v5.87h-11.05V194.5z M1264.25,198.5h6.37v-2.14h-6.37V198.5z M1272.96,183.99v9.83h-2.41v-9.83H1272.96z"/>
	</g>
	<rect id="사각형_158" x="468" fill="#1F98D5" width="444" height="54"/>
	<g enable-background="new    ">
		<path fill="#FFFFFF" d="M664.39,30.4h-6.37v5.17h-2.38V30.4h-6.26v-1.89h15.01V30.4z M662.6,26.94h-11.52V19.6h2.36v1.89h6.82
			V19.6h2.34V26.94z M660.26,23.34h-6.82v1.71h6.82V23.34z"/>
		<path fill="#FFFFFF" d="M674.63,27.2c-0.88-0.28-1.62-0.68-2.23-1.21c-0.61-0.53-1.09-1.14-1.44-1.84
			c-0.37,0.78-0.88,1.46-1.53,2.04s-1.45,1.02-2.39,1.32l-1.22-1.85c0.68-0.2,1.27-0.48,1.77-0.83c0.5-0.35,0.9-0.74,1.22-1.18
			c0.31-0.44,0.54-0.91,0.69-1.41c0.15-0.5,0.23-1.02,0.23-1.55v-1.19h2.41v1.19c0,0.49,0.07,0.97,0.21,1.45
			c0.14,0.47,0.37,0.92,0.67,1.33c0.3,0.41,0.69,0.79,1.16,1.12s1.02,0.59,1.67,0.78L674.63,27.2z M680.26,33.51v1.85h-11.38v-4.54
			h8.57v-0.92h-8.59V28.1h10.93v4.45h-8.57v0.97H680.26z M677.42,23.29h-3.02V21.4h3.02v-2.43h2.38v8.42h-2.38V23.29z"/>
		<path fill="#FFFFFF" d="M690.32,27.2c-0.41,0.42-0.89,0.75-1.45,0.99c-0.56,0.24-1.16,0.36-1.81,0.36c-0.61,0-1.18-0.11-1.71-0.32
			c-0.53-0.22-0.99-0.52-1.39-0.9s-0.71-0.84-0.93-1.36c-0.22-0.52-0.33-1.09-0.33-1.72c0-0.61,0.11-1.18,0.33-1.71
			c0.22-0.53,0.53-0.98,0.93-1.36s0.86-0.67,1.39-0.89c0.53-0.22,1.1-0.32,1.71-0.32c0.65,0,1.24,0.11,1.79,0.34
			c0.55,0.23,1.02,0.55,1.43,0.97h3.69v-2.3h2.38V31.1h-2.38V27.2H690.32z M684.94,24.24c0,0.7,0.2,1.24,0.6,1.64
			c0.4,0.4,0.9,0.59,1.52,0.59s1.12-0.2,1.53-0.59c0.4-0.4,0.61-0.94,0.61-1.64c0-0.68-0.2-1.22-0.61-1.62
			c-0.4-0.4-0.91-0.59-1.53-0.59s-1.12,0.2-1.52,0.59C685.14,23.02,684.94,23.56,684.94,24.24z M696.73,33.37v1.89h-11.3v-5.35h2.38
			v3.46H696.73z M691.3,23.16c0.04,0.17,0.07,0.34,0.09,0.52c0.02,0.18,0.04,0.37,0.04,0.56c0,0.18-0.01,0.36-0.03,0.54
			c-0.02,0.18-0.05,0.35-0.1,0.52h2.68v-2.14H691.3z"/>
		<path fill="#FFFFFF" d="M714.05,28.89h-6.37v6.66h-2.41v-6.66h-6.19v-1.91h10.44c0.2-1.06,0.33-2,0.38-2.83s0.07-1.6,0.07-2.32
			h-9.18v-1.91h11.5v1.49c0,0.78-0.02,1.61-0.05,2.49s-0.16,1.91-0.36,3.07h2.18V28.89z"/>
		<path fill="#FFFFFF" d="M730.63,31.68v1.91h-15.01v-1.91h6.25v-3.71h2.38v3.71H730.63z M729.15,28.49
			c-1.46-0.26-2.71-0.76-3.75-1.49c-1.04-0.73-1.83-1.6-2.37-2.64c-0.54,1.02-1.33,1.9-2.36,2.63c-1.03,0.73-2.27,1.23-3.73,1.49
			l-0.97-1.96c0.94-0.16,1.76-0.42,2.48-0.79c0.72-0.37,1.33-0.81,1.82-1.31c0.49-0.5,0.86-1.04,1.12-1.62s0.38-1.16,0.38-1.74
			v-1.19h2.54v1.19c0,0.59,0.13,1.18,0.38,1.76s0.62,1.13,1.12,1.62s1.1,0.92,1.82,1.29c0.72,0.37,1.55,0.63,2.5,0.78L729.15,28.49z
			"/>
	</g>
	<line id="선_111" fill="none" stroke="#C7C7C7" x1="514.5" y1="104" x2="514.5" y2="164.5"/>
	<line id="선_126" fill="none" stroke="#C7C7C7" x1="865.5" y1="104" x2="865.5" y2="164.5"/>
</g>
</svg>
