<?xml version="1.0" encoding="utf-8"?>
<!-- Generator: Adobe Illustrator 25.1.0, SVG Export Plug-In . SVG Version: 6.00 Build 0)  -->
<svg version="1.1" id="Layer_1" xmlns="http://www.w3.org/2000/svg" xmlns:xlink="http://www.w3.org/1999/xlink" x="0px" y="0px"
	 viewBox="0 0 312 149" enable-background="new 0 0 312 149" xml:space="preserve">
<g id="그룹_476" transform="translate(-24 -587)">
	<rect id="사각형_194" x="78" y="587" fill="#1F98D5" width="204" height="32"/>
	<g enable-background="new    ">
		<path fill="#FFFFFF" d="M162.92,605.6h-4.25v3.44h-1.58v-3.44h-4.18v-1.26h10.01V605.6z M161.74,603.3h-7.68v-4.9h1.57v1.26h4.55
			v-1.26h1.56V603.3z M160.18,600.9h-4.55v1.14h4.55V600.9z"/>
		<path fill="#FFFFFF" d="M169.75,603.46c-0.58-0.18-1.08-0.45-1.49-0.8c-0.41-0.35-0.73-0.76-0.96-1.22
			c-0.25,0.52-0.59,0.97-1.02,1.36c-0.43,0.39-0.96,0.68-1.6,0.88l-0.82-1.24c0.46-0.14,0.85-0.32,1.18-0.55
			c0.33-0.23,0.6-0.49,0.81-0.79s0.36-0.61,0.46-0.94c0.1-0.34,0.15-0.68,0.15-1.03v-0.79h1.61v0.79c0,0.33,0.05,0.65,0.14,0.97
			c0.1,0.32,0.25,0.61,0.45,0.89c0.2,0.28,0.46,0.52,0.77,0.74c0.31,0.22,0.68,0.39,1.11,0.52L169.75,603.46z M173.51,607.68v1.24
			h-7.58v-3.02h5.71v-0.61h-5.72v-1.21h7.28v2.96h-5.71v0.65H173.51z M171.61,600.86h-2.02v-1.26h2.02v-1.62h1.58v5.62h-1.58V600.86
			z"/>
		<path fill="#FFFFFF" d="M180.22,603.46c-0.27,0.28-0.59,0.5-0.97,0.66s-0.77,0.24-1.21,0.24c-0.41,0-0.79-0.07-1.14-0.22
			c-0.35-0.14-0.66-0.34-0.92-0.6s-0.47-0.56-0.62-0.91c-0.15-0.35-0.22-0.73-0.22-1.15c0-0.41,0.07-0.79,0.22-1.14
			c0.15-0.35,0.35-0.65,0.62-0.91s0.57-0.45,0.92-0.59c0.35-0.14,0.73-0.22,1.14-0.22c0.43,0,0.83,0.08,1.19,0.23
			c0.36,0.15,0.68,0.37,0.95,0.65h2.46v-1.54h1.58v8.09h-1.58v-2.6H180.22z M176.63,601.5c0,0.46,0.13,0.83,0.4,1.09
			s0.6,0.4,1.01,0.4c0.41,0,0.75-0.13,1.02-0.4s0.4-0.63,0.4-1.09c0-0.46-0.13-0.82-0.4-1.08s-0.61-0.4-1.02-0.4
			c-0.41,0-0.75,0.13-1.01,0.4S176.63,601.04,176.63,601.5z M184.49,607.58v1.26h-7.54v-3.56h1.58v2.3H184.49z M180.86,600.78
			c0.02,0.11,0.04,0.23,0.06,0.35s0.02,0.24,0.02,0.37c0,0.12-0.01,0.24-0.02,0.36c-0.01,0.12-0.03,0.24-0.07,0.35h1.79v-1.43
			H180.86z"/>
		<path fill="#FFFFFF" d="M196.03,604.59h-4.25v4.44h-1.61v-4.44h-4.13v-1.27h6.96c0.14-0.7,0.22-1.33,0.25-1.88
			c0.03-0.55,0.05-1.07,0.05-1.55h-6.12v-1.27h7.67v1c0,0.52-0.01,1.07-0.04,1.66c-0.02,0.59-0.1,1.27-0.24,2.05h1.45V604.59z"/>
		<path fill="#FFFFFF" d="M207.08,606.45v1.27h-10.01v-1.27h4.16v-2.47h1.58v2.47H207.08z M206.1,604.33
			c-0.98-0.18-1.81-0.51-2.5-0.99c-0.69-0.48-1.22-1.07-1.58-1.76c-0.36,0.68-0.88,1.26-1.57,1.75c-0.69,0.49-1.52,0.82-2.48,1
			l-0.65-1.31c0.62-0.1,1.18-0.28,1.66-0.53c0.48-0.25,0.88-0.54,1.21-0.87s0.58-0.69,0.74-1.08s0.25-0.77,0.25-1.16v-0.79h1.69
			v0.79c0,0.39,0.08,0.78,0.25,1.18c0.17,0.39,0.42,0.75,0.74,1.08c0.33,0.33,0.73,0.61,1.21,0.86c0.48,0.24,1.04,0.42,1.67,0.52
			L206.1,604.33z"/>
	</g>
	<path id="패스_198" fill="none" stroke="#C7C7C7" d="M298,679v-30H61v29.97"/>
	<rect id="사각형_198" x="24" y="679" fill="#FFFFFF" width="74" height="57"/>
	<rect id="사각형_197" x="103" y="679" fill="#FFFFFF" width="74" height="57"/>
	<g enable-background="new    ">
		<path fill="#999999" d="M60.48,701.52v1.3H50.48v-1.3h4.2v-1.64h-3.05v-3.74h6.17v-1.19h-6.18v-1.26h7.74v3.68H53.2v1.24h6.41
			v1.27h-3.35v1.64H60.48z"/>
		<path fill="#999999" d="M71.51,698.36v1.25h-10v-1.25h4.2v-0.88h-2.93v-4.19h1.57v0.94h4.31v-0.94h1.57v4.19H67.3v0.88H71.51z
			 M67.31,700.35c0,0.26,0.07,0.53,0.21,0.79c0.14,0.26,0.35,0.51,0.64,0.73s0.65,0.41,1.09,0.57c0.44,0.16,0.96,0.28,1.57,0.35
			L70.29,704c-0.92-0.12-1.7-0.34-2.33-0.67s-1.12-0.73-1.45-1.21c-0.34,0.48-0.82,0.88-1.45,1.21c-0.63,0.32-1.41,0.55-2.33,0.67
			l-0.54-1.21c0.61-0.07,1.13-0.19,1.57-0.35c0.44-0.16,0.8-0.35,1.09-0.57s0.5-0.46,0.64-0.73c0.14-0.26,0.2-0.53,0.2-0.79v-0.18
			h1.62V700.35z M64.36,696.24h4.31v-0.83h-4.31V696.24z"/>
	</g>
	<g enable-background="new    ">
		<path fill="#999999" d="M50.18,716.46c-0.27,0.28-0.59,0.5-0.97,0.66s-0.77,0.24-1.21,0.24c-0.41,0-0.79-0.07-1.14-0.22
			c-0.35-0.14-0.66-0.34-0.92-0.6s-0.47-0.56-0.62-0.91c-0.15-0.35-0.22-0.73-0.22-1.15c0-0.41,0.07-0.79,0.22-1.14
			c0.15-0.35,0.35-0.65,0.62-0.91s0.57-0.45,0.92-0.59c0.35-0.14,0.73-0.22,1.14-0.22c0.43,0,0.83,0.08,1.19,0.23
			c0.36,0.15,0.68,0.37,0.95,0.65h2.46v-1.54h1.58v8.09h-1.58v-2.6H50.18z M46.59,714.5c0,0.46,0.13,0.83,0.4,1.09s0.6,0.4,1.01,0.4
			c0.41,0,0.75-0.13,1.02-0.4s0.4-0.63,0.4-1.09c0-0.46-0.13-0.82-0.4-1.08s-0.61-0.4-1.02-0.4c-0.41,0-0.75,0.13-1.01,0.4
			S46.59,714.04,46.59,714.5z M54.45,720.58v1.26h-7.54v-3.56h1.58v2.3H54.45z M50.82,713.78c0.02,0.11,0.04,0.23,0.06,0.35
			s0.02,0.24,0.02,0.37c0,0.12-0.01,0.24-0.02,0.36c-0.01,0.12-0.03,0.24-0.07,0.35h1.79v-1.43H50.82z"/>
		<path fill="#999999" d="M65.99,717.59h-4.25v4.44h-1.61v-4.44h-4.13v-1.27h6.96c0.14-0.7,0.22-1.33,0.25-1.88
			c0.03-0.55,0.05-1.07,0.05-1.55h-6.12v-1.27h7.67v1c0,0.52-0.01,1.07-0.04,1.66c-0.02,0.59-0.1,1.27-0.24,2.05h1.45V717.59z"/>
		<path fill="#999999" d="M77.04,719.45v1.27H67.04v-1.27h4.16v-2.47h1.58v2.47H77.04z M76.06,717.33c-0.98-0.18-1.81-0.51-2.5-0.99
			c-0.69-0.48-1.22-1.07-1.58-1.76c-0.36,0.68-0.88,1.26-1.57,1.75c-0.69,0.49-1.52,0.82-2.48,1l-0.65-1.31
			c0.62-0.1,1.18-0.28,1.66-0.53s0.88-0.54,1.21-0.87s0.58-0.69,0.74-1.08s0.25-0.77,0.25-1.16v-0.79h1.69v0.79
			c0,0.39,0.08,0.78,0.25,1.18c0.17,0.39,0.42,0.75,0.74,1.08c0.33,0.33,0.73,0.61,1.21,0.86s1.04,0.42,1.67,0.52L76.06,717.33z"/>
	</g>
	<g enable-background="new    ">
		<path fill="#999999" d="M128.7,703.17c-0.56,0-1.09-0.1-1.58-0.3s-0.93-0.49-1.3-0.88s-0.66-0.86-0.87-1.43
			c-0.21-0.57-0.32-1.22-0.32-1.97c0-0.73,0.11-1.38,0.33-1.96c0.22-0.58,0.52-1.06,0.89-1.46c0.38-0.4,0.81-0.7,1.31-0.91
			s1.03-0.31,1.59-0.31c0.57,0,1.07,0.11,1.51,0.34c0.44,0.23,0.8,0.49,1.09,0.8l-0.94,1.13c-0.22-0.22-0.47-0.39-0.73-0.53
			c-0.26-0.14-0.56-0.21-0.9-0.21s-0.65,0.07-0.94,0.21c-0.29,0.14-0.54,0.34-0.74,0.61s-0.37,0.58-0.49,0.96
			c-0.12,0.38-0.18,0.8-0.18,1.28c0,0.48,0.05,0.91,0.16,1.3s0.26,0.71,0.47,0.98c0.2,0.27,0.45,0.47,0.73,0.61
			c0.28,0.14,0.6,0.21,0.95,0.21c0.38,0,0.73-0.08,1.03-0.25c0.3-0.16,0.57-0.37,0.81-0.63l0.94,1.1c-0.37,0.43-0.79,0.76-1.26,0.98
			C129.8,703.06,129.28,703.17,128.7,703.17z"/>
		<path fill="#999999" d="M136.12,703.17c-0.56,0-1.09-0.1-1.58-0.3s-0.93-0.49-1.3-0.88s-0.66-0.86-0.87-1.43
			c-0.21-0.57-0.32-1.22-0.32-1.97c0-0.73,0.11-1.38,0.33-1.96c0.22-0.58,0.52-1.06,0.89-1.46c0.38-0.4,0.81-0.7,1.31-0.91
			s1.03-0.31,1.59-0.31c0.57,0,1.07,0.11,1.51,0.34c0.44,0.23,0.8,0.49,1.09,0.8l-0.94,1.13c-0.22-0.22-0.47-0.39-0.73-0.53
			c-0.26-0.14-0.56-0.21-0.9-0.21s-0.65,0.07-0.94,0.21c-0.29,0.14-0.54,0.34-0.74,0.61s-0.37,0.58-0.49,0.96
			c-0.12,0.38-0.18,0.8-0.18,1.28c0,0.48,0.05,0.91,0.16,1.3s0.26,0.71,0.47,0.98c0.2,0.27,0.45,0.47,0.73,0.61
			c0.28,0.14,0.6,0.21,0.95,0.21c0.38,0,0.73-0.08,1.03-0.25c0.3-0.16,0.57-0.37,0.81-0.63l0.94,1.1c-0.37,0.43-0.79,0.76-1.26,0.98
			C137.22,703.06,136.7,703.17,136.12,703.17z"/>
		<path fill="#999999" d="M141.95,695.61h-2.5v-1.49h6.79v1.49h-2.52V703h-1.78V695.61z"/>
		<path fill="#999999" d="M146.54,694.12h1.86l1.18,4.32c0.14,0.5,0.26,0.97,0.37,1.43c0.11,0.46,0.23,0.94,0.38,1.44h0.06
			c0.14-0.5,0.26-0.98,0.38-1.44c0.12-0.46,0.24-0.93,0.38-1.43l1.15-4.32h1.8l-2.72,8.88h-2.11L146.54,694.12z"/>
	</g>
	<g enable-background="new    ">
		<path fill="#999999" d="M120.85,712.35c0,0.78-0.06,1.51-0.19,2.21c-0.13,0.7-0.34,1.36-0.65,1.99c-0.3,0.62-0.71,1.21-1.23,1.75
			c-0.52,0.54-1.16,1.03-1.93,1.48l-0.92-1.1c0.55-0.32,1.03-0.66,1.43-1.03c0.4-0.37,0.74-0.76,1.01-1.18s0.48-0.86,0.63-1.33
			c0.15-0.47,0.25-0.98,0.29-1.52h-2.8v-1.26H120.85z M125.55,710.98v11.05h-1.52v-5.62h-1v5.15h-1.46v-10.3h1.46v3.88h1v-4.16
			H125.55z"/>
		<path fill="#999999" d="M132.73,716.31h-5.29v-4.85H129v1.32h2.17v-1.32h1.56V716.31z M130.1,720.72h6.02v1.22h-7.6v-3.05h5.72
			v-0.67h-5.74v-1.2h7.3v3h-5.71V720.72z M131.17,713.97H129v1.1h2.17V713.97z M137.27,713.12v1.28h-1.45v2.2h-1.58v-5.62h1.58v2.14
			H137.27z"/>
		<path fill="#999999" d="M150.87,716.81v1.26h-10v-1.26h4.19v-0.92h-2.92v-4.51h1.57v1.08h4.31v-1.08h1.57v4.51h-2.95v0.92H150.87z
			 M143.67,720.58h6.08v1.26h-7.67v-3.12h1.58V720.58z M143.72,714.64h4.31v-0.96h-4.31V714.64z"/>
		<path fill="#999999" d="M161.93,718.6h-4.25v3.44h-1.58v-3.44h-4.18v-1.26h10.01V718.6z M160.74,716.3h-7.68v-4.9h1.57v1.26h4.55
			v-1.26h1.56V716.3z M159.18,713.9h-4.55v1.14h4.55V713.9z"/>
	</g>
	<line id="선_133" fill="none" stroke="#C7C7C7" x1="140.32" y1="649" x2="140.32" y2="679"/>
	<line id="선_132" fill="none" stroke="#C7C7C7" x1="180" y1="619" x2="180" y2="649"/>
	<rect id="사각형_196" x="183" y="679" fill="#FFFFFF" width="74" height="57"/>
	<g enable-background="new    ">
		<path fill="#999999" d="M202.6,696.5c0,0.4-0.08,0.77-0.23,1.12c-0.15,0.34-0.36,0.64-0.64,0.89c-0.27,0.25-0.59,0.44-0.95,0.58
			c-0.36,0.14-0.76,0.21-1.18,0.21s-0.82-0.07-1.19-0.21c-0.37-0.14-0.69-0.33-0.95-0.58c-0.27-0.25-0.48-0.54-0.64-0.89
			c-0.16-0.34-0.23-0.72-0.23-1.12c0-0.41,0.08-0.78,0.23-1.13c0.16-0.34,0.37-0.64,0.64-0.89c0.27-0.25,0.59-0.44,0.95-0.58
			c0.37-0.14,0.76-0.21,1.19-0.21s0.82,0.07,1.18,0.21c0.36,0.14,0.68,0.33,0.95,0.58c0.27,0.25,0.48,0.54,0.64,0.89
			C202.53,695.71,202.6,696.09,202.6,696.5z M198.14,696.5c0,0.45,0.14,0.8,0.43,1.05s0.63,0.38,1.04,0.38
			c0.42,0,0.76-0.13,1.04-0.38s0.41-0.6,0.41-1.05c0-0.46-0.14-0.81-0.41-1.06s-0.62-0.38-1.04-0.38c-0.41,0-0.75,0.13-1.04,0.38
			S198.14,696.04,198.14,696.5z M205.89,702.58v1.26h-7.63v-3.7h1.58v2.44H205.89z M205.63,700.92h-1.61v-7.93h1.61V700.92z"/>
		<path fill="#999999" d="M217.45,697.92v1.25h-9.95v-1.25h3.68v-1.93h1.58v1.93H217.45z M212.41,699.87c0.6,0,1.14,0.05,1.62,0.14
			c0.48,0.1,0.89,0.23,1.24,0.41c0.34,0.18,0.61,0.4,0.79,0.66s0.28,0.55,0.28,0.87s-0.09,0.61-0.28,0.86s-0.45,0.47-0.79,0.65
			c-0.34,0.18-0.76,0.32-1.24,0.41c-0.48,0.1-1.02,0.14-1.62,0.14c-0.59,0-1.13-0.05-1.61-0.14c-0.48-0.1-0.9-0.23-1.24-0.41
			c-0.34-0.18-0.6-0.4-0.79-0.65c-0.18-0.26-0.28-0.54-0.28-0.86s0.09-0.61,0.28-0.87c0.18-0.26,0.45-0.48,0.79-0.66
			c0.34-0.18,0.75-0.32,1.24-0.41C211.28,699.92,211.82,699.87,212.41,699.87z M214.4,697.18c0.13-0.5,0.21-0.94,0.24-1.33
			c0.03-0.39,0.05-0.77,0.05-1.13h-6.07v-1.25h7.66v0.91c0,0.44-0.01,0.9-0.04,1.38c-0.03,0.48-0.12,1-0.27,1.57L214.4,697.18z
			 M212.41,702.84c0.75,0,1.33-0.07,1.74-0.22s0.61-0.37,0.61-0.67c0-0.3-0.2-0.53-0.61-0.68c-0.41-0.15-0.99-0.22-1.74-0.22
			c-0.75,0-1.33,0.07-1.73,0.22c-0.4,0.15-0.61,0.37-0.61,0.68c0,0.3,0.2,0.52,0.61,0.67C211.08,702.77,211.66,702.84,212.41,702.84
			z"/>
		<path fill="#999999" d="M222.79,695.96c0,0.45,0.06,0.9,0.17,1.35c0.11,0.45,0.28,0.88,0.51,1.28c0.23,0.4,0.51,0.76,0.85,1.08
			s0.74,0.58,1.21,0.77l-0.86,1.25c-0.65-0.28-1.19-0.68-1.63-1.19c-0.44-0.51-0.78-1.1-1.03-1.78c-0.25,0.73-0.59,1.38-1.04,1.94
			s-0.99,1-1.64,1.3l-0.9-1.26c0.46-0.21,0.87-0.48,1.21-0.83s0.63-0.73,0.86-1.15c0.23-0.42,0.4-0.87,0.51-1.34
			c0.11-0.48,0.17-0.95,0.17-1.42v-0.61h-2.3v-1.31h6.19v1.31h-2.28V695.96z M227.67,692.98v11.05h-1.58v-11.05H227.67z"/>
		<path fill="#999999" d="M239.56,697.92v1.26h-10v-1.26H239.56z M234.52,699.9c0.6,0,1.14,0.05,1.61,0.14s0.87,0.23,1.21,0.4
			s0.59,0.39,0.76,0.65s0.26,0.54,0.26,0.86c0,0.33-0.09,0.62-0.26,0.87s-0.43,0.47-0.76,0.64s-0.73,0.31-1.21,0.4
			s-1.01,0.14-1.61,0.14c-0.6,0-1.14-0.05-1.61-0.14c-0.47-0.09-0.87-0.23-1.2-0.4s-0.58-0.39-0.76-0.64s-0.26-0.54-0.26-0.87
			c0-0.32,0.09-0.61,0.26-0.86s0.43-0.47,0.76-0.65s0.73-0.31,1.2-0.4C233.39,699.95,233.92,699.9,234.52,699.9z M238.45,696.99
			h-7.63v-3.82h1.58v2.56h6.05V696.99z M234.53,702.8c1.48,0,2.23-0.28,2.23-0.84s-0.74-0.84-2.23-0.84c-1.48,0-2.23,0.28-2.23,0.84
			S233.05,702.8,234.53,702.8z"/>
	</g>
	<g enable-background="new    ">
		<path fill="#999999" d="M201.21,712.35c0,0.78-0.06,1.51-0.19,2.21c-0.13,0.7-0.34,1.36-0.65,1.99c-0.3,0.62-0.71,1.21-1.23,1.75
			s-1.16,1.03-1.93,1.48l-0.92-1.1c0.55-0.32,1.03-0.66,1.43-1.03c0.4-0.37,0.74-0.76,1.01-1.18c0.27-0.42,0.48-0.86,0.63-1.33
			c0.15-0.47,0.25-0.98,0.29-1.52h-2.8v-1.26H201.21z M205.92,710.98v11.05h-1.52v-5.62h-1v5.15h-1.46v-10.3h1.46v3.88h1v-4.16
			H205.92z"/>
		<path fill="#999999" d="M213.09,716.31h-5.29v-4.85h1.56v1.32h2.17v-1.32h1.56V716.31z M210.46,720.72h6.02v1.22h-7.6v-3.05h5.72
			v-0.67h-5.74v-1.2h7.3v3h-5.71V720.72z M211.53,713.97h-2.17v1.1h2.17V713.97z M217.63,713.12v1.28h-1.45v2.2h-1.58v-5.62h1.58
			v2.14H217.63z"/>
		<path fill="#999999" d="M223.03,717.57c-0.43-0.21-0.79-0.48-1.08-0.8c-0.29-0.33-0.52-0.7-0.7-1.12c-0.2,0.47-0.46,0.9-0.79,1.27
			c-0.33,0.38-0.73,0.68-1.22,0.91l-0.86-1.2c0.38-0.18,0.7-0.41,0.96-0.67c0.26-0.26,0.48-0.55,0.65-0.86
			c0.17-0.31,0.29-0.63,0.37-0.97s0.11-0.67,0.11-1v-1.42h1.52v1.42c0,0.33,0.03,0.65,0.1,0.96c0.07,0.31,0.18,0.61,0.33,0.88
			c0.15,0.28,0.35,0.53,0.59,0.77s0.54,0.44,0.88,0.61L223.03,717.57z M228.2,720.58v1.26h-7.7v-3.55h1.57v2.29H228.2z
			 M224.23,714.78h-1.31v-1.28h1.31v-2.33h1.46v7.75h-1.46V714.78z M227.92,719.25h-1.49v-8.27h1.49V719.25z"/>
		<path fill="#999999" d="M231.63,718.28c0.74-0.01,1.44-0.03,2.08-0.07c0.64-0.04,1.3-0.11,1.98-0.22l0.14,1.27
			c-0.4,0.06-0.79,0.11-1.18,0.15c-0.38,0.04-0.77,0.06-1.16,0.08c-0.39,0.02-0.8,0.03-1.21,0.04c-0.42,0.01-0.86,0.01-1.32,0.01
			h-0.9v-7.64h5.11v1.27h-3.54v1.8h3.17v1.24h-3.17V718.28z M238.83,710.97v11.09h-1.58v-5.92h-1.9v-1.27h1.9v-3.9H238.83z"/>
	</g>
	<rect id="사각형_195" x="262" y="679" fill="#FFFFFF" width="74" height="57"/>
	<g enable-background="new    ">
		<path fill="#999999" d="M279.93,695.91c0,0.46,0.04,0.92,0.11,1.37c0.07,0.45,0.19,0.88,0.36,1.29s0.39,0.78,0.66,1.12
			c0.27,0.34,0.61,0.63,1.01,0.86l-0.92,1.15c-0.5-0.29-0.9-0.66-1.22-1.13c-0.32-0.46-0.56-0.99-0.75-1.57
			c-0.19,0.63-0.45,1.21-0.78,1.72c-0.33,0.52-0.74,0.93-1.25,1.24l-0.94-1.16c0.4-0.26,0.74-0.57,1.02-0.93
			c0.28-0.36,0.51-0.76,0.68-1.19c0.17-0.43,0.3-0.88,0.37-1.36c0.08-0.48,0.11-0.95,0.11-1.42v-0.54h-1.78v-1.28h4.92v1.28h-1.62
			V695.91z M282.18,693.16h1.46v10.37h-1.46v-5.5h-1.4v-1.28h1.4V693.16z M285.9,692.97v11.05h-1.49v-11.05H285.9z"/>
		<path fill="#999999" d="M293.26,699.41v0.9h3.01v3.6h-7.63v-3.6h3.04v-0.9h-4.2v-1.26h9.98v1.26H293.26z M289.76,694.54h-1.4
			v-1.26h8.22v1.26h-1.4v1.67h1.32v1.26h-8.06v-1.26h1.33V694.54z M294.71,701.55h-4.52v1.12h4.52V701.55z M293.6,694.54h-2.27v1.67
			h2.27V694.54z"/>
		<path fill="#999999" d="M303.29,694.35c0,0.78-0.06,1.51-0.19,2.21c-0.13,0.7-0.34,1.36-0.65,1.99c-0.3,0.62-0.71,1.21-1.23,1.75
			s-1.16,1.03-1.93,1.48l-0.92-1.1c0.55-0.32,1.03-0.66,1.43-1.03c0.4-0.37,0.74-0.76,1.01-1.18c0.27-0.42,0.48-0.86,0.63-1.33
			c0.15-0.47,0.25-0.98,0.29-1.52h-2.8v-1.26H303.29z M308,692.98v11.05h-1.52v-5.62h-1v5.15h-1.46v-10.3h1.46v3.88h1v-4.16H308z"/>
		<path fill="#999999" d="M315.17,698.31h-5.29v-4.85h1.56v1.32h2.17v-1.32h1.56V698.31z M312.54,702.72h6.02v1.22h-7.6v-3.05h5.72
			v-0.67h-5.74v-1.2h7.3v3h-5.71V702.72z M313.61,695.97h-2.17v1.1h2.17V695.97z M319.71,695.12v1.28h-1.45v2.2h-1.58v-5.62h1.58
			v2.14H319.71z"/>
	</g>
	<g enable-background="new    ">
		<path fill="#999999" d="M288.12,714.5c0,0.4-0.08,0.77-0.23,1.12s-0.36,0.64-0.64,0.89c-0.27,0.25-0.59,0.44-0.95,0.58
			c-0.36,0.14-0.76,0.21-1.18,0.21c-0.42,0-0.82-0.07-1.19-0.21s-0.69-0.33-0.95-0.58s-0.48-0.54-0.64-0.89
			c-0.16-0.34-0.23-0.72-0.23-1.12c0-0.41,0.08-0.78,0.23-1.13c0.16-0.34,0.37-0.64,0.64-0.89s0.59-0.44,0.95-0.58
			c0.37-0.14,0.76-0.21,1.19-0.21c0.42,0,0.82,0.07,1.18,0.21c0.36,0.14,0.68,0.33,0.95,0.58c0.27,0.25,0.48,0.54,0.64,0.89
			S288.12,714.09,288.12,714.5z M283.66,714.5c0,0.45,0.14,0.8,0.43,1.05c0.28,0.25,0.63,0.38,1.04,0.38c0.42,0,0.76-0.13,1.04-0.38
			c0.28-0.25,0.41-0.6,0.41-1.05c0-0.46-0.14-0.81-0.41-1.06c-0.28-0.25-0.62-0.38-1.04-0.38c-0.41,0-0.75,0.13-1.04,0.38
			C283.8,713.69,283.66,714.04,283.66,714.5z M291.41,720.58v1.26h-7.63v-3.7h1.58v2.44H291.41z M291.15,718.92h-1.61v-7.93h1.61
			V718.92z"/>
		<path fill="#999999" d="M302.98,716.08v1.25H293v-1.25H302.98z M293.43,714.42c0.52-0.05,0.98-0.13,1.38-0.23
			c0.4-0.11,0.74-0.24,1.02-0.38c0.28-0.15,0.5-0.31,0.67-0.49c0.17-0.18,0.28-0.37,0.35-0.56h-2.94v-1.26h8.17v1.26h-2.95
			c0.06,0.19,0.18,0.38,0.35,0.56c0.17,0.18,0.39,0.34,0.67,0.49c0.28,0.15,0.62,0.28,1.02,0.38c0.4,0.11,0.86,0.19,1.39,0.23
			l-0.55,1.24c-1.05-0.1-1.91-0.32-2.58-0.68c-0.67-0.36-1.15-0.8-1.44-1.33c-0.3,0.53-0.78,0.97-1.45,1.33
			c-0.67,0.36-1.53,0.59-2.58,0.68L293.43,714.42z M297.96,717.93c0.6,0,1.14,0.05,1.61,0.14c0.47,0.09,0.87,0.23,1.21,0.4
			c0.33,0.18,0.59,0.39,0.76,0.65c0.18,0.26,0.26,0.54,0.26,0.86c0,0.33-0.09,0.62-0.26,0.88c-0.18,0.26-0.43,0.47-0.76,0.65
			s-0.73,0.31-1.21,0.4c-0.47,0.09-1.01,0.14-1.61,0.14c-0.6,0-1.14-0.05-1.61-0.14c-0.47-0.09-0.87-0.23-1.2-0.4
			s-0.58-0.39-0.76-0.65c-0.18-0.26-0.26-0.55-0.26-0.88c0-0.32,0.09-0.61,0.26-0.86s0.43-0.47,0.76-0.65
			c0.33-0.18,0.73-0.31,1.2-0.4S297.36,717.93,297.96,717.93z M297.97,720.82c1.48,0,2.23-0.28,2.23-0.84c0-0.29-0.19-0.5-0.56-0.63
			c-0.37-0.13-0.93-0.2-1.67-0.2s-1.3,0.07-1.67,0.2c-0.37,0.13-0.56,0.34-0.56,0.63C295.74,720.54,296.49,720.82,297.97,720.82z"/>
		<path fill="#999999" d="M310.85,716.76c-0.39,0.06-0.78,0.11-1.16,0.15s-0.78,0.06-1.19,0.08s-0.86,0.03-1.33,0.04
			c-0.48,0.01-1.01,0.01-1.59,0.01h-0.95v-5.44h5.32v1.25h-3.74v0.84h3.42v1.22h-3.42v0.88c0.48,0,0.92-0.01,1.31-0.02
			s0.77-0.03,1.13-0.04c0.36-0.02,0.71-0.04,1.04-0.08s0.67-0.08,1.01-0.13L310.85,716.76z M305.86,718h7.37v3.91h-7.37V718z
			 M307.42,720.66h4.25v-1.43h-4.25V720.66z M313.23,710.99v6.55h-1.61v-6.55H313.23z"/>
	</g>
	<line id="선_131" fill="none" stroke="#C7C7C7" x1="219.68" y1="649" x2="219.68" y2="679"/>
</g>
</svg>
