<svg xmlns="http://www.w3.org/2000/svg" width="46" height="16" viewBox="0 0 46 16"><g transform="translate(-29.808 -22.003)"><g transform="translate(29.808 22.003)"><path d="M1860.726-759.758h0s-3.2-.964-4.456-1.458c-.9-.358-1.434-1-1.1-1.992.384-1.15,2.229-1.123,3.553-1.123h2c2.536,0,4.237-2.39,4.2-3.041-.01-.173-.111-.145-.255-.145h-6.661c-2.294,0-5.487.183-6.633,2.43-.952,1.865-.771,4.406,3.724,5.8h0s3.195.964,4.452,1.46c.9.355,1.435,1,1.1,1.99-.382,1.153-2.227,1.122-3.549,1.122h-2c-2.536,0-4.236,2.392-4.2,3.043.01.173.11.145.252.145h6.662c2.3,0,5.487-.184,6.635-2.431C1865.4-755.817,1865.217-758.358,1860.726-759.758Z" transform="translate(-1850.899 767.521)" fill="#0658a7"/><path d="M2214.274-767.539a7.951,7.951,0,0,0-6.49,3.348,7.953,7.953,0,0,0-1.479,4.625,7.971,7.971,0,0,0,7.969,7.973,7.964,7.964,0,0,0,6.194-2.954,7.938,7.938,0,0,0,1.777-5.019A7.972,7.972,0,0,0,2214.274-767.539Zm0,12.8a4.828,4.828,0,0,1-4.826-4.827,4.794,4.794,0,0,1,.842-2.718,4.807,4.807,0,0,1,3.984-2.109,4.826,4.826,0,0,1,4.825,4.827,4.794,4.794,0,0,1-1.14,3.114A4.809,4.809,0,0,1,2214.274-754.739Z" transform="translate(-2176.246 767.539)" fill="#878a8b"/><path d="M2042.982-756.64c-.51-.3-1.282-.444-2.2.734a5.836,5.836,0,0,1-3.048,1.576c-3.025.394-3.507-1.2-3.507-1.2l9-7.474a1.13,1.13,0,0,0-.1-1.622c-4.139-4.328-8.2-2.558-8.736-2.336a1.482,1.482,0,0,0-.186.095,7.581,7.581,0,0,0-4.756,6.048,7.736,7.736,0,0,0-.046,1.716,8.406,8.406,0,0,0,.237,1.651,7.642,7.642,0,0,0,1.337,2.82,7.56,7.56,0,0,0,2.351,2.086,7.867,7.867,0,0,0,2.851.963,7.911,7.911,0,0,0,3-.188,7.242,7.242,0,0,0,2.823-1.4C2044.127-754.9,2043.49-756.35,2042.982-756.64Zm-10.243-1.213a4.672,4.672,0,0,1-.362-2.552,4.548,4.548,0,0,1,5.126-3.917,4.5,4.5,0,0,1,2.222.985l-.433.379Z" transform="translate(-2014.258 767.515)" fill="#878a8b"/></g></g></svg>