<?xml version="1.0" encoding="utf-8"?>
<!-- Generator: Adobe Illustrator 25.1.0, SVG Export Plug-In . SVG Version: 6.00 Build 0)  -->
<svg version="1.1" id="그룹_351" xmlns="http://www.w3.org/2000/svg" xmlns:xlink="http://www.w3.org/1999/xlink" x="0px" y="0px"
	 viewBox="0 0 46 16" style="enable-background:new 0 0 46 16;" xml:space="preserve">
<style type="text/css">
	.st0{fill:#FFFFFF;}
</style>
<g transform="translate(-29.808 -22.003)">
	<g transform="translate(29.808 22.003)">
		<path class="st0" d="M9.8,7.8L9.8,7.8c0,0-3.2-1-4.5-1.5c-0.9-0.4-1.4-1-1.1-2c0.4-1.2,2.2-1.1,3.6-1.1h2c2.5,0,4.2-2.4,4.2-3
			C14,0,13.9,0,13.8,0H7.1C4.8,0,1.6,0.2,0.5,2.4c-1,1.9-0.8,4.4,3.7,5.8l0,0c0,0,3.2,1,4.5,1.5c0.9,0.4,1.4,1,1.1,2
			c-0.4,1.2-2.2,1.1-3.5,1.1h-2c-2.5,0-4.2,2.4-4.2,3C0,16,0.1,16,0.3,16h6.7c2.3,0,5.5-0.2,6.6-2.4C14.5,11.7,14.3,9.2,9.8,7.8z"/>
		<path class="st0" d="M38,0c-2.6,0-5,1.2-6.5,3.3c-1,1.3-1.5,3-1.5,4.6c0,4.4,3.6,8,8,8l0,0c2.4,0,4.7-1.1,6.2-3
			c1.2-1.4,1.8-3.2,1.8-5C46,3.6,42.4,0,38,0L38,0z M38,12.8c-2.7,0-4.8-2.2-4.8-4.8c0-1,0.3-1.9,0.8-2.7c0.9-1.3,2.4-2.1,4-2.1
			c2.7,0,4.8,2.2,4.8,4.8c0,1.1-0.4,2.2-1.1,3.1C40.8,12.2,39.4,12.8,38,12.8z"/>
		<path class="st0" d="M28.7,10.9c-0.5-0.3-1.3-0.4-2.2,0.7c-0.8,0.8-1.9,1.4-3,1.6C20.5,13.6,20,12,20,12l9-7.5
			c0.4-0.5,0.4-1.2-0.1-1.6c0,0,0,0,0,0c-4.1-4.3-8.2-2.6-8.7-2.3c-0.1,0-0.1,0.1-0.2,0.1c-2.6,1-4.4,3.3-4.8,6
			c-0.1,0.6-0.1,1.1,0,1.7c0,0.6,0.1,1.1,0.2,1.7c0.2,1,0.7,2,1.3,2.8c0.6,0.9,1.4,1.6,2.4,2.1c0.9,0.5,1.8,0.8,2.9,1
			c1,0.1,2,0.1,3-0.2c1-0.3,2-0.7,2.8-1.4C29.9,12.6,29.2,11.2,28.7,10.9z M18.5,9.7C18.1,8.9,18,8,18.1,7.1
			c0.3-2.5,2.6-4.2,5.1-3.9c0,0,0,0,0,0c0.8,0.1,1.6,0.5,2.2,1L25,4.6L18.5,9.7z"/>
	</g>
</g>
</svg>
