<?xml version="1.0" encoding="utf-8"?>
<!-- Generator: Adobe Illustrator 25.1.0, SVG Export Plug-In . SVG Version: 6.00 Build 0)  -->
<svg version="1.1" id="Layer_1" xmlns="http://www.w3.org/2000/svg" xmlns:xlink="http://www.w3.org/1999/xlink" x="0px" y="0px"
	 viewBox="0 0 444 80" enable-background="new 0 0 444 80" xml:space="preserve">
<g id="그룹_486" transform="translate(-902 -1013)">
	<rect id="사각형_162" x="902" y="1013" fill="#FFFFFF" width="444" height="80"/>
	<g enable-background="new    ">
		<path fill="#999999" d="M1074.06,1050.15c-1.25,3.17-4.1,5.38-8.56,6.62l-1.12-2.29c2.32-0.62,4.05-1.45,5.2-2.51
			c1.15-1.06,1.82-2.27,2.01-3.65h-6.12v-2.33h9.28c0,0.65-0.04,1.26-0.13,1.85h3.63v-3.21h2.9v11.66h-2.9v-1.94h-4.47v-2.33h4.47
			v-1.87H1074.06z M1074.48,1056.55c1.03,0,1.96,0.1,2.8,0.29c0.84,0.19,1.56,0.47,2.16,0.83c0.59,0.36,1.05,0.79,1.38,1.3
			c0.32,0.51,0.48,1.07,0.48,1.71s-0.16,1.2-0.48,1.71c-0.32,0.51-0.78,0.94-1.38,1.3c-0.59,0.36-1.31,0.63-2.16,0.83
			s-1.78,0.29-2.8,0.29c-1.04,0-1.98-0.1-2.82-0.29s-1.55-0.47-2.16-0.83c-0.6-0.36-1.06-0.79-1.39-1.3s-0.48-1.07-0.48-1.71
			s0.16-1.2,0.48-1.71s0.78-0.94,1.39-1.3c0.6-0.36,1.32-0.63,2.16-0.83C1072.5,1056.65,1073.44,1056.55,1074.48,1056.55z
			 M1074.48,1062.54c1.25,0,2.22-0.16,2.91-0.47s1.05-0.78,1.05-1.4s-0.35-1.08-1.05-1.4s-1.67-0.47-2.91-0.47
			c-1.26,0-2.24,0.16-2.94,0.47c-0.7,0.32-1.05,0.78-1.05,1.4s0.35,1.08,1.05,1.4C1072.24,1062.38,1073.22,1062.54,1074.48,1062.54z
			"/>
		<path fill="#999999" d="M1093.99,1054.09c-0.48,0.48-1.06,0.86-1.74,1.13c-0.67,0.27-1.41,0.41-2.2,0.41
			c-0.75,0-1.44-0.12-2.09-0.37c-0.65-0.25-1.21-0.59-1.69-1.03c-0.48-0.44-0.86-0.96-1.13-1.56c-0.27-0.6-0.41-1.26-0.41-1.98
			c0-0.72,0.14-1.38,0.41-1.99c0.27-0.61,0.65-1.13,1.13-1.57c0.48-0.44,1.05-0.78,1.69-1.03c0.65-0.25,1.34-0.37,2.09-0.37
			c0.82,0,1.57,0.14,2.24,0.42s1.25,0.66,1.74,1.14h4.47v-2.64h2.9v11.88h-2.9v-2.42H1093.99z M1087.46,1050.67
			c0,0.79,0.24,1.4,0.73,1.84c0.49,0.44,1.1,0.66,1.86,0.66c0.75,0,1.37-0.22,1.87-0.66c0.49-0.44,0.74-1.05,0.74-1.84
			c0-0.79-0.25-1.4-0.74-1.84c-0.49-0.44-1.12-0.66-1.87-0.66c-0.75,0-1.37,0.22-1.86,0.66
			C1087.7,1049.27,1087.46,1049.88,1087.46,1050.67z M1094.53,1056.91c1.07,0,2.04,0.09,2.9,0.27c0.86,0.18,1.59,0.44,2.19,0.78
			c0.6,0.34,1.06,0.76,1.39,1.25c0.32,0.5,0.48,1.06,0.48,1.69s-0.16,1.19-0.48,1.68s-0.79,0.91-1.39,1.25
			c-0.6,0.34-1.33,0.61-2.19,0.79s-1.83,0.28-2.9,0.28c-1.07,0-2.03-0.09-2.89-0.28s-1.58-0.45-2.18-0.79
			c-0.6-0.34-1.06-0.76-1.39-1.25s-0.48-1.05-0.48-1.68s0.16-1.2,0.48-1.69c0.32-0.5,0.79-0.92,1.39-1.25
			c0.6-0.34,1.33-0.6,2.18-0.78C1092.5,1057,1093.46,1056.91,1094.53,1056.91z M1094.53,1062.67c1.34,0,2.36-0.14,3.06-0.43
			c0.7-0.29,1.05-0.73,1.05-1.33s-0.35-1.04-1.05-1.33c-0.7-0.29-1.72-0.43-3.06-0.43c-1.34,0-2.35,0.14-3.04,0.43
			c-0.69,0.29-1.04,0.73-1.04,1.33s0.35,1.04,1.04,1.33C1092.18,1062.53,1093.19,1062.67,1094.53,1062.67z M1095.27,1049.58
			c0.03,0.18,0.06,0.35,0.08,0.53c0.02,0.18,0.03,0.37,0.03,0.57c0,0.37-0.04,0.73-0.13,1.1h3.26v-2.2H1095.27z"/>
		<path fill="#999999" d="M1117.05,1056.2c-1.04,0.19-2.11,0.34-3.2,0.46c-1.09,0.12-2.17,0.21-3.25,0.26s-2.11,0.1-3.11,0.12
			c-1,0.02-1.94,0.03-2.81,0.03l-0.26-2.31c0.56,0,1.15,0,1.77,0c0.62,0,1.26-0.01,1.92-0.02v-3.94h2.84v3.83
			c1.01-0.04,2.01-0.11,3-0.19c0.99-0.08,1.96-0.19,2.92-0.32L1117.05,1056.2z M1112.69,1052.99c0.16-0.95,0.27-1.8,0.33-2.54
			c0.06-0.74,0.1-1.42,0.11-2.04h-7.55v-2.31h10.41v1.25c0,0.7-0.02,1.55-0.06,2.54c-0.04,0.99-0.17,2.13-0.41,3.42L1112.69,1052.99
			z M1110.27,1062.23h11.24v2.31h-14.15v-6.09h2.9V1062.23z M1123.3,1050.79v2.4h-2.42v6.6h-2.9v-15.18h2.9v6.18H1123.3z"/>
		<path fill="#999999" d="M1128.97,1057.83c0.76,0,1.5-0.01,2.22-0.04s1.42-0.07,2.11-0.12c0.69-0.05,1.38-0.12,2.06-0.2
			c0.68-0.08,1.38-0.18,2.1-0.3l0.31,2.35c-0.82,0.15-1.63,0.26-2.43,0.35c-0.8,0.09-1.6,0.16-2.41,0.21
			c-0.81,0.05-1.63,0.09-2.46,0.11c-0.84,0.02-1.71,0.03-2.63,0.03h-1.81v-8.34h6.58v-3.23h-6.6v-2.31h9.55v7.83h-6.58V1057.83z
			 M1141.8,1044.61v20.33h-2.9v-20.33H1141.8z"/>
		<path fill="#999999" d="M1163.51,1055.32v2.31h-18.33v-2.31h7.68v-1.69h-5.35v-8.27h2.88v1.98h7.9v-1.98h2.88v8.27h-5.41v1.69
			H1163.51z M1150.31,1062.23h11.15v2.31h-14.06v-5.72h2.9V1062.23z M1150.4,1051.34h7.9v-1.76h-7.9V1051.34z"/>
		<path fill="#999999" d="M1183.77,1058.6h-7.79v6.31h-2.9v-6.31h-7.66v-2.31h18.35V1058.6z M1181.6,1054.38h-14.08v-8.98h2.88v2.31
			h8.34v-2.31h2.86V1054.38z M1178.74,1049.98h-8.34v2.09h8.34V1049.98z"/>
	</g>
</g>
<g>
</g>
<g>
</g>
<g>
</g>
<g>
</g>
<g>
</g>
<g>
</g>
</svg>
