<?xml version="1.0" encoding="utf-8"?>
<!-- Generator: Adobe Illustrator 25.1.0, SVG Export Plug-In . SVG Version: 6.00 Build 0)  -->
<svg version="1.1" id="Capa_1" xmlns="http://www.w3.org/2000/svg" xmlns:xlink="http://www.w3.org/1999/xlink" x="0px" y="0px"
	 viewBox="0 0 365.7 365.7" style="enable-background:new 0 0 365.7 365.7;" xml:space="preserve">
<style type="text/css">
	.st0{fill:#999999;}
</style>
<g>
	<g>
		<path class="st0" d="M363.9,78C363.9,78,363.9,78,363.9,78L363.9,78L290.7,4.8C289.6,3.6,288,3,286.3,3c-1.7,0-3.2,0.7-4.4,1.9
			l-22.6,24.4c-2.2,2.4-2.2,6.1,0.1,8.4l1.7,1.8l-9,9L237.9,45c-12.7-3.1-26.2,0.7-35.4,10l-25.9,30.2l-30.1-30.1
			c-8.6-8.6-21.3-11.6-32.9-7.8c-0.7,0.2-1.3,0.6-1.9,1l-1.7,1.3l-4-4l7.9-7.9c2.4-2.4,2.4-6.2,0-8.6c0,0,0,0,0,0L89.6,4.8
			c-2.4-2.4-6.2-2.4-8.6,0c0,0,0,0,0,0L1.8,84.1c-2.4,2.4-2.4,6.2,0,8.6c0,0,0,0,0,0l24.4,24.4c2.4,2.4,6.2,2.4,8.6,0c0,0,0,0,0,0
			l2.8-2.8L52,128.7l-3.5,14.2c-3.1,12.6,0.5,25.8,9.6,35l51.6,53.1v47.6c0.1,10.9,6.2,20.9,15.9,25.9c5.2,2.8,8.4,8.2,8.4,14.1v1.3
			H128c-3.4,0-6.1,2.7-6.1,6.1c0,0,0,0,0,0v30.5c0,3.4,2.7,6.1,6.1,6.1c0,0,0,0,0,0h115.8c3.4,0,6.1-2.7,6.1-6.1c0,0,0,0,0,0v-30.5
			c0-3.4-2.7-6.1-6.1-6.1c0,0,0,0,0,0h-6.1v-6.1l9.7-8.9c9.2-7,14.7-17.9,14.7-29.5V204c7.2-0.9,13.9-4.2,19-9.3l32.2-35
			c7.6-7.5,10.2-18.7,6.8-28.8c-1-2.9,4.3-12.6,10.5-19.9c1.1,1.1,2.6,1.7,4.2,1.8h0.1c1.6,0,3.1-0.6,4.3-1.8l24.7-24.4
			C366.3,84.2,366.3,80.4,363.9,78z M30.5,104.1L14.7,88.4l70.6-70.6l15.8,15.8L30.5,104.1z M110.3,214.1l-43.5-44.7
			c-6.1-6.2-8.6-15.1-6.5-23.5l4.4-17.5c0.5-2.1-0.1-4.3-1.6-5.8l-16.9-16.9l51.4-51.4l7.9,7.9c2.2,2.2,5.7,2.4,8.1,0.4l5-4
			c6.9-1.9,14.3,0,19.4,5.1l33.6,33.6l-0.1,0c-2.7,2.5-4.7,5.7-5.9,9.2c-3.8-2-8.1-2.9-12.4-2.5c-11.1,1.4-19.3,10.9-19.2,22.1v63.7
			C122,192.4,112.6,202,110.3,214.1z M237.7,350.5H134.1v-18.3h103.6V350.5z M249.9,275.4c-0.1,8-3.9,15.4-10.3,20.1l-12.1,11.1
			c-1.3,1.2-2,2.8-2,4.5v8.8h-79.2v-1.3c0-10.4-5.7-19.9-14.9-24.8c-5.7-2.9-9.4-8.8-9.5-15.2v-59c0-7.7,4.9-14.6,12.2-17.2v38.1
			h12.2V126.1c-0.2-4.9,3.3-9.2,8.2-10c2.6-0.3,5.2,0.6,7.1,2.3c1.9,1.7,3,4.2,3,6.8v91.1h12.2V113.1c0-5,4.1-9.1,9.1-9.1
			c0.3,0,0.6,0,0.8,0c4.9,0.8,8.5,5.2,8.3,10.2v102.2h12.2v-85c0-5,4.1-9.1,9.1-9.1c0.3,0,0.6,0,0.8,0c4.9,0.8,8.5,5.2,8.3,10.2
			v83.9h12.2V166c7.3,2.6,12.2,9.4,12.2,17.2V275.4z M308.6,134.8L308.6,134.8c1.9,5.8,0.4,12.2-4,16.5l-32.2,35
			c-2.8,2.8-6.4,4.7-10.2,5.5v-8.6c0-14.5-10.2-26.9-24.4-29.9v-20.9c0.2-11.3-8.2-21-19.4-22.3c-3.8-0.3-7.7,0.4-11.1,2
			c-0.7-10.5-8.9-19.1-19.4-20.3c-0.3,0-0.5,0-0.8,0l24.5-28.6c6.2-6.1,15.1-8.6,23.5-6.5l17.5,4.4c2.1,0.5,4.3-0.1,5.8-1.6
			l11.3-11.3l52.5,54C316.5,108.8,305,124,308.6,134.8z M335,98l-62.8-64.6l14.4-15.5l64.3,64.3L335,98z"/>
	</g>
</g>
</svg>
