<?xml version="1.0" encoding="utf-8"?>
<!-- Generator: Adobe Illustrator 25.1.0, SVG Export Plug-In . SVG Version: 6.00 Build 0)  -->
<svg version="1.1" id="Capa_1" xmlns="http://www.w3.org/2000/svg" xmlns:xlink="http://www.w3.org/1999/xlink" x="0px" y="0px"
	 viewBox="0 0 365.7 365.7" style="enable-background:new 0 0 365.7 365.7;" xml:space="preserve">
<style type="text/css">
	.st0{fill:#999999;}
</style>
<g>
	<path class="st0" d="M325.8,0c-22,0-39.9,17.9-39.9,39.9c0,6.9,1.7,13.4,4.8,19l-65.3,65.3c-9-7-20.3-11.2-32.6-11.2
		s-23.5,4.2-32.6,11.2l-51-51c2.3-4,3.8-8.5,3.8-13.4c0-14.7-11.9-26.6-26.6-26.6S59.8,45.2,59.8,59.8s11.9,26.6,26.6,26.6
		c4.9,0,9.5-1.4,13.4-3.8l51,51c-7,9-11.2,20.3-11.2,32.6s4.2,23.5,11.2,32.6L66.6,283c-7.1-6.4-16.5-10.4-26.8-10.4
		c-22,0-39.9,17.9-39.9,39.9c0,22,17.9,39.9,39.9,39.9s39.9-17.9,39.9-39.9c0-6.9-1.7-13.4-4.8-19l85.3-85.3
		c7.4,5.7,16.2,9.5,25.9,10.8v67.5c-18.8,3.2-33.2,19.6-33.2,39.3c0,22,17.9,39.9,39.9,39.9s39.9-17.9,39.9-39.9
		c0-19.7-14.4-36.1-33.2-39.3v-67.5c9.7-1.2,18.6-5,25.9-10.8l51,51c-2.3,4-3.8,8.5-3.8,13.4c0,14.7,11.9,26.6,26.6,26.6
		c14.7,0,26.6-11.9,26.6-26.6c0-14.7-11.9-26.6-26.6-26.6c-4.9,0-9.5,1.4-13.4,3.8l-51-51c7-9,11.2-20.3,11.2-32.6
		s-4.2-23.5-11.2-32.6L299,69.4c7.1,6.4,16.4,10.4,26.7,10.4c22,0,39.9-17.9,39.9-39.9S347.8,0,325.8,0z M73.1,59.8
		c0-7.3,6-13.3,13.3-13.3s13.3,6,13.3,13.3s-6,13.3-13.3,13.3S73.1,67.2,73.1,59.8z M39.9,339.1c-14.7,0-26.6-11.9-26.6-26.6
		c0-14.7,11.9-26.6,26.6-26.6s26.6,11.9,26.6,26.6C66.5,327.1,54.6,339.1,39.9,339.1z M219.4,325.8c0,14.7-11.9,26.6-26.6,26.6
		s-26.6-11.9-26.6-26.6c0-14.7,11.9-26.6,26.6-26.6S219.4,311.1,219.4,325.8z M192.8,206.1c-22,0-39.9-17.9-39.9-39.9
		s17.9-39.9,39.9-39.9c22,0,39.9,17.9,39.9,39.9S214.8,206.1,192.8,206.1z M312.5,272.6c0,7.3-6,13.3-13.3,13.3s-13.3-6-13.3-13.3
		c0-7.3,6-13.3,13.3-13.3S312.5,265.3,312.5,272.6z M325.8,66.5c-14.7,0-26.6-11.9-26.6-26.6s11.9-26.6,26.6-26.6
		c14.7,0,26.6,11.9,26.6,26.6S340.4,66.5,325.8,66.5z"/>
</g>
</svg>
