<?xml version="1.0" encoding="utf-8"?>
<!-- Generator: Adobe Illustrator 25.1.0, SVG Export Plug-In . SVG Version: 6.00 Build 0)  -->
<svg version="1.1" id="Layer_1" xmlns="http://www.w3.org/2000/svg" xmlns:xlink="http://www.w3.org/1999/xlink" x="0px" y="0px"
	 viewBox="0 0 1380 218" enable-background="new 0 0 1380 218" xml:space="preserve">
<g id="그룹_492" transform="translate(-551 -1431)">
	<line id="선_139" fill="none" stroke="#C8C7C7" x1="1241" y1="1431" x2="1241" y2="1511"/>
	<rect id="사각형_250" x="902" y="1591" fill="#999999" width="327" height="58"/>
	<rect id="사각형_249" x="1253" y="1591" fill="#999999" width="327" height="58"/>
	<g enable-background="new    ">
		<path fill="#FFFFFF" d="M1030.67,1616.11c0,0.67,0.05,1.34,0.14,2.01c0.1,0.67,0.26,1.3,0.5,1.91c0.23,0.61,0.54,1.17,0.92,1.68
			s0.85,0.96,1.41,1.33l-1.3,1.84c-0.71-0.43-1.29-0.99-1.74-1.67c-0.45-0.68-0.81-1.44-1.07-2.28c-0.29,0.92-0.68,1.76-1.17,2.51
			c-0.49,0.75-1.12,1.35-1.87,1.81l-1.42-1.78c0.61-0.37,1.13-0.83,1.55-1.37c0.42-0.54,0.76-1.13,1.02-1.76
			c0.26-0.64,0.45-1.31,0.57-2.02c0.12-0.71,0.18-1.42,0.18-2.12v-2.79h2.29V1616.11z M1033.98,1612.24h2.2v15.57h-2.2v-8.32h-2.07
			v-1.93h2.07V1612.24z M1039.58,1611.97v16.58h-2.23v-16.58H1039.58z"/>
		<path fill="#FFFFFF" d="M1056.95,1623.13h-6.37v5.42h-2.38v-5.42h-6.26v-1.89h15.01V1623.13z M1055.15,1619.48h-11.48v-6.7h11.48
			V1619.48z M1052.82,1614.65H1046v2.95h6.82V1614.65z"/>
		<path fill="#FFFFFF" d="M1065.08,1623.74c0.68-0.04,1.36-0.08,2.03-0.13s1.32-0.12,1.97-0.22l0.18,1.71
			c-0.9,0.17-1.81,0.3-2.74,0.39c-0.92,0.09-1.83,0.16-2.72,0.21c-0.89,0.05-1.75,0.08-2.58,0.08s-1.62,0.01-2.35,0.01l-0.29-1.93
			c0.62,0,1.28,0,1.97,0s1.41-0.01,2.15-0.04v-1.4c-0.9-0.17-1.61-0.52-2.14-1.04c-0.53-0.53-0.79-1.18-0.79-1.94
			c0-0.47,0.1-0.89,0.31-1.28s0.48-0.71,0.84-0.99c0.36-0.28,0.79-0.49,1.29-0.64s1.06-0.23,1.67-0.23c0.6,0,1.15,0.08,1.65,0.23
			s0.93,0.36,1.29,0.64c0.36,0.28,0.64,0.61,0.84,0.99s0.31,0.81,0.31,1.28c0,0.77-0.26,1.42-0.79,1.94
			c-0.52,0.53-1.23,0.88-2.11,1.04V1623.74z M1068.86,1615.66h-9.95v-1.85h3.8v-1.78h2.38v1.78h3.78V1615.66z M1062.06,1619.44
			c0,0.42,0.17,0.74,0.51,0.97s0.78,0.34,1.33,0.34c0.56,0,1.01-0.11,1.34-0.34s0.5-0.55,0.5-0.97c0-0.43-0.17-0.76-0.5-0.99
			s-0.78-0.34-1.34-0.34c-0.55,0-0.99,0.11-1.33,0.34S1062.06,1619.01,1062.06,1619.44z M1072.32,1611.97v16.58h-2.38v-16.58
			H1072.32z"/>
		<path fill="#FFFFFF" d="M1083.66,1612.33h2.2v15.5h-2.2v-5.44h-2.3v-1.91h2.3v-2.25h-2c-0.37,1.37-0.99,2.63-1.86,3.78
			c-0.87,1.15-2.08,2.18-3.63,3.1l-1.35-1.66c0.82-0.5,1.52-1.03,2.12-1.58c0.6-0.55,1.1-1.14,1.5-1.76c0.4-0.62,0.72-1.29,0.94-2
			s0.38-1.47,0.45-2.29h-4.09v-1.89h6.44c0,0.42-0.01,0.83-0.04,1.23s-0.06,0.79-0.11,1.18h1.6V1612.33z M1089.29,1611.95v16.6
			h-2.23v-16.6H1089.29z"/>
		<path fill="#FFFFFF" d="M1101.84,1620.65c-0.59,0.1-1.17,0.17-1.74,0.22c-0.57,0.05-1.16,0.1-1.78,0.13
			c-0.62,0.03-1.28,0.05-2,0.06c-0.71,0.01-1.51,0.02-2.38,0.02h-1.42v-8.15h7.97v1.87h-5.62v1.26h5.13v1.84h-5.13v1.31
			c0.72,0,1.38-0.01,1.97-0.03c0.59-0.02,1.16-0.04,1.7-0.06s1.06-0.06,1.56-0.12c0.5-0.05,1-0.12,1.52-0.19L1101.84,1620.65z
			 M1094.35,1622.5h11.05v5.87h-11.05V1622.5z M1096.69,1626.5h6.37v-2.14h-6.37V1626.5z M1105.4,1611.99v9.83h-2.41v-9.83H1105.4z"
			/>
	</g>
	<g enable-background="new    ">
		<path fill="#FFFFFF" d="M1385.63,1617.24c0,0.6-0.11,1.16-0.34,1.67c-0.23,0.52-0.55,0.96-0.95,1.33
			c-0.41,0.37-0.89,0.66-1.43,0.87s-1.14,0.32-1.77,0.32c-0.64,0-1.23-0.11-1.78-0.32s-1.03-0.5-1.43-0.87
			c-0.4-0.37-0.72-0.82-0.95-1.33c-0.23-0.52-0.35-1.07-0.35-1.67c0-0.61,0.12-1.18,0.35-1.69c0.23-0.52,0.55-0.96,0.95-1.33
			c0.4-0.37,0.88-0.66,1.43-0.87s1.15-0.31,1.78-0.31c0.64,0,1.23,0.1,1.77,0.31s1.02,0.5,1.43,0.87c0.41,0.37,0.73,0.82,0.95,1.33
			C1385.51,1616.07,1385.63,1616.63,1385.63,1617.24z M1378.93,1617.24c0,0.67,0.21,1.2,0.64,1.58c0.43,0.38,0.94,0.57,1.56,0.57
			c0.62,0,1.14-0.19,1.56-0.57s0.62-0.9,0.62-1.58c0-0.68-0.21-1.21-0.62-1.59s-0.93-0.57-1.56-0.57c-0.61,0-1.13,0.19-1.56,0.57
			C1379.14,1616.03,1378.93,1616.56,1378.93,1617.24z M1390.56,1626.37v1.89h-11.45v-5.54h2.38v3.65H1390.56z M1390.16,1623.89
			h-2.41v-11.9h2.41V1623.89z"/>
		<path fill="#FFFFFF" d="M1399.05,1615.66c0,0.74,0.08,1.48,0.23,2.21c0.15,0.73,0.38,1.42,0.69,2.07
			c0.31,0.65,0.71,1.23,1.19,1.75c0.48,0.52,1.06,0.94,1.73,1.27l-1.44,1.87c-0.86-0.44-1.59-1.05-2.18-1.82
			c-0.59-0.77-1.06-1.65-1.41-2.65c-0.36,1.06-0.86,2-1.49,2.83s-1.42,1.48-2.35,1.94l-1.42-1.93c0.7-0.32,1.3-0.76,1.81-1.3
			c0.51-0.54,0.93-1.15,1.26-1.82s0.58-1.39,0.74-2.15c0.16-0.76,0.24-1.53,0.24-2.29v-2.41h2.41V1615.66z M1408.32,1620.32h-2.41
			v8.23h-2.38v-16.58h2.38v6.37h2.41V1620.32z"/>
		<path fill="#FFFFFF" d="M1424.47,1620.29v1.85h-14.98v-1.85h6.28v-1.58h2.38v1.58H1424.47z M1410.12,1617.69
			c0.89-0.05,1.66-0.15,2.31-0.3c0.65-0.15,1.2-0.33,1.64-0.55c0.44-0.22,0.78-0.45,1.04-0.71c0.25-0.26,0.41-0.53,0.49-0.82h-4.68
			v-1.85h4.86v-1.46h2.38v1.46h4.88v1.85h-4.68c0.07,0.29,0.23,0.56,0.49,0.82c0.25,0.26,0.6,0.5,1.04,0.71
			c0.44,0.22,0.98,0.4,1.64,0.55c0.65,0.15,1.42,0.25,2.31,0.3l-0.7,1.76c-1.54-0.11-2.81-0.37-3.83-0.77
			c-1.02-0.41-1.79-0.94-2.3-1.6c-0.53,0.66-1.3,1.19-2.32,1.6c-1.02,0.41-2.3,0.67-3.83,0.77L1410.12,1617.69z M1416.95,1622.93
			c1.81,0,3.22,0.24,4.24,0.72c1.01,0.48,1.52,1.18,1.52,2.09s-0.51,1.61-1.52,2.1c-1.01,0.49-2.43,0.73-4.24,0.73
			c-1.81,0-3.22-0.24-4.23-0.73s-1.51-1.18-1.51-2.1s0.5-1.61,1.5-2.09C1413.71,1623.17,1415.12,1622.93,1416.95,1622.93z
			 M1416.96,1626.8c2.23,0,3.34-0.35,3.34-1.06c0-0.38-0.28-0.66-0.83-0.82c-0.55-0.16-1.39-0.24-2.51-0.24s-1.96,0.08-2.51,0.24
			s-0.83,0.44-0.83,0.82C1413.62,1626.45,1414.73,1626.8,1416.96,1626.8z"/>
		<path fill="#FFFFFF" d="M1441.07,1623.13h-6.37v5.42h-2.38v-5.42h-6.26v-1.89h15.01V1623.13z M1439.27,1619.48h-11.48v-6.7h11.48
			V1619.48z M1436.94,1614.65h-6.82v2.95h6.82V1614.65z"/>
		<path fill="#FFFFFF" d="M1452.84,1620.65c-0.59,0.1-1.17,0.17-1.74,0.22s-1.16,0.1-1.78,0.13s-1.28,0.05-2,0.06
			c-0.71,0.01-1.51,0.02-2.38,0.02h-1.42v-8.15h7.97v1.87h-5.62v1.26h5.13v1.84h-5.13v1.31c0.72,0,1.38-0.01,1.97-0.03
			c0.59-0.02,1.16-0.04,1.7-0.06s1.06-0.06,1.56-0.12s1-0.12,1.52-0.19L1452.84,1620.65z M1445.35,1622.5h11.05v5.87h-11.05V1622.5z
			 M1447.69,1626.5h6.37v-2.14h-6.37V1626.5z M1456.4,1611.99v9.83h-2.41v-9.83H1456.4z"/>
	</g>
	<path id="패스_207" fill="none" stroke="#C8C7C7" d="M1417,1591v-80h-352v79.92"/>
</g>
<g>
</g>
<g>
</g>
<g>
</g>
<g>
</g>
<g>
</g>
<g>
</g>
</svg>
