<?xml version="1.0" encoding="utf-8"?>
<!-- Generator: Adobe Illustrator 25.1.0, SVG Export Plug-In . SVG Version: 6.00 Build 0)  -->
<svg version="1.1" id="Layer_1" xmlns="http://www.w3.org/2000/svg" xmlns:xlink="http://www.w3.org/1999/xlink" x="0px" y="0px"
	 viewBox="0 0 1380 218" enable-background="new 0 0 1380 218" xml:space="preserve">
<g id="그룹_491" transform="translate(-200 -1093)">
	<line id="선_135" fill="none" stroke="#C8C7C7" x1="714.5" y1="1173.31" x2="714.5" y2="1253.5"/>
	<line id="선_136" fill="none" stroke="#C8C7C7" x1="1065.5" y1="1173.31" x2="1065.5" y2="1253.5"/>
	<line id="선_134" fill="none" stroke="#C8C7C7" x1="422" y1="1093" x2="422" y2="1173"/>
	<rect id="사각형_178" x="200" y="1253" fill="#999999" width="327" height="58"/>
	<rect id="사각형_245" x="551" y="1253" fill="#999999" width="327" height="58"/>
	<rect id="사각형_246" x="902" y="1253" fill="#999999" width="327" height="58"/>
	<rect id="사각형_247" x="1253" y="1253" fill="#999999" width="327" height="58"/>
	<g enable-background="new    ">
		<path fill="#FFFFFF" d="M331.47,1289.25c-0.9,0-1.77-0.17-2.62-0.5c-0.85-0.34-1.59-0.82-2.24-1.44l1.53-1.84
			c0.48,0.44,1.02,0.8,1.61,1.07c0.59,0.27,1.19,0.41,1.77,0.41c0.7,0,1.22-0.14,1.58-0.41s0.54-0.65,0.54-1.12
			c0-0.25-0.05-0.46-0.15-0.63c-0.1-0.17-0.23-0.32-0.41-0.45s-0.39-0.25-0.63-0.36c-0.25-0.11-0.52-0.23-0.82-0.36l-1.79-0.76
			c-0.33-0.14-0.66-0.32-0.98-0.52c-0.32-0.2-0.61-0.45-0.86-0.75c-0.25-0.29-0.45-0.63-0.61-1.01c-0.16-0.38-0.23-0.81-0.23-1.3
			c0-0.54,0.11-1.05,0.34-1.52c0.23-0.47,0.54-0.88,0.95-1.22s0.89-0.61,1.45-0.81c0.56-0.2,1.18-0.3,1.85-0.3
			c0.78,0,1.54,0.15,2.27,0.44s1.37,0.72,1.91,1.27l-1.35,1.67c-0.42-0.35-0.86-0.62-1.31-0.81c-0.46-0.19-0.96-0.29-1.51-0.29
			c-0.59,0-1.06,0.12-1.4,0.37s-0.52,0.59-0.52,1.04c0,0.24,0.06,0.44,0.17,0.61c0.11,0.17,0.27,0.32,0.45,0.45
			c0.19,0.13,0.41,0.25,0.66,0.36c0.25,0.11,0.52,0.22,0.81,0.32l1.75,0.74c0.41,0.17,0.78,0.36,1.11,0.58s0.61,0.47,0.85,0.76
			c0.23,0.29,0.41,0.62,0.54,1c0.13,0.38,0.19,0.81,0.19,1.29c0,0.54-0.11,1.06-0.33,1.55c-0.22,0.49-0.54,0.92-0.96,1.29
			c-0.42,0.37-0.93,0.66-1.54,0.87S332.24,1289.25,331.47,1289.25z"/>
		<path fill="#FFFFFF" d="M338.73,1275.68h2.95l2.26,6.23c0.14,0.42,0.28,0.85,0.41,1.28c0.13,0.43,0.26,0.86,0.4,1.3h0.09
			c0.14-0.43,0.28-0.86,0.4-1.3c0.13-0.43,0.26-0.86,0.4-1.28l2.21-6.23h2.95V1289h-2.41v-5.56c0-0.31,0.01-0.66,0.04-1.04
			c0.02-0.38,0.05-0.76,0.08-1.15c0.03-0.39,0.06-0.77,0.1-1.15c0.04-0.38,0.07-0.72,0.11-1.03h-0.07l-1.08,3.13l-2.05,5.6h-1.53
			l-2.07-5.6l-1.06-3.13h-0.07c0.04,0.31,0.07,0.66,0.11,1.03s0.07,0.76,0.11,1.15s0.07,0.77,0.09,1.15
			c0.02,0.38,0.04,0.72,0.04,1.04v5.56h-2.41V1275.68z"/>
		<path fill="#FFFFFF" d="M359.36,1277.66c0,0.74,0.07,1.48,0.23,2.21c0.15,0.73,0.38,1.42,0.69,2.07c0.31,0.65,0.71,1.23,1.19,1.75
			c0.48,0.52,1.06,0.94,1.73,1.27l-1.44,1.87c-0.86-0.44-1.59-1.05-2.18-1.82c-0.59-0.77-1.06-1.65-1.41-2.65
			c-0.36,1.06-0.86,2-1.49,2.83s-1.42,1.48-2.35,1.94l-1.42-1.93c0.7-0.32,1.3-0.76,1.81-1.3c0.51-0.54,0.93-1.15,1.26-1.82
			s0.58-1.39,0.74-2.15c0.16-0.76,0.24-1.53,0.24-2.29v-2.41h2.41V1277.66z M368.63,1282.32h-2.41v8.23h-2.38v-16.58h2.38v6.37h2.41
			V1282.32z"/>
		<path fill="#FFFFFF" d="M383.66,1273.97v8.91h-2.38v-3.33h-2.63c-0.11,0.46-0.29,0.87-0.56,1.23c-0.26,0.37-0.58,0.68-0.95,0.95
			c-0.37,0.27-0.79,0.48-1.26,0.62c-0.47,0.14-0.97,0.22-1.51,0.22c-0.62,0-1.2-0.1-1.73-0.3c-0.53-0.2-0.99-0.47-1.38-0.82
			c-0.39-0.35-0.7-0.76-0.92-1.25c-0.22-0.49-0.33-1.02-0.33-1.59s0.11-1.11,0.33-1.59c0.22-0.49,0.53-0.9,0.92-1.25
			c0.39-0.35,0.85-0.62,1.38-0.82c0.53-0.2,1.1-0.3,1.73-0.3c0.53,0,1.03,0.07,1.49,0.22c0.47,0.14,0.89,0.35,1.26,0.61
			c0.37,0.26,0.69,0.58,0.94,0.94c0.26,0.36,0.45,0.76,0.57,1.21h2.65v-3.65H383.66z M374.39,1280.59c0.61,0,1.12-0.17,1.51-0.52
			c0.4-0.35,0.59-0.83,0.59-1.46s-0.2-1.11-0.59-1.46c-0.4-0.35-0.9-0.52-1.51-0.52c-0.61,0-1.11,0.17-1.5,0.52
			c-0.39,0.35-0.58,0.83-0.58,1.46s0.19,1.11,0.58,1.46C373.27,1280.42,373.77,1280.59,374.39,1280.59z M381.3,1283.6h2.36v6.75
			h-10.98v-6.75h2.36v1.58h6.26V1283.6z M381.3,1286.98h-6.26v1.49h6.26V1286.98z"/>
		<path fill="#FFFFFF" d="M401.37,1285.4H395v5.17h-2.38v-5.17h-6.26v-1.89h15.01V1285.4z M399.59,1281.94h-11.52v-7.34h2.36v1.89
			h6.82v-1.89h2.34V1281.94z M397.25,1278.34h-6.82v1.71h6.82V1278.34z"/>
	</g>
	<g enable-background="new    ">
		<path fill="#FFFFFF" d="M685.15,1289.25c-0.9,0-1.77-0.17-2.62-0.5c-0.85-0.34-1.59-0.82-2.24-1.44l1.53-1.84
			c0.48,0.44,1.02,0.8,1.61,1.07c0.59,0.27,1.19,0.41,1.77,0.41c0.7,0,1.22-0.14,1.58-0.41c0.36-0.28,0.54-0.65,0.54-1.12
			c0-0.25-0.05-0.46-0.15-0.63c-0.1-0.17-0.23-0.32-0.41-0.45s-0.39-0.25-0.63-0.36c-0.25-0.11-0.52-0.23-0.82-0.36l-1.79-0.76
			c-0.33-0.14-0.66-0.32-0.98-0.52c-0.32-0.2-0.61-0.45-0.86-0.75s-0.45-0.63-0.61-1.01s-0.23-0.81-0.23-1.3
			c0-0.54,0.11-1.05,0.34-1.52c0.23-0.47,0.54-0.88,0.95-1.22s0.89-0.61,1.45-0.81c0.56-0.2,1.18-0.3,1.85-0.3
			c0.78,0,1.54,0.15,2.27,0.44c0.73,0.29,1.37,0.72,1.91,1.27l-1.35,1.67c-0.42-0.35-0.86-0.62-1.31-0.81
			c-0.46-0.19-0.96-0.29-1.51-0.29c-0.59,0-1.06,0.12-1.4,0.37c-0.35,0.25-0.52,0.59-0.52,1.04c0,0.24,0.06,0.44,0.17,0.61
			s0.27,0.32,0.45,0.45c0.19,0.13,0.41,0.25,0.66,0.36s0.52,0.22,0.81,0.32l1.75,0.74c0.41,0.17,0.78,0.36,1.11,0.58
			s0.61,0.47,0.85,0.76c0.23,0.29,0.41,0.62,0.54,1c0.13,0.38,0.19,0.81,0.19,1.29c0,0.54-0.11,1.06-0.33,1.55
			c-0.22,0.49-0.54,0.92-0.96,1.29c-0.42,0.37-0.93,0.66-1.54,0.87C686.6,1289.14,685.92,1289.25,685.15,1289.25z"/>
		<path fill="#FFFFFF" d="M692.4,1275.68h2.66V1289h-2.66V1275.68z"/>
		<path fill="#FFFFFF" d="M707.68,1277.66c0,0.74,0.07,1.48,0.22,2.21c0.15,0.73,0.38,1.42,0.69,2.07c0.31,0.65,0.71,1.23,1.19,1.75
			c0.48,0.52,1.06,0.94,1.73,1.27l-1.44,1.87c-0.86-0.44-1.59-1.05-2.18-1.82c-0.59-0.77-1.06-1.65-1.41-2.65
			c-0.36,1.06-0.86,2-1.49,2.83s-1.42,1.48-2.35,1.94l-1.42-1.93c0.7-0.32,1.3-0.76,1.81-1.3s0.93-1.15,1.26-1.82
			s0.58-1.39,0.74-2.15s0.24-1.53,0.24-2.29v-2.41h2.41V1277.66z M716.95,1282.32h-2.41v8.23h-2.38v-16.58h2.38v6.37h2.41V1282.32z"
			/>
		<path fill="#FFFFFF" d="M731.98,1273.97v8.91h-2.38v-3.33h-2.63c-0.11,0.46-0.29,0.87-0.56,1.23c-0.26,0.37-0.58,0.68-0.95,0.95
			c-0.37,0.27-0.79,0.48-1.26,0.62c-0.47,0.14-0.97,0.22-1.51,0.22c-0.62,0-1.2-0.1-1.73-0.3c-0.53-0.2-0.99-0.47-1.38-0.82
			c-0.39-0.35-0.7-0.76-0.92-1.25c-0.22-0.49-0.33-1.02-0.33-1.59s0.11-1.11,0.33-1.59c0.22-0.49,0.53-0.9,0.92-1.25
			c0.39-0.35,0.85-0.62,1.38-0.82c0.53-0.2,1.1-0.3,1.73-0.3c0.53,0,1.03,0.07,1.49,0.22c0.47,0.14,0.89,0.35,1.26,0.61
			c0.37,0.26,0.69,0.58,0.95,0.94c0.26,0.36,0.45,0.76,0.57,1.21h2.65v-3.65H731.98z M722.71,1280.59c0.61,0,1.12-0.17,1.51-0.52
			c0.4-0.35,0.59-0.83,0.59-1.46s-0.2-1.11-0.59-1.46c-0.4-0.35-0.9-0.52-1.51-0.52c-0.61,0-1.11,0.17-1.5,0.52
			c-0.39,0.35-0.58,0.83-0.58,1.46s0.2,1.11,0.58,1.46C721.6,1280.42,722.1,1280.59,722.71,1280.59z M729.62,1283.6h2.36v6.75H721
			v-6.75h2.36v1.58h6.26V1283.6z M729.62,1286.98h-6.26v1.49h6.26V1286.98z"/>
		<path fill="#FFFFFF" d="M749.69,1285.4h-6.37v5.17h-2.38v-5.17h-6.26v-1.89h15.01V1285.4z M747.91,1281.94h-11.52v-7.34h2.36v1.89
			h6.82v-1.89h2.34V1281.94z M745.57,1278.34h-6.82v1.71h6.82V1278.34z"/>
	</g>
	<g enable-background="new    ">
		<path fill="#FFFFFF" d="M1043.75,1282.75c-0.85,0.14-1.72,0.25-2.6,0.33s-1.75,0.14-2.62,0.19s-1.71,0.08-2.54,0.09
			s-1.61,0.02-2.34,0.02l-0.23-1.89c0.47,0,0.95,0,1.46,0s1.03-0.01,1.57-0.02v-2.9h2.32v2.84c0.83-0.04,1.65-0.08,2.46-0.13
			c0.81-0.05,1.61-0.13,2.39-0.23L1043.75,1282.75z M1040.21,1280.13c0.13-0.68,0.22-1.3,0.26-1.85c0.04-0.55,0.07-1.06,0.08-1.51
			h-6.16v-1.89h8.5v1.08c0,0.55-0.01,1.19-0.04,1.92c-0.03,0.73-0.14,1.54-0.33,2.44L1040.21,1280.13z M1041.3,1284.27
			c0.88,0,1.67,0.07,2.38,0.22c0.71,0.14,1.31,0.35,1.8,0.62c0.49,0.27,0.87,0.6,1.14,0.98c0.27,0.38,0.41,0.82,0.41,1.31
			s-0.13,0.93-0.41,1.31c-0.27,0.38-0.65,0.71-1.14,0.98c-0.49,0.27-1.09,0.48-1.8,0.62c-0.71,0.14-1.5,0.22-2.38,0.22
			c-0.89,0-1.69-0.07-2.39-0.22c-0.71-0.14-1.31-0.35-1.81-0.62c-0.5-0.27-0.88-0.6-1.15-0.98c-0.27-0.38-0.41-0.82-0.41-1.31
			s0.13-0.93,0.41-1.31c0.27-0.38,0.65-0.71,1.15-0.98c0.5-0.27,1.1-0.48,1.81-0.62C1039.62,1284.34,1040.42,1284.27,1041.3,1284.27
			z M1041.29,1288.68c1.07,0,1.89-0.1,2.46-0.31s0.85-0.53,0.85-0.97c0-0.44-0.28-0.77-0.85-0.98s-1.38-0.32-2.46-0.32
			c-1.09,0-1.92,0.11-2.49,0.32s-0.85,0.54-0.85,0.98c0,0.44,0.28,0.77,0.85,0.97S1040.2,1288.68,1041.29,1288.68z M1048.88,1278.04
			v1.96h-2v4.09h-2.38v-10.12h2.38v4.07H1048.88z"/>
		<path fill="#FFFFFF" d="M1065.21,1285.02h-6.35v5.56h-2.38v-5.56h-6.25v-1.89h14.98V1285.02z M1050.93,1280.32
			c0.84-0.11,1.58-0.28,2.23-0.52c0.65-0.24,1.19-0.52,1.64-0.85c0.44-0.32,0.79-0.68,1.04-1.07c0.25-0.39,0.41-0.78,0.47-1.18
			h-4.77v-1.89h12.29v1.89h-4.7c0.06,0.4,0.21,0.79,0.46,1.18c0.25,0.39,0.59,0.75,1.03,1.07c0.44,0.32,0.99,0.61,1.63,0.85
			c0.64,0.24,1.38,0.41,2.22,0.52l-0.85,1.85c-1.45-0.2-2.68-0.6-3.67-1.18s-1.75-1.3-2.25-2.15c-0.5,0.85-1.25,1.57-2.25,2.15
			s-2.22,0.97-3.67,1.18L1050.93,1280.32z"/>
		<path fill="#FFFFFF" d="M1073.18,1278.43c0,0.67,0.08,1.35,0.25,2.03c0.17,0.68,0.42,1.32,0.76,1.92c0.34,0.6,0.77,1.14,1.28,1.62
			c0.51,0.48,1.11,0.86,1.81,1.15l-1.3,1.87c-0.97-0.42-1.79-1.01-2.44-1.78c-0.65-0.77-1.17-1.66-1.54-2.66
			c-0.37,1.09-0.89,2.06-1.56,2.92c-0.67,0.85-1.48,1.5-2.46,1.94l-1.35-1.89c0.7-0.31,1.3-0.73,1.82-1.24
			c0.52-0.52,0.95-1.09,1.29-1.72c0.34-0.63,0.6-1.3,0.77-2.02c0.17-0.71,0.25-1.42,0.25-2.13v-0.92h-3.46v-1.96h9.29v1.96h-3.42
			V1278.43z M1080.51,1273.97v16.58h-2.38v-16.58H1080.51z"/>
		<path fill="#FFFFFF" d="M1098.35,1285.4h-6.37v5.17h-2.38v-5.17h-6.26v-1.89h15.01V1285.4z M1096.56,1281.94h-11.52v-7.34h2.36
			v1.89h6.82v-1.89h2.34V1281.94z M1094.22,1278.34h-6.82v1.71h6.82V1278.34z"/>
	</g>
	<g enable-background="new    ">
		<path fill="#FFFFFF" d="M1399.67,1286.77v1.91h-15.01v-1.91h6.28v-2.95h-5.02v-1.89h2.16v-4.7h-2.25v-1.89h12.6v1.89h-2.25v4.7
			h2.2v1.89h-5.06v2.95H1399.67z M1390.43,1281.93h3.38v-4.7h-3.38V1281.93z"/>
		<path fill="#FFFFFF" d="M1410.03,1284.3c-0.94-0.28-1.72-0.68-2.36-1.21c-0.64-0.53-1.15-1.15-1.53-1.87
			c-0.36,0.78-0.86,1.46-1.51,2.03c-0.65,0.58-1.44,1.01-2.38,1.31l-1.15-1.85c0.66-0.22,1.23-0.5,1.72-0.84s0.88-0.73,1.19-1.16
			c0.31-0.43,0.53-0.89,0.68-1.38c0.15-0.49,0.22-0.98,0.22-1.48v-0.07h-3.24v-1.85h3.24v-1.84h2.38v1.84h3.28v1.85h-3.28v0.07
			c0,0.47,0.08,0.93,0.23,1.39c0.15,0.46,0.38,0.9,0.69,1.3c0.31,0.41,0.71,0.77,1.21,1.1s1.07,0.59,1.75,0.79L1410.03,1284.3z
			 M1415.45,1288.37v1.89h-11.3v-5.04h2.38v3.15H1415.45z M1412.7,1278.81v-4.84h2.38v12.28h-2.38v-5.53h-2.65v-1.91H1412.7z"/>
		<path fill="#FFFFFF" d="M1424.18,1278.43c0,0.67,0.08,1.35,0.25,2.03c0.17,0.68,0.42,1.32,0.76,1.92c0.34,0.6,0.77,1.14,1.28,1.62
			c0.51,0.48,1.11,0.86,1.81,1.15l-1.3,1.87c-0.97-0.42-1.79-1.01-2.44-1.78c-0.65-0.77-1.17-1.66-1.54-2.66
			c-0.37,1.09-0.89,2.06-1.56,2.92c-0.67,0.85-1.48,1.5-2.46,1.94l-1.35-1.89c0.7-0.31,1.3-0.73,1.82-1.24
			c0.52-0.52,0.95-1.09,1.29-1.72c0.34-0.63,0.6-1.3,0.77-2.02c0.17-0.71,0.25-1.42,0.25-2.13v-0.92h-3.46v-1.96h9.29v1.96h-3.42
			V1278.43z M1431.51,1273.97v16.58h-2.38v-16.58H1431.51z"/>
		<path fill="#FFFFFF" d="M1449.35,1286.68v1.91h-15.01v-1.91h6.25v-3.71h2.38v3.71H1449.35z M1447.87,1283.49
			c-1.46-0.26-2.72-0.76-3.75-1.49c-1.04-0.73-1.83-1.6-2.37-2.64c-0.54,1.02-1.33,1.9-2.36,2.63c-1.03,0.73-2.27,1.23-3.73,1.49
			l-0.97-1.96c0.94-0.16,1.76-0.42,2.48-0.79s1.33-0.81,1.82-1.31c0.49-0.5,0.86-1.04,1.12-1.62c0.25-0.58,0.38-1.16,0.38-1.74
			v-1.19h2.54v1.19c0,0.59,0.13,1.18,0.38,1.76s0.62,1.13,1.12,1.62s1.1,0.92,1.82,1.29s1.55,0.63,2.5,0.78L1447.87,1283.49z"/>
	</g>
	<path id="패스_197" fill="none" stroke="#C8C7C7" d="M1416.5,1253v-80h-1053v79.92"/>
</g>
<g>
</g>
<g>
</g>
<g>
</g>
<g>
</g>
<g>
</g>
<g>
</g>
</svg>
