<?xml version="1.0" encoding="utf-8"?>
<!-- Generator: Adobe Illustrator 25.1.0, SVG Export Plug-In . SVG Version: 6.00 Build 0)  -->
<svg version="1.1" id="Layer_1" xmlns="http://www.w3.org/2000/svg" xmlns:xlink="http://www.w3.org/1999/xlink" x="0px" y="0px"
	 viewBox="0 0 1380 218" enable-background="new 0 0 1380 218" xml:space="preserve">
<g>
	<line id="선_141" fill="none" stroke="#C8C7C7" x1="514.5" y1="80.31" x2="514.5" y2="160.5"/>
	<line id="선_140" fill="none" stroke="#C8C7C7" x1="865.5" y1="80.31" x2="865.5" y2="160.5"/>
	<line id="선_142" fill="none" stroke="#C8C7C7" x1="1158" y1="0" x2="1158" y2="80"/>
	<rect id="사각형_255" y="160" fill="#999999" width="327" height="58"/>
	<rect id="사각형_254" x="351" y="160" fill="#999999" width="327" height="58"/>
	<rect id="사각형_253" x="702" y="160" fill="#999999" width="327" height="58"/>
	<rect id="사각형_252" x="1053" y="160" fill="#999999" width="327" height="58"/>
	<g enable-background="new    ">
		<path fill="#FFFFFF" d="M138.39,193.79v1.94h-15.01v-1.94h6.3v-2.47h-4.57v-5.62h9.25v-1.78h-9.27v-1.89h11.61v5.53h-9.23v1.85
			h9.61v1.91h-5.02v2.47H138.39z"/>
		<path fill="#FFFFFF" d="M154.93,189.03v1.87h-14.99v-1.87h6.3v-1.31h-4.39v-6.28h2.36v1.4h6.46v-1.4h2.36v6.28h-4.41v1.31H154.93z
			 M148.63,192.02c0,0.4,0.1,0.79,0.32,1.19c0.21,0.4,0.53,0.76,0.96,1.09s0.98,0.62,1.64,0.86c0.66,0.24,1.45,0.41,2.36,0.52
			l-0.81,1.82c-1.38-0.18-2.54-0.51-3.49-1c-0.95-0.49-1.67-1.09-2.18-1.81c-0.5,0.72-1.23,1.32-2.18,1.81
			c-0.95,0.49-2.11,0.82-3.49,1l-0.81-1.82c0.91-0.11,1.7-0.28,2.36-0.52c0.66-0.24,1.21-0.53,1.64-0.86
			c0.43-0.33,0.75-0.69,0.95-1.09c0.2-0.4,0.31-0.79,0.31-1.19v-0.27h2.43V192.02z M144.2,185.87h6.46v-1.24h-6.46V185.87z"/>
		<path fill="#FFFFFF" d="M164.32,189.2c-0.41,0.42-0.89,0.75-1.45,0.99c-0.56,0.24-1.16,0.36-1.81,0.36
			c-0.61,0-1.18-0.11-1.71-0.32c-0.53-0.22-0.99-0.52-1.39-0.9s-0.71-0.84-0.93-1.36c-0.22-0.52-0.33-1.09-0.33-1.72
			c0-0.61,0.11-1.18,0.33-1.71c0.22-0.53,0.53-0.98,0.93-1.36s0.86-0.67,1.39-0.89c0.53-0.22,1.1-0.32,1.71-0.32
			c0.65,0,1.24,0.11,1.79,0.34c0.55,0.23,1.02,0.55,1.43,0.97h3.69v-2.3h2.38v12.13h-2.38v-3.91H164.32z M158.94,186.24
			c0,0.7,0.2,1.24,0.6,1.64c0.4,0.4,0.9,0.59,1.52,0.59s1.12-0.2,1.53-0.59c0.4-0.4,0.61-0.94,0.61-1.64c0-0.68-0.2-1.22-0.61-1.62
			c-0.4-0.4-0.91-0.59-1.53-0.59s-1.12,0.2-1.52,0.59C159.14,185.02,158.94,185.56,158.94,186.24z M170.73,195.37v1.89h-11.3v-5.35
			h2.38v3.46H170.73z M165.3,185.16c0.04,0.17,0.07,0.34,0.09,0.52c0.02,0.18,0.04,0.37,0.04,0.56c0,0.18-0.01,0.36-0.03,0.54
			c-0.02,0.18-0.05,0.35-0.1,0.52h2.68v-2.14H165.3z"/>
		<path fill="#FFFFFF" d="M188.05,190.89h-6.37v6.66h-2.41v-6.66h-6.19v-1.91h10.44c0.2-1.06,0.33-2,0.38-2.83s0.07-1.6,0.07-2.32
			h-9.18v-1.91h11.5v1.49c0,0.78-0.02,1.61-0.05,2.49c-0.04,0.88-0.16,1.91-0.36,3.07h2.18V190.89z"/>
		<path fill="#FFFFFF" d="M204.63,193.68v1.91h-15.01v-1.91h6.25v-3.71h2.38v3.71H204.63z M203.15,190.49
			c-1.46-0.26-2.72-0.76-3.75-1.49c-1.04-0.73-1.83-1.6-2.37-2.64c-0.54,1.02-1.33,1.9-2.36,2.63c-1.03,0.73-2.27,1.23-3.73,1.49
			l-0.97-1.96c0.94-0.16,1.76-0.42,2.48-0.79c0.72-0.37,1.33-0.81,1.82-1.31c0.49-0.5,0.86-1.04,1.12-1.62
			c0.25-0.58,0.38-1.16,0.38-1.74v-1.19h2.54v1.19c0,0.59,0.13,1.18,0.38,1.76s0.62,1.13,1.12,1.62s1.1,0.92,1.82,1.29
			c0.72,0.37,1.55,0.63,2.5,0.78L203.15,190.49z"/>
	</g>
	<g enable-background="new    ">
		<path fill="#FFFFFF" d="M464.39,196.25c-0.84,0-1.63-0.15-2.38-0.45c-0.74-0.3-1.39-0.74-1.94-1.31s-0.99-1.29-1.3-2.14
			c-0.32-0.85-0.48-1.84-0.48-2.95c0-1.09,0.16-2.07,0.49-2.93s0.78-1.6,1.34-2.2c0.56-0.6,1.22-1.06,1.97-1.37
			c0.75-0.31,1.54-0.47,2.39-0.47c0.85,0,1.61,0.17,2.27,0.51c0.66,0.34,1.21,0.74,1.64,1.2l-1.4,1.69c-0.34-0.32-0.7-0.59-1.1-0.8
			s-0.85-0.32-1.35-0.32c-0.5,0-0.97,0.11-1.4,0.32s-0.8,0.51-1.12,0.91c-0.31,0.4-0.56,0.88-0.74,1.44
			c-0.18,0.56-0.27,1.21-0.27,1.93c0,0.72,0.08,1.37,0.24,1.94s0.4,1.07,0.7,1.47c0.31,0.4,0.67,0.71,1.1,0.92s0.9,0.32,1.43,0.32
			c0.58,0,1.09-0.12,1.54-0.37c0.45-0.25,0.85-0.56,1.21-0.95l1.4,1.66c-0.55,0.65-1.18,1.14-1.89,1.47
			C466.04,196.09,465.26,196.25,464.39,196.25z"/>
		<path fill="#FFFFFF" d="M475.52,196.25c-0.84,0-1.63-0.15-2.38-0.45c-0.74-0.3-1.39-0.74-1.94-1.31s-0.99-1.29-1.3-2.14
			c-0.32-0.85-0.48-1.84-0.48-2.95c0-1.09,0.16-2.07,0.49-2.93s0.78-1.6,1.34-2.2c0.56-0.6,1.22-1.06,1.97-1.37
			c0.75-0.31,1.54-0.47,2.39-0.47c0.85,0,1.61,0.17,2.27,0.51c0.66,0.34,1.21,0.74,1.64,1.2l-1.4,1.69c-0.34-0.32-0.7-0.59-1.1-0.8
			s-0.85-0.32-1.35-0.32c-0.5,0-0.97,0.11-1.4,0.32s-0.8,0.51-1.12,0.91c-0.31,0.4-0.56,0.88-0.74,1.44
			c-0.18,0.56-0.27,1.21-0.27,1.93c0,0.72,0.08,1.37,0.24,1.94s0.4,1.07,0.7,1.47c0.31,0.4,0.67,0.71,1.1,0.92s0.9,0.32,1.43,0.32
			c0.58,0,1.09-0.12,1.54-0.37c0.45-0.25,0.85-0.56,1.21-0.95l1.4,1.66c-0.55,0.65-1.18,1.14-1.89,1.47
			C477.17,196.09,476.38,196.25,475.52,196.25z"/>
		<path fill="#FFFFFF" d="M484.27,184.91h-3.74v-2.23h10.19v2.23h-3.78V196h-2.66V184.91z"/>
		<path fill="#FFFFFF" d="M491.14,182.68h2.79l1.76,6.48c0.2,0.74,0.39,1.46,0.55,2.14c0.16,0.68,0.35,1.4,0.57,2.16h0.09
			c0.2-0.76,0.39-1.48,0.57-2.16c0.17-0.68,0.36-1.4,0.57-2.14l1.73-6.48h2.7L498.38,196h-3.17L491.14,182.68z"/>
		<path fill="#FFFFFF" d="M514.38,183.02c0,1.16-0.1,2.27-0.29,3.32c-0.19,1.05-0.52,2.04-0.97,2.98c-0.46,0.94-1.07,1.81-1.85,2.62
			c-0.77,0.81-1.74,1.55-2.89,2.22l-1.39-1.66c0.83-0.48,1.54-1,2.14-1.55c0.6-0.55,1.1-1.14,1.51-1.76c0.41-0.62,0.72-1.29,0.95-2
			c0.22-0.71,0.37-1.47,0.44-2.29h-4.19v-1.89H514.38z M521.44,180.97v16.58h-2.29v-8.42h-1.49v7.72h-2.2V181.4h2.2v5.81h1.49v-6.25
			H521.44z"/>
		<path fill="#FFFFFF" d="M532.2,188.96h-7.94v-7.27h2.34v1.98h3.26v-1.98h2.34V188.96z M528.26,195.59h9.04v1.84H525.9v-4.57h8.59
			v-1.01h-8.6v-1.8h10.94v4.5h-8.57V195.59z M529.86,185.45h-3.26v1.66h3.26V185.45z M539,184.17v1.93h-2.18v3.29h-2.38v-8.42h2.38
			v3.2H539z"/>
		<path fill="#FFFFFF" d="M555.33,189.72v1.89h-14.99v-1.89h6.28v-1.39h-4.37v-6.77h2.36v1.62h6.46v-1.62h2.36v6.77h-4.43v1.39
			H555.33z M544.53,195.37h9.13v1.89h-11.5v-4.68h2.38V195.37z M544.6,186.46h6.46v-1.44h-6.46V186.46z"/>
		<path fill="#FFFFFF" d="M571.91,192.4h-6.37v5.17h-2.38v-5.17h-6.26v-1.89h15.01V192.4z M570.12,188.94H558.6v-7.34h2.36v1.89
			h6.82v-1.89h2.34V188.94z M567.78,185.34h-6.82v1.71h6.82V185.34z"/>
	</g>
	<g enable-background="new    ">
		<path fill="#FFFFFF" d="M791.18,186.24c0,0.6-0.11,1.16-0.34,1.67c-0.23,0.52-0.55,0.96-0.95,1.33s-0.88,0.66-1.43,0.87
			s-1.14,0.32-1.77,0.32c-0.64,0-1.23-0.11-1.78-0.32c-0.55-0.21-1.03-0.5-1.43-0.87s-0.72-0.82-0.95-1.33
			c-0.23-0.52-0.35-1.07-0.35-1.67c0-0.61,0.12-1.18,0.35-1.69c0.23-0.52,0.55-0.96,0.95-1.33c0.4-0.37,0.88-0.66,1.43-0.87
			c0.55-0.21,1.15-0.31,1.78-0.31c0.64,0,1.23,0.1,1.77,0.31s1.02,0.5,1.43,0.87c0.41,0.37,0.73,0.82,0.95,1.33
			C791.07,185.07,791.18,185.63,791.18,186.24z M784.49,186.24c0,0.67,0.21,1.2,0.64,1.58s0.95,0.57,1.56,0.57
			c0.62,0,1.14-0.19,1.56-0.57s0.62-0.9,0.62-1.58c0-0.68-0.21-1.21-0.62-1.59s-0.93-0.57-1.56-0.57c-0.61,0-1.13,0.19-1.56,0.57
			S784.49,185.56,784.49,186.24z M796.12,195.37v1.89h-11.45v-5.54h2.38v3.65H796.12z M795.72,192.89h-2.41v-11.9h2.41V192.89z"/>
		<path fill="#FFFFFF" d="M813.45,188.39v1.87h-14.92v-1.87h5.53v-2.9h2.38v2.9H813.45z M805.89,191.3c0.9,0,1.71,0.07,2.43,0.22
			c0.72,0.14,1.34,0.35,1.85,0.62c0.52,0.27,0.91,0.6,1.19,0.99c0.28,0.39,0.41,0.83,0.41,1.3c0,0.48-0.14,0.91-0.41,1.3
			c-0.28,0.38-0.67,0.71-1.19,0.98c-0.52,0.27-1.13,0.48-1.85,0.62c-0.72,0.14-1.53,0.22-2.43,0.22c-0.89,0-1.69-0.07-2.42-0.22
			c-0.73-0.14-1.34-0.35-1.85-0.62c-0.51-0.27-0.9-0.6-1.18-0.98c-0.28-0.38-0.41-0.82-0.41-1.3c0-0.48,0.14-0.91,0.41-1.3
			c0.28-0.39,0.67-0.72,1.18-0.99c0.51-0.27,1.13-0.48,1.85-0.62C804.19,191.37,805,191.3,805.89,191.3z M808.88,187.27
			c0.19-0.74,0.31-1.41,0.36-1.99c0.05-0.58,0.07-1.15,0.07-1.7h-9.11v-1.87h11.48v1.37c0,0.66-0.02,1.35-0.06,2.07
			c-0.04,0.72-0.18,1.51-0.41,2.36L808.88,187.27z M805.89,195.77c1.13,0,2-0.11,2.61-0.33c0.61-0.22,0.92-0.55,0.92-1
			c0-0.46-0.31-0.79-0.92-1.02c-0.61-0.22-1.48-0.33-2.61-0.33s-2,0.11-2.6,0.33c-0.61,0.22-0.91,0.56-0.91,1.02
			c0,0.44,0.3,0.78,0.91,1C803.89,195.66,804.76,195.77,805.89,195.77z"/>
		<path fill="#FFFFFF" d="M821.46,185.43c0,0.67,0.08,1.35,0.25,2.03s0.42,1.32,0.77,1.92c0.34,0.6,0.77,1.14,1.28,1.62
			c0.51,0.48,1.11,0.86,1.81,1.15l-1.3,1.87c-0.97-0.42-1.79-1.01-2.44-1.78c-0.65-0.77-1.17-1.66-1.54-2.66
			c-0.37,1.09-0.89,2.06-1.56,2.92c-0.67,0.85-1.49,1.5-2.46,1.94l-1.35-1.89c0.7-0.31,1.3-0.73,1.82-1.24
			c0.52-0.52,0.95-1.09,1.29-1.72s0.6-1.3,0.76-2.02s0.25-1.42,0.25-2.13v-0.92h-3.46v-1.96h9.29v1.96h-3.42V185.43z M828.79,180.97
			v16.58h-2.38v-16.58H828.79z"/>
		<path fill="#FFFFFF" d="M846.62,188.39v1.89h-14.99v-1.89H846.62z M839.06,191.36c0.9,0,1.7,0.07,2.41,0.21
			c0.71,0.14,1.31,0.34,1.81,0.6s0.88,0.59,1.14,0.97c0.26,0.38,0.4,0.82,0.4,1.3c0,0.49-0.13,0.93-0.4,1.31
			c-0.26,0.38-0.65,0.7-1.14,0.96c-0.5,0.26-1.1,0.46-1.81,0.6s-1.51,0.21-2.41,0.21c-0.9,0-1.7-0.07-2.41-0.21s-1.31-0.34-1.8-0.6
			c-0.49-0.26-0.87-0.58-1.13-0.96c-0.26-0.38-0.4-0.81-0.4-1.31c0-0.48,0.13-0.91,0.4-1.3c0.26-0.38,0.64-0.71,1.13-0.97
			s1.09-0.46,1.8-0.6C837.36,191.42,838.16,191.36,839.06,191.36z M844.95,186.98H833.5v-5.72h2.38v3.83h9.07V186.98z
			 M839.07,195.69c2.23,0,3.34-0.42,3.34-1.26c0-0.84-1.11-1.26-3.34-1.26c-2.23,0-3.34,0.42-3.34,1.26
			C835.73,195.27,836.85,195.69,839.07,195.69z"/>
		<path fill="#FFFFFF" d="M860.09,189.2c-0.41,0.42-0.89,0.75-1.45,0.99c-0.56,0.24-1.16,0.36-1.81,0.36
			c-0.61,0-1.18-0.11-1.71-0.32c-0.53-0.22-0.99-0.52-1.39-0.9c-0.4-0.38-0.71-0.84-0.93-1.36c-0.22-0.52-0.33-1.09-0.33-1.72
			c0-0.61,0.11-1.18,0.33-1.71c0.22-0.53,0.53-0.98,0.93-1.36c0.4-0.38,0.86-0.67,1.39-0.89c0.53-0.22,1.1-0.32,1.71-0.32
			c0.65,0,1.24,0.11,1.79,0.34c0.55,0.23,1.02,0.55,1.43,0.97h3.69v-2.3h2.38v12.13h-2.38v-3.91H860.09z M854.71,186.24
			c0,0.7,0.2,1.24,0.6,1.64c0.4,0.4,0.9,0.59,1.52,0.59c0.62,0,1.12-0.2,1.53-0.59c0.4-0.4,0.61-0.94,0.61-1.64
			c0-0.68-0.2-1.22-0.61-1.62c-0.4-0.4-0.91-0.59-1.53-0.59c-0.61,0-1.12,0.2-1.52,0.59C854.9,185.02,854.71,185.56,854.71,186.24z
			 M866.5,195.37v1.89h-11.3v-5.35h2.38v3.46H866.5z M861.06,185.16c0.04,0.17,0.07,0.34,0.09,0.52c0.02,0.18,0.04,0.37,0.04,0.56
			c0,0.18-0.01,0.36-0.03,0.54c-0.02,0.18-0.05,0.35-0.1,0.52h2.68v-2.14H861.06z"/>
		<path fill="#FFFFFF" d="M883.81,190.89h-6.37v6.66h-2.41v-6.66h-6.19v-1.91h10.44c0.2-1.06,0.33-2,0.38-2.83s0.07-1.6,0.07-2.32
			h-9.18v-1.91h11.5v1.49c0,0.78-0.02,1.61-0.05,2.49c-0.04,0.88-0.16,1.91-0.36,3.07h2.18V190.89z"/>
		<path fill="#FFFFFF" d="M892.54,183.02c0,1.16-0.1,2.27-0.29,3.32c-0.19,1.05-0.52,2.04-0.97,2.98c-0.46,0.94-1.07,1.81-1.85,2.62
			c-0.77,0.81-1.74,1.55-2.89,2.22l-1.39-1.66c0.83-0.48,1.54-1,2.14-1.55c0.6-0.55,1.1-1.14,1.51-1.76s0.72-1.29,0.95-2
			c0.22-0.71,0.37-1.47,0.44-2.29h-4.19v-1.89H892.54z M899.6,180.97v16.58h-2.29v-8.42h-1.49v7.72h-2.2V181.4h2.2v5.81h1.49v-6.25
			H899.6z"/>
		<path fill="#FFFFFF" d="M910.36,188.96h-7.94v-7.27h2.34v1.98h3.26v-1.98h2.34V188.96z M906.42,195.59h9.04v1.84h-11.39v-4.57
			h8.59v-1.01h-8.6v-1.8h10.94v4.5h-8.57V195.59z M908.02,185.45h-3.26v1.66h3.26V185.45z M917.16,184.17v1.93h-2.18v3.29h-2.38
			v-8.42h2.38v3.2H917.16z"/>
		<path fill="#FFFFFF" d="M925.26,190.85c-0.65-0.31-1.19-0.71-1.63-1.21c-0.44-0.49-0.79-1.05-1.05-1.67
			c-0.3,0.71-0.69,1.34-1.18,1.91c-0.49,0.56-1.1,1.02-1.83,1.37l-1.3-1.8c0.56-0.28,1.04-0.61,1.44-1.01
			c0.4-0.4,0.72-0.83,0.97-1.29s0.43-0.95,0.55-1.45s0.17-1,0.17-1.49v-2.12h2.29v2.12c0,0.49,0.05,0.97,0.15,1.44
			c0.1,0.47,0.27,0.91,0.5,1.32c0.23,0.41,0.52,0.8,0.89,1.15c0.37,0.35,0.81,0.66,1.32,0.91L925.26,190.85z M933.02,195.37v1.89
			h-11.56v-5.33h2.36v3.44H933.02z M927.06,186.68h-1.96v-1.93h1.96v-3.49h2.2v11.63h-2.2V186.68z M932.61,193.37h-2.23v-12.4h2.23
			V193.37z"/>
		<path fill="#FFFFFF" d="M938.17,191.91c1.12-0.01,2.15-0.04,3.11-0.1c0.96-0.05,1.95-0.17,2.97-0.33l0.22,1.91
			c-0.6,0.1-1.19,0.17-1.76,0.23c-0.58,0.05-1.16,0.1-1.75,0.13c-0.59,0.03-1.19,0.05-1.82,0.06c-0.62,0.01-1.28,0.02-1.98,0.02
			h-1.35v-11.47h7.67v1.91h-5.31v2.7h4.75v1.85h-4.75V191.91z M948.97,180.95v16.63h-2.38v-8.87h-2.84v-1.91h2.84v-5.85H948.97z"/>
	</g>
	<g enable-background="new    ">
		<path fill="#FFFFFF" d="M1165.05,185.36c0,0.7,0.05,1.38,0.16,2.06c0.11,0.68,0.29,1.32,0.54,1.94c0.25,0.61,0.58,1.17,0.99,1.68
			s0.91,0.94,1.51,1.29l-1.39,1.73c-0.74-0.43-1.35-1-1.82-1.69s-0.84-1.48-1.12-2.36c-0.29,0.95-0.67,1.81-1.16,2.58
			c-0.49,0.77-1.11,1.4-1.87,1.86l-1.4-1.75c0.6-0.38,1.11-0.85,1.53-1.4c0.42-0.55,0.76-1.14,1.02-1.78
			c0.26-0.64,0.44-1.32,0.56-2.03c0.11-0.71,0.17-1.42,0.17-2.13v-0.81h-2.66v-1.93h7.38v1.93h-2.43V185.36z M1168.44,181.24h2.2
			v15.55h-2.2v-8.24h-2.11v-1.93h2.11V181.24z M1174.02,180.95v16.58h-2.23v-16.58H1174.02z"/>
		<path fill="#FFFFFF" d="M1185.05,190.62v1.35h4.52v5.4h-11.45v-5.4h4.55v-1.35h-6.3v-1.89h14.98v1.89H1185.05z M1179.79,183.31
			h-2.11v-1.89h12.33v1.89h-2.11v2.5h1.98v1.89h-12.1v-1.89h2V183.31z M1187.23,193.82h-6.79v1.67h6.79V193.82z M1185.55,183.31
			h-3.4v2.5h3.4V183.31z"/>
		<path fill="#FFFFFF" d="M1200.1,183.02c0,1.16-0.1,2.27-0.29,3.32c-0.19,1.05-0.52,2.04-0.97,2.98c-0.46,0.94-1.07,1.81-1.84,2.62
			c-0.77,0.81-1.74,1.55-2.89,2.22l-1.38-1.66c0.83-0.48,1.54-1,2.14-1.55c0.6-0.55,1.1-1.14,1.51-1.76c0.41-0.62,0.72-1.29,0.95-2
			c0.22-0.71,0.37-1.47,0.44-2.29h-4.19v-1.89H1200.1z M1207.15,180.97v16.58h-2.29v-8.42h-1.49v7.72h-2.2V181.4h2.2v5.81h1.49
			v-6.25H1207.15z"/>
		<path fill="#FFFFFF" d="M1217.92,188.96h-7.94v-7.27h2.34v1.98h3.26v-1.98h2.34V188.96z M1213.98,195.59h9.04v1.84h-11.39v-4.57
			h8.59v-1.01h-8.6v-1.8h10.94v4.5h-8.57V195.59z M1215.58,185.45h-3.26v1.66h3.26V185.45z M1224.72,184.17v1.93h-2.18v3.29h-2.38
			v-8.42h2.38v3.2H1224.72z"/>
		<path fill="#FFFFFF" d="M1235.31,186.24c0,0.6-0.11,1.16-0.34,1.67c-0.23,0.52-0.55,0.96-0.95,1.33s-0.88,0.66-1.43,0.87
			c-0.54,0.21-1.14,0.32-1.77,0.32s-1.23-0.11-1.78-0.32c-0.55-0.21-1.03-0.5-1.43-0.87c-0.4-0.37-0.72-0.82-0.95-1.33
			c-0.23-0.52-0.35-1.07-0.35-1.67c0-0.61,0.12-1.18,0.35-1.69c0.23-0.52,0.55-0.96,0.95-1.33c0.4-0.37,0.88-0.66,1.43-0.87
			c0.55-0.21,1.15-0.31,1.78-0.31s1.23,0.1,1.77,0.31c0.55,0.21,1.02,0.5,1.43,0.87c0.41,0.37,0.73,0.82,0.95,1.33
			C1235.19,185.07,1235.31,185.63,1235.31,186.24z M1228.61,186.24c0,0.67,0.21,1.2,0.64,1.58c0.43,0.38,0.94,0.57,1.56,0.57
			c0.62,0,1.14-0.19,1.56-0.57s0.62-0.9,0.62-1.58c0-0.68-0.21-1.21-0.62-1.59s-0.93-0.57-1.56-0.57c-0.61,0-1.13,0.19-1.56,0.57
			C1228.82,185.03,1228.61,185.56,1228.61,186.24z M1240.24,195.37v1.89h-11.45v-5.54h2.38v3.65H1240.24z M1239.84,192.89h-2.41
			v-11.9h2.41V192.89z"/>
		<path fill="#FFFFFF" d="M1257.59,188.62v1.87h-14.98v-1.87H1257.59z M1243.26,186.14c0.78-0.07,1.47-0.19,2.07-0.35
			c0.6-0.16,1.11-0.35,1.53-0.58c0.42-0.22,0.76-0.47,1.01-0.74c0.25-0.27,0.43-0.55,0.52-0.84h-4.41v-1.89h12.26v1.89h-4.43
			c0.1,0.29,0.27,0.57,0.52,0.84c0.25,0.27,0.59,0.52,1.01,0.74c0.42,0.22,0.93,0.41,1.53,0.58c0.6,0.16,1.3,0.28,2.09,0.35
			l-0.83,1.85c-1.57-0.14-2.86-0.49-3.87-1.03s-1.73-1.21-2.16-2c-0.44,0.79-1.17,1.46-2.18,2s-2.3,0.88-3.87,1.03L1243.26,186.14z
			 M1250.07,191.39c0.9,0,1.7,0.07,2.41,0.21c0.71,0.14,1.31,0.34,1.81,0.6s0.88,0.59,1.14,0.97c0.26,0.38,0.4,0.82,0.4,1.3
			c0,0.49-0.13,0.93-0.4,1.31s-0.64,0.71-1.14,0.97s-1.1,0.46-1.81,0.6c-0.71,0.14-1.51,0.21-2.41,0.21c-0.9,0-1.71-0.07-2.41-0.21
			c-0.71-0.14-1.31-0.34-1.8-0.6s-0.87-0.59-1.13-0.97s-0.4-0.82-0.4-1.31c0-0.48,0.13-0.91,0.4-1.3c0.26-0.38,0.64-0.71,1.13-0.97
			s1.09-0.46,1.8-0.6C1248.36,191.46,1249.17,191.39,1250.07,191.39z M1250.07,195.73c2.23,0,3.34-0.42,3.34-1.26
			c0-0.43-0.28-0.75-0.83-0.94c-0.56-0.2-1.39-0.3-2.5-0.3s-1.95,0.1-2.5,0.3c-0.56,0.2-0.83,0.51-0.83,0.94
			C1246.74,195.31,1247.85,195.73,1250.07,195.73z"/>
		<path fill="#FFFFFF" d="M1269.4,189.65c-0.59,0.1-1.17,0.17-1.74,0.22c-0.57,0.05-1.17,0.1-1.78,0.13c-0.62,0.03-1.28,0.05-2,0.06
			c-0.71,0.01-1.51,0.02-2.38,0.02h-1.42v-8.15h7.97v1.87h-5.62v1.26h5.13v1.84h-5.13v1.31c0.72,0,1.38-0.01,1.97-0.03
			c0.59-0.02,1.16-0.04,1.7-0.06c0.54-0.02,1.06-0.06,1.56-0.12c0.5-0.05,1-0.12,1.52-0.19L1269.4,189.65z M1261.91,191.5h11.05
			v5.87h-11.05V191.5z M1264.25,195.5h6.37v-2.14h-6.37V195.5z M1272.96,180.99v9.83h-2.41v-9.83H1272.96z"/>
	</g>
	<path id="패스_206" fill="none" stroke="#C8C7C7" d="M1216.5,160V80h-1053v79.92"/>
</g>
<g>
</g>
<g>
</g>
<g>
</g>
<g>
</g>
<g>
</g>
<g>
</g>
</svg>
