<?xml version="1.0" encoding="utf-8"?>
<!-- Generator: Adobe Illustrator 25.1.0, SVG Export Plug-In . SVG Version: 6.00 Build 0)  -->
<svg version="1.1" id="Layer_1" xmlns="http://www.w3.org/2000/svg" xmlns:xlink="http://www.w3.org/1999/xlink" x="0px" y="0px"
	 viewBox="0 0 1380 380" enable-background="new 0 0 1380 380" xml:space="preserve">
<g id="그룹_493" transform="translate(-421.5 -633)">
	<line id="선_103" fill="none" stroke="#C8C7C7" x1="1111.5" y1="719" x2="1111.5" y2="1013"/>
	<rect id="사각형_157" x="889.5" y="633" fill="#0D59A6" width="444" height="80"/>
	<rect id="사각형_158" x="889.5" y="773" fill="#1F97D5" width="444" height="80"/>
	<g enable-background="new    ">
		<path fill="#FFFFFF" d="M1075.4,677.94c0.95-0.03,1.87-0.08,2.76-0.14c0.89-0.07,1.81-0.19,2.78-0.36l0.22,2.35
			c-1.23,0.23-2.42,0.38-3.56,0.45c-1.14,0.07-2.36,0.1-3.65,0.1h-1.41v-13.38h7.5v2.35h-4.64V677.94z M1089.32,664.61v20.28h-2.73
			v-10.14h-1.85v9.2h-2.68V665h2.68v7.41h1.85v-7.81H1089.32z"/>
		<path fill="#FFFFFF" d="M1110.55,680.34v2.33h-18.37v-2.33h4.53v-3.81h-2.97v-2.29h2.64v-5.7h-2.75v-2.31h15.4v2.31h-2.75v5.7
			h2.71v2.29h-3.01v3.81H1110.55z M1099.27,674.24h4.14v-5.7h-4.14V674.24z M1099.6,680.34h3.5v-3.81h-3.5V680.34z"/>
		<path fill="#FFFFFF" d="M1118.34,666.04c0.76,0,1.47,0.17,2.12,0.51c0.65,0.34,1.21,0.82,1.68,1.44c0.47,0.62,0.84,1.38,1.11,2.27
			c0.27,0.89,0.41,1.89,0.41,3c0,1.12-0.14,2.12-0.41,3.01c-0.27,0.9-0.64,1.66-1.11,2.29c-0.47,0.63-1.03,1.12-1.68,1.45
			c-0.65,0.34-1.36,0.51-2.12,0.51s-1.47-0.17-2.12-0.51c-0.65-0.34-1.21-0.82-1.68-1.45c-0.47-0.63-0.84-1.39-1.11-2.29
			c-0.27-0.89-0.41-1.9-0.41-3.01c0-1.11,0.14-2.12,0.41-3c0.27-0.89,0.64-1.64,1.11-2.27c0.47-0.62,1.03-1.1,1.68-1.44
			C1116.87,666.21,1117.58,666.04,1118.34,666.04z M1118.34,668.66c-0.75,0-1.36,0.39-1.83,1.17c-0.47,0.78-0.7,1.92-0.7,3.43
			s0.23,2.66,0.7,3.44c0.47,0.78,1.08,1.18,1.83,1.18s1.36-0.39,1.83-1.18c0.47-0.79,0.7-1.93,0.7-3.44s-0.24-2.65-0.7-3.43
			C1119.7,669.04,1119.09,668.66,1118.34,668.66z M1129.23,664.61v20.33h-2.9v-20.33H1129.23z"/>
		<path fill="#FFFFFF" d="M1140.17,669.14c0,0.91,0.09,1.81,0.28,2.71c0.18,0.9,0.46,1.74,0.85,2.53c0.38,0.79,0.87,1.51,1.45,2.15
			c0.59,0.64,1.29,1.15,2.11,1.55l-1.76,2.29c-1.06-0.54-1.95-1.28-2.67-2.22c-0.72-0.94-1.3-2.02-1.72-3.23
			c-0.44,1.29-1.05,2.45-1.82,3.46s-1.73,1.81-2.87,2.37l-1.74-2.35c0.85-0.4,1.59-0.92,2.21-1.58s1.14-1.4,1.54-2.22
			s0.7-1.7,0.9-2.63s0.3-1.87,0.3-2.81v-2.95h2.95V669.14z M1151.5,674.84h-2.95v10.05h-2.9v-20.26h2.9v7.79h2.95V674.84z"/>
	</g>
	<g enable-background="new    ">
		<path fill="#FFFFFF" d="M1080.19,818.6h-7.79v6.31h-2.9v-6.31h-7.66v-2.31h18.35V818.6z M1078.02,814.38h-14.08v-8.98h2.88v2.31
			h8.34v-2.31h2.86V814.38z M1075.16,809.98h-8.34v2.09h8.34V809.98z"/>
		<path fill="#FFFFFF" d="M1085.52,817.94c0.95-0.03,1.87-0.08,2.76-0.14c0.89-0.07,1.81-0.19,2.78-0.36l0.22,2.35
			c-1.23,0.23-2.42,0.38-3.56,0.45c-1.14,0.07-2.36,0.1-3.65,0.1h-1.41v-13.38h7.5v2.35h-4.64V817.94z M1099.44,804.61v20.28h-2.73
			v-10.14h-1.85v9.2h-2.68V805h2.68v7.41h1.85v-7.81H1099.44z"/>
		<path fill="#FFFFFF" d="M1120.67,820.34v2.33h-18.37v-2.33h4.53v-3.81h-2.97v-2.29h2.64v-5.7h-2.75v-2.31h15.4v2.31h-2.75v5.7
			h2.71v2.29h-3.01v3.81H1120.67z M1109.39,814.24h4.14v-5.7h-4.14V814.24z M1109.72,820.34h3.5v-3.81h-3.5V820.34z"/>
		<path fill="#FFFFFF" d="M1128.46,806.04c0.76,0,1.47,0.17,2.12,0.51c0.65,0.34,1.21,0.82,1.68,1.44c0.47,0.62,0.84,1.38,1.11,2.27
			c0.27,0.89,0.41,1.89,0.41,3c0,1.12-0.14,2.12-0.41,3.01c-0.27,0.9-0.64,1.66-1.11,2.29c-0.47,0.63-1.03,1.12-1.68,1.45
			c-0.65,0.34-1.36,0.51-2.12,0.51s-1.47-0.17-2.12-0.51c-0.65-0.34-1.21-0.82-1.68-1.45c-0.47-0.63-0.84-1.39-1.11-2.29
			c-0.27-0.89-0.41-1.9-0.41-3.01c0-1.11,0.14-2.12,0.41-3c0.27-0.89,0.64-1.64,1.11-2.27c0.47-0.62,1.03-1.1,1.68-1.44
			C1126.99,806.21,1127.7,806.04,1128.46,806.04z M1128.46,808.66c-0.75,0-1.36,0.39-1.83,1.17s-0.7,1.92-0.7,3.43
			s0.23,2.66,0.7,3.44c0.47,0.78,1.08,1.18,1.83,1.18s1.36-0.39,1.83-1.18c0.47-0.79,0.7-1.93,0.7-3.44s-0.24-2.65-0.7-3.43
			C1129.82,809.04,1129.21,808.66,1128.46,808.66z M1139.35,804.61v20.33h-2.9v-20.33H1139.35z"/>
		<path fill="#FFFFFF" d="M1150.29,809.14c0,0.91,0.09,1.81,0.28,2.71c0.18,0.9,0.46,1.74,0.85,2.53c0.38,0.79,0.87,1.51,1.45,2.15
			c0.59,0.64,1.29,1.15,2.11,1.55l-1.76,2.29c-1.06-0.54-1.94-1.28-2.67-2.22c-0.72-0.94-1.3-2.02-1.72-3.23
			c-0.44,1.29-1.05,2.45-1.82,3.46c-0.77,1.02-1.73,1.81-2.87,2.37l-1.74-2.35c0.85-0.4,1.59-0.92,2.21-1.58
			c0.62-0.66,1.14-1.4,1.54-2.22s0.7-1.7,0.9-2.63s0.3-1.87,0.3-2.81v-2.95h2.95V809.14z M1161.62,814.84h-2.95v10.05h-2.9v-20.26
			h2.9v7.79h2.95V814.84z"/>
	</g>
	<path id="패스_203" fill="none" stroke="#C8C7C7" d="M1111.5,933.31h-468v79.6"/>
	<path id="패스_204" fill="none" stroke="#C8C7C7" d="M1333.5,813h246v199.92"/>
</g>
<g>
</g>
<g>
</g>
<g>
</g>
<g>
</g>
<g>
</g>
<g>
</g>
</svg>
