<?xml version="1.0" standalone="no"?>
<!DOCTYPE svg PUBLIC "-//W3C//DTD SVG 20010904//EN"
 "http://www.w3.org/TR/2001/REC-SVG-20010904/DTD/svg10.dtd">
<svg version="1.0" xmlns="http://www.w3.org/2000/svg"
 width="260.000000pt" height="260.000000pt" viewBox="0 0 260.000000 260.000000"
 preserveAspectRatio="xMidYMid meet">
<metadata>
Created by potrace 1.11, written by Peter Selinger 2001-2013
</metadata>
<g transform="translate(0.000000,260.000000) scale(0.100000,-0.100000)"
fill="#000000" stroke="none">
<path d="M1199 2596 c-2 -2 -26 -6 -54 -9 -27 -3 -61 -9 -75 -12 -14 -3 -36
-7 -50 -10 -61 -11 -216 -67 -275 -98 -11 -6 -33 -17 -50 -26 -142 -70 -363
-267 -461 -411 -59 -86 -144 -256 -173 -348 -39 -121 -55 -239 -54 -397 0
-161 3 -186 33 -310 39 -165 136 -366 232 -481 216 -259 435 -395 758 -471
107 -25 401 -25 520 1 257 56 491 183 670 366 188 192 311 432 364 710 14 72
16 340 3 415 -15 84 -53 219 -83 293 -29 71 -115 226 -133 242 -3 3 -18 21
-32 40 -37 49 -171 183 -232 232 -157 124 -366 221 -542 252 -16 3 -41 8 -55
12 -27 6 -306 15 -311 10z m256 -458 c72 -16 208 -80 295 -139 268 -182 432
-464 475 -815 5 -44 2 -58 -25 -110 -167 -318 -464 -538 -810 -598 -42 -8
-132 -13 -205 -12 -126 2 -133 4 -195 35 -417 212 -643 656 -586 1151 8 75 19
93 91 164 133 130 291 226 461 279 68 21 110 30 244 51 44 7 213 3 255 -6z"/>
</g>
</svg>
