<?xml version="1.0" encoding="utf-8"?>
<!-- Generator: Adobe Illustrator 25.1.0, SVG Export Plug-In . SVG Version: 6.00 Build 0)  -->
<svg version="1.1" id="Layer_1" xmlns="http://www.w3.org/2000/svg" xmlns:xlink="http://www.w3.org/1999/xlink" x="0px" y="0px"
	 viewBox="0 0 365.7 365.7" style="enable-background:new 0 0 365.7 365.7;" xml:space="preserve">
<style type="text/css">
	.st0{fill:#999999;}
</style>
<g>
	<path class="st0" d="M347.8,73.2H341c-3.3-43.6-41.3-76.3-84.9-73c-39,3-70,33.9-73,73H17.9c-10,0.1-18,8.3-17.9,18.3v195
		c-0.1,10,7.9,18.2,17.9,18.3h121.2l-4.1,24.4h-7c-1.9,0-3.7,0.9-4.9,2.4l-18.3,24.4c-2,2.7-1.5,6.5,1.2,8.5
		c1.1,0.8,2.3,1.2,3.7,1.2H256c3.4,0,6.1-2.7,6.1-6.1c0-1.3-0.4-2.6-1.2-3.7l-18.3-24.4c-1.2-1.5-3-2.4-4.9-2.4h-7l-4.1-24.4h121.2
		c10-0.1,18-8.3,17.9-18.3v-195C365.8,81.5,357.8,73.3,347.8,73.2L347.8,73.2z M262.1,12.2c37,0,67,30,67,67s-30,67-67,67
		s-67-30-67-67C195.1,42.2,225.1,12.3,262.1,12.2z M17.9,85.3h165.3c3.3,43.6,41.3,76.3,84.9,73c39-3,70-33.9,73-73h6.8
		c3.2,0.2,5.7,2.9,5.7,6.1V256H12.2V91.4C12.1,88.2,14.6,85.5,17.9,85.3L17.9,85.3z M243.8,353.5H121.9l9.1-12.2h103.6L243.8,353.5z
		 M218.3,329.1h-70.9l4.1-24.4h62.8L218.3,329.1z M347.8,292.6h-330c-3.2-0.2-5.7-2.9-5.7-6.1v-18.3h341.3v18.3
		C353.5,289.7,351,292.4,347.8,292.6z"/>
	<path class="st0" d="M54.9,243.8h109.7c10.1,0,18.3-8.2,18.3-18.3v-48.8c0-10.1-8.2-18.3-18.3-18.3h-48.8v-12.2
		c0-10.1,8.2-18.3,18.3-18.3h15.8l-7.9,7.9l8.6,8.6l18.3-18.3c2.4-2.4,2.4-6.2,0-8.6l-18.3-18.3l-8.6,8.6l7.9,7.9h-15.8
		c-16.8,0-30.5,13.7-30.5,30.5v12.2H54.9c-10.1,0-18.3,8.2-18.3,18.3l0,0v48.8C36.6,235.6,44.8,243.8,54.9,243.8z M48.8,176.8
		c0-3.4,2.7-6.1,6.1-6.1h109.7c3.4,0,6.1,2.7,6.1,6.1v48.8c0,3.4-2.7,6.1-6.1,6.1H54.9c-3.4,0-6.1-2.7-6.1-6.1V176.8z"/>
	<path class="st0" d="M60.9,182.9h97.5V195H60.9V182.9z"/>
	<path class="st0" d="M60.9,207.2h97.5v12.2H60.9V207.2z"/>
	<path class="st0" d="M176.7,274.3h12.2v12.2h-12.2V274.3z"/>
	<path class="st0" d="M262.1,97.5c10.1,0,18.3-8.2,18.3-18.3S272.2,61,262.1,61c-10.1,0-18.3,8.2-18.3,18.3S252,97.5,262.1,97.5z
		 M262.1,73.2c3.4,0,6.1,2.7,6.1,6.1s-2.7,6.1-6.1,6.1c-3.4,0-6.1-2.7-6.1-6.1S258.7,73.2,262.1,73.2z"/>
	<path class="st0" d="M298.6,79.3h12.2c0-26.9-21.8-48.7-48.8-48.8v12.2C282.2,42.7,298.6,59.1,298.6,79.3z"/>
	<path class="st0" d="M262.1,128v-12.2c-20.2,0-36.5-16.4-36.6-36.6h-12.2C213.3,106.2,235.1,128,262.1,128z"/>
</g>
</svg>
