<svg id="그룹_465" data-name="그룹 465" xmlns="http://www.w3.org/2000/svg" width="24.63" height="22.391" viewBox="0 0 24.63 22.391">
  <path id="패스_184" data-name="패스 184" d="M4225.1,263.317V279.9a2.416,2.416,0,0,0,2.417,2.416h19.8a2.416,2.416,0,0,0,2.416-2.416V263.317Zm23.511,1.12v13.435h-22.391V264.437Zm-1.3,16.764h-19.8a1.3,1.3,0,0,1-1.3-1.3v-.913h22.391v.913A1.3,1.3,0,0,1,4247.311,281.2Z" transform="translate(-4225.096 -263.317)" fill="#fff"/>
  <path id="패스_185" data-name="패스 185" d="M4833.994,2012.455a3,3,0,0,1-.914-1.429l-1.062.354a4.694,4.694,0,0,0,.627,1.259l.068.092h-4.042l.068-.092a4.708,4.708,0,0,0,.627-1.259l-1.062-.354a3,3,0,0,1-.914,1.429,1.594,1.594,0,0,1-.485.276H4825.1v1.12h11.2v-1.12h-1.812A1.605,1.605,0,0,1,4833.994,2012.455Z" transform="translate(-4818.379 -1991.459)" fill="#fff"/>
  <rect id="사각형_71" data-name="사각형 71" width="17.913" height="1.12" transform="translate(3.359 3.359)" fill="#fff"/>
  <rect id="사각형_72" data-name="사각형 72" width="17.913" height="1.12" transform="translate(3.359 5.598)" fill="#fff"/>
  <rect id="사각형_73" data-name="사각형 73" width="17.913" height="1.12" transform="translate(3.359 7.837)" fill="#fff"/>
  <rect id="사각형_74" data-name="사각형 74" width="11.196" height="1.12" transform="translate(3.359 10.076)" fill="#fff"/>
</svg>
