<svg xmlns="http://www.w3.org/2000/svg" width="19.592" height="22.391" viewBox="0 0 19.592 22.391">
  <g id="그룹_467" data-name="그룹 467" transform="translate(-3775.269 -1586.609)">
    <g id="그룹_466" data-name="그룹 466" transform="translate(3775.269 1586.609)">
      <rect id="사각형_75" data-name="사각형 75" width="12" height="1" transform="translate(3.731 19.017)" fill="#fff"/>
      <rect id="사각형_76" data-name="사각형 76" width="12" height="1" transform="translate(3.731 17.017)" fill="#fff"/>
      <path id="패스_186" data-name="패스 186" d="M-2519.025,266.116h-1.679v-2.8H-2534.7a3.9,3.9,0,0,0-1.526.308,3.9,3.9,0,0,0-1.245.84,3.9,3.9,0,0,0-.839,1.245,3.9,3.9,0,0,0-.308,1.525V281.79a3.9,3.9,0,0,0,.308,1.525,3.9,3.9,0,0,0,.839,1.245,3.9,3.9,0,0,0,1.245.84,3.9,3.9,0,0,0,1.526.308h13.995v-5.6h-1.12v4.478H-2534.7a2.78,2.78,0,0,1-1.979-.82,2.781,2.781,0,0,1-.82-1.979,2.781,2.781,0,0,1,.82-1.979,2.78,2.78,0,0,1,1.979-.82h13.995v-2.8h1.679Zm-2.8,11.755H-2534.7a3.9,3.9,0,0,0-1.526.308,3.9,3.9,0,0,0-1.245.84l-.028.029V267.235a2.781,2.781,0,0,1,.82-1.979,2.78,2.78,0,0,1,1.979-.82h12.875v1.679h-13.995v10.076h13.995Zm1.679-2.8H-2534.7v-7.837h14.554Z" transform="translate(2538.617 -263.317)" fill="#fff"/>
      <path id="패스_187" data-name="패스 187" d="M-1685.876,718.667a2,2,0,0,0,.692-.661,3.454,3.454,0,0,0,.485-1.889,3.446,3.446,0,0,0-.488-1.89,2.011,2.011,0,0,0-.692-.66,1.962,1.962,0,0,0-.979-.249h-1.76v5.6h1.76A1.969,1.969,0,0,0-1685.876,718.667Zm-1.621-4.23h.64a.815.815,0,0,1,.734.4,2.386,2.386,0,0,1,.305,1.277,2.4,2.4,0,0,1-.3,1.277.815.815,0,0,1-.736.4h-.64Z" transform="translate(1698.133 -708.279)" fill="#fff"/>
      <path id="패스_188" data-name="패스 188" d="M-2087.5,716.676h.84a2.421,2.421,0,0,0,1.157-.3,1.552,1.552,0,0,0,.8-1.384,1.57,1.57,0,0,0-.551-1.233,2.137,2.137,0,0,0-1.408-.437h-1.959v5.6h1.12Zm0-2.239h.84a1.113,1.113,0,0,1,.691.177.439.439,0,0,1,.149.374.438.438,0,0,1-.247.417,1.27,1.27,0,0,1-.593.152h-.84Z" transform="translate(2093.655 -708.279)" fill="#fff"/>
      <path id="패스_189" data-name="패스 189" d="M-1287.5,716.676h1.678v-1.12h-1.678v-1.12h2.239v-1.12h-3.359v5.6h1.12Z" transform="translate(1302.611 -708.279)" fill="#fff"/>
    </g>
  </g>
</svg>
