<?xml version="1.0" encoding="utf-8"?>
<!-- Generator: Adobe Illustrator 25.1.0, SVG Export Plug-In . SVG Version: 6.00 Build 0)  -->
<svg version="1.1" id="Layer_1" xmlns="http://www.w3.org/2000/svg" xmlns:xlink="http://www.w3.org/1999/xlink" x="0px" y="0px"
	 viewBox="0 0 312 224" enable-background="new 0 0 312 224" xml:space="preserve">
<g id="그룹_471" transform="translate(-24 -569)">
	<g id="사각형_156" transform="translate(24 629)">
		<rect fill="none" width="150" height="164"/>
		<rect x="0.5" y="0.5" fill="none" stroke="#E7E7E7" width="149" height="163"/>
	</g>
	<g id="사각형_155" transform="translate(186 629)">
		<rect fill="none" width="150" height="164"/>
		<rect x="0.5" y="0.5" fill="none" stroke="#E7E7E7" width="149" height="163"/>
	</g>
	<g enable-background="new    ">
		<path fill="#1F98D5" d="M98.21,668.59v1.91H83.21v-1.91h6.28v-2.27h2.38v2.27H98.21z M83.88,665.62c0.8-0.08,1.51-0.23,2.12-0.43
			s1.13-0.44,1.55-0.72c0.42-0.28,0.75-0.58,1-0.91c0.25-0.33,0.41-0.66,0.48-1h-4.45v-1.89h12.28v1.89h-4.48
			c0.07,0.34,0.23,0.67,0.47,1c0.24,0.33,0.57,0.63,1,0.91c0.43,0.28,0.94,0.52,1.55,0.72c0.61,0.2,1.32,0.35,2.13,0.43l-0.85,1.89
			c-1.55-0.18-2.82-0.57-3.82-1.17c-1-0.6-1.72-1.33-2.15-2.2c-0.43,0.86-1.15,1.6-2.14,2.2c-1,0.6-2.27,0.99-3.82,1.17
			L83.88,665.62z M87.41,674.37h9.11v1.89H85.03v-4.73h2.38V674.37z"/>
		<path fill="#1F98D5" d="M108.45,669.38v1.22c1.43,0.12,2.54,0.43,3.34,0.93c0.8,0.5,1.2,1.17,1.2,2.02c0,0.48-0.13,0.91-0.4,1.28
			s-0.65,0.69-1.14,0.95c-0.5,0.26-1.1,0.45-1.81,0.58c-0.71,0.13-1.51,0.2-2.41,0.2s-1.7-0.07-2.41-0.2
			c-0.71-0.13-1.31-0.33-1.8-0.58c-0.49-0.26-0.87-0.57-1.13-0.95s-0.4-0.8-0.4-1.28c0-0.86,0.4-1.54,1.21-2.04
			c0.8-0.5,1.93-0.81,3.38-0.93v-1.21h-6.3v-1.89h14.98v1.89H108.45z M100.42,665.01c0.77-0.07,1.45-0.19,2.03-0.34
			c0.59-0.16,1.09-0.34,1.52-0.57c0.43-0.22,0.77-0.47,1.02-0.74c0.25-0.27,0.43-0.54,0.54-0.82h-4.39v-1.89h12.26v1.89h-4.41
			c0.11,0.28,0.29,0.55,0.54,0.82c0.25,0.27,0.59,0.52,1.02,0.74c0.43,0.22,0.93,0.41,1.52,0.57s1.27,0.27,2.05,0.34l-0.83,1.84
			c-1.56-0.13-2.84-0.47-3.85-1.02c-1.01-0.55-1.73-1.21-2.18-1.99c-0.44,0.79-1.17,1.46-2.18,2s-2.3,0.88-3.87,1.01L100.42,665.01z
			 M110.57,673.56c0-0.42-0.28-0.73-0.83-0.92c-0.56-0.19-1.39-0.29-2.5-0.29s-1.95,0.1-2.5,0.29c-0.56,0.19-0.83,0.5-0.83,0.92
			c0,0.42,0.28,0.72,0.83,0.91c0.56,0.19,1.39,0.28,2.5,0.28s1.95-0.09,2.5-0.28C110.3,674.28,110.57,673.98,110.57,673.56z"/>
	</g>
	<g enable-background="new    ">
		<path fill="#999999" d="M69.52,703.46v1.28H59.51v-1.28h4.21v-2.44h1.58v2.44H69.52z M59.91,700.26c0.58-0.09,1.09-0.24,1.54-0.44
			c0.45-0.21,0.83-0.45,1.15-0.74s0.56-0.6,0.73-0.94c0.18-0.34,0.28-0.7,0.32-1.06h-3.31v-1.26h8.33v1.26h-3.31
			c0.03,0.36,0.14,0.71,0.32,1.04c0.18,0.34,0.43,0.64,0.74,0.92s0.7,0.52,1.16,0.72c0.46,0.2,0.99,0.34,1.58,0.43l-0.6,1.25
			c-0.98-0.18-1.81-0.49-2.49-0.93c-0.68-0.44-1.2-0.99-1.55-1.64c-0.34,0.66-0.85,1.22-1.53,1.68c-0.68,0.46-1.5,0.77-2.47,0.95
			L59.91,700.26z"/>
		<path fill="#999999" d="M76.64,701.27c-0.62-0.19-1.14-0.48-1.56-0.85s-0.76-0.81-1.02-1.31c-0.25,0.54-0.59,1.02-1.03,1.43
			s-0.98,0.72-1.63,0.93l-0.8-1.24c0.45-0.14,0.84-0.34,1.16-0.58s0.6-0.51,0.82-0.8s0.38-0.61,0.49-0.95
			c0.11-0.34,0.17-0.68,0.17-1.02h-2.22v-1.25h6.01v1.25h-2.18c0.01,0.33,0.06,0.65,0.17,0.97c0.1,0.32,0.26,0.61,0.48,0.89
			c0.22,0.28,0.49,0.53,0.81,0.76c0.32,0.23,0.7,0.41,1.14,0.56L76.64,701.27z M72.21,702.13h7.54v3.91h-1.61v-2.65h-5.93V702.13z
			 M79.75,694.98v6.66h-1.61v-6.66H79.75z"/>
		<path fill="#999999" d="M86.32,701.09c-0.46-0.18-0.84-0.43-1.16-0.74c-0.32-0.31-0.58-0.67-0.78-1.07
			c-0.2,0.47-0.47,0.9-0.82,1.27s-0.77,0.67-1.28,0.89l-0.84-1.22c0.38-0.17,0.71-0.38,0.98-0.62c0.27-0.25,0.49-0.52,0.67-0.8
			c0.17-0.29,0.3-0.59,0.38-0.91c0.08-0.32,0.12-0.64,0.12-0.95v-1.28h1.52v1.28c0,0.3,0.04,0.59,0.11,0.88s0.2,0.57,0.37,0.83
			c0.17,0.26,0.38,0.5,0.64,0.71c0.26,0.22,0.57,0.4,0.93,0.54L86.32,701.09z M87.27,701.9c0.58,0,1.1,0.05,1.57,0.14
			c0.47,0.1,0.87,0.23,1.2,0.41s0.59,0.39,0.76,0.65c0.18,0.26,0.26,0.54,0.26,0.86c0,0.33-0.09,0.62-0.26,0.88
			c-0.18,0.26-0.43,0.47-0.76,0.65s-0.73,0.31-1.2,0.41c-0.47,0.1-0.99,0.14-1.57,0.14c-0.58,0-1.11-0.05-1.58-0.14
			c-0.47-0.1-0.87-0.23-1.2-0.41s-0.59-0.39-0.77-0.65s-0.27-0.55-0.27-0.88c0-0.32,0.09-0.61,0.27-0.86
			c0.18-0.26,0.44-0.47,0.77-0.65s0.73-0.31,1.2-0.41C86.16,701.95,86.69,701.9,87.27,701.9z M87.27,704.84
			c0.71,0,1.26-0.07,1.64-0.22c0.38-0.14,0.57-0.36,0.57-0.66s-0.19-0.52-0.57-0.66c-0.38-0.14-0.93-0.22-1.64-0.22
			c-0.73,0-1.28,0.07-1.66,0.22c-0.38,0.14-0.57,0.36-0.57,0.66s0.19,0.52,0.57,0.66C85.99,704.77,86.54,704.84,87.27,704.84z
			 M88.64,701.39h-1.46v-6.2h1.46v2.48h0.88v-2.69h1.5v6.76h-1.5v-2.8h-0.88V701.39z"/>
		<path fill="#999999" d="M99.44,700.95c-0.58,0.11-1.16,0.19-1.76,0.24c-0.6,0.06-1.19,0.1-1.78,0.13s-1.15,0.05-1.7,0.05
			s-1.06,0.01-1.54,0.01l-0.16-1.09c0.4,0,0.82,0,1.25,0c0.44,0,0.89-0.01,1.37-0.02v-0.5c-0.6-0.07-1.07-0.23-1.4-0.47
			s-0.5-0.55-0.5-0.93c0-0.45,0.24-0.81,0.73-1.06c0.49-0.25,1.14-0.38,1.96-0.38s1.47,0.13,1.96,0.38s0.72,0.6,0.72,1.06
			c0,0.38-0.17,0.69-0.5,0.93s-0.79,0.39-1.38,0.47v0.44c0.45-0.02,0.89-0.05,1.33-0.09s0.87-0.08,1.29-0.13L99.44,700.95z
			 M99.05,696.72h-6.28v-1.04h2.35v-0.78h1.58v0.78h2.34V696.72z M95.55,704.9h6.23v1.04h-7.8v-2.54h5.86v-0.48h-5.87v-1.04h7.43
			v2.5h-5.84V704.9z M94.71,698.38c0,0.16,0.1,0.28,0.31,0.37c0.21,0.08,0.51,0.13,0.89,0.13c0.39,0,0.68-0.04,0.89-0.13
			s0.31-0.21,0.31-0.37s-0.1-0.28-0.31-0.35c-0.21-0.08-0.5-0.11-0.89-0.11c-0.39,0-0.68,0.04-0.89,0.11
			C94.81,698.1,94.71,698.22,94.71,698.38z M102.79,697.58v1.3h-1.39v2.6h-1.58v-6.5h1.58v2.6H102.79z"/>
		<path fill="#999999" d="M108.41,701.98c0.43-0.02,0.89-0.04,1.36-0.08c0.48-0.04,0.98-0.11,1.51-0.2l0.13,1.33
			c-0.73,0.14-1.41,0.22-2.04,0.26c-0.63,0.04-1.22,0.06-1.78,0.06h-0.77v-7.14h1.58V701.98z M115.88,694.97v11.05h-1.52v-5.51
			h-1.01v4.99h-1.46v-10.33h1.46v4.06h1.01v-4.26H115.88z"/>
		<path fill="#999999" d="M123.17,695.16h1.46v10.38h-1.46v-5.21h-0.86c-0.07,1.09-0.32,1.94-0.74,2.54
			c-0.42,0.61-0.97,0.91-1.65,0.91c-0.37,0-0.7-0.09-0.99-0.28c-0.29-0.18-0.54-0.45-0.75-0.79c-0.21-0.34-0.37-0.77-0.48-1.27
			c-0.11-0.5-0.17-1.06-0.17-1.69s0.06-1.18,0.17-1.68c0.11-0.5,0.27-0.92,0.48-1.26s0.46-0.61,0.75-0.79s0.62-0.28,0.99-0.28
			c0.66,0,1.19,0.29,1.61,0.86c0.42,0.58,0.67,1.38,0.76,2.42h0.88V695.16z M119.92,702.3c0.31,0,0.54-0.21,0.71-0.62
			c0.17-0.42,0.25-1.05,0.25-1.91c0-0.85-0.08-1.48-0.25-1.9c-0.17-0.42-0.41-0.62-0.71-0.62c-0.31,0-0.54,0.21-0.71,0.62
			c-0.17,0.42-0.25,1.05-0.25,1.9c0,0.86,0.08,1.49,0.25,1.91C119.37,702.09,119.61,702.3,119.92,702.3z M126.91,694.97v11.05h-1.49
			v-11.05H126.91z"/>
		<path fill="#999999" d="M132.64,697.43c0,0.52,0.05,1.03,0.16,1.54s0.26,0.97,0.47,1.41c0.21,0.44,0.48,0.83,0.82,1.17
			s0.73,0.62,1.18,0.82l-0.94,1.26c-0.61-0.3-1.11-0.7-1.52-1.22c-0.41-0.52-0.72-1.11-0.96-1.78c-0.24,0.71-0.57,1.34-0.99,1.9
			c-0.42,0.55-0.94,0.98-1.56,1.3l-0.98-1.27c0.46-0.22,0.87-0.51,1.21-0.87c0.34-0.36,0.63-0.77,0.85-1.22
			c0.22-0.45,0.38-0.94,0.49-1.45c0.11-0.52,0.16-1.04,0.16-1.57v-1.6h1.61V697.43z M137.75,694.97v11.09h-1.58v-6.35h-2.12v-1.27
			h2.12v-3.47H137.75z"/>
	</g>
	<g enable-background="new    ">
		<path fill="#999999" d="M47.28,719.1c-0.58-0.19-1.08-0.47-1.48-0.82c-0.4-0.36-0.72-0.77-0.95-1.24c-0.24,0.55-0.57,1.03-1,1.44
			c-0.43,0.41-0.96,0.72-1.59,0.94l-0.83-1.25c0.46-0.15,0.86-0.35,1.19-0.61c0.33-0.25,0.6-0.54,0.8-0.85s0.36-0.66,0.46-1.02
			c0.1-0.36,0.14-0.73,0.14-1.11v-1h1.61v1.13c0,0.34,0.05,0.66,0.14,0.98c0.1,0.32,0.24,0.62,0.44,0.9
			c0.2,0.28,0.46,0.53,0.77,0.75c0.32,0.22,0.69,0.4,1.12,0.53L47.28,719.1z M46.68,719.77c0.58,0,1.09,0.05,1.55,0.14
			c0.46,0.1,0.85,0.24,1.18,0.42c0.32,0.18,0.57,0.41,0.74,0.67c0.17,0.26,0.26,0.56,0.26,0.89c0,0.34-0.09,0.64-0.26,0.9
			c-0.17,0.26-0.42,0.49-0.74,0.67c-0.32,0.18-0.72,0.32-1.18,0.42c-0.46,0.1-0.98,0.14-1.55,0.14s-1.1-0.05-1.56-0.14
			c-0.46-0.1-0.86-0.24-1.18-0.42c-0.32-0.18-0.57-0.41-0.74-0.67c-0.17-0.26-0.26-0.56-0.26-0.9c0-0.34,0.09-0.63,0.26-0.89
			c0.17-0.26,0.42-0.48,0.74-0.67c0.32-0.18,0.72-0.32,1.18-0.42S46.1,719.77,46.68,719.77z M46.68,722.81
			c0.7,0,1.24-0.07,1.61-0.22c0.37-0.15,0.55-0.38,0.55-0.69c0-0.3-0.18-0.53-0.55-0.68c-0.37-0.15-0.9-0.22-1.61-0.22
			c-0.71,0-1.25,0.07-1.62,0.22c-0.37,0.15-0.55,0.37-0.55,0.68c0,0.31,0.18,0.54,0.55,0.69C45.43,722.73,45.97,722.81,46.68,722.81
			z M51.76,715.55v1.31h-1.46v2.66h-1.58v-6.53h1.58v2.56H51.76z"/>
		<path fill="#999999" d="M62.65,721.64v1.28H52.63v-1.28h4.19v-1.27c-0.92-0.09-1.64-0.31-2.17-0.68
			c-0.53-0.36-0.79-0.85-0.79-1.45c0-0.34,0.09-0.64,0.26-0.91c0.18-0.27,0.43-0.5,0.75-0.68c0.32-0.19,0.71-0.33,1.17-0.43
			c0.46-0.1,0.98-0.14,1.55-0.14s1.09,0.05,1.56,0.14c0.46,0.1,0.86,0.24,1.18,0.43c0.32,0.19,0.57,0.42,0.75,0.68
			c0.18,0.27,0.26,0.57,0.26,0.91c0,0.6-0.26,1.08-0.78,1.45c-0.52,0.36-1.24,0.59-2.16,0.68v1.27H62.65z M62.18,715.62h-9.12v-1.26
			h3.76v-1.27h1.58v1.27h3.78V715.62z M55.49,718.25c0,0.32,0.18,0.55,0.54,0.7c0.36,0.15,0.88,0.22,1.57,0.22
			c0.7,0,1.24-0.07,1.6-0.22c0.36-0.15,0.54-0.38,0.54-0.7c0-0.31-0.18-0.55-0.54-0.7s-0.89-0.23-1.6-0.23
			c-0.69,0-1.21,0.08-1.57,0.23C55.67,717.7,55.49,717.94,55.49,718.25z"/>
		<path fill="#999999" d="M69.38,713.81c0,0.75-0.11,1.44-0.34,2.08c-0.23,0.63-0.56,1.2-1,1.7s-0.97,0.94-1.61,1.32
			c-0.64,0.38-1.37,0.68-2.19,0.92l-0.66-1.26c1.24-0.34,2.2-0.81,2.87-1.42c0.68-0.61,1.08-1.31,1.21-2.08h-3.6v-1.26H69.38z
			 M66.82,722.58h5.93v1.26h-7.51v-3.74h1.58V722.58z M73.84,716.06v1.3h-1.48v3.53h-1.58v-7.91h1.58v3.08H73.84z"/>
		<path fill="#999999" d="M87.43,718.73V720h-10v-1.27h4.19v-1.51h1.58v1.51H87.43z M77.88,716.75c0.54-0.06,1.01-0.15,1.42-0.29
			s0.75-0.3,1.03-0.48c0.28-0.18,0.5-0.39,0.67-0.61c0.16-0.22,0.27-0.44,0.32-0.67h-2.96v-1.26h8.18v1.26h-2.99
			c0.05,0.22,0.15,0.45,0.31,0.67c0.16,0.22,0.38,0.42,0.67,0.61c0.28,0.18,0.63,0.34,1.03,0.48c0.4,0.14,0.88,0.23,1.42,0.29
			l-0.56,1.26c-1.03-0.12-1.88-0.38-2.55-0.78c-0.67-0.4-1.15-0.89-1.43-1.46c-0.29,0.58-0.76,1.06-1.43,1.46
			c-0.66,0.4-1.51,0.66-2.54,0.78L77.88,716.75z M80.23,722.58h6.07v1.26h-7.66v-3.16h1.58V722.58z"/>
		<path fill="#999999" d="M94.26,719.26v0.82c0.95,0.08,1.69,0.29,2.23,0.62s0.8,0.78,0.8,1.35c0,0.32-0.09,0.6-0.26,0.85
			c-0.18,0.25-0.43,0.46-0.76,0.63c-0.33,0.17-0.73,0.3-1.21,0.39c-0.47,0.09-1.01,0.13-1.61,0.13s-1.14-0.04-1.61-0.13
			s-0.87-0.22-1.2-0.39c-0.33-0.17-0.58-0.38-0.76-0.63c-0.18-0.25-0.26-0.53-0.26-0.85c0-0.58,0.27-1.03,0.8-1.36
			s1.29-0.54,2.26-0.62v-0.8h-4.2V718h9.98v1.26H94.26z M88.91,716.34c0.51-0.05,0.96-0.12,1.36-0.23c0.39-0.1,0.73-0.23,1.01-0.38
			c0.28-0.15,0.51-0.31,0.68-0.49c0.17-0.18,0.29-0.36,0.36-0.55h-2.93v-1.26h8.17v1.26h-2.94c0.07,0.18,0.19,0.37,0.36,0.55
			c0.17,0.18,0.39,0.34,0.68,0.49c0.28,0.15,0.62,0.27,1.01,0.38c0.39,0.1,0.85,0.18,1.37,0.23l-0.55,1.22
			c-1.04-0.09-1.9-0.31-2.57-0.68c-0.67-0.36-1.16-0.81-1.45-1.33c-0.3,0.53-0.78,0.97-1.45,1.33c-0.67,0.36-1.53,0.58-2.58,0.67
			L88.91,716.34z M95.68,722.04c0-0.28-0.19-0.48-0.56-0.61c-0.37-0.13-0.93-0.19-1.67-0.19c-0.74,0-1.3,0.06-1.67,0.19
			s-0.56,0.33-0.56,0.61s0.19,0.48,0.56,0.61s0.93,0.19,1.67,0.19c0.74,0,1.3-0.06,1.67-0.19
			C95.49,722.52,95.68,722.32,95.68,722.04z"/>
		<path fill="#999999" d="M109.5,717.43v1.24h-9.98v-1.24H109.5z M104.51,716.9c-1.26,0-2.25-0.16-2.95-0.48
			c-0.7-0.32-1.05-0.79-1.05-1.4c0-0.61,0.35-1.07,1.05-1.4c0.7-0.32,1.68-0.49,2.95-0.49c1.27,0,2.26,0.16,2.96,0.49
			c0.7,0.32,1.05,0.79,1.05,1.4c0,0.62-0.35,1.08-1.05,1.4C106.77,716.74,105.78,716.9,104.51,716.9z M102.24,722.76h6.34v1.19
			h-7.91v-2.9h6.06v-0.59h-6.07v-1.16h7.63v2.84h-6.05V722.76z M104.51,714.3c-0.8,0-1.39,0.06-1.78,0.17
			c-0.38,0.12-0.58,0.3-0.58,0.55c0,0.26,0.19,0.44,0.58,0.56c0.38,0.12,0.98,0.17,1.78,0.17c0.81,0,1.4-0.06,1.79-0.17
			c0.38-0.12,0.58-0.3,0.58-0.56c0-0.25-0.19-0.43-0.58-0.55C105.91,714.36,105.32,714.3,104.51,714.3z"/>
		<path fill="#999999" d="M119.2,714.12c0,0.85-0.08,1.65-0.24,2.42s-0.43,1.48-0.82,2.16c-0.39,0.68-0.91,1.3-1.55,1.88
			s-1.46,1.11-2.45,1.58l-0.83-1.25c0.7-0.34,1.31-0.7,1.82-1.09c0.51-0.39,0.94-0.81,1.28-1.27c0.34-0.45,0.61-0.94,0.8-1.46
			c0.19-0.52,0.31-1.09,0.37-1.71h-3.68v-1.26H119.2z M122.5,712.97v11.05h-1.61v-11.05H122.5z"/>
		<path fill="#999999" d="M129.94,719.39h-5.29v-5.62h1.56v1.57h2.17v-1.57h1.56V719.39z M127.48,722.58h5.94v1.26h-7.52v-3.53h1.58
			V722.58z M128.38,716.57h-2.17v1.57h2.17V716.57z M134.48,716.1v1.3h-1.46v3.72h-1.58v-8.14h1.58v3.12H134.48z"/>
		<path fill="#999999" d="M145.37,721.42v1.3h-10.01v-1.3H145.37z M140.35,713.53c0.58,0,1.13,0.08,1.63,0.23
			c0.5,0.15,0.94,0.37,1.31,0.65s0.66,0.62,0.88,1.01c0.21,0.4,0.32,0.83,0.32,1.31c0,0.48-0.11,0.92-0.32,1.31
			c-0.21,0.39-0.5,0.73-0.88,1.01c-0.37,0.28-0.81,0.5-1.31,0.65s-1.04,0.23-1.63,0.23c-0.58,0-1.12-0.08-1.62-0.23
			c-0.5-0.15-0.94-0.37-1.31-0.65c-0.37-0.28-0.66-0.62-0.87-1.01c-0.21-0.39-0.32-0.83-0.32-1.31c0-0.48,0.11-0.92,0.32-1.31
			c0.21-0.4,0.5-0.73,0.87-1.01c0.37-0.28,0.8-0.5,1.31-0.65C139.24,713.61,139.78,713.53,140.35,713.53z M140.35,714.83
			c-0.38,0-0.72,0.04-1.03,0.13s-0.58,0.21-0.81,0.37s-0.41,0.36-0.53,0.6c-0.13,0.24-0.19,0.51-0.19,0.8s0.06,0.56,0.19,0.79
			c0.13,0.23,0.31,0.43,0.53,0.59s0.5,0.29,0.81,0.38s0.66,0.13,1.03,0.13s0.72-0.04,1.04-0.13s0.59-0.21,0.82-0.38
			s0.41-0.36,0.53-0.59c0.13-0.23,0.19-0.5,0.19-0.79s-0.06-0.56-0.19-0.8c-0.13-0.24-0.31-0.44-0.53-0.6s-0.5-0.28-0.82-0.37
			S140.73,714.83,140.35,714.83z"/>
		<path fill="#999999" d="M156.41,721.52v1.3H146.4v-1.3h4.2v-1.64h-3.05v-3.74h6.17v-1.19h-6.18v-1.26h7.74v3.68h-6.16v1.24h6.41
			v1.27h-3.35v1.64H156.41z"/>
	</g>
	<g enable-background="new    ">
		<path fill="#999999" d="M69.52,738.41h-2.32v3.61H65.6v-3.61h-2.22v3.61h-1.61v-3.61H59.5v-1.28h10.02V738.41z M64.49,736.3
			c-0.59,0-1.13-0.06-1.62-0.17c-0.49-0.12-0.91-0.28-1.26-0.5c-0.35-0.22-0.63-0.48-0.82-0.78c-0.2-0.3-0.29-0.64-0.29-1.02
			s0.1-0.72,0.29-1.02c0.2-0.3,0.47-0.56,0.82-0.78c0.35-0.22,0.77-0.38,1.26-0.5c0.49-0.12,1.03-0.17,1.62-0.17
			c0.58,0,1.12,0.06,1.61,0.17c0.49,0.12,0.91,0.28,1.27,0.5c0.35,0.22,0.63,0.48,0.82,0.78c0.2,0.3,0.29,0.64,0.29,1.02
			s-0.1,0.72-0.29,1.02c-0.2,0.3-0.47,0.56-0.82,0.78s-0.77,0.38-1.27,0.5C65.62,736.24,65.08,736.3,64.49,736.3z M64.49,732.61
			c-0.73,0-1.31,0.1-1.74,0.31s-0.64,0.51-0.64,0.9c0,0.4,0.21,0.7,0.64,0.91c0.43,0.2,1.01,0.31,1.74,0.31
			c0.73,0,1.31-0.1,1.73-0.31c0.43-0.2,0.64-0.51,0.64-0.91c0-0.39-0.21-0.69-0.64-0.9C65.8,732.72,65.22,732.61,64.49,732.61z"/>
		<path fill="#999999" d="M76.47,732.12c0,0.85-0.08,1.65-0.24,2.42s-0.43,1.48-0.82,2.16c-0.39,0.68-0.91,1.3-1.55,1.88
			s-1.46,1.11-2.45,1.58l-0.83-1.25c0.7-0.34,1.31-0.7,1.82-1.09c0.51-0.39,0.94-0.81,1.28-1.27c0.34-0.45,0.61-0.94,0.8-1.46
			c0.19-0.52,0.31-1.09,0.37-1.71h-3.68v-1.26H76.47z M79.77,730.97v11.05h-1.61v-11.05H79.77z"/>
		<path fill="#999999" d="M87.47,737.26c-0.61-0.2-1.12-0.49-1.53-0.86c-0.41-0.38-0.74-0.81-0.97-1.31
			c-0.25,0.54-0.58,1.03-1.02,1.45c-0.43,0.42-0.97,0.73-1.62,0.94l-0.8-1.25c0.44-0.15,0.82-0.35,1.15-0.59
			c0.33-0.24,0.6-0.51,0.81-0.81s0.37-0.62,0.47-0.95s0.16-0.68,0.17-1.02h-2.17v-1.26h5.94v1.26h-2.16
			c0.01,0.31,0.06,0.63,0.16,0.94c0.1,0.32,0.25,0.62,0.46,0.9s0.46,0.54,0.77,0.77c0.31,0.23,0.68,0.41,1.1,0.56L87.47,737.26z
			 M83.3,738.05h7.54v4h-1.58v-2.74H83.3V738.05z M90.83,730.99v6.56h-1.58v-2.66h-1.63v-1.27h1.63v-2.63H90.83z"/>
		<path fill="#999999" d="M98.8,734.5c0,0.4-0.08,0.77-0.23,1.12c-0.15,0.34-0.36,0.64-0.64,0.89s-0.59,0.44-0.95,0.58
			c-0.36,0.14-0.76,0.21-1.18,0.21c-0.42,0-0.82-0.07-1.19-0.21c-0.37-0.14-0.69-0.33-0.95-0.58s-0.48-0.54-0.64-0.89
			c-0.16-0.34-0.23-0.72-0.23-1.12c0-0.41,0.08-0.78,0.23-1.13c0.16-0.34,0.37-0.64,0.64-0.89s0.59-0.44,0.95-0.58
			c0.37-0.14,0.76-0.21,1.19-0.21c0.42,0,0.82,0.07,1.18,0.21c0.36,0.14,0.68,0.33,0.95,0.58s0.48,0.54,0.64,0.89
			C98.73,733.71,98.8,734.09,98.8,734.5z M94.34,734.5c0,0.45,0.14,0.8,0.43,1.05c0.28,0.25,0.63,0.38,1.04,0.38
			c0.42,0,0.76-0.13,1.04-0.38c0.28-0.25,0.41-0.6,0.41-1.05c0-0.46-0.14-0.81-0.41-1.06c-0.28-0.25-0.62-0.38-1.04-0.38
			c-0.41,0-0.75,0.13-1.04,0.38C94.48,733.69,94.34,734.04,94.34,734.5z M102.09,740.58v1.26h-7.63v-3.7h1.58v2.44H102.09z
			 M101.83,738.92h-1.61v-7.93h1.61V738.92z"/>
		<path fill="#999999" d="M113.2,736.95c-0.58,0.11-1.16,0.19-1.76,0.24c-0.6,0.06-1.19,0.1-1.78,0.13s-1.15,0.05-1.7,0.05
			s-1.06,0.01-1.54,0.01l-0.16-1.09c0.4,0,0.82,0,1.25,0c0.44,0,0.89-0.01,1.37-0.02v-0.5c-0.6-0.07-1.07-0.23-1.4-0.47
			s-0.5-0.55-0.5-0.93c0-0.45,0.24-0.81,0.73-1.06c0.49-0.25,1.14-0.38,1.96-0.38s1.47,0.13,1.96,0.38s0.72,0.6,0.72,1.06
			c0,0.38-0.17,0.69-0.5,0.93s-0.79,0.39-1.38,0.47v0.44c0.45-0.02,0.89-0.05,1.33-0.09s0.87-0.08,1.29-0.13L113.2,736.95z
			 M112.82,732.72h-6.28v-1.04h2.35v-0.78h1.58v0.78h2.34V732.72z M109.31,740.9h6.23v1.04h-7.8v-2.54h5.86v-0.48h-5.87v-1.04h7.43
			v2.5h-5.84V740.9z M108.47,734.38c0,0.16,0.1,0.28,0.31,0.37c0.21,0.08,0.51,0.13,0.89,0.13c0.39,0,0.68-0.04,0.89-0.13
			s0.31-0.21,0.31-0.37s-0.1-0.28-0.31-0.35c-0.21-0.08-0.5-0.11-0.89-0.11c-0.39,0-0.68,0.04-0.89,0.11
			C108.58,734.1,108.47,734.22,108.47,734.38z M116.55,733.58v1.3h-1.39v2.6h-1.58v-6.5h1.58v2.6H116.55z"/>
		<path fill="#999999" d="M127.45,736.18v1.26h-10v-1.26h4.2v-0.91h-2.99v-3.82h7.58v1.26h-6v1.3h6.06v1.26h-3.07v0.91H127.45z
			 M122.41,737.98c0.6,0,1.14,0.04,1.61,0.13c0.47,0.09,0.87,0.22,1.21,0.4s0.59,0.39,0.76,0.64c0.18,0.25,0.26,0.54,0.26,0.87
			c0,0.33-0.09,0.62-0.26,0.86c-0.18,0.25-0.43,0.46-0.76,0.64s-0.73,0.31-1.21,0.4c-0.47,0.09-1.01,0.13-1.61,0.13
			s-1.14-0.04-1.61-0.13s-0.87-0.22-1.2-0.4s-0.58-0.39-0.76-0.64s-0.26-0.54-0.26-0.86c0-0.33,0.09-0.62,0.26-0.87
			c0.18-0.25,0.43-0.47,0.76-0.64s0.73-0.31,1.2-0.4S121.81,737.98,122.41,737.98z M122.41,740.84c0.74,0,1.3-0.07,1.67-0.2
			c0.37-0.13,0.56-0.34,0.56-0.63c0-0.56-0.74-0.84-2.23-0.84c-1.48,0-2.23,0.28-2.23,0.84c0,0.29,0.19,0.5,0.56,0.63
			C121.11,740.78,121.67,740.84,122.41,740.84z"/>
		<path fill="#999999" d="M131.69,731.75c0.42,0,0.8,0.09,1.16,0.28c0.36,0.18,0.66,0.45,0.92,0.79c0.26,0.34,0.46,0.75,0.61,1.24
			c0.15,0.48,0.22,1.03,0.22,1.64c0,0.61-0.07,1.16-0.22,1.64s-0.35,0.9-0.61,1.25c-0.26,0.34-0.56,0.61-0.92,0.79
			c-0.36,0.18-0.74,0.28-1.16,0.28s-0.8-0.09-1.16-0.28c-0.36-0.18-0.66-0.45-0.92-0.79c-0.26-0.34-0.46-0.76-0.61-1.25
			s-0.22-1.04-0.22-1.64c0-0.61,0.07-1.15,0.22-1.64c0.15-0.48,0.35-0.9,0.61-1.24c0.26-0.34,0.56-0.6,0.92-0.79
			C130.89,731.84,131.28,731.75,131.69,731.75z M131.69,733.18c-0.41,0-0.74,0.21-1,0.64c-0.26,0.42-0.38,1.05-0.38,1.87
			c0,0.82,0.13,1.45,0.38,1.88c0.26,0.43,0.59,0.64,1,0.64c0.41,0,0.74-0.21,1-0.64c0.26-0.43,0.38-1.05,0.38-1.88
			c0-0.82-0.13-1.45-0.38-1.87C132.43,733.39,132.1,733.18,131.69,733.18z M137.63,730.97v11.09h-1.58v-11.09H137.63z"/>
	</g>
	<g enable-background="new    ">
		<path fill="#999999" d="M76.27,750.11c0,0.83-0.08,1.63-0.25,2.39s-0.45,1.48-0.83,2.16c-0.39,0.68-0.9,1.31-1.52,1.89
			c-0.63,0.58-1.4,1.11-2.32,1.57l-0.89-1.21c1.29-0.66,2.28-1.44,2.97-2.33s1.11-1.95,1.25-3.19h-3.61v-1.28H76.27z M80.75,754.5
			h-1.55v5.51h-1.58v-11.04h1.58v4.22h1.55V754.5z"/>
		<path fill="#999999" d="M91.6,753.92v1.26h-10v-1.26H91.6z M86.56,755.9c0.6,0,1.14,0.05,1.61,0.14c0.47,0.09,0.87,0.23,1.21,0.4
			s0.59,0.39,0.76,0.65c0.18,0.26,0.26,0.54,0.26,0.86c0,0.33-0.09,0.62-0.26,0.87c-0.18,0.25-0.43,0.47-0.76,0.64
			s-0.73,0.31-1.21,0.4c-0.47,0.09-1.01,0.14-1.61,0.14s-1.14-0.05-1.61-0.14s-0.87-0.23-1.2-0.4s-0.58-0.39-0.76-0.64
			s-0.26-0.54-0.26-0.87c0-0.32,0.09-0.61,0.26-0.86s0.43-0.47,0.76-0.65s0.73-0.31,1.2-0.4S85.96,755.9,86.56,755.9z M90.49,752.99
			h-7.63v-3.82h1.58v2.56h6.05V752.99z M86.57,758.8c1.48,0,2.23-0.28,2.23-0.84s-0.74-0.84-2.23-0.84c-1.48,0-2.23,0.28-2.23,0.84
			S85.08,758.8,86.57,758.8z"/>
		<path fill="#999999" d="M99.15,751.38h-6.52v-1.24h2.45v-1.18h1.61v1.18h2.47L99.15,751.38z M98.61,753.9
			c0,0.32-0.07,0.61-0.2,0.87c-0.14,0.26-0.32,0.48-0.57,0.67c-0.24,0.19-0.53,0.33-0.86,0.44c-0.33,0.1-0.7,0.16-1.09,0.16
			c-0.4,0-0.77-0.05-1.1-0.16c-0.33-0.1-0.62-0.25-0.86-0.44c-0.24-0.19-0.43-0.41-0.56-0.67c-0.13-0.26-0.2-0.55-0.2-0.87
			c0-0.31,0.07-0.6,0.2-0.86s0.32-0.48,0.56-0.67c0.24-0.19,0.53-0.33,0.86-0.44c0.33-0.1,0.7-0.16,1.1-0.16
			c0.39,0,0.76,0.05,1.09,0.16c0.33,0.1,0.62,0.25,0.86,0.44c0.24,0.19,0.43,0.41,0.57,0.67S98.61,753.59,98.61,753.9z M95.8,758.58
			h5.94v1.26h-7.52v-3.2h1.58V758.58z M94.7,753.9c0,0.3,0.11,0.54,0.33,0.7c0.22,0.16,0.51,0.24,0.87,0.24
			c0.35,0,0.64-0.08,0.86-0.24c0.22-0.16,0.33-0.39,0.33-0.7c0-0.3-0.11-0.53-0.33-0.69c-0.22-0.16-0.51-0.23-0.86-0.23
			c-0.36,0-0.65,0.08-0.87,0.23S94.7,753.6,94.7,753.9z M102.8,752.35v1.31h-1.46v3.59h-1.58v-8.27h1.58v3.37H102.8z"/>
		<path fill="#999999" d="M112.57,752.5c0,0.4-0.08,0.77-0.23,1.12c-0.15,0.34-0.36,0.64-0.64,0.89s-0.59,0.44-0.95,0.58
			c-0.36,0.14-0.76,0.21-1.18,0.21c-0.42,0-0.82-0.07-1.19-0.21c-0.37-0.14-0.69-0.33-0.95-0.58s-0.48-0.54-0.64-0.89
			c-0.16-0.34-0.23-0.72-0.23-1.12c0-0.41,0.08-0.78,0.23-1.13c0.16-0.34,0.37-0.64,0.64-0.89s0.59-0.44,0.95-0.58
			c0.37-0.14,0.76-0.21,1.19-0.21c0.42,0,0.82,0.07,1.18,0.21c0.36,0.14,0.68,0.33,0.95,0.58s0.48,0.54,0.64,0.89
			C112.49,751.71,112.57,752.09,112.57,752.5z M108.1,752.5c0,0.45,0.14,0.8,0.43,1.05c0.28,0.25,0.63,0.38,1.04,0.38
			c0.42,0,0.76-0.13,1.04-0.38c0.28-0.25,0.41-0.6,0.41-1.05c0-0.46-0.14-0.81-0.41-1.06c-0.28-0.25-0.62-0.38-1.04-0.38
			c-0.41,0-0.75,0.13-1.04,0.38C108.24,751.69,108.1,752.04,108.1,752.5z M115.85,758.58v1.26h-7.63v-3.7h1.58v2.44H115.85z
			 M115.59,756.92h-1.61v-7.93h1.61V756.92z"/>
		<path fill="#999999" d="M126.99,748.97v11.05h-1.49v-5.52h-0.91v5.03h-1.46v-3.2l-0.89,1.19c-0.5-0.26-0.91-0.61-1.23-1.04
			c-0.33-0.43-0.59-0.92-0.79-1.48c-0.18,0.64-0.44,1.21-0.76,1.72s-0.75,0.91-1.27,1.21l-0.95-1.2c0.41-0.24,0.75-0.54,1.03-0.89
			c0.28-0.36,0.5-0.75,0.67-1.19c0.17-0.44,0.29-0.91,0.36-1.41c0.07-0.5,0.11-1.02,0.11-1.55v-0.3h-1.81v-1.28h4.99v1.28h-1.66v0.3
			c0,0.48,0.04,0.95,0.11,1.42c0.08,0.46,0.2,0.9,0.37,1.3c0.17,0.4,0.39,0.77,0.68,1.09c0.28,0.32,0.63,0.59,1.04,0.81v-7.15h1.46
			v4.06h0.91v-4.24H126.99z"/>
	</g>
	<g enable-background="new    ">
		<path fill="#1F98D5" d="M254,661.46v11.14h-7.97v-11.14H254z M248.36,663.34v7.4h3.29v-7.4H248.36z M258.95,659.97v16.61h-2.38
			v-16.61H258.95z"/>
		<path fill="#1F98D5" d="M264.51,670.93c0.76-0.02,1.51-0.06,2.25-0.11s1.53-0.14,2.36-0.27l0.18,1.93
			c-1.07,0.17-2.07,0.28-3.01,0.32c-0.94,0.05-1.91,0.07-2.9,0.07h-1.16v-6.75h3.96v-2.65h-3.98v-1.91h6.26V668h-3.96V670.93z
			 M275.98,659.95v16.58h-2.23v-8.41h-1.51v7.63h-2.2v-15.5h2.2v5.96h1.51v-6.26H275.98z"/>
	</g>
	<g enable-background="new    ">
		<path fill="#999999" d="M202.34,697.96c0,0.45,0.06,0.9,0.17,1.35c0.11,0.45,0.28,0.88,0.51,1.28c0.23,0.4,0.51,0.76,0.85,1.08
			s0.74,0.58,1.21,0.77l-0.86,1.25c-0.65-0.28-1.19-0.68-1.63-1.19c-0.44-0.51-0.78-1.1-1.03-1.78c-0.25,0.73-0.59,1.38-1.04,1.94
			c-0.44,0.57-0.99,1-1.64,1.3l-0.9-1.26c0.46-0.21,0.87-0.48,1.21-0.83c0.34-0.34,0.63-0.73,0.86-1.15
			c0.23-0.42,0.4-0.87,0.51-1.34c0.11-0.48,0.17-0.95,0.17-1.42v-0.61h-2.3v-1.31h6.19v1.31h-2.28V697.96z M207.23,694.98v11.05
			h-1.58v-11.05H207.23z"/>
		<path fill="#999999" d="M219.11,700.33v1.26h-10v-1.26h4.19v-1.43h1.58v1.43H219.11z M217.98,699.54
			c-0.94-0.14-1.73-0.39-2.39-0.76s-1.16-0.83-1.51-1.38c-0.35,0.55-0.86,1.01-1.51,1.38c-0.66,0.37-1.45,0.62-2.38,0.76l-0.59-1.24
			c0.62-0.07,1.17-0.2,1.63-0.39c0.46-0.19,0.84-0.41,1.15-0.66s0.53-0.53,0.68-0.83c0.15-0.3,0.22-0.61,0.22-0.92v-0.32h1.62v0.32
			c0,0.32,0.07,0.63,0.22,0.94c0.15,0.3,0.37,0.58,0.67,0.83s0.68,0.47,1.14,0.65c0.46,0.18,1,0.31,1.63,0.38L217.98,699.54z
			 M210.22,702.37h7.68v3.67h-1.58v-2.42h-6.1V702.37z"/>
		<path fill="#999999" d="M226.03,701.26c-0.61-0.2-1.12-0.49-1.54-0.86c-0.41-0.38-0.74-0.81-0.97-1.31
			c-0.25,0.54-0.58,1.03-1.02,1.45c-0.43,0.42-0.97,0.73-1.62,0.94l-0.8-1.25c0.44-0.15,0.82-0.35,1.15-0.59
			c0.33-0.24,0.6-0.51,0.81-0.81s0.37-0.62,0.47-0.95c0.1-0.34,0.16-0.68,0.17-1.02h-2.17v-1.26h5.94v1.26h-2.16
			c0.01,0.31,0.06,0.63,0.16,0.94c0.1,0.32,0.25,0.62,0.46,0.9s0.46,0.54,0.77,0.77c0.31,0.23,0.68,0.41,1.1,0.56L226.03,701.26z
			 M221.86,702.05h7.54v4h-1.58v-2.74h-5.95V702.05z M229.39,694.99v6.56h-1.58v-2.66h-1.63v-1.27h1.63v-2.63H229.39z"/>
		<path fill="#999999" d="M237.36,698.5c0,0.4-0.08,0.77-0.23,1.12s-0.36,0.64-0.64,0.89c-0.27,0.25-0.59,0.44-0.95,0.58
			s-0.76,0.21-1.18,0.21c-0.42,0-0.82-0.07-1.19-0.21s-0.69-0.33-0.95-0.58c-0.27-0.25-0.48-0.54-0.64-0.89s-0.23-0.72-0.23-1.12
			c0-0.41,0.08-0.78,0.23-1.13s0.37-0.64,0.64-0.89c0.27-0.25,0.59-0.44,0.95-0.58c0.37-0.14,0.76-0.21,1.19-0.21
			c0.42,0,0.82,0.07,1.18,0.21c0.36,0.14,0.68,0.33,0.95,0.58c0.27,0.25,0.48,0.54,0.64,0.89S237.36,698.09,237.36,698.5z
			 M232.9,698.5c0,0.45,0.14,0.8,0.43,1.05c0.28,0.25,0.63,0.38,1.04,0.38c0.42,0,0.76-0.13,1.04-0.38c0.28-0.25,0.41-0.6,0.41-1.05
			c0-0.46-0.14-0.81-0.41-1.06c-0.28-0.25-0.62-0.38-1.04-0.38c-0.41,0-0.75,0.13-1.04,0.38C233.04,697.69,232.9,698.04,232.9,698.5
			z M240.65,704.58v1.26h-7.63v-3.7h1.58v2.44H240.65z M240.38,702.92h-1.61v-7.93h1.61V702.92z"/>
		<path fill="#999999" d="M249.73,696.35c0,0.78-0.06,1.51-0.19,2.21c-0.13,0.7-0.34,1.36-0.65,1.99s-0.71,1.21-1.23,1.75
			c-0.52,0.54-1.16,1.03-1.93,1.48l-0.92-1.1c0.55-0.32,1.03-0.66,1.43-1.03c0.4-0.37,0.74-0.76,1.01-1.18
			c0.27-0.42,0.48-0.86,0.63-1.33c0.15-0.47,0.25-0.98,0.29-1.52h-2.8v-1.26H249.73z M254.44,694.98v11.05h-1.52v-5.62h-1v5.15
			h-1.46v-10.3h1.46v3.88h1v-4.16H254.44z"/>
		<path fill="#999999" d="M262.16,698.5c0,0.4-0.08,0.77-0.23,1.12s-0.36,0.64-0.64,0.89c-0.27,0.25-0.59,0.44-0.95,0.58
			s-0.76,0.21-1.18,0.21c-0.42,0-0.82-0.07-1.19-0.21s-0.69-0.33-0.95-0.58c-0.27-0.25-0.48-0.54-0.64-0.89s-0.23-0.72-0.23-1.12
			c0-0.41,0.08-0.78,0.23-1.13s0.37-0.64,0.64-0.89c0.27-0.25,0.59-0.44,0.95-0.58c0.37-0.14,0.76-0.21,1.19-0.21
			c0.42,0,0.82,0.07,1.18,0.21c0.36,0.14,0.68,0.33,0.95,0.58c0.27,0.25,0.48,0.54,0.64,0.89S262.16,698.09,262.16,698.5z
			 M257.7,698.5c0,0.45,0.14,0.8,0.43,1.05c0.28,0.25,0.63,0.38,1.04,0.38c0.42,0,0.76-0.13,1.04-0.38c0.28-0.25,0.41-0.6,0.41-1.05
			c0-0.46-0.14-0.81-0.41-1.06c-0.28-0.25-0.62-0.38-1.04-0.38c-0.41,0-0.75,0.13-1.04,0.38C257.84,697.69,257.7,698.04,257.7,698.5
			z M265.45,704.58v1.26h-7.63v-3.7h1.58v2.44H265.45z M265.19,702.92h-1.61v-7.93h1.61V702.92z"/>
		<path fill="#999999" d="M279,694.98v6.54h-1.58v-1.39h-2.4c-0.26,0.28-0.59,0.5-0.97,0.67c-0.38,0.16-0.79,0.25-1.24,0.25
			c-0.41,0-0.79-0.07-1.14-0.2c-0.35-0.14-0.66-0.33-0.92-0.57c-0.26-0.24-0.47-0.53-0.62-0.87c-0.15-0.34-0.22-0.7-0.22-1.1
			c0-0.39,0.07-0.76,0.22-1.09c0.15-0.34,0.35-0.63,0.62-0.87c0.26-0.24,0.57-0.43,0.92-0.57c0.35-0.14,0.73-0.2,1.14-0.2
			c0.46,0,0.87,0.08,1.25,0.25s0.7,0.39,0.97,0.67h2.39v-1.49H279z M272.8,699.68c0.41,0,0.75-0.12,1.02-0.37
			c0.27-0.24,0.4-0.59,0.4-1.03c0-0.43-0.13-0.77-0.4-1.01c-0.27-0.24-0.61-0.37-1.02-0.37c-0.41,0-0.75,0.12-1.01,0.37
			c-0.26,0.24-0.4,0.58-0.4,1.01c0,0.44,0.13,0.78,0.4,1.03C272.05,699.56,272.39,699.68,272.8,699.68z M271.46,702.02H279v4.02
			h-1.58v-2.77h-5.95V702.02z M277.42,698.87v-1.14h-1.76c0.02,0.09,0.03,0.18,0.04,0.27s0.02,0.19,0.02,0.29
			c0,0.1-0.01,0.19-0.02,0.29s-0.03,0.19-0.04,0.29H277.42z"/>
		<path fill="#999999" d="M284.66,697.78v-0.88h-3.48v-1.27h5.04v3.32h-3.46v0.96c0.45,0,0.86-0.01,1.25-0.02
			c0.38-0.01,0.75-0.03,1.1-0.06c0.35-0.03,0.69-0.06,1.03-0.1s0.67-0.09,1.01-0.16l0.13,1.27c-0.38,0.07-0.76,0.13-1.14,0.17
			s-0.77,0.08-1.18,0.1s-0.85,0.04-1.31,0.05s-0.97,0.01-1.52,0.01h-0.95v-3.41H284.66z M285.86,701.84c0.58,0,1.09,0.05,1.55,0.14
			c0.46,0.09,0.85,0.23,1.18,0.41c0.32,0.18,0.57,0.4,0.75,0.66c0.18,0.26,0.26,0.56,0.26,0.89c0,0.33-0.09,0.62-0.26,0.88
			c-0.18,0.26-0.43,0.48-0.75,0.66c-0.32,0.18-0.72,0.32-1.18,0.41c-0.46,0.1-0.98,0.14-1.55,0.14s-1.1-0.05-1.56-0.14
			c-0.46-0.1-0.86-0.23-1.18-0.41c-0.32-0.18-0.57-0.4-0.74-0.66c-0.17-0.26-0.26-0.55-0.26-0.88c0-0.34,0.09-0.63,0.26-0.89
			c0.17-0.26,0.42-0.48,0.74-0.66c0.32-0.18,0.72-0.32,1.18-0.41C284.77,701.89,285.29,701.84,285.86,701.84z M285.86,704.83
			c1.46,0,2.18-0.3,2.18-0.89s-0.73-0.89-2.18-0.89s-2.18,0.3-2.18,0.89S284.41,704.83,285.86,704.83z M289.5,697.75v1.04h1.46v1.28
			h-1.46v1.56h-1.58v-6.66h1.58v1.49h1.46v1.28H289.5z"/>
		<path fill="#999999" d="M296.62,696.35c0,0.78-0.06,1.51-0.19,2.21c-0.13,0.7-0.34,1.36-0.65,1.99s-0.71,1.21-1.23,1.75
			c-0.52,0.54-1.16,1.03-1.93,1.48l-0.92-1.1c0.55-0.32,1.03-0.66,1.43-1.03c0.4-0.37,0.74-0.76,1.01-1.18
			c0.27-0.42,0.48-0.86,0.63-1.33c0.15-0.47,0.25-0.98,0.29-1.52h-2.8v-1.26H296.62z M301.32,694.98v11.05h-1.52v-5.62h-1v5.15
			h-1.46v-10.3h1.46v3.88h1v-4.16H301.32z"/>
		<path fill="#999999" d="M308.5,700.31h-5.29v-4.85h1.56v1.32h2.17v-1.32h1.56V700.31z M305.87,704.72h6.02v1.22h-7.6v-3.05h5.72
			v-0.67h-5.74v-1.2h7.3v3h-5.71V704.72z M306.94,697.97h-2.17v1.1h2.17V697.97z M313.03,697.12v1.28h-1.45v2.2H310v-5.62h1.58v2.14
			H313.03z"/>
		<path fill="#999999" d="M323.93,703.52v1.3h-10.01v-1.3h4.2v-1.64h-3.05v-3.74h6.17v-1.19h-6.18v-1.26h7.74v3.68h-6.16v1.24h6.41
			v1.27h-3.35v1.64H323.93z"/>
	</g>
	<g enable-background="new    ">
		<path fill="#999999" d="M227.33,719.11c-0.58-0.2-1.07-0.48-1.47-0.85c-0.4-0.36-0.71-0.79-0.94-1.29
			c-0.25,0.57-0.59,1.06-1.03,1.49c-0.44,0.42-0.99,0.75-1.64,0.97l-0.83-1.27c0.47-0.15,0.88-0.35,1.21-0.61s0.61-0.54,0.83-0.86
			s0.37-0.66,0.47-1.03c0.1-0.37,0.15-0.74,0.15-1.13v-0.98h1.61v0.91c0,0.38,0.05,0.74,0.14,1.08c0.09,0.34,0.24,0.66,0.44,0.96
			s0.46,0.56,0.77,0.79c0.31,0.23,0.69,0.42,1.13,0.56L227.33,719.11z M227.02,719.74c0.58,0,1.11,0.05,1.58,0.14
			s0.86,0.24,1.19,0.42c0.32,0.18,0.57,0.41,0.75,0.68c0.18,0.27,0.26,0.57,0.26,0.92c0,0.34-0.09,0.64-0.26,0.9
			c-0.18,0.26-0.43,0.49-0.75,0.67c-0.32,0.18-0.72,0.32-1.19,0.42c-0.47,0.1-0.99,0.14-1.58,0.14c-0.59,0-1.12-0.05-1.59-0.14
			c-0.47-0.1-0.86-0.24-1.19-0.42c-0.32-0.18-0.57-0.41-0.75-0.67c-0.18-0.26-0.26-0.56-0.26-0.9c0-0.34,0.09-0.65,0.26-0.92
			c0.18-0.27,0.43-0.49,0.75-0.68c0.32-0.18,0.72-0.32,1.19-0.42S226.43,719.74,227.02,719.74z M227.02,722.82
			c0.73,0,1.28-0.08,1.64-0.23c0.37-0.15,0.55-0.38,0.55-0.7c0-0.32-0.18-0.56-0.55-0.71c-0.37-0.15-0.92-0.23-1.64-0.23
			c-1.47,0-2.21,0.31-2.21,0.94C224.81,722.51,225.55,722.82,227.02,722.82z M229.17,716.28h-2.02V715h2.02v-2.02h1.58v6.48h-1.58
			V716.28z"/>
		<path fill="#999999" d="M238.38,719.22c-0.61-0.18-1.12-0.45-1.55-0.8c-0.42-0.35-0.75-0.75-0.99-1.21
			c-0.25,0.55-0.59,1.04-1.03,1.45c-0.44,0.42-0.98,0.73-1.63,0.94l-0.79-1.24c0.45-0.15,0.83-0.35,1.16-0.59
			c0.32-0.24,0.59-0.51,0.8-0.81s0.37-0.62,0.47-0.96c0.1-0.34,0.16-0.68,0.17-1.03h-2.2v-1.27h5.96v1.27h-2.16
			c0.01,0.31,0.06,0.62,0.16,0.93s0.25,0.59,0.46,0.86c0.21,0.26,0.47,0.5,0.78,0.71s0.69,0.38,1.13,0.51L238.38,719.22z
			 M237.64,719.74c0.58,0,1.09,0.05,1.55,0.14c0.46,0.1,0.85,0.24,1.18,0.43c0.32,0.19,0.57,0.42,0.74,0.68
			c0.17,0.27,0.26,0.57,0.26,0.91c0,0.34-0.09,0.64-0.26,0.9c-0.17,0.26-0.42,0.49-0.74,0.67c-0.32,0.18-0.72,0.32-1.18,0.42
			c-0.46,0.1-0.98,0.14-1.55,0.14s-1.1-0.05-1.56-0.14c-0.46-0.1-0.86-0.24-1.18-0.42c-0.32-0.18-0.57-0.41-0.74-0.67
			c-0.17-0.26-0.26-0.56-0.26-0.9c0-0.34,0.09-0.64,0.26-0.91c0.17-0.27,0.42-0.5,0.74-0.68c0.32-0.19,0.72-0.33,1.18-0.43
			S237.07,719.74,237.64,719.74z M237.64,722.82c0.7,0,1.24-0.08,1.61-0.23c0.37-0.15,0.55-0.38,0.55-0.7
			c0-0.32-0.18-0.56-0.55-0.71c-0.37-0.15-0.9-0.23-1.61-0.23c-0.71,0-1.25,0.08-1.62,0.23c-0.37,0.15-0.55,0.39-0.55,0.71
			c0,0.31,0.18,0.54,0.55,0.7C236.39,722.74,236.93,722.82,237.64,722.82z M242.72,715.52v1.3h-1.46v2.72h-1.58v-6.56h1.58v2.54
			H242.72z"/>
		<path fill="#999999" d="M253.58,717.43v1.24h-9.98v-1.24H253.58z M248.59,716.9c-1.26,0-2.25-0.16-2.95-0.48
			c-0.7-0.32-1.05-0.79-1.05-1.4c0-0.61,0.35-1.07,1.05-1.4s1.68-0.49,2.95-0.49c1.27,0,2.26,0.16,2.96,0.49s1.05,0.79,1.05,1.4
			c0,0.62-0.35,1.08-1.05,1.4C250.84,716.74,249.86,716.9,248.59,716.9z M246.32,722.76h6.34v1.19h-7.91v-2.9h6.06v-0.59h-6.07
			v-1.16h7.63v2.84h-6.05V722.76z M248.59,714.3c-0.8,0-1.39,0.06-1.78,0.17c-0.38,0.12-0.58,0.3-0.58,0.55
			c0,0.26,0.19,0.44,0.58,0.56c0.38,0.12,0.98,0.17,1.78,0.17c0.81,0,1.4-0.06,1.79-0.17s0.58-0.3,0.58-0.56
			c0-0.25-0.19-0.43-0.58-0.55C249.99,714.36,249.39,714.3,248.59,714.3z"/>
		<path fill="#999999" d="M267.37,721.49v1.3h-10.01v-1.3h4.2v-2.3h-3.04v-5.45h7.7v1.27h-6.1v2.9h6.17v1.27h-3.16v2.3H267.37z"/>
		<path fill="#999999" d="M278.41,721.46v1.28H268.4v-1.28h4.2v-2.24h-3.14v-5.42h7.86v5.42h-3.13v2.24H278.41z M271,717.97h4.76
			v-2.93H271V717.97z"/>
		<path fill="#999999" d="M283.41,714.61h2.4v1.26h-6.43v-1.26h2.45v-1.44h1.58V714.61z M282.62,716.5c0.4,0,0.77,0.06,1.11,0.19
			c0.34,0.13,0.63,0.31,0.88,0.55c0.25,0.24,0.44,0.51,0.58,0.83c0.14,0.32,0.21,0.67,0.21,1.06c0,0.39-0.07,0.75-0.21,1.07
			s-0.33,0.6-0.58,0.84s-0.54,0.42-0.88,0.55c-0.34,0.13-0.71,0.19-1.11,0.19c-0.4,0-0.77-0.06-1.11-0.19
			c-0.34-0.13-0.64-0.31-0.89-0.55c-0.25-0.24-0.45-0.52-0.59-0.84s-0.21-0.68-0.21-1.07c0-0.38,0.07-0.74,0.21-1.06
			c0.14-0.32,0.33-0.6,0.59-0.83c0.25-0.24,0.55-0.42,0.89-0.55C281.85,716.56,282.22,716.5,282.62,716.5z M282.64,720.48
			c0.37,0,0.68-0.12,0.92-0.35c0.24-0.24,0.36-0.57,0.36-1c0-0.42-0.12-0.74-0.36-0.98c-0.24-0.24-0.55-0.36-0.92-0.36
			s-0.68,0.12-0.93,0.36c-0.24,0.24-0.36,0.57-0.36,1c0,0.42,0.12,0.75,0.36,0.99S282.26,720.48,282.64,720.48z M289.7,718.61h-1.58
			v5.42h-1.58v-11.05h1.58v4.32h1.58V718.61z"/>
		<path fill="#999999" d="M300.49,721.43v1.27h-10v-1.27h3.53v-3.8h1.58v3.8H300.49z M297.5,720.1c0.21-1.04,0.33-1.96,0.38-2.75
			s0.07-1.51,0.07-2.15h-6.44v-1.26h8.03v1.06c0,0.34,0,0.7-0.01,1.08s-0.02,0.78-0.05,1.21c-0.03,0.43-0.07,0.89-0.13,1.39
			c-0.06,0.5-0.15,1.04-0.26,1.62L297.5,720.1z"/>
	</g>
	<g enable-background="new    ">
		<path fill="#999999" d="M227.37,731.98v7.43h-5.32v-7.43H227.37z M223.61,733.22v4.93h2.2v-4.93H223.61z M230.67,730.98v11.08
			h-1.58v-11.08H230.67z"/>
		<path fill="#999999" d="M234.38,738.29c0.5-0.02,1-0.04,1.5-0.07c0.5-0.03,1.02-0.09,1.57-0.18l0.12,1.28
			c-0.71,0.11-1.38,0.18-2.01,0.22s-1.27,0.05-1.93,0.05h-0.77v-4.5h2.64v-1.76h-2.65v-1.27h4.18v4.28h-2.64V738.29z M242.02,730.97
			v11.05h-1.49v-5.6h-1.01v5.09h-1.46v-10.33h1.46v3.97h1.01v-4.18H242.02z"/>
		<path fill="#999999" d="M253.6,735.95v1.14h-10.01v-1.14H253.6z M246.31,740.87h6.41v1.07h-7.98v-2.68h6.11v-0.55h-6.12v-1.07
			h7.69v2.63h-6.11V740.87z M250.82,732.24h-6v-1.07h7.56v2.6h-5.98v0.58h6.17v1.07h-7.73v-2.65h5.98V732.24z"/>
		<path fill="#999999" d="M267.35,738.35h-4.24v3.71h-1.58v-3.71h-4.16v-1.26h9.98V738.35z M257.84,735.22
			c0.56-0.07,1.06-0.19,1.49-0.35c0.43-0.16,0.8-0.35,1.09-0.56c0.3-0.22,0.53-0.45,0.7-0.71s0.27-0.52,0.31-0.79h-3.18v-1.26h8.2
			v1.26h-3.13c0.04,0.26,0.14,0.53,0.31,0.79s0.39,0.5,0.69,0.71s0.66,0.4,1.09,0.56s0.92,0.28,1.48,0.35l-0.56,1.24
			c-0.97-0.14-1.78-0.4-2.45-0.79s-1.16-0.87-1.5-1.43c-0.34,0.57-0.84,1.05-1.5,1.43s-1.48,0.65-2.45,0.79L257.84,735.22z"/>
		<path fill="#999999" d="M278.41,739.49v1.3H268.4v-1.3h4.2v-2.3h-3.04v-5.45h7.7v1.27h-6.1v2.9h6.17v1.27h-3.16v2.3H278.41z"/>
		<path fill="#999999" d="M283.41,732.61h2.4v1.26h-6.43v-1.26h2.45v-1.44h1.58V732.61z M282.62,734.5c0.4,0,0.77,0.06,1.11,0.19
			c0.34,0.13,0.63,0.31,0.88,0.55c0.25,0.24,0.44,0.51,0.58,0.83c0.14,0.32,0.21,0.67,0.21,1.06c0,0.39-0.07,0.75-0.21,1.07
			s-0.33,0.6-0.58,0.84s-0.54,0.42-0.88,0.55c-0.34,0.13-0.71,0.19-1.11,0.19c-0.4,0-0.77-0.06-1.11-0.19
			c-0.34-0.13-0.64-0.31-0.89-0.55c-0.25-0.24-0.45-0.52-0.59-0.84s-0.21-0.68-0.21-1.07c0-0.38,0.07-0.74,0.21-1.06
			c0.14-0.32,0.33-0.6,0.59-0.83c0.25-0.24,0.55-0.42,0.89-0.55C281.85,734.56,282.22,734.5,282.62,734.5z M282.64,738.48
			c0.37,0,0.68-0.12,0.92-0.35c0.24-0.24,0.36-0.57,0.36-1c0-0.42-0.12-0.74-0.36-0.98c-0.24-0.24-0.55-0.36-0.92-0.36
			s-0.68,0.12-0.93,0.36c-0.24,0.24-0.36,0.57-0.36,1c0,0.42,0.12,0.75,0.36,0.99S282.26,738.48,282.64,738.48z M289.7,736.61h-1.58
			v5.42h-1.58v-11.05h1.58v4.32h1.58V736.61z"/>
		<path fill="#999999" d="M300.49,736.36v1.27h-10.01v-1.27H300.49z M293.21,740.53h6.24v1.27h-7.85v-3.3h1.61V740.53z
			 M299.38,735.23h-7.67v-3.85h1.58v2.59h6.08V735.23z"/>
	</g>
	<g enable-background="new    ">
		<path fill="#999999" d="M216.83,756.18c0.42,0,0.82-0.01,1.21-0.02c0.39-0.02,0.78-0.04,1.15-0.07c0.38-0.03,0.75-0.06,1.12-0.11
			c0.37-0.04,0.75-0.1,1.15-0.16l0.17,1.28c-0.45,0.08-0.89,0.14-1.33,0.19c-0.44,0.05-0.87,0.09-1.31,0.11
			c-0.44,0.03-0.89,0.05-1.34,0.06c-0.46,0.01-0.93,0.02-1.43,0.02h-0.99v-4.55h3.59v-1.76h-3.6v-1.26h5.21v4.27h-3.59V756.18z
			 M223.82,748.97v11.09h-1.58v-11.09H223.82z"/>
		<path fill="#999999" d="M227.77,756.1c0.39,0,0.76-0.01,1.11-0.02c0.35-0.02,0.68-0.04,1-0.06c0.32-0.02,0.63-0.05,0.94-0.09
			c0.31-0.04,0.62-0.08,0.93-0.14l0.16,1.28c-0.38,0.07-0.74,0.13-1.1,0.17c-0.36,0.04-0.73,0.07-1.12,0.1
			c-0.38,0.02-0.79,0.04-1.21,0.05c-0.42,0.01-0.89,0.01-1.39,0.01h-0.9v-7.43h5v1.26h-3.42V756.1z M234.95,748.98v11.09h-1.58v-6
			h-2.7v-1.27h2.7v-3.82H234.95z"/>
		<path fill="#999999" d="M242.74,754.67c-0.63-0.18-1.17-0.46-1.59-0.82c-0.43-0.36-0.77-0.79-1.02-1.27
			c-0.26,0.53-0.61,0.99-1.06,1.39c-0.45,0.4-1,0.69-1.66,0.89l-0.77-1.25c0.46-0.14,0.86-0.32,1.19-0.56
			c0.33-0.24,0.61-0.5,0.82-0.79s0.38-0.6,0.48-0.94c0.1-0.33,0.16-0.67,0.16-1v-1.02h1.61v1.02c0,0.33,0.05,0.65,0.15,0.97
			s0.26,0.61,0.47,0.89c0.21,0.28,0.48,0.52,0.81,0.74c0.32,0.22,0.71,0.39,1.16,0.52L242.74,754.67z M244.32,755.4h1.58v4.5h-7.36
			v-4.5h1.57v1.03h4.2V755.4z M244.32,757.64h-4.2v1h4.2V757.64z M245.9,748.98v5.94h-1.61v-5.94H245.9z"/>
		<path fill="#999999" d="M257.74,753.43v1.24h-9.98v-1.24H257.74z M252.74,752.9c-1.26,0-2.25-0.16-2.95-0.48
			c-0.7-0.32-1.05-0.79-1.05-1.4c0-0.61,0.35-1.07,1.05-1.4s1.68-0.49,2.95-0.49c1.27,0,2.26,0.16,2.96,0.49s1.05,0.79,1.05,1.4
			c0,0.62-0.35,1.08-1.05,1.4C255,752.74,254.02,752.9,252.74,752.9z M250.48,758.76h6.34v1.19h-7.91v-2.9h6.06v-0.59h-6.07v-1.16
			h7.63v2.84h-6.05V758.76z M252.74,750.3c-0.8,0-1.39,0.06-1.78,0.17c-0.38,0.12-0.58,0.3-0.58,0.55c0,0.26,0.19,0.44,0.58,0.56
			c0.38,0.12,0.98,0.17,1.78,0.17c0.81,0,1.4-0.06,1.79-0.17s0.58-0.3,0.58-0.56c0-0.25-0.19-0.43-0.58-0.55
			C254.15,750.36,253.55,750.3,252.74,750.3z"/>
		<path fill="#999999" d="M267.19,749.6c0,1.49-0.44,2.7-1.32,3.63c-0.88,0.93-2.16,1.6-3.84,2.01l-0.58-1.26
			c0.63-0.14,1.19-0.32,1.66-0.53c0.48-0.21,0.88-0.45,1.21-0.72c0.33-0.27,0.58-0.56,0.77-0.88c0.18-0.32,0.3-0.65,0.35-0.99h-3.46
			v-1.26H267.19z M267.53,756.79c0.05,0.22,0.15,0.43,0.31,0.64c0.16,0.21,0.37,0.41,0.64,0.59c0.27,0.18,0.6,0.35,1,0.49
			c0.39,0.14,0.84,0.24,1.36,0.31l-0.56,1.2c-0.88-0.11-1.62-0.33-2.23-0.67c-0.6-0.33-1.06-0.73-1.37-1.21
			c-0.31,0.46-0.77,0.86-1.37,1.18c-0.6,0.32-1.35,0.55-2.24,0.67l-0.55-1.2c0.52-0.06,0.98-0.15,1.37-0.29
			c0.39-0.14,0.72-0.29,0.99-0.47c0.27-0.18,0.48-0.38,0.64-0.59c0.16-0.21,0.25-0.43,0.29-0.65h-2.82v-1.24h7.39v1.24H267.53z
			 M271.68,751.5v1.3h-1.46v2.28h-1.58v-6.1h1.58v2.52H271.68z"/>
		<path fill="#999999" d="M282.56,754.69v1.25h-4.08v1.76h-1.58v-1.76h-4.36v-1.25H282.56z M272.98,753.05
			c0.58-0.05,1.09-0.13,1.53-0.24c0.44-0.11,0.8-0.25,1.1-0.41s0.53-0.34,0.7-0.53s0.28-0.39,0.32-0.6h-3.11v-1.22h3.23v-1.03h1.58
			v1.03h3.26v1.22h-3.13c0.06,0.21,0.17,0.41,0.34,0.6s0.4,0.37,0.7,0.53c0.3,0.16,0.66,0.3,1.09,0.41
			c0.43,0.11,0.94,0.19,1.54,0.24l-0.5,1.2c-1.02-0.09-1.86-0.28-2.54-0.58c-0.68-0.3-1.19-0.68-1.53-1.14
			c-0.34,0.46-0.85,0.84-1.53,1.14s-1.52,0.49-2.54,0.58L272.98,753.05z M275.29,758.58h6.16v1.26h-7.74v-3.08h1.58V758.58z"/>
		<path fill="#999999" d="M292.49,752.5c0,0.4-0.08,0.77-0.23,1.12c-0.15,0.34-0.36,0.64-0.64,0.89c-0.27,0.25-0.59,0.44-0.95,0.58
			c-0.36,0.14-0.76,0.21-1.18,0.21s-0.82-0.07-1.19-0.21c-0.37-0.14-0.69-0.33-0.95-0.58c-0.27-0.25-0.48-0.54-0.64-0.89
			c-0.16-0.34-0.23-0.72-0.23-1.12c0-0.41,0.08-0.78,0.23-1.13c0.16-0.34,0.37-0.64,0.64-0.89c0.27-0.25,0.59-0.44,0.95-0.58
			c0.37-0.14,0.76-0.21,1.19-0.21s0.82,0.07,1.18,0.21c0.36,0.14,0.68,0.33,0.95,0.58c0.27,0.25,0.48,0.54,0.64,0.89
			C292.41,751.71,292.49,752.09,292.49,752.5z M288.02,752.5c0,0.45,0.14,0.8,0.43,1.05s0.63,0.38,1.04,0.38
			c0.42,0,0.76-0.13,1.04-0.38s0.41-0.6,0.41-1.05c0-0.46-0.14-0.81-0.41-1.06s-0.62-0.38-1.04-0.38c-0.41,0-0.75,0.13-1.04,0.38
			S288.02,752.04,288.02,752.5z M295.78,758.58v1.26h-7.63v-3.7h1.58v2.44H295.78z M295.51,756.92h-1.61v-7.93h1.61V756.92z"/>
		<path fill="#999999" d="M306.91,748.97v11.05h-1.49v-5.52h-0.91v5.03h-1.46v-3.2l-0.89,1.19c-0.5-0.26-0.91-0.61-1.23-1.04
			c-0.33-0.43-0.59-0.92-0.79-1.48c-0.18,0.64-0.44,1.21-0.76,1.72c-0.33,0.5-0.75,0.91-1.27,1.21l-0.95-1.2
			c0.41-0.24,0.75-0.54,1.03-0.89c0.28-0.36,0.5-0.75,0.67-1.19c0.17-0.44,0.29-0.91,0.36-1.41c0.07-0.5,0.11-1.02,0.11-1.55v-0.3
			h-1.81v-1.28h4.99v1.28h-1.66v0.3c0,0.48,0.04,0.95,0.11,1.42c0.08,0.46,0.2,0.9,0.37,1.3c0.17,0.4,0.39,0.77,0.68,1.09
			s0.63,0.59,1.04,0.81v-7.15h1.46v4.06h0.91v-4.24H306.91z"/>
	</g>
	<line id="선_107" fill="none" stroke="#E7E7E7" x1="180.5" y1="599" x2="180.5" y2="569"/>
	<g id="그룹_463" transform="translate(262 629) rotate(180)">
		<line id="선_100" fill="none" stroke="#E7E7E7" x1="0.12" y1="0" x2="0.12" y2="29.5"/>
		<line id="선_101" fill="none" stroke="#E7E7E7" x1="162.5" y1="0" x2="162.5" y2="29.5"/>
		<line id="선_102" fill="none" stroke="#E7E7E7" x1="0" y1="30" x2="163" y2="30"/>
	</g>
	<circle id="타원_25" fill="#1F98D5" cx="261.5" cy="598.5" r="2.5"/>
	<circle id="타원_23" fill="#1F98D5" cx="180.5" cy="598.5" r="2.5"/>
	<circle id="타원_24" fill="#1F98D5" cx="99.5" cy="598.5" r="2.5"/>
</g>
</svg>
