<?xml version="1.0" encoding="utf-8"?>
<!-- Generator: Adobe Illustrator 25.1.0, SVG Export Plug-In . SVG Version: 6.00 Build 0)  -->
<svg version="1.1" id="Layer_1" xmlns="http://www.w3.org/2000/svg" xmlns:xlink="http://www.w3.org/1999/xlink" x="0px" y="0px"
	 viewBox="0 0 690 262" enable-background="new 0 0 690 262" xml:space="preserve">
<g id="그룹_473" transform="translate(-60 -873.5)">
	<g id="사각형_152" transform="translate(60 994)">
		<rect y="0.25" fill="none" width="336" height="141"/>
		<rect x="0.5" y="0.75" fill="none" stroke="#E7E7E7" width="335" height="140"/>
	</g>
	<g id="사각형_151" transform="translate(414 994)">
		<rect y="0.25" fill="none" width="336" height="141"/>
		<rect x="0.5" y="0.75" fill="none" stroke="#E7E7E7" width="335" height="140"/>
	</g>
	<g enable-background="new    ">
		<path fill="#999999" d="M139.24,1082.71v1.28h-10.01v-1.28h4.21v-2.44h1.58v2.44H139.24z M129.62,1079.51
			c0.58-0.09,1.09-0.24,1.54-0.44c0.45-0.21,0.83-0.45,1.15-0.74s0.56-0.6,0.73-0.94c0.18-0.34,0.28-0.7,0.32-1.06h-3.31v-1.26h8.33
			v1.26h-3.31c0.03,0.36,0.14,0.71,0.32,1.04c0.18,0.34,0.43,0.64,0.74,0.92s0.7,0.52,1.16,0.72c0.46,0.2,0.99,0.34,1.58,0.43
			l-0.6,1.25c-0.98-0.18-1.81-0.49-2.49-0.93c-0.68-0.44-1.2-0.99-1.55-1.64c-0.34,0.66-0.85,1.22-1.53,1.68
			c-0.68,0.46-1.5,0.77-2.47,0.95L129.62,1079.51z"/>
		<path fill="#999999" d="M146.36,1080.52c-0.62-0.19-1.14-0.48-1.56-0.85s-0.76-0.81-1.02-1.31c-0.25,0.54-0.59,1.02-1.03,1.43
			s-0.98,0.72-1.63,0.93l-0.8-1.24c0.45-0.14,0.84-0.34,1.16-0.58s0.6-0.51,0.82-0.8s0.38-0.61,0.49-0.95
			c0.11-0.34,0.17-0.68,0.17-1.02h-2.22v-1.25h6.01v1.25h-2.18c0.01,0.33,0.06,0.65,0.17,0.97c0.1,0.32,0.26,0.61,0.48,0.89
			c0.22,0.28,0.49,0.53,0.81,0.76c0.32,0.23,0.7,0.41,1.14,0.56L146.36,1080.52z M141.92,1081.38h7.54v3.91h-1.61v-2.65h-5.93
			V1081.38z M149.46,1074.23v6.66h-1.61v-6.66H149.46z"/>
		<path fill="#999999" d="M156.04,1080.34c-0.46-0.18-0.84-0.43-1.16-0.74c-0.32-0.31-0.58-0.67-0.78-1.07
			c-0.2,0.47-0.47,0.9-0.82,1.27s-0.77,0.67-1.28,0.89l-0.84-1.22c0.38-0.17,0.71-0.38,0.98-0.62c0.27-0.25,0.49-0.52,0.67-0.8
			c0.17-0.29,0.3-0.59,0.38-0.91c0.08-0.32,0.12-0.64,0.12-0.95v-1.28h1.52v1.28c0,0.3,0.04,0.59,0.11,0.88s0.2,0.57,0.37,0.83
			c0.17,0.26,0.38,0.5,0.64,0.71c0.26,0.22,0.57,0.4,0.93,0.54L156.04,1080.34z M156.98,1081.15c0.58,0,1.1,0.05,1.57,0.14
			c0.47,0.1,0.87,0.23,1.2,0.41s0.59,0.39,0.76,0.65c0.18,0.26,0.26,0.54,0.26,0.86c0,0.33-0.09,0.62-0.26,0.88
			c-0.18,0.26-0.43,0.47-0.76,0.65s-0.73,0.31-1.2,0.41c-0.47,0.1-0.99,0.14-1.57,0.14c-0.58,0-1.11-0.05-1.58-0.14
			c-0.47-0.1-0.87-0.23-1.2-0.41s-0.59-0.39-0.77-0.65s-0.27-0.55-0.27-0.88c0-0.32,0.09-0.61,0.27-0.86
			c0.18-0.26,0.44-0.47,0.77-0.65s0.73-0.31,1.2-0.41C155.87,1081.2,156.4,1081.15,156.98,1081.15z M156.98,1084.09
			c0.71,0,1.26-0.07,1.64-0.22c0.38-0.14,0.57-0.36,0.57-0.66s-0.19-0.52-0.57-0.66c-0.38-0.14-0.93-0.22-1.64-0.22
			c-0.73,0-1.28,0.07-1.66,0.22c-0.38,0.14-0.57,0.36-0.57,0.66s0.19,0.52,0.57,0.66C155.7,1084.02,156.26,1084.09,156.98,1084.09z
			 M158.35,1080.64h-1.46v-6.2h1.46v2.48h0.88v-2.69h1.5v6.76h-1.5v-2.8h-0.88V1080.64z"/>
		<path fill="#999999" d="M169.15,1080.2c-0.58,0.11-1.16,0.19-1.76,0.24c-0.6,0.06-1.19,0.1-1.78,0.13s-1.15,0.05-1.7,0.05
			s-1.06,0.01-1.54,0.01l-0.16-1.09c0.4,0,0.82,0,1.25,0c0.44,0,0.89-0.01,1.37-0.02v-0.5c-0.6-0.07-1.07-0.23-1.4-0.47
			s-0.5-0.55-0.5-0.93c0-0.45,0.24-0.81,0.73-1.06c0.49-0.25,1.14-0.38,1.96-0.38s1.47,0.13,1.96,0.38s0.72,0.6,0.72,1.06
			c0,0.38-0.17,0.69-0.5,0.93s-0.79,0.39-1.38,0.47v0.44c0.45-0.02,0.89-0.05,1.33-0.09s0.87-0.08,1.29-0.13L169.15,1080.2z
			 M168.77,1075.97h-6.28v-1.04h2.35v-0.78h1.58v0.78h2.34V1075.97z M165.26,1084.15h6.23v1.04h-7.8v-2.54h5.86v-0.48h-5.87v-1.04
			h7.43v2.5h-5.84V1084.15z M164.42,1077.63c0,0.16,0.1,0.28,0.31,0.37c0.21,0.08,0.51,0.13,0.89,0.13c0.39,0,0.68-0.04,0.89-0.13
			s0.31-0.21,0.31-0.37s-0.1-0.28-0.31-0.35c-0.21-0.08-0.5-0.11-0.89-0.11c-0.39,0-0.68,0.04-0.89,0.11
			C164.53,1077.35,164.42,1077.47,164.42,1077.63z M172.5,1076.83v1.3h-1.39v2.6h-1.58v-6.5h1.58v2.6H172.5z"/>
		<path fill="#999999" d="M178.13,1081.23c0.43-0.02,0.89-0.04,1.36-0.08c0.48-0.04,0.98-0.11,1.51-0.2l0.13,1.33
			c-0.73,0.14-1.41,0.22-2.04,0.26c-0.63,0.04-1.22,0.06-1.78,0.06h-0.77v-7.14h1.58V1081.23z M185.59,1074.22v11.05h-1.52v-5.51
			h-1.01v4.99h-1.46v-10.33h1.46v4.06h1.01v-4.26H185.59z"/>
		<path fill="#999999" d="M192.89,1074.41h1.46v10.38h-1.46v-5.21h-0.86c-0.07,1.09-0.32,1.94-0.74,2.54
			c-0.42,0.61-0.97,0.91-1.65,0.91c-0.37,0-0.7-0.09-0.99-0.28c-0.29-0.18-0.54-0.45-0.75-0.79c-0.21-0.34-0.37-0.77-0.48-1.27
			c-0.11-0.5-0.17-1.06-0.17-1.69s0.06-1.18,0.17-1.68c0.11-0.5,0.27-0.92,0.48-1.26s0.46-0.61,0.75-0.79s0.62-0.28,0.99-0.28
			c0.66,0,1.19,0.29,1.61,0.86c0.42,0.58,0.67,1.38,0.76,2.42h0.88V1074.41z M189.63,1081.55c0.31,0,0.54-0.21,0.71-0.62
			c0.17-0.42,0.25-1.05,0.25-1.91c0-0.85-0.08-1.48-0.25-1.9c-0.17-0.42-0.41-0.62-0.71-0.62c-0.31,0-0.54,0.21-0.71,0.62
			c-0.17,0.42-0.25,1.05-0.25,1.9c0,0.86,0.08,1.49,0.25,1.91C189.09,1081.34,189.32,1081.55,189.63,1081.55z M196.62,1074.22v11.05
			h-1.49v-11.05H196.62z"/>
		<path fill="#999999" d="M202.36,1076.68c0,0.52,0.05,1.03,0.16,1.54s0.26,0.97,0.47,1.41c0.21,0.44,0.48,0.83,0.82,1.17
			s0.73,0.62,1.18,0.82l-0.94,1.26c-0.61-0.3-1.11-0.7-1.52-1.22c-0.41-0.52-0.72-1.11-0.96-1.78c-0.24,0.71-0.57,1.34-0.99,1.9
			c-0.42,0.55-0.94,0.98-1.56,1.3l-0.98-1.27c0.46-0.22,0.87-0.51,1.21-0.87c0.34-0.36,0.63-0.77,0.85-1.22
			c0.22-0.45,0.38-0.94,0.49-1.45c0.11-0.52,0.16-1.04,0.16-1.57v-1.6h1.61V1076.68z M207.47,1074.22v11.09h-1.58v-6.35h-2.12v-1.27
			h2.12v-3.47H207.47z"/>
		<path fill="#999999" d="M217.64,1080.35c-0.58-0.19-1.08-0.47-1.48-0.82c-0.4-0.36-0.72-0.77-0.95-1.24
			c-0.24,0.55-0.57,1.03-1,1.44c-0.43,0.41-0.96,0.72-1.59,0.94l-0.83-1.25c0.46-0.15,0.86-0.35,1.19-0.61
			c0.33-0.25,0.6-0.54,0.8-0.85s0.36-0.66,0.46-1.02c0.1-0.36,0.14-0.73,0.14-1.11v-1h1.61v1.13c0,0.34,0.05,0.66,0.14,0.98
			c0.1,0.32,0.24,0.62,0.44,0.9c0.2,0.28,0.46,0.53,0.77,0.75c0.32,0.22,0.69,0.4,1.12,0.53L217.64,1080.35z M217.04,1081.02
			c0.58,0,1.09,0.05,1.55,0.14c0.46,0.1,0.85,0.24,1.18,0.42c0.32,0.18,0.57,0.41,0.74,0.67c0.17,0.26,0.26,0.56,0.26,0.89
			c0,0.34-0.09,0.64-0.26,0.9c-0.17,0.26-0.42,0.49-0.74,0.67c-0.32,0.18-0.72,0.32-1.18,0.42c-0.46,0.1-0.98,0.14-1.55,0.14
			s-1.1-0.05-1.56-0.14c-0.46-0.1-0.86-0.24-1.18-0.42c-0.32-0.18-0.57-0.41-0.74-0.67c-0.17-0.26-0.26-0.56-0.26-0.9
			c0-0.34,0.09-0.63,0.26-0.89c0.17-0.26,0.42-0.48,0.74-0.67c0.32-0.18,0.72-0.32,1.18-0.42S216.47,1081.02,217.04,1081.02z
			 M217.04,1084.06c0.7,0,1.24-0.07,1.61-0.22c0.37-0.15,0.55-0.38,0.55-0.69c0-0.3-0.18-0.53-0.55-0.68
			c-0.37-0.15-0.9-0.22-1.61-0.22c-0.71,0-1.25,0.07-1.62,0.22c-0.37,0.15-0.55,0.37-0.55,0.68c0,0.31,0.18,0.54,0.55,0.69
			C215.79,1083.98,216.33,1084.06,217.04,1084.06z M222.12,1076.8v1.31h-1.46v2.66h-1.58v-6.53h1.58v2.56H222.12z"/>
		<path fill="#999999" d="M233.02,1082.89v1.28H223v-1.28h4.19v-1.27c-0.92-0.09-1.64-0.31-2.17-0.68
			c-0.53-0.36-0.79-0.85-0.79-1.45c0-0.34,0.09-0.64,0.26-0.91c0.18-0.27,0.43-0.5,0.75-0.68c0.32-0.19,0.71-0.33,1.17-0.43
			c0.46-0.1,0.98-0.14,1.55-0.14s1.09,0.05,1.56,0.14c0.46,0.1,0.86,0.24,1.18,0.43c0.32,0.19,0.57,0.42,0.75,0.68
			c0.18,0.27,0.26,0.57,0.26,0.91c0,0.6-0.26,1.08-0.78,1.45c-0.52,0.36-1.24,0.59-2.16,0.68v1.27H233.02z M232.55,1076.87h-9.12
			v-1.26h3.76v-1.27h1.58v1.27h3.78V1076.87z M225.85,1079.5c0,0.32,0.18,0.55,0.54,0.7c0.36,0.15,0.88,0.22,1.57,0.22
			c0.7,0,1.24-0.07,1.6-0.22c0.36-0.15,0.54-0.38,0.54-0.7c0-0.31-0.18-0.55-0.54-0.7s-0.89-0.23-1.6-0.23
			c-0.69,0-1.21,0.08-1.57,0.23C226.03,1078.95,225.85,1079.19,225.85,1079.5z"/>
		<path fill="#999999" d="M239.75,1075.06c0,0.75-0.11,1.44-0.34,2.08c-0.23,0.63-0.56,1.2-1,1.7s-0.97,0.94-1.61,1.32
			c-0.64,0.38-1.37,0.68-2.19,0.92l-0.66-1.26c1.24-0.34,2.2-0.81,2.87-1.42c0.68-0.61,1.08-1.31,1.21-2.08h-3.6v-1.26H239.75z
			 M237.18,1083.83h5.93v1.26h-7.51v-3.74h1.58V1083.83z M244.2,1077.31v1.3h-1.48v3.53h-1.58v-7.91h1.58v3.08H244.2z"/>
		<path fill="#999999" d="M257.8,1079.98v1.27h-10v-1.27h4.19v-1.51h1.58v1.51H257.8z M248.24,1078c0.54-0.06,1.01-0.15,1.42-0.29
			s0.75-0.3,1.03-0.48c0.28-0.18,0.5-0.39,0.67-0.61c0.16-0.22,0.27-0.44,0.32-0.67h-2.96v-1.26h8.18v1.26h-2.99
			c0.05,0.22,0.15,0.45,0.31,0.67c0.16,0.22,0.38,0.42,0.67,0.61c0.28,0.18,0.63,0.34,1.03,0.48c0.4,0.14,0.88,0.23,1.42,0.29
			l-0.56,1.26c-1.03-0.12-1.88-0.38-2.55-0.78c-0.67-0.4-1.15-0.89-1.43-1.46c-0.29,0.58-0.76,1.06-1.43,1.46
			c-0.66,0.4-1.51,0.66-2.54,0.78L248.24,1078z M250.6,1083.83h6.07v1.26h-7.66v-3.16h1.58V1083.83z"/>
		<path fill="#999999" d="M264.62,1080.51v0.82c0.95,0.08,1.69,0.29,2.23,0.62s0.8,0.78,0.8,1.35c0,0.32-0.09,0.6-0.26,0.85
			c-0.18,0.25-0.43,0.46-0.76,0.63c-0.33,0.17-0.73,0.3-1.21,0.39c-0.47,0.09-1.01,0.13-1.61,0.13s-1.14-0.04-1.61-0.13
			s-0.87-0.22-1.2-0.39c-0.33-0.17-0.58-0.38-0.76-0.63c-0.18-0.25-0.26-0.53-0.26-0.85c0-0.58,0.27-1.03,0.8-1.36
			s1.29-0.54,2.26-0.62v-0.8h-4.2v-1.26h9.98v1.26H264.62z M259.27,1077.59c0.51-0.05,0.96-0.12,1.36-0.23
			c0.39-0.1,0.73-0.23,1.01-0.38c0.28-0.15,0.51-0.31,0.68-0.49c0.17-0.18,0.29-0.36,0.36-0.55h-2.93v-1.26h8.17v1.26h-2.94
			c0.07,0.18,0.19,0.37,0.36,0.55c0.17,0.18,0.39,0.34,0.68,0.49c0.28,0.15,0.62,0.27,1.01,0.38c0.39,0.1,0.85,0.18,1.37,0.23
			l-0.55,1.22c-1.04-0.09-1.9-0.31-2.57-0.68c-0.67-0.36-1.16-0.81-1.45-1.33c-0.3,0.53-0.78,0.97-1.45,1.33
			c-0.67,0.36-1.53,0.58-2.58,0.67L259.27,1077.59z M266.04,1083.29c0-0.28-0.19-0.48-0.56-0.61c-0.37-0.13-0.93-0.19-1.67-0.19
			c-0.74,0-1.3,0.06-1.67,0.19s-0.56,0.33-0.56,0.61s0.19,0.48,0.56,0.61s0.93,0.19,1.67,0.19c0.74,0,1.3-0.06,1.67-0.19
			C265.85,1083.77,266.04,1083.57,266.04,1083.29z"/>
		<path fill="#999999" d="M279.86,1078.68v1.24h-9.98v-1.24H279.86z M274.87,1078.15c-1.26,0-2.25-0.16-2.95-0.48
			c-0.7-0.32-1.05-0.79-1.05-1.4c0-0.61,0.35-1.07,1.05-1.4c0.7-0.32,1.68-0.49,2.95-0.49c1.27,0,2.26,0.16,2.96,0.49
			c0.7,0.32,1.05,0.79,1.05,1.4c0,0.62-0.35,1.08-1.05,1.4C277.13,1077.99,276.14,1078.15,274.87,1078.15z M272.6,1084.01h6.34v1.19
			h-7.91v-2.9h6.06v-0.59h-6.07v-1.16h7.63v2.84h-6.05V1084.01z M274.87,1075.55c-0.8,0-1.39,0.06-1.78,0.17
			c-0.38,0.12-0.58,0.3-0.58,0.55c0,0.26,0.19,0.44,0.58,0.56c0.38,0.12,0.98,0.17,1.78,0.17c0.81,0,1.4-0.06,1.79-0.17
			c0.38-0.12,0.58-0.3,0.58-0.56c0-0.25-0.19-0.43-0.58-0.55C276.28,1075.61,275.68,1075.55,274.87,1075.55z"/>
		<path fill="#999999" d="M289.56,1075.37c0,0.85-0.08,1.65-0.24,2.42s-0.43,1.48-0.82,2.16c-0.39,0.68-0.91,1.3-1.55,1.88
			s-1.46,1.11-2.45,1.58l-0.83-1.25c0.7-0.34,1.31-0.7,1.82-1.09c0.51-0.39,0.94-0.81,1.28-1.27c0.34-0.45,0.61-0.94,0.8-1.46
			c0.19-0.52,0.31-1.09,0.37-1.71h-3.68v-1.26H289.56z M292.86,1074.22v11.05h-1.61v-11.05H292.86z"/>
		<path fill="#999999" d="M300.3,1080.64h-5.29v-5.62h1.56v1.57h2.17v-1.57h1.56V1080.64z M297.84,1083.83h5.94v1.26h-7.52v-3.53
			h1.58V1083.83z M298.74,1077.82h-2.17v1.57h2.17V1077.82z M304.85,1077.35v1.3h-1.46v3.72h-1.58v-8.14h1.58v3.12H304.85z"/>
		<path fill="#999999" d="M315.73,1082.67v1.3h-10.01v-1.3H315.73z M310.71,1074.78c0.58,0,1.13,0.08,1.63,0.23
			c0.5,0.15,0.94,0.37,1.31,0.65s0.66,0.62,0.88,1.01c0.21,0.4,0.32,0.83,0.32,1.31c0,0.48-0.11,0.92-0.32,1.31
			c-0.21,0.39-0.5,0.73-0.88,1.01c-0.37,0.28-0.81,0.5-1.31,0.65s-1.04,0.23-1.63,0.23c-0.58,0-1.12-0.08-1.62-0.23
			c-0.5-0.15-0.94-0.37-1.31-0.65c-0.37-0.28-0.66-0.62-0.87-1.01c-0.21-0.39-0.32-0.83-0.32-1.31c0-0.48,0.11-0.92,0.32-1.31
			c0.21-0.4,0.5-0.73,0.87-1.01c0.37-0.28,0.8-0.5,1.31-0.65C309.6,1074.86,310.14,1074.78,310.71,1074.78z M310.71,1076.08
			c-0.38,0-0.72,0.04-1.03,0.13s-0.58,0.21-0.81,0.37s-0.41,0.36-0.53,0.6c-0.13,0.24-0.19,0.51-0.19,0.8s0.06,0.56,0.19,0.79
			c0.13,0.23,0.31,0.43,0.53,0.59s0.5,0.29,0.81,0.38s0.66,0.13,1.03,0.13s0.72-0.04,1.04-0.13s0.59-0.21,0.82-0.38
			s0.41-0.36,0.53-0.59c0.13-0.23,0.19-0.5,0.19-0.79s-0.06-0.56-0.19-0.8c-0.13-0.24-0.31-0.44-0.53-0.6s-0.5-0.28-0.82-0.37
			S311.09,1076.08,310.71,1076.08z"/>
		<path fill="#999999" d="M326.77,1082.77v1.3h-10.01v-1.3h4.2v-1.64h-3.05v-3.74h6.17v-1.19h-6.18v-1.26h7.74v3.68h-6.16v1.24h6.41
			v1.27h-3.35v1.64H326.77z"/>
	</g>
	<g enable-background="new    ">
		<path fill="#999999" d="M168.2,1099.66h-2.32v3.61h-1.61v-3.61h-2.22v3.61h-1.61v-3.61h-2.27v-1.28h10.02V1099.66z
			 M163.17,1097.55c-0.59,0-1.13-0.06-1.62-0.17c-0.49-0.12-0.91-0.28-1.26-0.5c-0.35-0.22-0.63-0.48-0.82-0.78
			c-0.2-0.3-0.29-0.64-0.29-1.02s0.1-0.72,0.29-1.02c0.2-0.3,0.47-0.56,0.82-0.78c0.35-0.22,0.77-0.38,1.26-0.5
			c0.49-0.12,1.03-0.17,1.62-0.17c0.58,0,1.12,0.06,1.61,0.17c0.49,0.12,0.91,0.28,1.27,0.5c0.35,0.22,0.63,0.48,0.82,0.78
			c0.2,0.3,0.29,0.64,0.29,1.02s-0.1,0.72-0.29,1.02c-0.2,0.3-0.47,0.56-0.82,0.78s-0.77,0.38-1.27,0.5
			C164.29,1097.49,163.75,1097.55,163.17,1097.55z M163.16,1093.86c-0.73,0-1.31,0.1-1.74,0.31s-0.64,0.51-0.64,0.9
			c0,0.4,0.21,0.7,0.64,0.91c0.43,0.2,1.01,0.31,1.74,0.31c0.73,0,1.31-0.1,1.73-0.31c0.43-0.2,0.64-0.51,0.64-0.91
			c0-0.39-0.21-0.69-0.64-0.9C164.47,1093.97,163.89,1093.86,163.16,1093.86z"/>
		<path fill="#999999" d="M175.15,1093.37c0,0.85-0.08,1.65-0.24,2.42s-0.43,1.48-0.82,2.16c-0.39,0.68-0.91,1.3-1.55,1.88
			s-1.46,1.11-2.45,1.58l-0.83-1.25c0.7-0.34,1.31-0.7,1.82-1.09c0.51-0.39,0.94-0.81,1.28-1.27c0.34-0.45,0.61-0.94,0.8-1.46
			c0.19-0.52,0.31-1.09,0.37-1.71h-3.68v-1.26H175.15z M178.45,1092.22v11.05h-1.61v-11.05H178.45z"/>
		<path fill="#999999" d="M186.15,1098.51c-0.61-0.2-1.12-0.49-1.53-0.86c-0.41-0.38-0.74-0.81-0.97-1.31
			c-0.25,0.54-0.58,1.03-1.02,1.45c-0.43,0.42-0.97,0.73-1.62,0.94l-0.8-1.25c0.44-0.15,0.82-0.35,1.15-0.59
			c0.33-0.24,0.6-0.51,0.81-0.81s0.37-0.62,0.47-0.95s0.16-0.68,0.17-1.02h-2.17v-1.26h5.94v1.26h-2.16
			c0.01,0.31,0.06,0.63,0.16,0.94c0.1,0.32,0.25,0.62,0.46,0.9s0.46,0.54,0.77,0.77c0.31,0.23,0.68,0.41,1.1,0.56L186.15,1098.51z
			 M181.97,1099.3h7.54v4h-1.58v-2.74h-5.95V1099.3z M189.51,1092.24v6.56h-1.58v-2.66h-1.63v-1.27h1.63v-2.63H189.51z"/>
		<path fill="#999999" d="M197.48,1095.75c0,0.4-0.08,0.77-0.23,1.12c-0.15,0.34-0.36,0.64-0.64,0.89s-0.59,0.44-0.95,0.58
			c-0.36,0.14-0.76,0.21-1.18,0.21c-0.42,0-0.82-0.07-1.19-0.21c-0.37-0.14-0.69-0.33-0.95-0.58s-0.48-0.54-0.64-0.89
			c-0.16-0.34-0.23-0.72-0.23-1.12c0-0.41,0.08-0.78,0.23-1.13c0.16-0.34,0.37-0.64,0.64-0.89s0.59-0.44,0.95-0.58
			c0.37-0.14,0.76-0.21,1.19-0.21c0.42,0,0.82,0.07,1.18,0.21c0.36,0.14,0.68,0.33,0.95,0.58s0.48,0.54,0.64,0.89
			C197.4,1094.96,197.48,1095.34,197.48,1095.75z M193.01,1095.75c0,0.45,0.14,0.8,0.43,1.05c0.28,0.25,0.63,0.38,1.04,0.38
			c0.42,0,0.76-0.13,1.04-0.38c0.28-0.25,0.41-0.6,0.41-1.05c0-0.46-0.14-0.81-0.41-1.06c-0.28-0.25-0.62-0.38-1.04-0.38
			c-0.41,0-0.75,0.13-1.04,0.38C193.16,1094.94,193.01,1095.29,193.01,1095.75z M200.77,1101.83v1.26h-7.63v-3.7h1.58v2.44H200.77z
			 M200.5,1100.17h-1.61v-7.93h1.61V1100.17z"/>
		<path fill="#999999" d="M211.88,1098.2c-0.58,0.11-1.16,0.19-1.76,0.24c-0.6,0.06-1.19,0.1-1.78,0.13s-1.15,0.05-1.7,0.05
			s-1.06,0.01-1.54,0.01l-0.16-1.09c0.4,0,0.82,0,1.25,0c0.44,0,0.89-0.01,1.37-0.02v-0.5c-0.6-0.07-1.07-0.23-1.4-0.47
			s-0.5-0.55-0.5-0.93c0-0.45,0.24-0.81,0.73-1.06c0.49-0.25,1.14-0.38,1.96-0.38s1.47,0.13,1.96,0.38s0.72,0.6,0.72,1.06
			c0,0.38-0.17,0.69-0.5,0.93s-0.79,0.39-1.38,0.47v0.44c0.45-0.02,0.89-0.05,1.33-0.09s0.87-0.08,1.29-0.13L211.88,1098.2z
			 M211.49,1093.97h-6.28v-1.04h2.35v-0.78h1.58v0.78h2.34V1093.97z M207.99,1102.15h6.23v1.04h-7.8v-2.54h5.86v-0.48h-5.87v-1.04
			h7.43v2.5h-5.84V1102.15z M207.15,1095.63c0,0.16,0.1,0.28,0.31,0.37c0.21,0.08,0.51,0.13,0.89,0.13c0.39,0,0.68-0.04,0.89-0.13
			s0.31-0.21,0.31-0.37s-0.1-0.28-0.31-0.35c-0.21-0.08-0.5-0.11-0.89-0.11c-0.39,0-0.68,0.04-0.89,0.11
			C207.25,1095.35,207.15,1095.47,207.15,1095.63z M215.23,1094.83v1.3h-1.39v2.6h-1.58v-6.5h1.58v2.6H215.23z"/>
		<path fill="#999999" d="M226.12,1097.43v1.26h-10v-1.26h4.2v-0.91h-2.99v-3.82h7.58v1.26h-6v1.3h6.06v1.26h-3.07v0.91H226.12z
			 M221.08,1099.23c0.6,0,1.14,0.04,1.61,0.13c0.47,0.09,0.87,0.22,1.21,0.4s0.59,0.39,0.76,0.64c0.18,0.25,0.26,0.54,0.26,0.87
			c0,0.33-0.09,0.62-0.26,0.86c-0.18,0.25-0.43,0.46-0.76,0.64s-0.73,0.31-1.21,0.4c-0.47,0.09-1.01,0.13-1.61,0.13
			s-1.14-0.04-1.61-0.13s-0.87-0.22-1.2-0.4s-0.58-0.39-0.76-0.64s-0.26-0.54-0.26-0.86c0-0.33,0.09-0.62,0.26-0.87
			c0.18-0.25,0.43-0.47,0.76-0.64s0.73-0.31,1.2-0.4S220.48,1099.23,221.08,1099.23z M221.09,1102.09c0.74,0,1.3-0.07,1.67-0.2
			c0.37-0.13,0.56-0.34,0.56-0.63c0-0.56-0.74-0.84-2.23-0.84c-1.48,0-2.23,0.28-2.23,0.84c0,0.29,0.19,0.5,0.56,0.63
			C219.79,1102.03,220.35,1102.09,221.09,1102.09z"/>
		<path fill="#999999" d="M230.37,1093c0.42,0,0.8,0.09,1.16,0.28c0.36,0.18,0.66,0.45,0.92,0.79c0.26,0.34,0.46,0.75,0.61,1.24
			c0.15,0.48,0.22,1.03,0.22,1.64c0,0.61-0.07,1.16-0.22,1.64s-0.35,0.9-0.61,1.25c-0.26,0.34-0.56,0.61-0.92,0.79
			c-0.36,0.18-0.74,0.28-1.16,0.28s-0.8-0.09-1.16-0.28c-0.36-0.18-0.66-0.45-0.92-0.79c-0.26-0.34-0.46-0.76-0.61-1.25
			s-0.22-1.04-0.22-1.64c0-0.61,0.07-1.15,0.22-1.64c0.15-0.48,0.35-0.9,0.61-1.24c0.26-0.34,0.56-0.6,0.92-0.79
			C229.57,1093.09,229.95,1093,230.37,1093z M230.37,1094.43c-0.41,0-0.74,0.21-1,0.64c-0.26,0.42-0.38,1.05-0.38,1.87
			c0,0.82,0.13,1.45,0.38,1.88c0.26,0.43,0.59,0.64,1,0.64c0.41,0,0.74-0.21,1-0.64c0.26-0.43,0.38-1.05,0.38-1.88
			c0-0.82-0.13-1.45-0.38-1.87C231.11,1094.64,230.78,1094.43,230.37,1094.43z M236.31,1092.22v11.09h-1.58v-11.09H236.31z"/>
		<path fill="#999999" d="M246.63,1093.36c0,0.83-0.08,1.63-0.25,2.39s-0.45,1.48-0.83,2.16c-0.39,0.68-0.9,1.31-1.52,1.89
			c-0.63,0.58-1.4,1.11-2.32,1.57l-0.89-1.21c1.29-0.66,2.28-1.44,2.97-2.33s1.11-1.95,1.25-3.19h-3.61v-1.28H246.63z
			 M251.12,1097.75h-1.55v5.51h-1.58v-11.04h1.58v4.22h1.55V1097.75z"/>
		<path fill="#999999" d="M261.97,1097.17v1.26h-10v-1.26H261.97z M256.93,1099.15c0.6,0,1.14,0.05,1.61,0.14
			c0.47,0.09,0.87,0.23,1.21,0.4s0.59,0.39,0.76,0.65c0.18,0.26,0.26,0.54,0.26,0.86c0,0.33-0.09,0.62-0.26,0.87
			c-0.18,0.25-0.43,0.47-0.76,0.64s-0.73,0.31-1.21,0.4c-0.47,0.09-1.01,0.14-1.61,0.14s-1.14-0.05-1.61-0.14s-0.87-0.23-1.2-0.4
			s-0.58-0.39-0.76-0.64s-0.26-0.54-0.26-0.87c0-0.32,0.09-0.61,0.26-0.86s0.43-0.47,0.76-0.65s0.73-0.31,1.2-0.4
			S256.33,1099.15,256.93,1099.15z M260.85,1096.24h-7.63v-3.82h1.58v2.56h6.05V1096.24z M256.93,1102.05
			c1.48,0,2.23-0.28,2.23-0.84s-0.74-0.84-2.23-0.84c-1.48,0-2.23,0.28-2.23,0.84S255.45,1102.05,256.93,1102.05z"/>
		<path fill="#999999" d="M269.51,1094.63H263v-1.24h2.45v-1.18h1.61v1.18h2.47L269.51,1094.63z M268.97,1097.15
			c0,0.32-0.07,0.61-0.2,0.87c-0.14,0.26-0.32,0.48-0.57,0.67c-0.24,0.19-0.53,0.33-0.86,0.44c-0.33,0.1-0.7,0.16-1.09,0.16
			c-0.4,0-0.77-0.05-1.1-0.16c-0.33-0.1-0.62-0.25-0.86-0.44c-0.24-0.19-0.43-0.41-0.56-0.67c-0.13-0.26-0.2-0.55-0.2-0.87
			c0-0.31,0.07-0.6,0.2-0.86s0.32-0.48,0.56-0.67c0.24-0.19,0.53-0.33,0.86-0.44c0.33-0.1,0.7-0.16,1.1-0.16
			c0.39,0,0.76,0.05,1.09,0.16c0.33,0.1,0.62,0.25,0.86,0.44c0.24,0.19,0.43,0.41,0.57,0.67S268.97,1096.84,268.97,1097.15z
			 M266.17,1101.83h5.94v1.26h-7.52v-3.2h1.58V1101.83z M265.06,1097.15c0,0.3,0.11,0.54,0.33,0.7c0.22,0.16,0.51,0.24,0.87,0.24
			c0.35,0,0.64-0.08,0.86-0.24c0.22-0.16,0.33-0.39,0.33-0.7c0-0.3-0.11-0.53-0.33-0.69c-0.22-0.16-0.51-0.23-0.86-0.23
			c-0.36,0-0.65,0.08-0.87,0.23S265.06,1096.85,265.06,1097.15z M273.16,1095.6v1.31h-1.46v3.59h-1.58v-8.27h1.58v3.37H273.16z"/>
		<path fill="#999999" d="M282.93,1095.75c0,0.4-0.08,0.77-0.23,1.12c-0.15,0.34-0.36,0.64-0.64,0.89s-0.59,0.44-0.95,0.58
			c-0.36,0.14-0.76,0.21-1.18,0.21c-0.42,0-0.82-0.07-1.19-0.21c-0.37-0.14-0.69-0.33-0.95-0.58s-0.48-0.54-0.64-0.89
			c-0.16-0.34-0.23-0.72-0.23-1.12c0-0.41,0.08-0.78,0.23-1.13c0.16-0.34,0.37-0.64,0.64-0.89s0.59-0.44,0.95-0.58
			c0.37-0.14,0.76-0.21,1.19-0.21c0.42,0,0.82,0.07,1.18,0.21c0.36,0.14,0.68,0.33,0.95,0.58s0.48,0.54,0.64,0.89
			C282.85,1094.96,282.93,1095.34,282.93,1095.75z M278.47,1095.75c0,0.45,0.14,0.8,0.43,1.05c0.28,0.25,0.63,0.38,1.04,0.38
			c0.42,0,0.76-0.13,1.04-0.38c0.28-0.25,0.41-0.6,0.41-1.05c0-0.46-0.14-0.81-0.41-1.06c-0.28-0.25-0.62-0.38-1.04-0.38
			c-0.41,0-0.75,0.13-1.04,0.38C278.61,1094.94,278.47,1095.29,278.47,1095.75z M286.22,1101.83v1.26h-7.63v-3.7h1.58v2.44H286.22z
			 M285.95,1100.17h-1.61v-7.93h1.61V1100.17z"/>
		<path fill="#999999" d="M297.35,1092.22v11.05h-1.49v-5.52h-0.91v5.03h-1.46v-3.2l-0.89,1.19c-0.5-0.26-0.91-0.61-1.23-1.04
			c-0.33-0.43-0.59-0.92-0.79-1.48c-0.18,0.64-0.44,1.21-0.76,1.72s-0.75,0.91-1.27,1.21l-0.95-1.2c0.41-0.24,0.75-0.54,1.03-0.89
			c0.28-0.36,0.5-0.75,0.67-1.19c0.17-0.44,0.29-0.91,0.36-1.41c0.07-0.5,0.11-1.02,0.11-1.55v-0.3h-1.81v-1.28h4.99v1.28h-1.66v0.3
			c0,0.48,0.04,0.95,0.11,1.42c0.08,0.46,0.2,0.9,0.37,1.3c0.17,0.4,0.39,0.77,0.68,1.09c0.28,0.32,0.63,0.59,1.04,0.81v-7.15h1.46
			v4.06h0.91v-4.24H297.35z"/>
	</g>
	<g enable-background="new    ">
		<path fill="#999999" d="M481.98,1077.21c0,0.45,0.06,0.9,0.17,1.35c0.11,0.45,0.28,0.88,0.51,1.28c0.23,0.4,0.51,0.76,0.85,1.08
			s0.74,0.58,1.21,0.77l-0.86,1.25c-0.65-0.28-1.19-0.68-1.63-1.19c-0.44-0.51-0.78-1.1-1.03-1.78c-0.25,0.73-0.59,1.38-1.04,1.94
			s-0.99,1-1.64,1.3l-0.9-1.26c0.46-0.21,0.87-0.48,1.21-0.83s0.63-0.73,0.86-1.15c0.23-0.42,0.4-0.87,0.51-1.34
			c0.11-0.48,0.17-0.95,0.17-1.42v-0.61h-2.3v-1.31h6.19v1.31h-2.28V1077.21z M486.86,1074.23v11.05h-1.58v-11.05H486.86z"/>
		<path fill="#999999" d="M498.74,1079.58v1.26h-10v-1.26h4.19v-1.43h1.58v1.43H498.74z M497.62,1078.79
			c-0.94-0.14-1.73-0.39-2.39-0.76c-0.66-0.37-1.16-0.83-1.51-1.38c-0.35,0.55-0.86,1.01-1.51,1.38s-1.45,0.62-2.38,0.76l-0.59-1.24
			c0.62-0.07,1.17-0.2,1.63-0.39c0.46-0.19,0.84-0.41,1.15-0.66c0.3-0.25,0.53-0.53,0.68-0.83c0.15-0.3,0.22-0.61,0.22-0.92v-0.32
			h1.62v0.32c0,0.32,0.07,0.63,0.22,0.94c0.15,0.3,0.37,0.58,0.67,0.83c0.3,0.25,0.68,0.47,1.14,0.65c0.46,0.18,1,0.31,1.63,0.38
			L497.62,1078.79z M489.85,1081.62h7.68v3.67h-1.58v-2.42h-6.1V1081.62z"/>
		<path fill="#999999" d="M505.67,1080.51c-0.61-0.2-1.12-0.49-1.53-0.86c-0.42-0.38-0.74-0.81-0.97-1.31
			c-0.25,0.54-0.58,1.03-1.02,1.45s-0.97,0.73-1.62,0.94l-0.8-1.25c0.44-0.15,0.82-0.35,1.15-0.59c0.33-0.24,0.6-0.51,0.81-0.81
			s0.37-0.62,0.47-0.95c0.1-0.34,0.16-0.68,0.17-1.02h-2.17v-1.26h5.94v1.26h-2.16c0.01,0.31,0.06,0.63,0.16,0.94
			c0.1,0.32,0.25,0.62,0.46,0.9s0.46,0.54,0.77,0.77c0.31,0.23,0.68,0.41,1.1,0.56L505.67,1080.51z M501.49,1081.3h7.54v4h-1.58
			v-2.74h-5.95V1081.3z M509.03,1074.24v6.56h-1.58v-2.66h-1.63v-1.27h1.63v-2.63H509.03z"/>
		<path fill="#999999" d="M517,1077.75c0,0.4-0.08,0.77-0.23,1.12c-0.15,0.34-0.36,0.64-0.64,0.89c-0.27,0.25-0.59,0.44-0.95,0.58
			c-0.36,0.14-0.76,0.21-1.18,0.21s-0.82-0.07-1.19-0.21c-0.37-0.14-0.69-0.33-0.95-0.58c-0.27-0.25-0.48-0.54-0.64-0.89
			c-0.16-0.34-0.23-0.72-0.23-1.12c0-0.41,0.08-0.78,0.23-1.13c0.16-0.34,0.37-0.64,0.64-0.89c0.27-0.25,0.59-0.44,0.95-0.58
			c0.37-0.14,0.76-0.21,1.19-0.21s0.82,0.07,1.18,0.21c0.36,0.14,0.68,0.33,0.95,0.58c0.27,0.25,0.48,0.54,0.64,0.89
			C516.92,1076.96,517,1077.34,517,1077.75z M512.53,1077.75c0,0.45,0.14,0.8,0.43,1.05s0.63,0.38,1.04,0.38
			c0.42,0,0.76-0.13,1.04-0.38s0.41-0.6,0.41-1.05c0-0.46-0.14-0.81-0.41-1.06s-0.62-0.38-1.04-0.38c-0.41,0-0.75,0.13-1.04,0.38
			S512.53,1077.29,512.53,1077.75z M520.28,1083.83v1.26h-7.63v-3.7h1.58v2.44H520.28z M520.02,1082.17h-1.61v-7.93h1.61V1082.17z"
			/>
		<path fill="#999999" d="M529.37,1075.6c0,0.78-0.06,1.51-0.19,2.21c-0.13,0.7-0.34,1.36-0.65,1.99c-0.3,0.62-0.71,1.21-1.23,1.75
			s-1.16,1.03-1.93,1.48l-0.92-1.1c0.55-0.32,1.03-0.66,1.43-1.03c0.4-0.37,0.74-0.76,1.01-1.18c0.27-0.42,0.48-0.86,0.63-1.33
			c0.15-0.47,0.25-0.98,0.29-1.52h-2.8v-1.26H529.37z M534.07,1074.23v11.05h-1.52v-5.62h-1v5.15h-1.46v-10.3h1.46v3.88h1v-4.16
			H534.07z"/>
		<path fill="#999999" d="M541.8,1077.75c0,0.4-0.08,0.77-0.23,1.12c-0.15,0.34-0.36,0.64-0.64,0.89c-0.27,0.25-0.59,0.44-0.95,0.58
			c-0.36,0.14-0.76,0.21-1.18,0.21s-0.82-0.07-1.19-0.21c-0.37-0.14-0.69-0.33-0.95-0.58c-0.27-0.25-0.48-0.54-0.64-0.89
			c-0.16-0.34-0.23-0.72-0.23-1.12c0-0.41,0.08-0.78,0.23-1.13c0.16-0.34,0.37-0.64,0.64-0.89c0.27-0.25,0.59-0.44,0.95-0.58
			c0.37-0.14,0.76-0.21,1.19-0.21s0.82,0.07,1.18,0.21c0.36,0.14,0.68,0.33,0.95,0.58c0.27,0.25,0.48,0.54,0.64,0.89
			C541.72,1076.96,541.8,1077.34,541.8,1077.75z M537.34,1077.75c0,0.45,0.14,0.8,0.43,1.05s0.63,0.38,1.04,0.38
			c0.42,0,0.76-0.13,1.04-0.38s0.41-0.6,0.41-1.05c0-0.46-0.14-0.81-0.41-1.06s-0.62-0.38-1.04-0.38c-0.41,0-0.75,0.13-1.04,0.38
			S537.34,1077.29,537.34,1077.75z M545.09,1083.83v1.26h-7.63v-3.7h1.58v2.44H545.09z M544.82,1082.17h-1.61v-7.93h1.61V1082.17z"
			/>
		<path fill="#999999" d="M558.64,1074.23v6.54h-1.58v-1.39h-2.4c-0.26,0.28-0.59,0.5-0.97,0.67s-0.79,0.25-1.24,0.25
			c-0.41,0-0.79-0.07-1.14-0.2c-0.35-0.14-0.66-0.33-0.92-0.57c-0.26-0.24-0.47-0.53-0.62-0.87c-0.15-0.34-0.22-0.7-0.22-1.1
			c0-0.39,0.07-0.76,0.22-1.09c0.15-0.34,0.35-0.63,0.62-0.87c0.26-0.24,0.57-0.43,0.92-0.57c0.35-0.14,0.73-0.2,1.14-0.2
			c0.46,0,0.87,0.08,1.25,0.25s0.7,0.39,0.97,0.67h2.39v-1.49H558.64z M552.44,1078.93c0.41,0,0.75-0.12,1.02-0.37
			c0.27-0.24,0.4-0.59,0.4-1.03c0-0.43-0.13-0.77-0.4-1.01c-0.27-0.24-0.61-0.37-1.02-0.37s-0.75,0.12-1.01,0.37
			c-0.27,0.24-0.4,0.58-0.4,1.01c0,0.44,0.13,0.78,0.4,1.03C551.69,1078.81,552.03,1078.93,552.44,1078.93z M551.1,1081.27h7.54
			v4.02h-1.58v-2.77h-5.95V1081.27z M557.05,1078.12v-1.14h-1.76c0.02,0.09,0.03,0.18,0.04,0.27c0.01,0.09,0.02,0.19,0.02,0.29
			c0,0.1-0.01,0.19-0.02,0.29c-0.01,0.1-0.03,0.19-0.04,0.29H557.05z"/>
		<path fill="#999999" d="M564.3,1077.03v-0.88h-3.48v-1.27h5.04v3.32h-3.46v0.96c0.45,0,0.86-0.01,1.25-0.02
			c0.38-0.01,0.75-0.03,1.1-0.06c0.35-0.03,0.69-0.06,1.03-0.1s0.67-0.09,1.01-0.16l0.13,1.27c-0.38,0.07-0.76,0.13-1.14,0.17
			c-0.38,0.04-0.77,0.08-1.18,0.1s-0.85,0.04-1.31,0.05s-0.97,0.01-1.52,0.01h-0.95v-3.41H564.3z M565.5,1081.09
			c0.58,0,1.09,0.05,1.55,0.14c0.46,0.09,0.85,0.23,1.18,0.41c0.32,0.18,0.57,0.4,0.75,0.66c0.18,0.26,0.26,0.56,0.26,0.89
			c0,0.33-0.09,0.62-0.26,0.88s-0.43,0.48-0.75,0.66c-0.32,0.18-0.72,0.32-1.18,0.41c-0.46,0.1-0.98,0.14-1.55,0.14
			c-0.58,0-1.1-0.05-1.56-0.14c-0.46-0.1-0.86-0.23-1.18-0.41c-0.32-0.18-0.57-0.4-0.74-0.66s-0.26-0.55-0.26-0.88
			c0-0.34,0.09-0.63,0.26-0.89c0.17-0.26,0.42-0.48,0.74-0.66c0.32-0.18,0.72-0.32,1.18-0.41
			C564.4,1081.14,564.92,1081.09,565.5,1081.09z M565.5,1084.08c1.46,0,2.18-0.3,2.18-0.89s-0.73-0.89-2.18-0.89
			s-2.18,0.3-2.18,0.89S564.04,1084.08,565.5,1084.08z M569.14,1077v1.04h1.46v1.28h-1.46v1.56h-1.58v-6.66h1.58v1.49h1.46v1.28
			H569.14z"/>
		<path fill="#999999" d="M576.25,1075.6c0,0.78-0.06,1.51-0.19,2.21c-0.13,0.7-0.34,1.36-0.65,1.99c-0.3,0.62-0.71,1.21-1.23,1.75
			s-1.16,1.03-1.93,1.48l-0.92-1.1c0.55-0.32,1.03-0.66,1.43-1.03c0.4-0.37,0.74-0.76,1.01-1.18c0.27-0.42,0.48-0.86,0.63-1.33
			c0.15-0.47,0.25-0.98,0.29-1.52h-2.8v-1.26H576.25z M580.96,1074.23v11.05h-1.52v-5.62h-1v5.15h-1.46v-10.3h1.46v3.88h1v-4.16
			H580.96z"/>
		<path fill="#999999" d="M588.13,1079.56h-5.29v-4.85h1.56v1.32h2.17v-1.32h1.56V1079.56z M585.5,1083.97h6.02v1.22h-7.6v-3.05
			h5.72v-0.67h-5.74v-1.2h7.3v3h-5.71V1083.97z M586.57,1077.22h-2.17v1.1h2.17V1077.22z M592.67,1076.37v1.28h-1.45v2.2h-1.58
			v-5.62h1.58v2.14H592.67z"/>
		<path fill="#999999" d="M603.56,1082.77v1.3h-10.01v-1.3h4.2v-1.64h-3.05v-3.74h6.17v-1.19h-6.18v-1.26h7.74v3.68h-6.16v1.24h6.41
			v1.27h-3.35v1.64H603.56z"/>
		<path fill="#999999" d="M613.14,1080.36c-0.58-0.2-1.07-0.48-1.47-0.85c-0.4-0.36-0.71-0.79-0.94-1.29
			c-0.25,0.57-0.59,1.06-1.03,1.49c-0.44,0.42-0.99,0.75-1.64,0.97l-0.83-1.27c0.47-0.15,0.88-0.35,1.21-0.61s0.61-0.54,0.83-0.86
			s0.37-0.66,0.47-1.03c0.1-0.37,0.15-0.74,0.15-1.13v-0.98h1.61v0.91c0,0.38,0.05,0.74,0.14,1.08c0.09,0.34,0.24,0.66,0.44,0.96
			s0.46,0.56,0.77,0.79c0.31,0.23,0.69,0.42,1.13,0.56L613.14,1080.36z M612.83,1080.99c0.58,0,1.11,0.05,1.58,0.14
			s0.86,0.24,1.19,0.42c0.32,0.18,0.57,0.41,0.75,0.68c0.18,0.27,0.26,0.57,0.26,0.92c0,0.34-0.09,0.64-0.26,0.9
			c-0.18,0.26-0.43,0.49-0.75,0.67c-0.32,0.18-0.72,0.32-1.19,0.42c-0.47,0.1-0.99,0.14-1.58,0.14c-0.59,0-1.12-0.05-1.59-0.14
			c-0.47-0.1-0.86-0.24-1.19-0.42c-0.32-0.18-0.57-0.41-0.75-0.67c-0.18-0.26-0.26-0.56-0.26-0.9c0-0.34,0.09-0.65,0.26-0.92
			c0.18-0.27,0.43-0.49,0.75-0.68c0.32-0.18,0.72-0.32,1.19-0.42S612.24,1080.99,612.83,1080.99z M612.83,1084.07
			c0.73,0,1.28-0.08,1.64-0.23c0.37-0.15,0.55-0.38,0.55-0.7c0-0.32-0.18-0.56-0.55-0.71c-0.37-0.15-0.92-0.23-1.64-0.23
			c-1.47,0-2.21,0.31-2.21,0.94C610.62,1083.76,611.36,1084.07,612.83,1084.07z M614.98,1077.53h-2.02v-1.28h2.02v-2.02h1.58v6.48
			h-1.58V1077.53z"/>
		<path fill="#999999" d="M624.19,1080.47c-0.61-0.18-1.12-0.45-1.55-0.8c-0.42-0.35-0.75-0.75-0.99-1.21
			c-0.25,0.55-0.59,1.04-1.03,1.45c-0.44,0.42-0.98,0.73-1.63,0.94l-0.79-1.24c0.45-0.15,0.83-0.35,1.16-0.59
			c0.32-0.24,0.59-0.51,0.8-0.81s0.37-0.62,0.47-0.96c0.1-0.34,0.16-0.68,0.17-1.03h-2.2v-1.27h5.96v1.27h-2.16
			c0.01,0.31,0.06,0.62,0.16,0.93s0.25,0.59,0.46,0.86c0.21,0.26,0.47,0.5,0.78,0.71s0.69,0.38,1.13,0.51L624.19,1080.47z
			 M623.45,1080.99c0.58,0,1.09,0.05,1.55,0.14c0.46,0.1,0.85,0.24,1.18,0.43c0.32,0.19,0.57,0.42,0.74,0.68
			c0.17,0.27,0.26,0.57,0.26,0.91c0,0.34-0.09,0.64-0.26,0.9c-0.17,0.26-0.42,0.49-0.74,0.67c-0.32,0.18-0.72,0.32-1.18,0.42
			c-0.46,0.1-0.98,0.14-1.55,0.14s-1.1-0.05-1.56-0.14c-0.46-0.1-0.86-0.24-1.18-0.42c-0.32-0.18-0.57-0.41-0.74-0.67
			c-0.17-0.26-0.26-0.56-0.26-0.9c0-0.34,0.09-0.64,0.26-0.91c0.17-0.27,0.42-0.5,0.74-0.68c0.32-0.19,0.72-0.33,1.18-0.43
			S622.87,1080.99,623.45,1080.99z M623.45,1084.07c0.7,0,1.24-0.08,1.61-0.23c0.37-0.15,0.55-0.38,0.55-0.7
			c0-0.32-0.18-0.56-0.55-0.71c-0.37-0.15-0.9-0.23-1.61-0.23c-0.71,0-1.25,0.08-1.62,0.23c-0.37,0.15-0.55,0.39-0.55,0.71
			c0,0.31,0.18,0.54,0.55,0.7C622.2,1083.99,622.74,1084.07,623.45,1084.07z M628.52,1076.77v1.3h-1.46v2.72h-1.58v-6.56h1.58v2.54
			H628.52z"/>
		<path fill="#999999" d="M639.38,1078.68v1.24h-9.98v-1.24H639.38z M634.39,1078.15c-1.26,0-2.25-0.16-2.95-0.48
			c-0.7-0.32-1.05-0.79-1.05-1.4c0-0.61,0.35-1.07,1.05-1.4s1.68-0.49,2.95-0.49c1.27,0,2.26,0.16,2.96,0.49s1.05,0.79,1.05,1.4
			c0,0.62-0.35,1.08-1.05,1.4C636.65,1077.99,635.66,1078.15,634.39,1078.15z M632.12,1084.01h6.34v1.19h-7.91v-2.9h6.06v-0.59
			h-6.07v-1.16h7.63v2.84h-6.05V1084.01z M634.39,1075.55c-0.8,0-1.39,0.06-1.78,0.17c-0.38,0.12-0.58,0.3-0.58,0.55
			c0,0.26,0.19,0.44,0.58,0.56c0.38,0.12,0.98,0.17,1.78,0.17c0.81,0,1.4-0.06,1.79-0.17s0.58-0.3,0.58-0.56
			c0-0.25-0.19-0.43-0.58-0.55C635.8,1075.61,635.2,1075.55,634.39,1075.55z"/>
		<path fill="#999999" d="M653.17,1082.74v1.3h-10.01v-1.3h4.2v-2.3h-3.04v-5.45h7.7v1.27h-6.1v2.9h6.17v1.27h-3.16v2.3H653.17z"/>
		<path fill="#999999" d="M664.21,1082.71v1.28H654.2v-1.28h4.2v-2.24h-3.14v-5.42h7.86v5.42h-3.13v2.24H664.21z M656.81,1079.22
			h4.76v-2.93h-4.76V1079.22z"/>
		<path fill="#999999" d="M669.21,1075.86h2.4v1.26h-6.43v-1.26h2.45v-1.44h1.58V1075.86z M668.43,1077.75
			c0.4,0,0.77,0.06,1.11,0.19c0.34,0.13,0.63,0.31,0.88,0.55c0.25,0.24,0.44,0.51,0.58,0.83c0.14,0.32,0.21,0.67,0.21,1.06
			c0,0.39-0.07,0.75-0.21,1.07s-0.33,0.6-0.58,0.84s-0.54,0.42-0.88,0.55c-0.34,0.13-0.71,0.19-1.11,0.19
			c-0.4,0-0.77-0.06-1.11-0.19c-0.34-0.13-0.64-0.31-0.89-0.55c-0.25-0.24-0.45-0.52-0.59-0.84s-0.21-0.68-0.21-1.07
			c0-0.38,0.07-0.74,0.21-1.06c0.14-0.32,0.33-0.6,0.59-0.83c0.25-0.24,0.55-0.42,0.89-0.55
			C667.66,1077.81,668.03,1077.75,668.43,1077.75z M668.44,1081.73c0.37,0,0.68-0.12,0.92-0.35c0.24-0.24,0.36-0.57,0.36-1
			c0-0.42-0.12-0.74-0.36-0.98c-0.24-0.24-0.55-0.36-0.92-0.36s-0.68,0.12-0.93,0.36c-0.24,0.24-0.36,0.57-0.36,1
			c0,0.42,0.12,0.75,0.36,0.99S668.07,1081.73,668.44,1081.73z M675.5,1079.86h-1.58v5.42h-1.58v-11.05h1.58v4.32h1.58V1079.86z"/>
		<path fill="#999999" d="M686.29,1082.68v1.27h-10v-1.27h3.53v-3.8h1.58v3.8H686.29z M683.3,1081.35c0.21-1.04,0.33-1.96,0.38-2.75
			s0.07-1.51,0.07-2.15h-6.44v-1.26h8.03v1.06c0,0.34,0,0.7-0.01,1.08s-0.02,0.78-0.05,1.21c-0.03,0.43-0.07,0.89-0.13,1.39
			c-0.06,0.5-0.15,1.04-0.26,1.62L683.3,1081.35z"/>
	</g>
	<g enable-background="new    ">
		<path fill="#999999" d="M500.12,1093.23v7.43h-5.32v-7.43H500.12z M496.37,1094.47v4.93h2.2v-4.93H496.37z M503.42,1092.23v11.08
			h-1.58v-11.08H503.42z"/>
		<path fill="#999999" d="M507.13,1099.54c0.5-0.02,1-0.04,1.5-0.07c0.5-0.03,1.02-0.09,1.57-0.18l0.12,1.28
			c-0.71,0.11-1.38,0.18-2.01,0.22s-1.27,0.05-1.93,0.05h-0.77v-4.5h2.64v-1.76h-2.65v-1.27h4.18v4.28h-2.64V1099.54z
			 M514.78,1092.22v11.05h-1.49v-5.6h-1.01v5.09h-1.46v-10.33h1.46v3.97h1.01v-4.18H514.78z"/>
		<path fill="#999999" d="M526.36,1097.2v1.14h-10.01v-1.14H526.36z M519.06,1102.12h6.41v1.07h-7.98v-2.68h6.11v-0.55h-6.12v-1.07
			h7.69v2.63h-6.11V1102.12z M523.57,1093.49h-6v-1.07h7.56v2.6h-5.98v0.58h6.17v1.07h-7.73v-2.65h5.98V1093.49z"/>
		<path fill="#999999" d="M540.11,1099.6h-4.24v3.71h-1.58v-3.71h-4.16v-1.26h9.98V1099.6z M530.59,1096.47
			c0.56-0.07,1.06-0.19,1.49-0.35c0.43-0.16,0.8-0.35,1.09-0.56s0.53-0.45,0.7-0.71s0.27-0.52,0.31-0.79H531v-1.26h8.2v1.26h-3.13
			c0.04,0.26,0.14,0.53,0.31,0.79s0.39,0.5,0.69,0.71s0.66,0.4,1.09,0.56c0.43,0.16,0.92,0.28,1.48,0.35l-0.56,1.24
			c-0.97-0.14-1.78-0.4-2.45-0.79s-1.16-0.87-1.5-1.43c-0.34,0.57-0.84,1.05-1.5,1.43s-1.48,0.65-2.45,0.79L530.59,1096.47z"/>
		<path fill="#999999" d="M551.16,1100.74v1.3h-10.01v-1.3h4.2v-2.3h-3.04v-5.45h7.7v1.27h-6.1v2.9h6.17v1.27h-3.16v2.3H551.16z"/>
		<path fill="#999999" d="M556.16,1093.86h2.4v1.26h-6.43v-1.26h2.45v-1.44h1.58V1093.86z M555.38,1095.75
			c0.4,0,0.77,0.06,1.11,0.19c0.34,0.13,0.63,0.31,0.88,0.55c0.25,0.24,0.44,0.51,0.58,0.83c0.14,0.32,0.21,0.67,0.21,1.06
			c0,0.39-0.07,0.75-0.21,1.07s-0.33,0.6-0.58,0.84c-0.25,0.24-0.54,0.42-0.88,0.55c-0.34,0.13-0.71,0.19-1.11,0.19
			s-0.77-0.06-1.11-0.19c-0.34-0.13-0.64-0.31-0.89-0.55c-0.25-0.24-0.45-0.52-0.59-0.84s-0.21-0.68-0.21-1.07
			c0-0.38,0.07-0.74,0.21-1.06c0.14-0.32,0.34-0.6,0.59-0.83c0.25-0.24,0.55-0.42,0.89-0.55
			C554.61,1095.81,554.98,1095.75,555.38,1095.75z M555.39,1099.73c0.38,0,0.68-0.12,0.92-0.35c0.24-0.24,0.36-0.57,0.36-1
			c0-0.42-0.12-0.74-0.36-0.98c-0.24-0.24-0.54-0.36-0.92-0.36c-0.37,0-0.68,0.12-0.93,0.36c-0.24,0.24-0.36,0.57-0.36,1
			c0,0.42,0.12,0.75,0.36,0.99C554.71,1099.61,555.02,1099.73,555.39,1099.73z M562.45,1097.86h-1.58v5.42h-1.58v-11.05h1.58v4.32
			h1.58V1097.86z"/>
		<path fill="#999999" d="M573.24,1097.61v1.27h-10.01v-1.27H573.24z M565.97,1101.78h6.24v1.27h-7.85v-3.3h1.61V1101.78z
			 M572.14,1096.48h-7.67v-3.85h1.58v2.59h6.08V1096.48z"/>
		<path fill="#999999" d="M579.19,1099.43c0.42,0,0.82-0.01,1.21-0.02c0.39-0.02,0.78-0.04,1.15-0.07c0.38-0.03,0.75-0.06,1.12-0.11
			s0.75-0.1,1.15-0.16l0.17,1.28c-0.45,0.08-0.89,0.14-1.33,0.19c-0.44,0.05-0.87,0.09-1.31,0.11c-0.44,0.03-0.89,0.05-1.34,0.06
			c-0.46,0.01-0.93,0.02-1.44,0.02h-0.99v-4.55h3.59v-1.76h-3.6v-1.26h5.21v4.27h-3.59V1099.43z M586.19,1092.22v11.09h-1.58v-11.09
			H586.19z"/>
		<path fill="#999999" d="M590.14,1099.35c0.39,0,0.76-0.01,1.11-0.02c0.35-0.02,0.68-0.04,1-0.06c0.32-0.02,0.63-0.05,0.94-0.09
			c0.31-0.04,0.62-0.08,0.93-0.14l0.16,1.28c-0.38,0.07-0.74,0.13-1.1,0.17s-0.73,0.07-1.12,0.1s-0.79,0.04-1.21,0.05
			s-0.89,0.01-1.39,0.01h-0.9v-7.43h5v1.26h-3.42V1099.35z M597.31,1092.23v11.09h-1.58v-6h-2.7v-1.27h2.7v-3.82H597.31z"/>
		<path fill="#999999" d="M605.11,1097.92c-0.63-0.18-1.17-0.46-1.59-0.82c-0.43-0.36-0.77-0.79-1.02-1.27
			c-0.26,0.53-0.61,0.99-1.06,1.39c-0.45,0.4-1,0.69-1.66,0.89l-0.77-1.25c0.46-0.14,0.86-0.32,1.19-0.56
			c0.33-0.24,0.61-0.5,0.82-0.79c0.22-0.29,0.38-0.6,0.48-0.94s0.16-0.67,0.16-1v-1.02h1.61v1.02c0,0.33,0.05,0.65,0.15,0.97
			c0.1,0.32,0.26,0.61,0.47,0.89c0.21,0.28,0.48,0.52,0.81,0.74s0.71,0.39,1.16,0.52L605.11,1097.92z M606.68,1098.65h1.58v4.5
			h-7.36v-4.5h1.57v1.03h4.2V1098.65z M606.68,1100.89h-4.2v1h4.2V1100.89z M608.27,1092.23v5.94h-1.61v-5.94H608.27z"/>
		<path fill="#999999" d="M620.1,1096.68v1.24h-9.98v-1.24H620.1z M615.11,1096.15c-1.26,0-2.25-0.16-2.95-0.48
			c-0.7-0.32-1.05-0.79-1.05-1.4c0-0.61,0.35-1.07,1.05-1.4c0.7-0.32,1.68-0.49,2.95-0.49c1.27,0,2.26,0.16,2.96,0.49
			c0.7,0.32,1.05,0.79,1.05,1.4c0,0.62-0.35,1.08-1.05,1.4C617.37,1095.99,616.38,1096.15,615.11,1096.15z M612.84,1102.01h6.34
			v1.19h-7.91v-2.9h6.06v-0.59h-6.07v-1.16h7.63v2.84h-6.05V1102.01z M615.11,1093.55c-0.8,0-1.39,0.06-1.78,0.17
			c-0.38,0.12-0.58,0.3-0.58,0.55c0,0.26,0.19,0.44,0.58,0.56s0.98,0.17,1.78,0.17c0.81,0,1.4-0.06,1.79-0.17
			c0.38-0.12,0.58-0.3,0.58-0.56c0-0.25-0.19-0.43-0.58-0.55C616.51,1093.61,615.92,1093.55,615.11,1093.55z"/>
		<path fill="#999999" d="M629.56,1092.85c0,1.49-0.44,2.7-1.32,3.63c-0.88,0.93-2.16,1.6-3.84,2.01l-0.58-1.26
			c0.63-0.14,1.19-0.32,1.66-0.53s0.88-0.45,1.21-0.72c0.33-0.27,0.58-0.56,0.77-0.88c0.18-0.32,0.3-0.65,0.35-0.99h-3.46v-1.26
			H629.56z M629.89,1100.04c0.05,0.22,0.15,0.43,0.31,0.64c0.16,0.21,0.37,0.41,0.64,0.59c0.27,0.18,0.6,0.35,1,0.49
			c0.39,0.14,0.84,0.24,1.36,0.31l-0.56,1.2c-0.88-0.11-1.62-0.33-2.23-0.67c-0.6-0.33-1.06-0.73-1.37-1.21
			c-0.31,0.46-0.77,0.86-1.37,1.18c-0.6,0.32-1.35,0.55-2.24,0.67l-0.55-1.2c0.52-0.06,0.98-0.15,1.37-0.29
			c0.39-0.14,0.72-0.29,0.99-0.47c0.27-0.18,0.48-0.38,0.64-0.59s0.25-0.43,0.29-0.65h-2.82v-1.24h7.39v1.24H629.89z
			 M634.04,1094.75v1.3h-1.46v2.28H631v-6.1h1.58v2.52H634.04z"/>
		<path fill="#999999" d="M644.93,1097.94v1.25h-4.08v1.76h-1.58v-1.76h-4.36v-1.25H644.93z M635.34,1096.3
			c0.58-0.05,1.09-0.13,1.53-0.24c0.44-0.11,0.8-0.25,1.1-0.41s0.53-0.34,0.7-0.53c0.17-0.19,0.28-0.39,0.32-0.6h-3.11v-1.22h3.23
			v-1.03h1.58v1.03h3.26v1.22h-3.13c0.06,0.21,0.17,0.41,0.34,0.6s0.4,0.37,0.7,0.53s0.66,0.3,1.09,0.41
			c0.43,0.11,0.94,0.19,1.54,0.24l-0.5,1.2c-1.02-0.09-1.86-0.28-2.54-0.58s-1.19-0.68-1.53-1.14c-0.34,0.46-0.85,0.84-1.53,1.14
			c-0.68,0.3-1.52,0.49-2.54,0.58L635.34,1096.3z M637.66,1101.83h6.16v1.26h-7.74v-3.08h1.58V1101.83z"/>
		<path fill="#999999" d="M654.85,1095.75c0,0.4-0.08,0.77-0.23,1.12s-0.36,0.64-0.64,0.89c-0.27,0.25-0.59,0.44-0.95,0.58
			s-0.76,0.21-1.18,0.21c-0.42,0-0.82-0.07-1.19-0.21s-0.69-0.33-0.95-0.58c-0.27-0.25-0.48-0.54-0.64-0.89s-0.23-0.72-0.23-1.12
			c0-0.41,0.08-0.78,0.23-1.13s0.37-0.64,0.64-0.89c0.27-0.25,0.59-0.44,0.95-0.58c0.37-0.14,0.76-0.21,1.19-0.21
			c0.42,0,0.82,0.07,1.18,0.21c0.36,0.14,0.68,0.33,0.95,0.58c0.27,0.25,0.48,0.54,0.64,0.89S654.85,1095.34,654.85,1095.75z
			 M650.39,1095.75c0,0.45,0.14,0.8,0.43,1.05c0.28,0.25,0.63,0.38,1.04,0.38c0.42,0,0.76-0.13,1.04-0.38
			c0.28-0.25,0.41-0.6,0.41-1.05c0-0.46-0.14-0.81-0.41-1.06c-0.28-0.25-0.62-0.38-1.04-0.38c-0.41,0-0.75,0.13-1.04,0.38
			C650.53,1094.94,650.39,1095.29,650.39,1095.75z M658.14,1101.83v1.26h-7.63v-3.7h1.58v2.44H658.14z M657.88,1100.17h-1.61v-7.93
			h1.61V1100.17z"/>
		<path fill="#999999" d="M669.28,1092.22v11.05h-1.49v-5.52h-0.91v5.03h-1.46v-3.2l-0.89,1.19c-0.5-0.26-0.91-0.61-1.23-1.04
			c-0.33-0.43-0.59-0.92-0.79-1.48c-0.18,0.64-0.44,1.21-0.76,1.72c-0.33,0.5-0.75,0.91-1.27,1.21l-0.95-1.2
			c0.41-0.24,0.75-0.54,1.03-0.89c0.28-0.36,0.5-0.75,0.67-1.19c0.17-0.44,0.29-0.91,0.36-1.41c0.07-0.5,0.11-1.02,0.11-1.55v-0.3
			h-1.81v-1.28h4.99v1.28h-1.66v0.3c0,0.48,0.04,0.95,0.12,1.42c0.08,0.46,0.2,0.9,0.37,1.3c0.17,0.4,0.39,0.77,0.67,1.09
			c0.28,0.32,0.63,0.59,1.04,0.81v-7.15h1.46v4.06h0.91v-4.24H669.28z"/>
	</g>
	<g enable-background="new    ">
		<path fill="#1F98D5" d="M226.94,1043.71v2.54h-19.99v-2.54h8.38v-3.02h3.17v3.02H226.94z M207.84,1039.75
			c1.07-0.11,2.02-0.3,2.83-0.58c0.82-0.27,1.5-0.59,2.06-0.96s1-0.77,1.33-1.21c0.33-0.44,0.54-0.88,0.64-1.33h-5.93v-2.52h16.37
			v2.52h-5.98c0.1,0.45,0.3,0.89,0.62,1.33c0.32,0.44,0.76,0.84,1.33,1.21c0.57,0.37,1.26,0.69,2.06,0.96
			c0.81,0.27,1.76,0.46,2.84,0.58l-1.13,2.52c-2.06-0.24-3.76-0.76-5.1-1.56s-2.29-1.78-2.87-2.93c-0.58,1.15-1.53,2.13-2.86,2.93
			c-1.33,0.8-3.02,1.32-5.09,1.56L207.84,1039.75z M212.54,1051.41h12.14v2.52h-15.31v-6.31h3.17V1051.41z"/>
		<path fill="#1F98D5" d="M240.6,1044.76v1.63c1.9,0.16,3.39,0.57,4.45,1.24s1.6,1.56,1.6,2.7c0,0.64-0.18,1.21-0.53,1.7
			c-0.35,0.5-0.86,0.92-1.52,1.26c-0.66,0.34-1.47,0.6-2.41,0.78c-0.94,0.18-2.02,0.26-3.22,0.26c-1.2,0-2.27-0.09-3.22-0.26
			c-0.94-0.18-1.74-0.44-2.4-0.78c-0.66-0.34-1.16-0.76-1.51-1.26c-0.35-0.5-0.53-1.06-0.53-1.7c0-1.15,0.54-2.06,1.61-2.72
			c1.07-0.66,2.58-1.08,4.51-1.24v-1.61h-8.4v-2.52H249v2.52H240.6z M229.9,1038.93c1.02-0.1,1.93-0.25,2.71-0.46
			c0.78-0.21,1.46-0.46,2.03-0.76c0.57-0.3,1.02-0.62,1.36-0.98c0.34-0.36,0.58-0.72,0.72-1.09h-5.86v-2.52h16.34v2.52h-5.88
			c0.14,0.37,0.38,0.73,0.72,1.09c0.34,0.36,0.79,0.69,1.36,0.98c0.57,0.3,1.24,0.55,2.03,0.76c0.78,0.21,1.7,0.36,2.74,0.46
			l-1.1,2.45c-2.08-0.18-3.79-0.63-5.14-1.36c-1.34-0.73-2.31-1.61-2.9-2.65c-0.59,1.06-1.56,1.94-2.9,2.66
			c-1.34,0.72-3.06,1.17-5.16,1.34L229.9,1038.93z M243.43,1050.33c0-0.56-0.37-0.97-1.11-1.22c-0.74-0.26-1.85-0.38-3.34-0.38
			c-1.48,0-2.6,0.13-3.34,0.38c-0.74,0.26-1.11,0.66-1.11,1.22c0,0.56,0.37,0.96,1.11,1.21c0.74,0.25,1.85,0.37,3.34,0.37
			c1.48,0,2.6-0.12,3.34-0.37C243.06,1051.29,243.43,1050.89,243.43,1050.33z"/>
	</g>
	<g enable-background="new    ">
		<path fill="#1F98D5" d="M572.66,1034.2v14.86h-10.63v-14.86H572.66z M565.15,1036.7v9.86h4.39v-9.86H565.15z M579.26,1032.21
			v22.15h-3.17v-22.15H579.26z"/>
		<path fill="#1F98D5" d="M586.68,1046.83c1.01-0.03,2.01-0.08,3-0.14c0.99-0.06,2.04-0.18,3.14-0.36l0.24,2.57
			c-1.42,0.22-2.76,0.37-4.02,0.43c-1.26,0.06-2.54,0.1-3.86,0.1h-1.55v-9h5.28v-3.53h-5.3v-2.54h8.35v8.57h-5.28V1046.83z
			 M601.97,1032.19v22.1h-2.98v-11.21h-2.02v10.18h-2.93v-20.66h2.93v7.94h2.02v-8.35H601.97z"/>
	</g>
	<line id="선_105" fill="none" stroke="#E7E7E7" x1="405.5" y1="933.75" x2="405.5" y2="873.75"/>
	<g id="그룹_461" transform="translate(583 994) rotate(180)">
		<line id="선_100" fill="none" stroke="#E7E7E7" x1="0.25" y1="-0.25" x2="0.25" y2="59.75"/>
		<line id="선_101" fill="none" stroke="#E7E7E7" x1="354" y1="-0.25" x2="354" y2="59.75"/>
		<line id="선_102" fill="none" stroke="#E7E7E7" x1="0" y1="60.25" x2="354" y2="60.25"/>
	</g>
	<circle id="타원_19" fill="#1F98D5" cx="582.5" cy="933.75" r="3.5"/>
	<circle id="타원_17" fill="#1F98D5" cx="405.5" cy="933.75" r="3.5"/>
	<circle id="타원_18" fill="#1F98D5" cx="228.5" cy="933.75" r="3.5"/>
</g>
</svg>
