<?xml version="1.0" encoding="utf-8"?>
<!-- Generator: Adobe Illustrator 25.1.0, SVG Export Plug-In . SVG Version: 6.00 Build 0)  -->
<svg version="1.1" id="Layer_1" xmlns="http://www.w3.org/2000/svg" xmlns:xlink="http://www.w3.org/1999/xlink" x="0px" y="0px"
	 viewBox="0 0 1380 262" enable-background="new 0 0 1380 262" xml:space="preserve">
<g id="그룹_475" transform="translate(-200 -963.5)">
	<line id="선_104" fill="none" stroke="#E7E7E7" x1="890.5" y1="1024.25" x2="890.5" y2="964.25"/>
	<g id="사각형_149" transform="translate(200 1083)">
		<rect y="0.75" fill="none" width="678" height="141"/>
		<rect x="0.5" y="1.25" fill="none" stroke="#E7E7E7" width="677" height="140"/>
	</g>
	<g id="사각형_148" transform="translate(902 1083)">
		<rect y="0.75" fill="none" width="678" height="141"/>
		<rect x="0.5" y="1.25" fill="none" stroke="#E7E7E7" width="677" height="140"/>
	</g>
	<g enable-background="new    ">
		<path fill="#999999" d="M351.81,1178.96v1.5h-11.68v-1.5h4.91v-2.84h1.85v2.84H351.81z M340.59,1175.22
			c0.67-0.1,1.27-0.28,1.8-0.52c0.53-0.24,0.97-0.53,1.34-0.86c0.36-0.33,0.65-0.7,0.85-1.1c0.21-0.4,0.33-0.81,0.38-1.23h-3.86
			v-1.47h9.72v1.47h-3.86c0.04,0.42,0.16,0.83,0.37,1.22c0.21,0.39,0.5,0.75,0.87,1.08c0.37,0.33,0.82,0.61,1.36,0.84
			c0.54,0.23,1.15,0.4,1.84,0.5l-0.7,1.46c-1.14-0.21-2.11-0.57-2.91-1.08c-0.8-0.52-1.4-1.16-1.81-1.91c-0.4,0.77-1,1.43-1.79,1.96
			c-0.79,0.53-1.75,0.9-2.88,1.11L340.59,1175.22z"/>
		<path fill="#999999" d="M360.11,1176.4c-0.72-0.22-1.33-0.56-1.82-0.99s-0.89-0.95-1.19-1.53c-0.29,0.63-0.69,1.19-1.2,1.67
			c-0.51,0.48-1.15,0.84-1.9,1.08l-0.94-1.44c0.52-0.17,0.98-0.39,1.36-0.67c0.38-0.28,0.7-0.59,0.95-0.94
			c0.25-0.35,0.44-0.71,0.57-1.11c0.13-0.39,0.19-0.79,0.2-1.19h-2.59v-1.46h7.01v1.46h-2.55c0.01,0.38,0.08,0.76,0.2,1.13
			s0.31,0.71,0.56,1.04s0.57,0.62,0.94,0.88s0.82,0.48,1.33,0.65L360.11,1176.4z M354.94,1177.4h8.79v4.56h-1.88v-3.09h-6.92V1177.4
			z M363.73,1169.06v7.77h-1.88v-7.77H363.73z"/>
		<path fill="#999999" d="M371.41,1176.19c-0.53-0.21-0.98-0.5-1.36-0.87c-0.37-0.36-0.68-0.78-0.91-1.25
			c-0.23,0.55-0.55,1.04-0.95,1.48c-0.4,0.44-0.9,0.78-1.5,1.04l-0.98-1.43c0.45-0.2,0.83-0.44,1.15-0.73
			c0.32-0.29,0.58-0.6,0.78-0.94c0.2-0.34,0.35-0.69,0.44-1.06c0.09-0.37,0.14-0.74,0.14-1.11v-1.5h1.78v1.5
			c0,0.35,0.04,0.69,0.13,1.03s0.23,0.66,0.43,0.97c0.2,0.3,0.45,0.58,0.75,0.83c0.3,0.25,0.67,0.46,1.08,0.63L371.41,1176.19z
			 M372.51,1177.14c0.67,0,1.28,0.06,1.83,0.17c0.55,0.11,1.01,0.27,1.4,0.48c0.39,0.21,0.68,0.46,0.89,0.76
			c0.21,0.3,0.31,0.63,0.31,1.01c0,0.38-0.1,0.72-0.31,1.02c-0.21,0.3-0.5,0.55-0.89,0.76c-0.39,0.21-0.85,0.36-1.4,0.48
			c-0.55,0.11-1.15,0.17-1.83,0.17c-0.68,0-1.29-0.06-1.84-0.17c-0.55-0.11-1.01-0.27-1.4-0.48c-0.39-0.21-0.69-0.46-0.9-0.76
			c-0.21-0.3-0.31-0.64-0.31-1.02c0-0.37,0.1-0.71,0.31-1.01s0.51-0.55,0.9-0.76s0.85-0.36,1.4-0.48
			C371.22,1177.19,371.83,1177.14,372.51,1177.14z M372.51,1180.57c0.83,0,1.47-0.08,1.91-0.25s0.67-0.42,0.67-0.77
			c0-0.34-0.22-0.6-0.67-0.77s-1.08-0.25-1.91-0.25c-0.85,0-1.5,0.08-1.94,0.25c-0.44,0.17-0.67,0.42-0.67,0.77
			c0,0.35,0.22,0.6,0.67,0.77C371.02,1180.48,371.66,1180.57,372.51,1180.57z M374.11,1176.54h-1.71v-7.24h1.71v2.9h1.02v-3.14h1.75
			v7.88h-1.75v-3.26h-1.02V1176.54z"/>
		<path fill="#999999" d="M386.71,1176.03c-0.67,0.12-1.36,0.22-2.06,0.28c-0.7,0.07-1.39,0.12-2.07,0.15
			c-0.68,0.03-1.34,0.05-1.98,0.06c-0.64,0.01-1.24,0.01-1.8,0.01l-0.18-1.27c0.47,0,0.95,0,1.46,0c0.51,0,1.04-0.01,1.6-0.03v-0.59
			c-0.7-0.08-1.25-0.27-1.64-0.54c-0.39-0.28-0.59-0.64-0.59-1.09c0-0.53,0.28-0.94,0.85-1.23c0.57-0.29,1.33-0.44,2.29-0.44
			c0.96,0,1.72,0.15,2.28,0.44s0.85,0.71,0.85,1.23c0,0.45-0.19,0.81-0.58,1.09c-0.39,0.28-0.93,0.46-1.61,0.54v0.52
			c0.52-0.03,1.04-0.06,1.55-0.11c0.51-0.04,1.01-0.09,1.5-0.15L386.71,1176.03z M386.26,1171.09h-7.32v-1.22h2.74v-0.91h1.85v0.91
			h2.73V1171.09z M382.17,1180.64h7.27v1.22h-9.1v-2.97h6.83v-0.56h-6.85v-1.22h8.67v2.91h-6.82V1180.64z M381.19,1173.02
			c0,0.19,0.12,0.33,0.37,0.43c0.24,0.1,0.59,0.15,1.04,0.15s0.79-0.05,1.03-0.15c0.24-0.1,0.36-0.24,0.36-0.43
			c0-0.19-0.12-0.32-0.36-0.41c-0.24-0.09-0.58-0.13-1.03-0.13s-0.8,0.04-1.04,0.13C381.31,1172.7,381.19,1172.83,381.19,1173.02z
			 M390.61,1172.1v1.51h-1.62v3.04h-1.85v-7.59h1.85v3.04H390.61z"/>
		<path fill="#999999" d="M397.18,1177.22c0.5-0.02,1.03-0.05,1.59-0.1s1.14-0.13,1.76-0.24l0.15,1.55
			c-0.85,0.16-1.64,0.26-2.38,0.31c-0.74,0.05-1.43,0.07-2.07,0.07h-0.9v-8.33h1.85V1177.22z M405.89,1169.05v12.89h-1.78v-6.43
			h-1.18v5.82h-1.71v-12.05h1.71v4.73h1.18v-4.97H405.89z"/>
		<path fill="#999999" d="M414.4,1169.27h1.71v12.11h-1.71v-6.08h-1.01c-0.08,1.27-0.37,2.26-0.86,2.97
			c-0.49,0.71-1.13,1.06-1.92,1.06c-0.43,0-0.81-0.11-1.15-0.32c-0.34-0.21-0.63-0.52-0.88-0.92c-0.24-0.4-0.43-0.89-0.56-1.48
			c-0.13-0.58-0.2-1.24-0.2-1.97c0-0.73,0.07-1.38,0.2-1.96c0.13-0.58,0.32-1.07,0.56-1.47c0.24-0.4,0.53-0.71,0.88-0.92
			c0.34-0.21,0.73-0.32,1.15-0.32c0.77,0,1.39,0.34,1.88,1.01c0.49,0.67,0.79,1.62,0.89,2.83h1.02V1169.27z M410.6,1177.6
			c0.36,0,0.63-0.24,0.83-0.73s0.3-1.23,0.3-2.23c0-0.99-0.1-1.73-0.3-2.21c-0.2-0.48-0.47-0.73-0.83-0.73
			c-0.36,0-0.63,0.24-0.83,0.73c-0.2,0.49-0.3,1.22-0.3,2.21c0,1,0.1,1.74,0.3,2.23S410.24,1177.6,410.6,1177.6z M418.75,1169.05
			v12.89h-1.74v-12.89H418.75z"/>
		<path fill="#999999" d="M425.45,1171.92c0,0.61,0.06,1.2,0.18,1.79c0.12,0.59,0.31,1.14,0.55,1.64c0.25,0.51,0.56,0.96,0.95,1.37
			s0.85,0.72,1.38,0.95l-1.09,1.47c-0.71-0.34-1.3-0.82-1.77-1.42c-0.47-0.6-0.85-1.29-1.12-2.08c-0.28,0.83-0.67,1.57-1.15,2.21
			c-0.49,0.64-1.09,1.15-1.82,1.51l-1.15-1.48c0.54-0.25,1.01-0.59,1.41-1.01s0.73-0.9,0.99-1.43c0.26-0.53,0.45-1.09,0.57-1.69
			c0.13-0.6,0.19-1.21,0.19-1.83v-1.86h1.88V1171.92z M431.41,1169.05v12.94h-1.85v-7.41h-2.48v-1.48h2.48v-4.05H431.41z"/>
		<path fill="#999999" d="M443.28,1176.2c-0.68-0.22-1.26-0.54-1.73-0.96s-0.84-0.9-1.11-1.45c-0.28,0.64-0.67,1.2-1.17,1.68
			c-0.5,0.48-1.12,0.84-1.85,1.09l-0.97-1.46c0.54-0.18,1-0.41,1.39-0.71s0.7-0.63,0.94-0.99c0.24-0.37,0.42-0.77,0.53-1.19
			c0.11-0.42,0.17-0.86,0.17-1.29v-1.16h1.88v1.32c0,0.39,0.06,0.77,0.17,1.15c0.11,0.37,0.28,0.72,0.52,1.05
			c0.23,0.33,0.53,0.62,0.9,0.88s0.81,0.46,1.31,0.62L443.28,1176.2z M442.58,1176.98c0.67,0,1.28,0.06,1.81,0.17
			c0.54,0.11,0.99,0.28,1.37,0.49c0.38,0.21,0.67,0.47,0.87,0.78c0.2,0.3,0.3,0.65,0.3,1.04s-0.1,0.74-0.3,1.05
			c-0.2,0.31-0.49,0.57-0.87,0.78s-0.84,0.38-1.37,0.49c-0.54,0.11-1.14,0.17-1.81,0.17s-1.28-0.06-1.82-0.17
			c-0.54-0.11-1-0.28-1.38-0.49s-0.67-0.48-0.87-0.78c-0.2-0.31-0.3-0.66-0.3-1.05s0.1-0.74,0.3-1.04c0.2-0.3,0.49-0.56,0.87-0.78
			c0.38-0.21,0.84-0.38,1.38-0.49C441.3,1177.04,441.91,1176.98,442.58,1176.98z M442.58,1180.53c0.82,0,1.45-0.09,1.88-0.26
			c0.43-0.17,0.64-0.44,0.64-0.8c0-0.35-0.21-0.62-0.64-0.79c-0.43-0.17-1.05-0.26-1.88-0.26c-0.83,0-1.46,0.09-1.89,0.26
			s-0.64,0.44-0.64,0.79c0,0.36,0.21,0.63,0.64,0.8C441.12,1180.44,441.75,1180.53,442.58,1180.53z M448.5,1172.06v1.53h-1.71v3.11
			h-1.85v-7.62h1.85v2.98H448.5z"/>
		<path fill="#999999" d="M461.22,1179.17v1.5h-11.69v-1.5h4.89v-1.48c-1.07-0.1-1.92-0.37-2.53-0.79
			c-0.62-0.42-0.92-0.99-0.92-1.69c0-0.39,0.1-0.74,0.31-1.06c0.21-0.31,0.5-0.58,0.87-0.8c0.38-0.22,0.83-0.38,1.37-0.5
			c0.54-0.11,1.14-0.17,1.81-0.17c0.67,0,1.28,0.06,1.82,0.17c0.54,0.11,1,0.28,1.38,0.5c0.38,0.22,0.67,0.49,0.87,0.8
			c0.21,0.31,0.31,0.67,0.31,1.06c0,0.7-0.3,1.26-0.91,1.69c-0.61,0.42-1.45,0.69-2.52,0.79v1.48H461.22z M460.67,1172.14h-10.64
			v-1.47h4.38v-1.48h1.85v1.48h4.41V1172.14z M452.86,1175.21c0,0.37,0.21,0.65,0.63,0.82s1.03,0.26,1.83,0.26
			c0.82,0,1.44-0.09,1.86-0.26c0.42-0.17,0.63-0.45,0.63-0.82c0-0.36-0.21-0.64-0.63-0.82c-0.42-0.18-1.04-0.27-1.86-0.27
			c-0.8,0-1.41,0.09-1.83,0.27C453.07,1174.57,452.86,1174.84,452.86,1175.21z"/>
		<path fill="#999999" d="M469.07,1170.03c0,0.88-0.13,1.68-0.4,2.42c-0.27,0.74-0.65,1.4-1.16,1.99c-0.51,0.59-1.13,1.1-1.88,1.54
			c-0.74,0.44-1.59,0.8-2.56,1.08l-0.77-1.47c1.45-0.39,2.56-0.95,3.35-1.66s1.26-1.52,1.41-2.43h-4.2v-1.47H469.07z
			 M466.07,1180.26h6.92v1.47h-8.76v-4.37h1.85V1180.26z M474.26,1172.66v1.51h-1.72v4.12h-1.85v-9.23h1.85v3.6H474.26z"/>
		<path fill="#999999" d="M490.13,1175.77v1.48h-11.66v-1.48h4.89V1174h1.85v1.76H490.13z M478.98,1173.46
			c0.62-0.07,1.18-0.18,1.65-0.34s0.88-0.35,1.2-0.56c0.33-0.21,0.59-0.45,0.78-0.71c0.19-0.26,0.31-0.51,0.37-0.78h-3.46v-1.47
			h9.55v1.47h-3.49c0.06,0.26,0.18,0.52,0.36,0.78c0.19,0.26,0.45,0.49,0.78,0.71c0.33,0.21,0.73,0.4,1.2,0.56
			c0.47,0.16,1.02,0.27,1.66,0.34l-0.66,1.47c-1.2-0.14-2.2-0.44-2.98-0.91c-0.78-0.47-1.34-1.04-1.67-1.71
			c-0.34,0.67-0.89,1.24-1.67,1.71c-0.77,0.47-1.76,0.77-2.97,0.91L478.98,1173.46z M481.73,1180.26h7.08v1.47h-8.93v-3.68h1.85
			V1180.26z"/>
		<path fill="#999999" d="M498.09,1176.38v0.95c1.11,0.09,1.98,0.33,2.6,0.72c0.62,0.39,0.93,0.91,0.93,1.58
			c0,0.37-0.1,0.71-0.31,0.99c-0.21,0.29-0.5,0.53-0.89,0.74c-0.39,0.2-0.86,0.35-1.41,0.46c-0.55,0.1-1.18,0.15-1.88,0.15
			c-0.7,0-1.33-0.05-1.88-0.15c-0.55-0.1-1.02-0.25-1.4-0.46c-0.38-0.2-0.68-0.45-0.88-0.74c-0.21-0.29-0.31-0.62-0.31-0.99
			c0-0.67,0.31-1.2,0.94-1.59c0.62-0.39,1.5-0.63,2.63-0.72v-0.94h-4.9v-1.47h11.65v1.47H498.09z M491.85,1172.98
			c0.6-0.06,1.12-0.15,1.58-0.27c0.46-0.12,0.85-0.27,1.18-0.44c0.33-0.17,0.59-0.36,0.79-0.57c0.2-0.21,0.34-0.42,0.42-0.64h-3.42
			v-1.47h9.53v1.47h-3.43c0.08,0.21,0.22,0.43,0.42,0.64c0.2,0.21,0.46,0.4,0.79,0.57c0.33,0.17,0.73,0.32,1.18,0.44
			c0.46,0.12,0.99,0.21,1.6,0.27l-0.64,1.43c-1.21-0.1-2.21-0.37-3-0.79c-0.78-0.42-1.35-0.94-1.69-1.55
			c-0.35,0.62-0.91,1.13-1.69,1.55c-0.78,0.42-1.79,0.68-3.01,0.78L491.85,1172.98z M499.74,1179.63c0-0.33-0.22-0.56-0.65-0.71
			c-0.43-0.15-1.08-0.22-1.95-0.22s-1.51,0.07-1.95,0.22c-0.43,0.15-0.65,0.39-0.65,0.71c0,0.33,0.22,0.56,0.65,0.71
			c0.43,0.14,1.08,0.22,1.95,0.22s1.52-0.07,1.95-0.22C499.53,1180.19,499.74,1179.96,499.74,1179.63z"/>
		<path fill="#999999" d="M515.87,1174.25v1.44h-11.65v-1.44H515.87z M510.05,1173.64c-1.47,0-2.62-0.19-3.44-0.56
			c-0.82-0.37-1.22-0.92-1.22-1.64c0-0.71,0.41-1.25,1.22-1.63c0.82-0.38,1.96-0.57,3.44-0.57c1.48,0,2.63,0.19,3.45,0.57
			c0.82,0.38,1.23,0.92,1.23,1.63c0,0.72-0.41,1.26-1.23,1.64C512.68,1173.45,511.53,1173.64,510.05,1173.64z M507.4,1180.47h7.39
			v1.39h-9.23v-3.39h7.07v-0.69h-7.08v-1.36h8.9v3.32h-7.06V1180.47z M510.05,1170.6c-0.93,0-1.62,0.07-2.07,0.2
			c-0.45,0.14-0.67,0.35-0.67,0.64c0,0.3,0.22,0.52,0.67,0.65c0.45,0.14,1.14,0.2,2.07,0.2c0.94,0,1.64-0.07,2.09-0.2
			c0.45-0.13,0.67-0.35,0.67-0.65c0-0.29-0.22-0.5-0.67-0.64C511.69,1170.67,510.99,1170.6,510.05,1170.6z"/>
		<path fill="#999999" d="M527.18,1170.39c0,0.99-0.09,1.93-0.28,2.82c-0.19,0.89-0.51,1.73-0.96,2.52
			c-0.45,0.79-1.06,1.52-1.81,2.2c-0.76,0.68-1.71,1.29-2.86,1.84l-0.97-1.46c0.82-0.39,1.53-0.82,2.13-1.27s1.1-0.95,1.5-1.48
			s0.71-1.1,0.93-1.71s0.36-1.28,0.43-2h-4.3v-1.47H527.18z M531.03,1169.05v12.89h-1.88v-12.89H531.03z"/>
		<path fill="#999999" d="M539.71,1176.54h-6.17v-6.55h1.82v1.83h2.53v-1.83h1.82V1176.54z M536.84,1180.26h6.93v1.47H535v-4.12
			h1.85V1180.26z M537.89,1173.25h-2.53v1.83h2.53V1173.25z M545.02,1172.7v1.51h-1.71v4.34h-1.85v-9.49h1.85v3.64H545.02z"/>
		<path fill="#999999" d="M557.72,1178.9v1.51h-11.68v-1.51H557.72z M551.86,1169.7c0.68,0,1.31,0.09,1.9,0.27
			c0.58,0.18,1.09,0.43,1.53,0.76c0.43,0.33,0.77,0.72,1.02,1.18c0.25,0.46,0.37,0.97,0.37,1.53c0,0.56-0.12,1.07-0.37,1.53
			c-0.25,0.46-0.59,0.85-1.02,1.18c-0.43,0.33-0.94,0.58-1.53,0.76c-0.58,0.18-1.22,0.27-1.9,0.27c-0.67,0-1.3-0.09-1.89-0.27
			c-0.59-0.18-1.1-0.43-1.53-0.76c-0.43-0.33-0.77-0.72-1.01-1.18c-0.25-0.46-0.37-0.97-0.37-1.53c0-0.56,0.12-1.07,0.37-1.53
			c0.25-0.46,0.59-0.86,1.01-1.18c0.43-0.33,0.94-0.58,1.53-0.76C550.56,1169.79,551.19,1169.7,551.86,1169.7z M551.86,1171.22
			c-0.44,0-0.84,0.05-1.2,0.15c-0.36,0.1-0.68,0.25-0.95,0.43c-0.27,0.19-0.47,0.42-0.62,0.7s-0.22,0.59-0.22,0.94
			c0,0.34,0.07,0.65,0.22,0.92s0.36,0.5,0.62,0.69c0.27,0.19,0.58,0.34,0.95,0.44c0.36,0.1,0.77,0.15,1.2,0.15
			c0.44,0,0.84-0.05,1.21-0.15c0.37-0.1,0.69-0.25,0.95-0.44c0.27-0.19,0.47-0.42,0.62-0.69s0.22-0.58,0.22-0.92
			c0-0.35-0.07-0.66-0.22-0.94s-0.36-0.51-0.62-0.7c-0.27-0.19-0.58-0.33-0.95-0.43C552.71,1171.27,552.3,1171.22,551.86,1171.22z"
			/>
		<path fill="#999999" d="M570.6,1179.03v1.51h-11.68v-1.51h4.9v-1.92h-3.56v-4.37h7.2v-1.39h-7.21v-1.47h9.03v4.3h-7.18v1.44h7.48
			v1.48h-3.91v1.92H570.6z"/>
		<path fill="#999999" d="M586.65,1177.73h-2.7v4.21h-1.88v-4.21h-2.59v4.21h-1.88v-4.21h-2.65v-1.5h11.69V1177.73z M580.79,1175.26
			c-0.69,0-1.32-0.07-1.89-0.2c-0.57-0.13-1.06-0.33-1.47-0.58c-0.41-0.25-0.73-0.55-0.96-0.91c-0.23-0.35-0.34-0.75-0.34-1.19
			s0.11-0.83,0.34-1.19c0.23-0.36,0.55-0.66,0.96-0.91s0.9-0.45,1.47-0.58c0.57-0.14,1.2-0.2,1.89-0.2c0.68,0,1.31,0.07,1.88,0.2
			c0.57,0.13,1.07,0.33,1.48,0.58s0.73,0.55,0.96,0.91c0.23,0.35,0.34,0.75,0.34,1.19s-0.11,0.84-0.34,1.19
			c-0.23,0.35-0.55,0.66-0.96,0.91c-0.41,0.25-0.9,0.45-1.48,0.58C582.1,1175.19,581.47,1175.26,580.79,1175.26z M580.78,1170.96
			c-0.85,0-1.53,0.12-2.03,0.36s-0.75,0.59-0.75,1.05c0,0.47,0.25,0.82,0.75,1.06c0.5,0.24,1.18,0.36,2.03,0.36s1.53-0.12,2.02-0.36
			c0.5-0.24,0.74-0.59,0.74-1.06c0-0.46-0.25-0.81-0.74-1.05C582.31,1171.08,581.63,1170.96,580.78,1170.96z"/>
		<path fill="#999999" d="M594.76,1170.39c0,0.99-0.09,1.93-0.28,2.82c-0.19,0.89-0.51,1.73-0.96,2.52
			c-0.45,0.79-1.06,1.52-1.81,2.2c-0.76,0.68-1.71,1.29-2.86,1.84l-0.97-1.46c0.82-0.39,1.53-0.82,2.13-1.27s1.1-0.95,1.5-1.48
			s0.71-1.1,0.93-1.71s0.36-1.28,0.43-2h-4.3v-1.47H594.76z M598.61,1169.05v12.89h-1.88v-12.89H598.61z"/>
		<path fill="#999999" d="M607.6,1176.38c-0.71-0.23-1.31-0.57-1.79-1.01c-0.48-0.44-0.86-0.95-1.13-1.53
			c-0.29,0.63-0.68,1.2-1.19,1.69c-0.5,0.49-1.13,0.86-1.89,1.1l-0.94-1.46c0.51-0.18,0.96-0.41,1.34-0.69s0.7-0.59,0.94-0.95
			c0.25-0.35,0.43-0.72,0.55-1.11c0.12-0.39,0.19-0.79,0.2-1.19h-2.53v-1.47h6.93v1.47h-2.52c0.01,0.36,0.07,0.73,0.19,1.1
			c0.12,0.37,0.29,0.72,0.53,1.05c0.24,0.33,0.54,0.63,0.9,0.9c0.36,0.27,0.79,0.48,1.29,0.65L607.6,1176.38z M602.73,1177.31h8.79
			v4.66h-1.85v-3.19h-6.94V1177.31z M611.52,1169.07v7.66h-1.85v-3.11h-1.9v-1.48h1.9v-3.07H611.52z"/>
		<path fill="#999999" d="M620.81,1173.16c0,0.47-0.09,0.9-0.27,1.3c-0.18,0.4-0.42,0.75-0.74,1.04s-0.69,0.52-1.11,0.68
			c-0.42,0.16-0.88,0.25-1.38,0.25s-0.96-0.08-1.39-0.25c-0.43-0.16-0.8-0.39-1.11-0.68c-0.31-0.29-0.56-0.63-0.74-1.04
			c-0.18-0.4-0.27-0.83-0.27-1.3c0-0.48,0.09-0.92,0.27-1.32c0.18-0.4,0.43-0.75,0.74-1.04c0.31-0.29,0.68-0.52,1.11-0.68
			c0.43-0.16,0.89-0.25,1.39-0.25s0.95,0.08,1.38,0.25s0.8,0.39,1.11,0.68c0.32,0.29,0.56,0.63,0.74,1.04
			C620.73,1172.25,620.81,1172.69,620.81,1173.16z M615.61,1173.16c0,0.52,0.17,0.93,0.5,1.22c0.33,0.29,0.73,0.44,1.21,0.44
			c0.49,0,0.89-0.15,1.21-0.44c0.32-0.29,0.48-0.7,0.48-1.22c0-0.53-0.16-0.95-0.48-1.24c-0.32-0.29-0.73-0.44-1.21-0.44
			c-0.48,0-0.88,0.15-1.21,0.44C615.77,1172.22,615.61,1172.63,615.61,1173.16z M624.65,1180.26v1.47h-8.9v-4.31h1.85v2.84H624.65z
			 M624.34,1178.33h-1.88v-9.25h1.88V1178.33z"/>
		<path fill="#999999" d="M637.61,1176.03c-0.67,0.12-1.36,0.22-2.06,0.28c-0.7,0.07-1.39,0.12-2.07,0.15
			c-0.68,0.03-1.34,0.05-1.98,0.06c-0.64,0.01-1.24,0.01-1.8,0.01l-0.18-1.27c0.47,0,0.95,0,1.46,0c0.51,0,1.04-0.01,1.6-0.03v-0.59
			c-0.7-0.08-1.25-0.27-1.64-0.54c-0.39-0.28-0.59-0.64-0.59-1.09c0-0.53,0.28-0.94,0.85-1.23c0.57-0.29,1.33-0.44,2.29-0.44
			c0.96,0,1.72,0.15,2.28,0.44s0.85,0.71,0.85,1.23c0,0.45-0.19,0.81-0.58,1.09c-0.39,0.28-0.93,0.46-1.61,0.54v0.52
			c0.52-0.03,1.04-0.06,1.55-0.11c0.51-0.04,1.01-0.09,1.5-0.15L637.61,1176.03z M637.17,1171.09h-7.32v-1.22h2.74v-0.91h1.85v0.91
			h2.73V1171.09z M633.08,1180.64h7.27v1.22h-9.1v-2.97h6.83v-0.56h-6.85v-1.22h8.67v2.91h-6.82V1180.64z M632.1,1173.02
			c0,0.19,0.12,0.33,0.37,0.43c0.24,0.1,0.59,0.15,1.04,0.15s0.79-0.05,1.03-0.15c0.24-0.1,0.36-0.24,0.36-0.43
			c0-0.19-0.12-0.32-0.36-0.41c-0.24-0.09-0.58-0.13-1.03-0.13s-0.8,0.04-1.04,0.13C632.22,1172.7,632.1,1172.83,632.1,1173.02z
			 M641.52,1172.1v1.51h-1.62v3.04h-1.85v-7.59h1.85v3.04H641.52z"/>
		<path fill="#999999" d="M654.23,1175.12v1.47h-11.66v-1.47h4.9v-1.06h-3.49v-4.45h8.85v1.47h-7v1.51h7.07v1.47h-3.58v1.06H654.23z
			 M648.35,1177.22c0.7,0,1.33,0.05,1.88,0.15s1.02,0.26,1.41,0.46c0.39,0.21,0.68,0.46,0.89,0.75c0.21,0.29,0.31,0.63,0.31,1.01
			c0,0.38-0.1,0.72-0.31,1.01c-0.21,0.29-0.5,0.54-0.89,0.74c-0.39,0.21-0.86,0.36-1.41,0.46c-0.55,0.1-1.18,0.15-1.88,0.15
			c-0.7,0-1.33-0.05-1.88-0.15c-0.55-0.1-1.02-0.26-1.4-0.46c-0.38-0.21-0.68-0.45-0.88-0.74c-0.21-0.29-0.31-0.63-0.31-1.01
			c0-0.38,0.1-0.72,0.31-1.01c0.21-0.29,0.5-0.54,0.88-0.75c0.38-0.21,0.85-0.36,1.4-0.46S647.65,1177.22,648.35,1177.22z
			 M648.36,1180.57c0.87,0,1.52-0.08,1.95-0.23c0.43-0.15,0.65-0.4,0.65-0.74c0-0.65-0.87-0.98-2.6-0.98c-1.73,0-2.6,0.33-2.6,0.98
			c0,0.34,0.22,0.58,0.65,0.74C646.84,1180.49,647.49,1180.57,648.36,1180.57z"/>
		<path fill="#999999" d="M659.19,1169.96c0.49,0,0.94,0.11,1.35,0.32c0.42,0.21,0.77,0.52,1.07,0.92s0.53,0.88,0.71,1.44
			c0.17,0.57,0.26,1.2,0.26,1.91c0,0.71-0.09,1.35-0.26,1.92s-0.41,1.05-0.71,1.46s-0.66,0.71-1.07,0.92
			c-0.42,0.21-0.87,0.32-1.35,0.32s-0.94-0.11-1.35-0.32c-0.42-0.21-0.77-0.52-1.07-0.92c-0.3-0.4-0.53-0.89-0.71-1.46
			c-0.17-0.57-0.26-1.21-0.26-1.92c0-0.71,0.09-1.35,0.26-1.91c0.17-0.56,0.41-1.04,0.71-1.44c0.3-0.4,0.66-0.7,1.07-0.92
			C658.25,1170.06,658.7,1169.96,659.19,1169.96z M659.19,1171.62c-0.48,0-0.86,0.25-1.16,0.74c-0.3,0.49-0.45,1.22-0.45,2.18
			c0,0.96,0.15,1.69,0.45,2.19s0.69,0.75,1.16,0.75s0.86-0.25,1.16-0.75c0.3-0.5,0.45-1.23,0.45-2.19c0-0.96-0.15-1.69-0.45-2.18
			C660.05,1171.87,659.66,1171.62,659.19,1171.62z M666.12,1169.05v12.94h-1.85v-12.94H666.12z"/>
		<path fill="#999999" d="M678.16,1170.38c0,0.97-0.1,1.9-0.29,2.79c-0.2,0.89-0.52,1.73-0.97,2.52c-0.45,0.79-1.05,1.52-1.78,2.2
			c-0.73,0.68-1.64,1.29-2.71,1.83l-1.04-1.41c1.5-0.78,2.66-1.68,3.46-2.72c0.81-1.04,1.29-2.28,1.46-3.72h-4.21v-1.5H678.16z
			 M683.39,1175.5h-1.81v6.43h-1.85v-12.88h1.85v4.93h1.81V1175.5z"/>
		<path fill="#999999" d="M696.05,1174.83v1.47h-11.66v-1.47H696.05z M690.17,1177.14c0.7,0,1.33,0.05,1.88,0.16
			s1.02,0.26,1.41,0.47c0.39,0.21,0.68,0.46,0.89,0.76c0.21,0.3,0.31,0.63,0.31,1.01c0,0.38-0.1,0.72-0.31,1.01
			c-0.21,0.29-0.5,0.54-0.89,0.75c-0.39,0.21-0.86,0.36-1.41,0.47s-1.18,0.16-1.88,0.16c-0.7,0-1.33-0.05-1.88-0.16
			s-1.02-0.26-1.4-0.47c-0.38-0.21-0.68-0.46-0.88-0.75c-0.21-0.29-0.31-0.63-0.31-1.01c0-0.37,0.1-0.71,0.31-1.01
			c0.21-0.3,0.5-0.55,0.88-0.76c0.38-0.21,0.85-0.36,1.4-0.47S689.47,1177.14,690.17,1177.14z M694.75,1173.74h-8.9v-4.45h1.85v2.98
			h7.06V1173.74z M690.18,1180.51c1.73,0,2.6-0.33,2.6-0.98s-0.87-0.98-2.6-0.98c-1.73,0-2.6,0.33-2.6,0.98
			S688.45,1180.51,690.18,1180.51z"/>
		<path fill="#999999" d="M704.86,1171.86h-7.6v-1.44h2.86v-1.37h1.88v1.37h2.88L704.86,1171.86z M704.23,1174.8
			c0,0.37-0.08,0.71-0.24,1.02c-0.16,0.3-0.38,0.56-0.66,0.78c-0.28,0.22-0.62,0.39-1,0.51s-0.81,0.18-1.27,0.18
			c-0.47,0-0.9-0.06-1.28-0.18s-0.72-0.29-1-0.51c-0.28-0.22-0.5-0.48-0.65-0.78c-0.15-0.3-0.23-0.64-0.23-1.02
			c0-0.36,0.08-0.7,0.23-1c0.15-0.3,0.37-0.56,0.65-0.78c0.28-0.22,0.61-0.39,1-0.51s0.82-0.18,1.28-0.18
			c0.46,0,0.88,0.06,1.27,0.18s0.72,0.29,1,0.51c0.28,0.22,0.5,0.48,0.66,0.78C704.15,1174.1,704.23,1174.44,704.23,1174.8z
			 M700.95,1180.26h6.93v1.47h-8.78v-3.74h1.85V1180.26z M699.66,1174.8c0,0.36,0.13,0.63,0.38,0.81s0.59,0.28,1.01,0.28
			c0.41,0,0.74-0.09,1-0.28c0.26-0.19,0.39-0.46,0.39-0.81c0-0.35-0.13-0.62-0.39-0.8c-0.26-0.18-0.59-0.27-1-0.27
			c-0.42,0-0.75,0.09-1.01,0.27S699.66,1174.45,699.66,1174.8z M709.11,1172.99v1.53h-1.71v4.19h-1.85v-9.65h1.85v3.93H709.11z"/>
		<path fill="#999999" d="M720.51,1173.16c0,0.47-0.09,0.9-0.27,1.3c-0.18,0.4-0.42,0.75-0.74,1.04s-0.69,0.52-1.11,0.68
			c-0.42,0.16-0.88,0.25-1.38,0.25s-0.96-0.08-1.39-0.25c-0.43-0.16-0.8-0.39-1.11-0.68c-0.31-0.29-0.56-0.63-0.74-1.04
			c-0.18-0.4-0.27-0.83-0.27-1.3c0-0.48,0.09-0.92,0.27-1.32c0.18-0.4,0.43-0.75,0.74-1.04c0.31-0.29,0.68-0.52,1.11-0.68
			c0.43-0.16,0.89-0.25,1.39-0.25s0.95,0.08,1.38,0.25s0.8,0.39,1.11,0.68c0.32,0.29,0.56,0.63,0.74,1.04
			C720.42,1172.25,720.51,1172.69,720.51,1173.16z M715.3,1173.16c0,0.52,0.17,0.93,0.5,1.22c0.33,0.29,0.73,0.44,1.21,0.44
			c0.49,0,0.89-0.15,1.21-0.44c0.32-0.29,0.48-0.7,0.48-1.22c0-0.53-0.16-0.95-0.48-1.24c-0.32-0.29-0.73-0.44-1.21-0.44
			c-0.48,0-0.88,0.15-1.21,0.44C715.47,1172.22,715.3,1172.63,715.3,1173.16z M724.34,1180.26v1.47h-8.9v-4.31h1.85v2.84H724.34z
			 M724.04,1178.33h-1.88v-9.25h1.88V1178.33z"/>
		<path fill="#999999" d="M737.34,1169.05v12.89h-1.74v-6.44h-1.06v5.87h-1.71v-3.74l-1.04,1.39c-0.58-0.31-1.06-0.71-1.44-1.22
			s-0.69-1.08-0.92-1.72c-0.21,0.75-0.51,1.41-0.89,2c-0.38,0.59-0.88,1.06-1.48,1.41l-1.11-1.4c0.48-0.28,0.88-0.63,1.2-1.04
			c0.33-0.42,0.59-0.88,0.78-1.39c0.2-0.51,0.34-1.06,0.42-1.65s0.13-1.19,0.13-1.81v-0.35h-2.11v-1.5h5.82v1.5h-1.93v0.35
			c0,0.56,0.04,1.11,0.13,1.65s0.23,1.05,0.43,1.52c0.2,0.47,0.46,0.9,0.79,1.27s0.73,0.69,1.21,0.94v-8.34h1.71v4.73h1.06v-4.94
			H737.34z"/>
	</g>
	<g enable-background="new    ">
		<path fill="#999999" d="M1019.76,1172.53c0,0.52,0.07,1.05,0.2,1.58s0.33,1.02,0.59,1.49c0.27,0.47,0.6,0.89,0.99,1.26
			c0.4,0.37,0.87,0.67,1.41,0.9l-1.01,1.46c-0.76-0.33-1.39-0.79-1.9-1.39s-0.91-1.29-1.2-2.07c-0.29,0.85-0.69,1.61-1.21,2.27
			c-0.52,0.66-1.15,1.17-1.91,1.51l-1.05-1.47c0.54-0.24,1.01-0.56,1.41-0.97s0.74-0.85,1-1.34c0.27-0.49,0.46-1.01,0.6-1.57
			c0.13-0.56,0.2-1.11,0.2-1.66v-0.71h-2.69v-1.53h7.22v1.53h-2.66V1172.53z M1025.46,1169.06v12.89h-1.85v-12.89H1025.46z"/>
		<path fill="#999999" d="M1039.32,1175.3v1.47h-11.66v-1.47h4.89v-1.67h1.85v1.67H1039.32z M1038.01,1174.38
			c-1.09-0.16-2.02-0.45-2.79-0.88s-1.35-0.97-1.76-1.61c-0.41,0.64-1,1.18-1.76,1.61c-0.76,0.43-1.69,0.72-2.77,0.88l-0.69-1.44
			c0.73-0.08,1.36-0.24,1.9-0.46c0.54-0.22,0.98-0.48,1.34-0.77s0.62-0.62,0.79-0.97s0.26-0.71,0.26-1.08v-0.38h1.89v0.38
			c0,0.37,0.09,0.74,0.26,1.09s0.43,0.68,0.78,0.97c0.35,0.29,0.79,0.55,1.33,0.76c0.54,0.21,1.17,0.36,1.9,0.45L1038.01,1174.38z
			 M1028.95,1177.68h8.96v4.28h-1.85v-2.83h-7.11V1177.68z"/>
		<path fill="#999999" d="M1047.4,1176.38c-0.71-0.23-1.31-0.57-1.79-1.01s-0.86-0.95-1.13-1.53c-0.29,0.63-0.68,1.2-1.18,1.69
			s-1.13,0.86-1.89,1.1l-0.94-1.46c0.51-0.18,0.96-0.41,1.34-0.69s0.7-0.59,0.95-0.95c0.25-0.35,0.43-0.72,0.55-1.11
			c0.12-0.39,0.19-0.79,0.2-1.19h-2.53v-1.47h6.93v1.47h-2.52c0.01,0.36,0.07,0.73,0.19,1.1c0.12,0.37,0.29,0.72,0.53,1.05
			c0.24,0.33,0.54,0.63,0.9,0.9s0.79,0.48,1.29,0.65L1047.4,1176.38z M1042.53,1177.31h8.79v4.66h-1.85v-3.19h-6.94V1177.31z
			 M1051.32,1169.07v7.66h-1.85v-3.11h-1.9v-1.48h1.9v-3.07H1051.32z"/>
		<path fill="#999999" d="M1060.62,1173.16c0,0.47-0.09,0.9-0.27,1.3c-0.18,0.4-0.42,0.75-0.74,1.04s-0.69,0.52-1.11,0.68
			c-0.42,0.16-0.88,0.25-1.38,0.25c-0.5,0-0.96-0.08-1.39-0.25c-0.43-0.16-0.8-0.39-1.11-0.68s-0.56-0.63-0.74-1.04
			s-0.27-0.83-0.27-1.3c0-0.48,0.09-0.92,0.27-1.32s0.43-0.75,0.74-1.04c0.31-0.29,0.68-0.52,1.11-0.68
			c0.43-0.16,0.89-0.25,1.39-0.25c0.49,0,0.95,0.08,1.38,0.25s0.8,0.39,1.11,0.68c0.32,0.29,0.56,0.63,0.74,1.04
			C1060.53,1172.25,1060.62,1172.69,1060.62,1173.16z M1055.41,1173.16c0,0.52,0.17,0.93,0.5,1.22c0.33,0.29,0.73,0.44,1.21,0.44
			c0.49,0,0.89-0.15,1.21-0.44s0.48-0.7,0.48-1.22c0-0.53-0.16-0.95-0.48-1.24s-0.73-0.44-1.21-0.44c-0.48,0-0.88,0.15-1.21,0.44
			C1055.57,1172.22,1055.41,1172.63,1055.41,1173.16z M1064.45,1180.26v1.47h-8.9v-4.31h1.85v2.84H1064.45z M1064.15,1178.33h-1.88
			v-9.25h1.88V1178.33z"/>
		<path fill="#999999" d="M1075.05,1170.66c0,0.91-0.08,1.77-0.22,2.58c-0.15,0.82-0.4,1.59-0.76,2.32
			c-0.35,0.73-0.83,1.41-1.43,2.04s-1.35,1.21-2.25,1.73l-1.08-1.29c0.64-0.37,1.2-0.77,1.67-1.2s0.86-0.89,1.18-1.37
			s0.56-1,0.74-1.55s0.29-1.14,0.34-1.78h-3.26v-1.47H1075.05z M1080.54,1169.06v12.89h-1.78v-6.55h-1.16v6.01h-1.71v-12.01h1.71
			v4.52h1.16v-4.86H1080.54z"/>
		<path fill="#999999" d="M1089.55,1173.16c0,0.47-0.09,0.9-0.27,1.3c-0.18,0.4-0.42,0.75-0.74,1.04s-0.69,0.52-1.11,0.68
			c-0.42,0.16-0.88,0.25-1.38,0.25c-0.5,0-0.96-0.08-1.39-0.25c-0.43-0.16-0.8-0.39-1.11-0.68s-0.56-0.63-0.74-1.04
			s-0.27-0.83-0.27-1.3c0-0.48,0.09-0.92,0.27-1.32s0.43-0.75,0.74-1.04c0.31-0.29,0.68-0.52,1.11-0.68
			c0.43-0.16,0.89-0.25,1.39-0.25c0.49,0,0.95,0.08,1.38,0.25s0.8,0.39,1.11,0.68c0.32,0.29,0.56,0.63,0.74,1.04
			C1089.47,1172.25,1089.55,1172.69,1089.55,1173.16z M1084.35,1173.16c0,0.52,0.17,0.93,0.5,1.22c0.33,0.29,0.73,0.44,1.21,0.44
			c0.49,0,0.89-0.15,1.21-0.44s0.48-0.7,0.48-1.22c0-0.53-0.16-0.95-0.48-1.24s-0.73-0.44-1.21-0.44c-0.48,0-0.88,0.15-1.21,0.44
			C1084.51,1172.22,1084.35,1172.63,1084.35,1173.16z M1093.39,1180.26v1.47h-8.9v-4.31h1.85v2.84H1093.39z M1093.08,1178.33h-1.88
			v-9.25h1.88V1178.33z"/>
		<path fill="#999999" d="M1109.2,1169.06v7.63h-1.85v-1.62h-2.8c-0.31,0.33-0.68,0.58-1.13,0.78s-0.93,0.29-1.45,0.29
			c-0.48,0-0.92-0.08-1.33-0.24c-0.41-0.16-0.77-0.38-1.08-0.67c-0.31-0.28-0.55-0.62-0.72-1.01s-0.26-0.82-0.26-1.29
			c0-0.46,0.09-0.88,0.26-1.27c0.17-0.39,0.41-0.73,0.72-1.02c0.31-0.28,0.67-0.51,1.08-0.67c0.41-0.16,0.85-0.24,1.33-0.24
			c0.53,0,1.02,0.1,1.46,0.29c0.44,0.19,0.82,0.45,1.13,0.78h2.79v-1.74H1109.2z M1101.97,1174.55c0.48,0,0.87-0.14,1.19-0.43
			c0.31-0.29,0.47-0.68,0.47-1.2c0-0.5-0.16-0.9-0.47-1.18c-0.31-0.29-0.71-0.43-1.19-0.43c-0.48,0-0.87,0.14-1.18,0.43
			c-0.31,0.28-0.46,0.68-0.46,1.18c0,0.51,0.16,0.91,0.46,1.2C1101.09,1174.41,1101.49,1174.55,1101.97,1174.55z M1100.4,1177.28
			h8.79v4.69h-1.85v-3.23h-6.94V1177.28z M1107.35,1173.6v-1.33h-2.06c0.02,0.1,0.04,0.21,0.05,0.32s0.02,0.22,0.02,0.34
			c0,0.11-0.01,0.22-0.02,0.34c-0.01,0.11-0.03,0.22-0.05,0.34H1107.35z"/>
		<path fill="#999999" d="M1115.8,1172.32v-1.02h-4.06v-1.48h5.88v3.88h-4.03v1.12c0.52,0,1.01-0.01,1.46-0.02
			c0.45-0.01,0.88-0.04,1.29-0.07c0.41-0.03,0.81-0.07,1.2-0.12c0.39-0.05,0.78-0.11,1.18-0.18l0.15,1.48
			c-0.45,0.08-0.89,0.15-1.33,0.2c-0.44,0.05-0.9,0.09-1.38,0.12c-0.48,0.03-0.99,0.05-1.53,0.06c-0.54,0.01-1.13,0.01-1.77,0.01
			h-1.11v-3.98H1115.8z M1117.2,1177.07c0.67,0,1.28,0.05,1.81,0.16c0.54,0.11,0.99,0.27,1.37,0.48s0.67,0.47,0.88,0.77
			c0.21,0.3,0.31,0.65,0.31,1.04c0,0.38-0.1,0.73-0.31,1.03c-0.21,0.3-0.5,0.56-0.88,0.77s-0.84,0.37-1.37,0.48
			c-0.54,0.11-1.14,0.17-1.81,0.17c-0.67,0-1.28-0.06-1.82-0.17c-0.54-0.11-1-0.27-1.38-0.48s-0.67-0.47-0.87-0.77
			c-0.2-0.3-0.3-0.65-0.3-1.03c0-0.39,0.1-0.74,0.3-1.04c0.2-0.3,0.49-0.56,0.87-0.77s0.84-0.37,1.38-0.48
			C1115.93,1177.12,1116.53,1177.07,1117.2,1177.07z M1117.2,1180.55c1.7,0,2.55-0.34,2.55-1.04c0-0.69-0.85-1.04-2.55-1.04
			c-1.7,0-2.55,0.34-2.55,1.04C1114.66,1180.21,1115.51,1180.55,1117.2,1180.55z M1121.45,1172.29v1.22h1.71v1.5h-1.71v1.82h-1.85
			v-7.77h1.85v1.74h1.71v1.5H1121.45z"/>
		<path fill="#999999" d="M1129.75,1170.66c0,0.91-0.07,1.77-0.22,2.58s-0.4,1.59-0.76,2.32c-0.35,0.73-0.83,1.41-1.44,2.04
			c-0.6,0.63-1.35,1.21-2.25,1.73l-1.08-1.29c0.64-0.37,1.2-0.77,1.67-1.2c0.47-0.43,0.86-0.89,1.18-1.37s0.56-1,0.74-1.55
			c0.17-0.55,0.29-1.14,0.34-1.78h-3.26v-1.47H1129.75z M1135.24,1169.06v12.89h-1.78v-6.55h-1.16v6.01h-1.71v-12.01h1.71v4.52h1.16
			v-4.86H1135.24z"/>
		<path fill="#999999" d="M1143.61,1175.28h-6.17v-5.66h1.82v1.54h2.53v-1.54h1.82V1175.28z M1140.54,1180.43h7.03v1.43h-8.86v-3.56
			h6.68v-0.78h-6.69v-1.4h8.51v3.5h-6.66V1180.43z M1141.79,1172.55h-2.53v1.29h2.53V1172.55z M1148.9,1171.55v1.5h-1.69v2.56h-1.85
			v-6.55h1.85v2.49H1148.9z"/>
		<path fill="#999999" d="M1161.61,1179.03v1.51h-11.68v-1.51h4.9v-1.92h-3.56v-4.37h7.2v-1.39h-7.21v-1.47h9.03v4.3h-7.18v1.44
			h7.48v1.48h-3.91v1.92H1161.61z"/>
		<path fill="#999999" d="M1172.78,1176.21c-0.68-0.23-1.25-0.56-1.71-0.99c-0.46-0.42-0.83-0.93-1.1-1.5
			c-0.29,0.66-0.69,1.24-1.2,1.74c-0.51,0.5-1.15,0.87-1.92,1.13l-0.97-1.48c0.55-0.18,1.02-0.41,1.41-0.71
			c0.39-0.29,0.71-0.63,0.97-1c0.25-0.37,0.44-0.78,0.55-1.2c0.12-0.43,0.17-0.87,0.17-1.32v-1.15h1.88v1.06
			c0,0.44,0.05,0.86,0.16,1.26c0.11,0.4,0.28,0.78,0.51,1.12c0.23,0.35,0.53,0.65,0.9,0.92c0.36,0.27,0.8,0.49,1.32,0.66
			L1172.78,1176.21z M1172.42,1176.94c0.68,0,1.3,0.06,1.84,0.17c0.55,0.11,1.01,0.28,1.39,0.49c0.38,0.21,0.67,0.48,0.88,0.79
			c0.21,0.31,0.31,0.67,0.31,1.07c0,0.39-0.1,0.74-0.31,1.05c-0.21,0.31-0.5,0.57-0.88,0.78s-0.84,0.38-1.39,0.49
			s-1.16,0.17-1.84,0.17c-0.69,0-1.31-0.06-1.85-0.17s-1.01-0.28-1.39-0.49s-0.67-0.48-0.88-0.78c-0.21-0.31-0.31-0.66-0.31-1.05
			c0-0.4,0.1-0.76,0.31-1.07c0.21-0.31,0.5-0.58,0.88-0.79c0.38-0.21,0.84-0.38,1.39-0.49
			C1171.11,1177,1171.73,1176.94,1172.42,1176.94z M1172.42,1180.54c0.85,0,1.49-0.09,1.92-0.27c0.43-0.18,0.64-0.45,0.64-0.81
			c0-0.37-0.21-0.65-0.64-0.83c-0.43-0.18-1.07-0.27-1.92-0.27c-1.72,0-2.58,0.36-2.58,1.09
			C1169.84,1180.18,1170.7,1180.54,1172.42,1180.54z M1174.93,1172.91h-2.35v-1.5h2.35v-2.35h1.85v7.56h-1.85V1172.91z"/>
		<path fill="#999999" d="M1185.68,1176.34c-0.71-0.21-1.31-0.52-1.8-0.93s-0.88-0.88-1.16-1.41c-0.29,0.64-0.69,1.21-1.2,1.69
			c-0.51,0.49-1.15,0.85-1.9,1.09l-0.92-1.44c0.52-0.18,0.97-0.41,1.35-0.69s0.69-0.59,0.94-0.95c0.25-0.35,0.43-0.72,0.55-1.12
			c0.12-0.4,0.19-0.79,0.2-1.2h-2.56v-1.48h6.96v1.48h-2.52c0.01,0.36,0.07,0.73,0.19,1.08s0.3,0.69,0.53,1
			c0.24,0.31,0.54,0.58,0.92,0.83c0.37,0.25,0.81,0.45,1.32,0.59L1185.68,1176.34z M1184.81,1176.94c0.67,0,1.28,0.06,1.81,0.17
			c0.54,0.11,0.99,0.28,1.37,0.5c0.38,0.22,0.67,0.49,0.87,0.8c0.2,0.31,0.3,0.67,0.3,1.06s-0.1,0.74-0.3,1.05
			c-0.2,0.31-0.49,0.57-0.87,0.78s-0.83,0.38-1.37,0.49s-1.14,0.17-1.81,0.17s-1.28-0.06-1.82-0.17s-1-0.28-1.38-0.49
			s-0.67-0.48-0.87-0.78c-0.2-0.31-0.3-0.66-0.3-1.05s0.1-0.74,0.3-1.06c0.2-0.31,0.49-0.58,0.87-0.8c0.38-0.22,0.84-0.39,1.38-0.5
			C1183.53,1177,1184.14,1176.94,1184.81,1176.94z M1184.81,1180.54c0.82,0,1.45-0.09,1.88-0.27c0.43-0.18,0.64-0.45,0.64-0.81
			c0-0.37-0.21-0.65-0.64-0.83c-0.43-0.18-1.05-0.27-1.88-0.27c-0.83,0-1.46,0.09-1.89,0.27c-0.43,0.18-0.64,0.45-0.64,0.83
			c0,0.36,0.21,0.63,0.64,0.81C1183.35,1180.45,1183.98,1180.54,1184.81,1180.54z M1190.73,1172.03v1.51h-1.71v3.18h-1.85v-7.66
			h1.85v2.97H1190.73z"/>
		<path fill="#999999" d="M1203.4,1174.25v1.44h-11.65v-1.44H1203.4z M1197.58,1173.64c-1.47,0-2.62-0.19-3.44-0.56
			c-0.82-0.37-1.22-0.92-1.22-1.64c0-0.71,0.41-1.25,1.22-1.63c0.82-0.38,1.96-0.57,3.44-0.57c1.48,0,2.63,0.19,3.45,0.57
			c0.82,0.38,1.22,0.92,1.22,1.63c0,0.72-0.41,1.26-1.22,1.64C1200.21,1173.45,1199.06,1173.64,1197.58,1173.64z M1194.93,1180.47
			h7.39v1.39h-9.23v-3.39h7.07v-0.69h-7.08v-1.36h8.9v3.32h-7.06V1180.47z M1197.58,1170.6c-0.93,0-1.62,0.07-2.07,0.2
			c-0.45,0.14-0.67,0.35-0.67,0.64c0,0.3,0.22,0.52,0.67,0.65c0.45,0.14,1.14,0.2,2.07,0.2c0.94,0,1.64-0.07,2.09-0.2
			c0.45-0.13,0.67-0.35,0.67-0.65c0-0.29-0.22-0.5-0.67-0.64C1199.22,1170.67,1198.52,1170.6,1197.58,1170.6z"/>
		<path fill="#999999" d="M1219.49,1178.99v1.51h-11.68v-1.51h4.9v-2.69h-3.54v-6.36h8.99v1.48h-7.11v3.39h7.2v1.48h-3.68v2.69
			H1219.49z"/>
		<path fill="#999999" d="M1232.37,1178.96v1.5h-11.68v-1.5h4.9v-2.62h-3.67v-6.33h9.17v6.33h-3.65v2.62H1232.37z M1223.73,1174.88
			h5.56v-3.42h-5.56V1174.88z"/>
		<path fill="#999999" d="M1238.21,1170.96h2.8v1.47h-7.5v-1.47h2.86v-1.68h1.85V1170.96z M1237.29,1173.16
			c0.47,0,0.9,0.07,1.29,0.22s0.74,0.36,1.03,0.64c0.29,0.28,0.51,0.6,0.68,0.97s0.25,0.78,0.25,1.23c0,0.46-0.08,0.88-0.25,1.25
			c-0.16,0.38-0.39,0.7-0.68,0.98c-0.29,0.28-0.63,0.49-1.03,0.64c-0.4,0.15-0.83,0.22-1.29,0.22s-0.9-0.08-1.3-0.22
			c-0.4-0.15-0.75-0.36-1.04-0.64c-0.29-0.28-0.52-0.6-0.68-0.98c-0.16-0.38-0.25-0.8-0.25-1.25c0-0.45,0.08-0.86,0.25-1.23
			s0.39-0.7,0.68-0.97c0.29-0.28,0.64-0.49,1.04-0.64C1236.39,1173.24,1236.82,1173.16,1237.29,1173.16z M1237.3,1177.81
			c0.44,0,0.79-0.14,1.07-0.41s0.42-0.67,0.42-1.17c0-0.48-0.14-0.87-0.42-1.15s-0.64-0.42-1.07-0.42s-0.8,0.14-1.08,0.42
			s-0.42,0.67-0.42,1.16c0,0.49,0.14,0.88,0.42,1.16S1236.87,1177.81,1237.3,1177.81z M1245.54,1175.63h-1.85v6.33h-1.85v-12.89
			h1.85v5.04h1.85V1175.63z"/>
		<path fill="#999999" d="M1258.13,1178.92v1.48h-11.66v-1.48h4.12v-4.44h1.85v4.44H1258.13z M1254.64,1177.36
			c0.24-1.21,0.39-2.28,0.44-3.21c0.05-0.93,0.08-1.77,0.08-2.51h-7.52v-1.47h9.37v1.23c0,0.4,0,0.82-0.01,1.26
			s-0.02,0.91-0.06,1.41c-0.03,0.5-0.08,1.04-0.15,1.62c-0.07,0.58-0.17,1.21-0.3,1.89L1254.64,1177.36z"/>
		<path fill="#999999" d="M1269.34,1170.22v8.67h-6.2v-8.67H1269.34z M1264.96,1171.68v5.75h2.56v-5.75H1264.96z M1273.19,1169.06
			v12.92h-1.85v-12.92H1273.19z"/>
		<path fill="#999999" d="M1277.52,1177.59c0.59-0.02,1.17-0.05,1.75-0.08c0.58-0.04,1.19-0.11,1.83-0.21l0.14,1.5
			c-0.83,0.13-1.61,0.21-2.35,0.25c-0.73,0.04-1.48,0.06-2.25,0.06h-0.9v-5.25h3.08v-2.06h-3.09v-1.48h4.87v5h-3.08V1177.59z
			 M1286.44,1169.05v12.89h-1.74v-6.54h-1.18v5.94h-1.71v-12.05h1.71v4.63h1.18v-4.87H1286.44z"/>
		<path fill="#999999" d="M1299.95,1174.86v1.33h-11.68v-1.33H1299.95z M1291.43,1180.6h7.48v1.25h-9.31v-3.12h7.13v-0.64h-7.14
			v-1.25h8.97v3.07h-7.13V1180.6z M1296.7,1170.53h-7v-1.25h8.82v3.04h-6.97v0.67h7.2v1.25h-9.02v-3.09h6.97V1170.53z"/>
		<path fill="#999999" d="M1315.99,1177.66h-4.94v4.33h-1.85v-4.33h-4.86v-1.47h11.65V1177.66z M1304.89,1174
			c0.65-0.08,1.23-0.22,1.74-0.41c0.5-0.19,0.93-0.41,1.27-0.66c0.34-0.25,0.62-0.53,0.81-0.83c0.2-0.3,0.32-0.61,0.36-0.92h-3.71
			v-1.47h9.56v1.47h-3.65c0.05,0.31,0.17,0.61,0.36,0.92c0.19,0.3,0.46,0.58,0.81,0.83c0.34,0.25,0.77,0.47,1.27,0.66
			c0.5,0.19,1.08,0.32,1.73,0.41l-0.66,1.44c-1.13-0.16-2.08-0.46-2.86-0.92c-0.77-0.45-1.36-1.01-1.75-1.67
			c-0.39,0.66-0.98,1.22-1.75,1.67c-0.77,0.45-1.73,0.76-2.86,0.92L1304.89,1174z"/>
		<path fill="#999999" d="M1328.88,1178.99v1.51h-11.68v-1.51h4.9v-2.69h-3.54v-6.36h8.99v1.48h-7.11v3.39h7.2v1.48h-3.68v2.69
			H1328.88z"/>
		<path fill="#999999" d="M1334.72,1170.96h2.8v1.47h-7.5v-1.47h2.86v-1.68h1.85V1170.96z M1333.8,1173.16
			c0.47,0,0.9,0.07,1.29,0.22s0.74,0.36,1.03,0.64c0.29,0.28,0.51,0.6,0.68,0.97s0.25,0.78,0.25,1.23c0,0.46-0.08,0.88-0.25,1.25
			c-0.16,0.38-0.39,0.7-0.68,0.98c-0.29,0.28-0.63,0.49-1.03,0.64c-0.4,0.15-0.83,0.22-1.29,0.22s-0.9-0.08-1.3-0.22
			c-0.4-0.15-0.75-0.36-1.04-0.64c-0.29-0.28-0.52-0.6-0.68-0.98c-0.16-0.38-0.25-0.8-0.25-1.25c0-0.45,0.08-0.86,0.25-1.23
			s0.39-0.7,0.68-0.97c0.29-0.28,0.64-0.49,1.04-0.64C1332.91,1173.24,1333.34,1173.16,1333.8,1173.16z M1333.82,1177.81
			c0.44,0,0.79-0.14,1.07-0.41s0.42-0.67,0.42-1.17c0-0.48-0.14-0.87-0.42-1.15s-0.64-0.42-1.07-0.42s-0.8,0.14-1.08,0.42
			s-0.42,0.67-0.42,1.16c0,0.49,0.14,0.88,0.42,1.16S1333.38,1177.81,1333.82,1177.81z M1342.06,1175.63h-1.85v6.33h-1.85v-12.89
			h1.85v5.04h1.85V1175.63z"/>
		<path fill="#999999" d="M1354.64,1175.33v1.48h-11.68v-1.48H1354.64z M1346.16,1180.2h7.28v1.48h-9.16v-3.85h1.88V1180.2z
			 M1353.36,1174.02h-8.95v-4.49h1.85v3.02h7.1V1174.02z"/>
		<path fill="#999999" d="M1361.59,1177.46c0.49,0,0.96-0.01,1.41-0.03c0.46-0.02,0.91-0.04,1.34-0.08
			c0.44-0.03,0.88-0.08,1.31-0.13c0.43-0.05,0.88-0.11,1.34-0.19l0.2,1.5c-0.52,0.09-1.04,0.17-1.55,0.22
			c-0.51,0.06-1.02,0.1-1.53,0.13c-0.51,0.03-1.04,0.06-1.57,0.07s-1.09,0.02-1.67,0.02h-1.15v-5.31h4.19v-2.06h-4.2v-1.47h6.08
			v4.98h-4.19V1177.46z M1369.75,1169.05v12.94h-1.85v-12.94H1369.75z"/>
		<path fill="#999999" d="M1374.36,1177.36c0.46,0,0.89-0.01,1.29-0.03s0.8-0.04,1.17-0.07c0.37-0.03,0.74-0.06,1.1-0.1
			c0.36-0.04,0.72-0.1,1.08-0.16l0.18,1.5c-0.44,0.08-0.87,0.15-1.29,0.2s-0.85,0.08-1.3,0.11c-0.45,0.03-0.92,0.05-1.41,0.06
			c-0.5,0.01-1.04,0.01-1.62,0.01h-1.05v-8.67h5.84v1.47h-3.99V1177.36z M1382.73,1169.06V1182h-1.85v-7h-3.15v-1.48h3.15v-4.45
			H1382.73z"/>
		<path fill="#999999" d="M1391.82,1175.7c-0.74-0.21-1.36-0.53-1.86-0.96c-0.5-0.42-0.9-0.92-1.19-1.48
			c-0.3,0.62-0.71,1.16-1.23,1.62c-0.52,0.46-1.17,0.81-1.93,1.04l-0.9-1.46c0.54-0.16,1-0.38,1.39-0.65
			c0.39-0.28,0.71-0.58,0.96-0.92c0.25-0.34,0.44-0.7,0.56-1.09c0.12-0.39,0.18-0.78,0.18-1.17v-1.19h1.88v1.19
			c0,0.38,0.06,0.76,0.17,1.13c0.12,0.37,0.3,0.71,0.55,1.04s0.56,0.61,0.94,0.86s0.83,0.45,1.36,0.6L1391.82,1175.7z
			 M1393.66,1176.55h1.85v5.25h-8.58v-5.25h1.83v1.2h4.9V1176.55z M1393.66,1179.17h-4.9v1.16h4.9V1179.17z M1395.51,1169.06v6.93
			h-1.88v-6.93H1395.51z"/>
		<path fill="#999999" d="M1409.31,1174.25v1.44h-11.65v-1.44H1409.31z M1403.49,1173.64c-1.47,0-2.62-0.19-3.44-0.56
			c-0.82-0.37-1.22-0.92-1.22-1.64c0-0.71,0.41-1.25,1.22-1.63c0.82-0.38,1.96-0.57,3.44-0.57c1.48,0,2.63,0.19,3.45,0.57
			c0.82,0.38,1.22,0.92,1.22,1.63c0,0.72-0.41,1.26-1.22,1.64C1406.12,1173.45,1404.97,1173.64,1403.49,1173.64z M1400.84,1180.47
			h7.39v1.39h-9.23v-3.39h7.07v-0.69H1399v-1.36h8.9v3.32h-7.06V1180.47z M1403.49,1170.6c-0.93,0-1.62,0.07-2.07,0.2
			c-0.45,0.14-0.67,0.35-0.67,0.64c0,0.3,0.22,0.52,0.67,0.65c0.45,0.14,1.14,0.2,2.07,0.2c0.94,0,1.64-0.07,2.09-0.2
			c0.45-0.13,0.67-0.35,0.67-0.65c0-0.29-0.22-0.5-0.67-0.64C1405.13,1170.67,1404.43,1170.6,1403.49,1170.6z"/>
		<path fill="#999999" d="M1420.34,1169.79c0,1.74-0.51,3.15-1.54,4.24c-1.03,1.09-2.52,1.87-4.48,2.34l-0.67-1.47
			c0.74-0.17,1.38-0.38,1.94-0.62c0.56-0.25,1.02-0.53,1.41-0.84c0.38-0.31,0.68-0.65,0.9-1.02s0.35-0.75,0.41-1.16h-4.03v-1.47
			H1420.34z M1420.74,1178.17c0.06,0.25,0.17,0.5,0.36,0.75s0.43,0.48,0.75,0.69s0.71,0.4,1.16,0.57c0.46,0.16,0.98,0.28,1.58,0.36
			l-0.66,1.4c-1.03-0.13-1.89-0.39-2.6-0.78c-0.71-0.39-1.24-0.86-1.6-1.41c-0.36,0.54-0.9,1-1.6,1.38
			c-0.71,0.38-1.58,0.64-2.61,0.78l-0.64-1.4c0.61-0.06,1.14-0.18,1.6-0.34c0.46-0.16,0.84-0.34,1.16-0.55
			c0.31-0.21,0.56-0.44,0.74-0.69c0.18-0.25,0.3-0.5,0.34-0.76h-3.29v-1.44h8.62v1.44H1420.74z M1425.58,1172v1.51h-1.71v2.66h-1.85
			v-7.11h1.85v2.94H1425.58z"/>
		<path fill="#999999" d="M1438.28,1175.72v1.46h-4.76v2.06h-1.85v-2.06h-5.08v-1.46H1438.28z M1427.09,1173.81
			c0.68-0.06,1.28-0.15,1.79-0.28s0.94-0.29,1.28-0.48s0.62-0.39,0.81-0.62c0.2-0.22,0.32-0.46,0.38-0.7h-3.63v-1.43h3.77v-1.2h1.85
			v1.2h3.81v1.43h-3.65c0.07,0.24,0.2,0.48,0.39,0.7c0.2,0.22,0.47,0.43,0.81,0.62c0.34,0.19,0.77,0.35,1.27,0.48
			c0.5,0.13,1.1,0.22,1.79,0.28l-0.59,1.4c-1.18-0.1-2.17-0.33-2.96-0.67c-0.79-0.35-1.38-0.79-1.79-1.33
			c-0.4,0.54-1,0.98-1.78,1.33c-0.79,0.35-1.78,0.57-2.96,0.67L1427.09,1173.81z M1429.79,1180.26h7.18v1.47h-9.03v-3.6h1.85
			V1180.26z"/>
		<path fill="#999999" d="M1449.86,1173.16c0,0.47-0.09,0.9-0.27,1.3c-0.18,0.4-0.42,0.75-0.74,1.04s-0.69,0.52-1.11,0.68
			c-0.42,0.16-0.88,0.25-1.38,0.25c-0.49,0-0.96-0.08-1.39-0.25c-0.43-0.16-0.8-0.39-1.11-0.68c-0.31-0.29-0.56-0.63-0.74-1.04
			c-0.18-0.4-0.27-0.83-0.27-1.3c0-0.48,0.09-0.92,0.27-1.32c0.18-0.4,0.43-0.75,0.74-1.04c0.31-0.29,0.68-0.52,1.11-0.68
			s0.89-0.25,1.39-0.25c0.5,0,0.95,0.08,1.38,0.25s0.8,0.39,1.11,0.68c0.32,0.29,0.56,0.63,0.74,1.04
			C1449.77,1172.25,1449.86,1172.69,1449.86,1173.16z M1444.65,1173.16c0,0.52,0.17,0.93,0.5,1.22s0.74,0.44,1.21,0.44
			c0.49,0,0.89-0.15,1.21-0.44c0.32-0.29,0.48-0.7,0.48-1.22c0-0.53-0.16-0.95-0.48-1.24c-0.32-0.29-0.73-0.44-1.21-0.44
			c-0.48,0-0.88,0.15-1.21,0.44S1444.65,1172.63,1444.65,1173.16z M1453.69,1180.26v1.47h-8.9v-4.31h1.85v2.84H1453.69z
			 M1453.38,1178.33h-1.88v-9.25h1.88V1178.33z"/>
		<path fill="#999999" d="M1466.68,1169.05v12.89h-1.74v-6.44h-1.06v5.87h-1.71v-3.74l-1.04,1.39c-0.58-0.31-1.06-0.71-1.44-1.22
			s-0.69-1.08-0.92-1.72c-0.21,0.75-0.51,1.41-0.89,2c-0.38,0.59-0.88,1.06-1.48,1.41l-1.11-1.4c0.48-0.28,0.88-0.63,1.2-1.04
			c0.33-0.42,0.59-0.88,0.78-1.39c0.2-0.51,0.34-1.06,0.42-1.65s0.13-1.19,0.13-1.81v-0.35h-2.11v-1.5h5.82v1.5h-1.93v0.35
			c0,0.56,0.04,1.11,0.13,1.65c0.09,0.54,0.23,1.05,0.43,1.52c0.2,0.47,0.46,0.9,0.79,1.27c0.33,0.38,0.73,0.69,1.21,0.94v-8.34
			h1.71v4.73h1.06v-4.94H1466.68z"/>
	</g>
	<g enable-background="new    ">
		<path fill="#1F98D5" d="M537.77,1135.78v2.97h-23.32v-2.97h9.77v-3.53h3.7v3.53H537.77z M515.48,1131.16
			c1.25-0.13,2.35-0.35,3.3-0.67s1.75-0.69,2.41-1.12c0.65-0.43,1.17-0.9,1.55-1.41c0.38-0.51,0.63-1.03,0.74-1.55h-6.92v-2.94h19.1
			v2.94h-6.97c0.11,0.52,0.35,1.04,0.73,1.55s0.89,0.98,1.55,1.41c0.66,0.43,1.47,0.8,2.41,1.12s2.05,0.54,3.32,0.67l-1.32,2.94
			c-2.41-0.28-4.39-0.89-5.95-1.82c-1.56-0.93-2.67-2.07-3.35-3.42c-0.67,1.34-1.78,2.48-3.33,3.42s-3.53,1.54-5.94,1.82
			L515.48,1131.16z M520.97,1144.77h14.17v2.94h-17.86v-7.36h3.7V1144.77z"/>
		<path fill="#1F98D5" d="M553.7,1137.01v1.9c2.22,0.19,3.95,0.67,5.19,1.44s1.86,1.82,1.86,3.15c0,0.75-0.21,1.41-0.62,1.99
			c-0.41,0.58-1,1.07-1.78,1.47s-1.71,0.71-2.81,0.91s-2.35,0.31-3.75,0.31c-1.4,0-2.65-0.1-3.75-0.31c-1.1-0.21-2.04-0.51-2.8-0.91
			c-0.77-0.4-1.35-0.89-1.76-1.47s-0.62-1.24-0.62-1.99c0-1.34,0.63-2.4,1.88-3.18c1.25-0.77,3-1.25,5.26-1.44v-1.88h-9.8v-2.94
			h23.3v2.94H553.7z M541.21,1130.21c1.19-0.11,2.25-0.29,3.16-0.53c0.91-0.24,1.7-0.54,2.37-0.88c0.66-0.34,1.19-0.73,1.58-1.15
			c0.39-0.42,0.67-0.84,0.84-1.27h-6.83v-2.94h19.07v2.94h-6.86c0.17,0.43,0.45,0.85,0.84,1.27c0.39,0.42,0.92,0.8,1.58,1.15
			c0.66,0.35,1.45,0.64,2.37,0.88c0.91,0.24,1.98,0.42,3.19,0.53l-1.29,2.86c-2.43-0.21-4.42-0.73-5.99-1.58
			c-1.57-0.85-2.7-1.88-3.39-3.09c-0.69,1.23-1.82,2.27-3.39,3.11s-3.58,1.36-6.02,1.57L541.21,1130.21z M557,1143.51
			c0-0.65-0.43-1.13-1.3-1.43s-2.16-0.45-3.9-0.45s-3.03,0.15-3.9,0.45s-1.3,0.77-1.3,1.43c0,0.65,0.43,1.12,1.3,1.41
			c0.87,0.29,2.16,0.43,3.9,0.43s3.03-0.14,3.9-0.43C556.57,1144.63,557,1144.16,557,1143.51z"/>
	</g>
	<g enable-background="new    ">
		<path fill="#1F98D5" d="M1230.11,1124.69v17.33h-12.4v-17.33H1230.11z M1221.34,1127.61v11.51h5.12v-11.51H1221.34z
			 M1237.81,1122.37v25.84h-3.7v-25.84H1237.81z"/>
		<path fill="#1F98D5" d="M1246.46,1139.42c1.18-0.04,2.34-0.09,3.5-0.17c1.16-0.07,2.38-0.21,3.67-0.42l0.28,3
			c-1.66,0.26-3.23,0.43-4.69,0.5c-1.47,0.08-2.97,0.11-4.51,0.11h-1.81v-10.5h6.16v-4.12h-6.19v-2.97h9.74v10h-6.16V1139.42z
			 M1264.3,1122.34v25.79h-3.47v-13.08h-2.35v11.87h-3.42v-24.11h3.42v9.27h2.35v-9.74H1264.3z"/>
	</g>
	<g id="그룹_460" transform="translate(1781 1667) rotate(180)">
		<line id="선_100" fill="none" stroke="#E7E7E7" x1="539.5" y1="582.25" x2="539.5" y2="642.25"/>
		<line id="선_101" fill="none" stroke="#E7E7E7" x1="1241" y1="582.25" x2="1241" y2="642.25"/>
		<line id="선_102" fill="none" stroke="#E7E7E7" x1="539" y1="642.75" x2="1241.5" y2="642.75"/>
	</g>
	<circle id="타원_13" fill="#1F98D5" cx="1241.5" cy="1024.25" r="3.5"/>
	<circle id="타원_11" fill="#1F98D5" cx="539.5" cy="1024.25" r="3.5"/>
	<circle id="타원_12" fill="#1F98D5" cx="890.5" cy="1024.25" r="3.5"/>
</g>
</svg>
