<?xml version="1.0" encoding="utf-8"?>
<!-- Generator: Adobe Illustrator 25.1.0, SVG Export Plug-In . SVG Version: 6.00 Build 0)  -->
<svg version="1.1" id="Layer_1" xmlns="http://www.w3.org/2000/svg" xmlns:xlink="http://www.w3.org/1999/xlink" x="0px" y="0px"
	 viewBox="0 0 690 262" enable-background="new 0 0 690 262" xml:space="preserve">
<g id="그룹_472" transform="translate(-60 -353)">
	<g id="사각형_146" transform="translate(60 353)">
		<rect y="0.25" fill="none" width="336" height="141"/>
		<rect x="0.5" y="0.75" fill="none" stroke="#E7E7E7" width="335" height="140"/>
	</g>
	<g id="사각형_150" transform="translate(414 353)">
		<rect y="0.25" fill="none" width="336" height="141"/>
		<rect x="0.5" y="0.75" fill="none" stroke="#E7E7E7" width="335" height="140"/>
	</g>
	<g enable-background="new    ">
		<path fill="#999999" d="M115.86,434.37c0,0.85-0.08,1.65-0.24,2.42s-0.43,1.48-0.82,2.16c-0.39,0.68-0.91,1.3-1.55,1.88
			s-1.46,1.11-2.45,1.58l-0.83-1.25c0.7-0.34,1.31-0.7,1.82-1.09c0.51-0.39,0.94-0.81,1.28-1.27c0.34-0.45,0.61-0.94,0.8-1.46
			c0.19-0.52,0.31-1.09,0.37-1.71h-3.68v-1.26H115.86z M119.16,433.22v11.05h-1.61v-11.05H119.16z"/>
		<path fill="#999999" d="M130.98,438.98v1.27h-10v-1.27h4.19v-1.51h1.58v1.51H130.98z M121.43,437c0.54-0.06,1.01-0.15,1.42-0.29
			s0.75-0.3,1.03-0.48c0.28-0.18,0.5-0.39,0.67-0.61c0.16-0.22,0.27-0.44,0.32-0.67h-2.96v-1.26h8.18v1.26h-2.99
			c0.05,0.22,0.15,0.45,0.31,0.67c0.16,0.22,0.38,0.42,0.67,0.61c0.28,0.18,0.63,0.34,1.03,0.48c0.4,0.14,0.88,0.23,1.42,0.29
			l-0.56,1.26c-1.03-0.12-1.88-0.38-2.55-0.78c-0.67-0.4-1.15-0.89-1.43-1.46c-0.29,0.58-0.76,1.06-1.43,1.46
			c-0.66,0.4-1.51,0.66-2.54,0.78L121.43,437z M123.78,442.83h6.07v1.26h-7.66v-3.16h1.58V442.83z"/>
		<path fill="#999999" d="M138.83,435.69c0,0.5,0.05,0.99,0.15,1.48c0.1,0.49,0.25,0.95,0.46,1.38s0.47,0.82,0.79,1.17
			c0.32,0.35,0.7,0.63,1.15,0.85l-0.96,1.25c-0.58-0.3-1.06-0.7-1.45-1.21c-0.39-0.51-0.71-1.1-0.94-1.76
			c-0.24,0.7-0.57,1.33-0.99,1.89c-0.42,0.56-0.94,0.99-1.57,1.29l-0.95-1.28c0.46-0.22,0.87-0.5,1.21-0.86
			c0.34-0.36,0.62-0.76,0.84-1.21c0.22-0.45,0.38-0.93,0.49-1.43c0.11-0.51,0.16-1.02,0.16-1.53v-1.61h1.61V435.69z M145.01,438.8
			h-1.61v5.48h-1.58v-11.05h1.58v4.25h1.61V438.8z"/>
		<path fill="#999999" d="M155.8,441.68v1.27h-10v-1.27h3.53v-3.8h1.58v3.8H155.8z M152.81,440.35c0.21-1.04,0.33-1.96,0.38-2.75
			s0.07-1.51,0.07-2.15h-6.44v-1.26h8.03v1.06c0,0.34,0,0.7-0.01,1.08c0,0.38-0.02,0.78-0.05,1.21c-0.03,0.43-0.07,0.89-0.13,1.39
			s-0.15,1.04-0.26,1.62L152.81,440.35z"/>
		<path fill="#999999" d="M166.84,438.2v1.14h-10.01v-1.14H166.84z M159.54,443.12h6.41v1.07h-7.98v-2.68h6.11v-0.55h-6.12v-1.07
			h7.69v2.63h-6.11V443.12z M164.05,434.49h-6v-1.07h7.56v2.6h-5.98v0.58h6.17v1.07h-7.73v-2.65h5.98V434.49z"/>
		<path fill="#999999" d="M172.61,440.51c0.39,0,0.77-0.01,1.12-0.02s0.71-0.03,1.06-0.05c0.35-0.02,0.69-0.05,1.04-0.08
			c0.34-0.04,0.7-0.08,1.06-0.14l0.14,1.26c-0.42,0.06-0.84,0.12-1.24,0.16c-0.4,0.04-0.8,0.07-1.21,0.09
			c-0.41,0.02-0.83,0.03-1.26,0.04c-0.43,0.01-0.88,0.01-1.36,0.01h-0.94v-7.64h5.2v1.28h-3.61v1.8h3.46v1.24h-3.46V440.51z
			 M180.85,438.73h-1.61v5.57h-1.58v-11.06h1.58v4.19h1.61V438.73z"/>
		<path fill="#999999" d="M186.92,440.29c0.22-0.02,0.43-0.03,0.64-0.05c0.21-0.02,0.42-0.04,0.63-0.07l0.1,1.15
			c-0.56,0.1-1.13,0.17-1.72,0.23c-0.58,0.06-1.16,0.11-1.73,0.14c-0.57,0.03-1.13,0.05-1.67,0.06s-1.05,0.01-1.52,0.01l-0.17-1.3
			h1.24v-4.94h-0.95v-1.27h6.1v1.27h-0.95V440.29z M184.25,440.43c0.19-0.01,0.38-0.01,0.57-0.02c0.19,0,0.39-0.01,0.58-0.02v-4.87
			h-1.15V440.43z M191.89,438.71h-1.61v5.58h-1.58v-11.05h1.58v4.16h1.61V438.71z"/>
		<path fill="#999999" d="M196.64,434.86h2.4v1.26h-6.43v-1.26h2.45v-1.44h1.58V434.86z M195.86,436.75c0.4,0,0.77,0.06,1.11,0.19
			s0.63,0.31,0.88,0.55c0.25,0.24,0.44,0.51,0.58,0.83c0.14,0.32,0.21,0.67,0.21,1.06c0,0.39-0.07,0.75-0.21,1.07
			s-0.33,0.6-0.58,0.84c-0.25,0.24-0.54,0.42-0.88,0.55s-0.71,0.19-1.11,0.19c-0.4,0-0.77-0.06-1.11-0.19s-0.64-0.31-0.89-0.55
			s-0.45-0.52-0.59-0.84s-0.21-0.68-0.21-1.07c0-0.38,0.07-0.74,0.21-1.06c0.14-0.32,0.34-0.6,0.59-0.83
			c0.25-0.24,0.55-0.42,0.89-0.55S195.46,436.75,195.86,436.75z M195.87,440.73c0.37,0,0.68-0.12,0.92-0.35s0.36-0.57,0.36-1
			c0-0.42-0.12-0.74-0.36-0.98c-0.24-0.24-0.55-0.36-0.92-0.36c-0.37,0-0.68,0.12-0.93,0.36c-0.24,0.24-0.36,0.57-0.36,1
			c0,0.42,0.12,0.75,0.36,0.99C195.19,440.61,195.5,440.73,195.87,440.73z M202.93,438.86h-1.58v5.42h-1.58v-11.05h1.58v4.32h1.58
			V438.86z"/>
		<path fill="#999999" d="M213.72,441.68v1.27h-10v-1.27h3.53v-3.8h1.58v3.8H213.72z M210.73,440.35c0.21-1.04,0.33-1.96,0.38-2.75
			s0.07-1.51,0.07-2.15h-6.44v-1.26h8.03v1.06c0,0.34,0,0.7-0.01,1.08c0,0.38-0.02,0.78-0.05,1.21c-0.03,0.43-0.07,0.89-0.13,1.39
			s-0.15,1.04-0.26,1.62L210.73,440.35z"/>
		<path fill="#999999" d="M227.48,437.41v1.25h-10.01v-1.25H227.48z M220.22,442.96h6.41v1.19h-8.02v-3h6.1v-0.62h-6.11v-1.19h7.72
			v2.93h-6.1V442.96z M226.34,436.7h-7.62v-3.36h1.58v2.11h6.04V436.7z"/>
		<path fill="#999999" d="M240.71,433.22v11.05h-1.49v-5.47h-0.9v4.98h-1.46v-3.26l-0.91,1.22c-0.47-0.26-0.86-0.61-1.17-1.04
			s-0.56-0.91-0.74-1.46c-0.19,0.61-0.45,1.15-0.78,1.64c-0.33,0.48-0.74,0.88-1.23,1.18l-0.98-1.16c0.42-0.25,0.77-0.55,1.05-0.91
			c0.28-0.36,0.51-0.75,0.69-1.18c0.18-0.43,0.3-0.88,0.38-1.34s0.12-0.94,0.12-1.41v-1.86h1.52v1.74c0,0.48,0.03,0.95,0.1,1.4
			s0.18,0.88,0.34,1.28c0.16,0.4,0.37,0.76,0.63,1.08c0.26,0.32,0.59,0.59,0.97,0.8v-7.08h1.46v4.12h0.9v-4.31H240.71z"/>
		<path fill="#999999" d="M252.29,441.77v1.3h-10.01v-1.3h4.2v-1.64h-3.05v-3.74h6.17v-1.19h-6.18v-1.26h7.74v3.68H245v1.24h6.41
			v1.27h-3.35v1.64H252.29z"/>
		<path fill="#999999" d="M263.32,438.59v1.26h-4.1v1.9h-1.61v-1.9h-4.28v-1.26H263.32z M258.31,438.02c-0.59,0-1.13-0.05-1.62-0.16
			c-0.49-0.11-0.91-0.26-1.25-0.46c-0.35-0.2-0.62-0.44-0.81-0.72c-0.19-0.28-0.29-0.6-0.29-0.95c0-0.34,0.1-0.66,0.29-0.94
			c0.19-0.28,0.46-0.53,0.81-0.73c0.35-0.2,0.77-0.35,1.25-0.46c0.49-0.11,1.03-0.16,1.62-0.16c0.6,0,1.14,0.05,1.63,0.16
			c0.49,0.11,0.91,0.26,1.25,0.46c0.35,0.2,0.62,0.44,0.8,0.73c0.19,0.28,0.28,0.6,0.28,0.94c0,0.35-0.09,0.67-0.28,0.95
			c-0.19,0.28-0.46,0.52-0.8,0.72c-0.35,0.2-0.77,0.35-1.25,0.46C259.46,437.96,258.91,438.02,258.31,438.02z M256.09,442.83h6.14
			v1.26h-7.75v-3.31h1.61V442.83z M258.31,434.69c-0.7,0-1.25,0.09-1.65,0.26s-0.61,0.43-0.61,0.77c0,0.34,0.2,0.6,0.61,0.77
			s0.95,0.26,1.65,0.26c0.7,0,1.26-0.09,1.66-0.26s0.61-0.43,0.61-0.77c0-0.34-0.2-0.6-0.61-0.77S259.02,434.69,258.31,434.69z"/>
		<path fill="#999999" d="M272.77,439.67h-5.22v-5.71h1.57v1.68h2.1v-1.68h1.55v1.1h1.97v-1.84h1.58v8.16h-1.58v-2.69h-1.97V439.67z
			 M276.56,442.83v1.26h-7.54v-3.49h1.58v2.23H276.56z M271.22,436.85h-2.1v1.56h2.1V436.85z M272.77,436.34v1.1h1.97v-1.1H272.77z"
			/>
		<path fill="#999999" d="M282.26,441.08c0.43-0.02,0.86-0.05,1.27-0.08c0.42-0.03,0.82-0.08,1.22-0.14l0.12,1.14
			c-0.58,0.11-1.17,0.2-1.76,0.26c-0.59,0.06-1.17,0.11-1.75,0.14c-0.57,0.03-1.13,0.04-1.67,0.05c-0.54,0-1.04,0.01-1.51,0.01
			l-0.19-1.28c0.4,0,0.82,0,1.27,0c0.45,0,0.92-0.01,1.4-0.02v-0.94c-0.58-0.11-1.04-0.35-1.39-0.7c-0.35-0.36-0.52-0.79-0.52-1.29
			c0-0.31,0.07-0.6,0.2-0.85c0.13-0.26,0.32-0.48,0.56-0.66c0.24-0.18,0.52-0.33,0.85-0.43c0.33-0.1,0.69-0.15,1.09-0.15
			c0.39,0,0.75,0.05,1.08,0.15c0.33,0.1,0.62,0.24,0.86,0.43c0.24,0.18,0.42,0.4,0.56,0.66c0.13,0.26,0.2,0.54,0.2,0.85
			c0,0.5-0.17,0.93-0.52,1.29c-0.35,0.36-0.81,0.59-1.38,0.7V441.08z M284.71,435.69h-6.5v-1.25h2.47v-1.16h1.58v1.16h2.45V435.69z
			 M280.26,438.21c0,0.29,0.11,0.51,0.33,0.66c0.22,0.15,0.51,0.23,0.87,0.23s0.65-0.08,0.87-0.23s0.33-0.37,0.33-0.66
			s-0.11-0.51-0.33-0.66c-0.22-0.15-0.51-0.23-0.87-0.23s-0.65,0.08-0.87,0.23C280.37,437.7,280.26,437.92,280.26,438.21z
			 M288.29,439.04h-1.38v5.24h-1.58v-11.05h1.58v4.5h1.38V439.04z"/>
		<path fill="#999999" d="M299.17,438.2v1.14h-10.01v-1.14H299.17z M291.88,443.12h6.41v1.07h-7.98v-2.68h6.11v-0.55h-6.12v-1.07
			h7.69v2.63h-6.11V443.12z M296.39,434.49h-6v-1.07h7.56v2.6h-5.98v0.58h6.17v1.07h-7.73v-2.65h5.98V434.49z"/>
		<path fill="#999999" d="M312.94,441.71V443h-10.01v-1.28h4.2v-2.24h-3.14v-5.42h7.86v5.42h-3.13v2.24H312.94z M305.53,438.22h4.76
			v-2.93h-4.76V438.22z"/>
		<path fill="#999999" d="M318.7,439.37c-0.46-0.19-0.86-0.45-1.18-0.77c-0.32-0.32-0.58-0.68-0.77-1.09
			c-0.21,0.47-0.48,0.89-0.82,1.27c-0.34,0.37-0.77,0.67-1.28,0.89l-0.84-1.24c0.38-0.17,0.71-0.38,0.98-0.62
			c0.27-0.25,0.49-0.52,0.67-0.82c0.17-0.3,0.3-0.6,0.38-0.92c0.08-0.32,0.12-0.64,0.12-0.95v-1.28l1.25,0.01h0.28v1.27
			c0,0.3,0.04,0.61,0.11,0.91s0.2,0.58,0.36,0.85s0.38,0.51,0.64,0.73c0.26,0.22,0.57,0.41,0.94,0.56L318.7,439.37z M315.78,440.43
			h7.6v3.86h-1.57v-2.62h-6.02V440.43z M323.38,433.23v6.71h-1.49v-2.75h-0.88v2.69h-1.46v-6.48h1.46v2.52h0.88v-2.69H323.38z"/>
		<path fill="#999999" d="M328.98,434.86h2.4v1.26h-6.43v-1.26h2.45v-1.44h1.58V434.86z M328.19,436.75c0.4,0,0.77,0.06,1.11,0.19
			s0.63,0.31,0.88,0.55c0.25,0.24,0.44,0.51,0.58,0.83c0.14,0.32,0.21,0.67,0.21,1.06c0,0.39-0.07,0.75-0.21,1.07
			s-0.33,0.6-0.58,0.84c-0.25,0.24-0.54,0.42-0.88,0.55s-0.71,0.19-1.11,0.19c-0.4,0-0.77-0.06-1.11-0.19s-0.64-0.31-0.89-0.55
			s-0.45-0.52-0.59-0.84s-0.21-0.68-0.21-1.07c0-0.38,0.07-0.74,0.21-1.06c0.14-0.32,0.34-0.6,0.59-0.83
			c0.25-0.24,0.55-0.42,0.89-0.55S327.79,436.75,328.19,436.75z M328.21,440.73c0.37,0,0.68-0.12,0.92-0.35s0.36-0.57,0.36-1
			c0-0.42-0.12-0.74-0.36-0.98c-0.24-0.24-0.55-0.36-0.92-0.36c-0.37,0-0.68,0.12-0.93,0.36c-0.24,0.24-0.36,0.57-0.36,1
			c0,0.42,0.12,0.75,0.36,0.99C327.52,440.61,327.83,440.73,328.21,440.73z M335.27,438.86h-1.58v5.42h-1.58v-11.05h1.58v4.32h1.58
			V438.86z"/>
		<path fill="#999999" d="M346.06,438.61v1.27h-10.01v-1.27H346.06z M338.78,442.78h6.24v1.27h-7.85v-3.3h1.61V442.78z
			 M344.95,437.48h-7.67v-3.85h1.58v2.59h6.08V437.48z"/>
	</g>
	<g enable-background="new    ">
		<path fill="#999999" d="M199.93,457.54c-0.62-0.16-1.15-0.4-1.57-0.73c-0.42-0.33-0.76-0.71-1.02-1.14
			c-0.24,0.5-0.58,0.94-1.01,1.32s-0.97,0.66-1.61,0.84l-0.76-1.24c0.44-0.12,0.82-0.28,1.14-0.49c0.32-0.21,0.58-0.44,0.79-0.71
			c0.21-0.26,0.36-0.55,0.46-0.85c0.1-0.3,0.15-0.61,0.16-0.92h-2.16v-1.24h2.16v-1.19h1.58v1.19h2.18v1.24h-2.18
			c0.01,0.28,0.06,0.56,0.16,0.83c0.1,0.27,0.25,0.53,0.46,0.77s0.47,0.46,0.79,0.65c0.32,0.19,0.7,0.34,1.14,0.46L199.93,457.54z
			 M199.12,458.09c0.58,0,1.09,0.05,1.55,0.14c0.46,0.1,0.85,0.23,1.18,0.41c0.32,0.18,0.57,0.4,0.74,0.66
			c0.17,0.26,0.26,0.55,0.26,0.88s-0.09,0.62-0.26,0.88c-0.17,0.26-0.42,0.48-0.74,0.66c-0.32,0.18-0.72,0.32-1.18,0.41
			c-0.46,0.09-0.98,0.14-1.55,0.14s-1.1-0.05-1.56-0.14c-0.46-0.09-0.86-0.23-1.18-0.41c-0.32-0.18-0.57-0.4-0.74-0.66
			c-0.17-0.26-0.26-0.55-0.26-0.88s0.09-0.62,0.26-0.88c0.17-0.26,0.42-0.48,0.74-0.66c0.32-0.18,0.72-0.32,1.18-0.41
			C198.03,458.14,198.55,458.09,199.12,458.09z M199.12,461.07c0.71,0,1.25-0.07,1.61-0.21c0.36-0.14,0.55-0.36,0.55-0.67
			c0-0.3-0.18-0.53-0.55-0.67c-0.36-0.14-0.9-0.21-1.61-0.21c-1.45,0-2.17,0.29-2.17,0.88S197.67,461.07,199.12,461.07z
			 M204.2,453.82v1.3h-1.46v2.77h-1.58v-6.66h1.58v2.59H204.2z"/>
		<path fill="#999999" d="M205.12,458.78c0.49,0,1.02,0,1.58-0.01c0.57,0,1.16-0.02,1.76-0.04c0.61-0.02,1.22-0.06,1.84-0.11
			c0.62-0.05,1.22-0.12,1.8-0.2l0.1,1.14c-0.59,0.12-1.19,0.21-1.81,0.28c-0.61,0.07-1.21,0.12-1.81,0.15
			c-0.59,0.03-1.16,0.05-1.72,0.06c-0.55,0.01-1.07,0.01-1.55,0.01L205.12,458.78z M208.63,451.96c0.43,0,0.83,0.07,1.21,0.2
			s0.69,0.32,0.97,0.56c0.27,0.24,0.49,0.53,0.64,0.86c0.16,0.34,0.23,0.7,0.23,1.09c0,0.4-0.08,0.77-0.23,1.1
			c-0.16,0.33-0.37,0.62-0.64,0.86c-0.27,0.24-0.59,0.43-0.97,0.56s-0.77,0.2-1.21,0.2c-0.43,0-0.83-0.07-1.21-0.2
			c-0.37-0.14-0.69-0.32-0.96-0.56c-0.27-0.24-0.48-0.53-0.64-0.86c-0.16-0.33-0.23-0.7-0.23-1.1c0-0.39,0.08-0.76,0.23-1.09
			c0.16-0.34,0.37-0.62,0.64-0.86c0.27-0.24,0.59-0.43,0.96-0.56C207.79,452.03,208.19,451.96,208.63,451.96z M208.62,453.32
			c-0.43,0-0.79,0.12-1.08,0.36c-0.29,0.24-0.43,0.58-0.43,1.01c0,0.43,0.14,0.77,0.43,1.01c0.28,0.24,0.64,0.36,1.08,0.36
			c0.43,0,0.79-0.12,1.08-0.36c0.29-0.24,0.43-0.58,0.43-1.01c0-0.43-0.14-0.77-0.43-1.01
			C209.41,453.44,209.05,453.32,208.62,453.32z M214.29,451.22v11.09h-1.58v-11.09H214.29z"/>
		<path fill="#999999" d="M221.99,457.51c-0.61-0.2-1.12-0.49-1.53-0.86c-0.41-0.38-0.74-0.81-0.97-1.31
			c-0.25,0.54-0.58,1.03-1.02,1.45c-0.43,0.42-0.97,0.73-1.62,0.94l-0.8-1.25c0.44-0.15,0.82-0.35,1.15-0.59
			c0.33-0.24,0.6-0.51,0.81-0.81s0.37-0.62,0.47-0.95s0.16-0.68,0.17-1.02h-2.17v-1.26h5.94v1.26h-2.16
			c0.01,0.31,0.06,0.63,0.16,0.94c0.1,0.32,0.25,0.62,0.46,0.9s0.46,0.54,0.77,0.77c0.31,0.23,0.68,0.41,1.1,0.56L221.99,457.51z
			 M217.82,458.3h7.54v4h-1.58v-2.74h-5.95V458.3z M225.35,451.24v6.56h-1.58v-2.66h-1.63v-1.27h1.63v-2.63H225.35z"/>
		<path fill="#999999" d="M233.32,454.75c0,0.4-0.08,0.77-0.23,1.12c-0.15,0.34-0.36,0.64-0.64,0.89s-0.59,0.44-0.95,0.58
			c-0.36,0.14-0.76,0.21-1.18,0.21c-0.42,0-0.82-0.07-1.19-0.21c-0.37-0.14-0.69-0.33-0.95-0.58s-0.48-0.54-0.64-0.89
			c-0.16-0.34-0.23-0.72-0.23-1.12c0-0.41,0.08-0.78,0.23-1.13c0.16-0.34,0.37-0.64,0.64-0.89s0.59-0.44,0.95-0.58
			c0.37-0.14,0.76-0.21,1.19-0.21c0.42,0,0.82,0.07,1.18,0.21c0.36,0.14,0.68,0.33,0.95,0.58s0.48,0.54,0.64,0.89
			C233.25,453.96,233.32,454.34,233.32,454.75z M228.86,454.75c0,0.45,0.14,0.8,0.43,1.05c0.28,0.25,0.63,0.38,1.04,0.38
			c0.42,0,0.76-0.13,1.04-0.38c0.28-0.25,0.41-0.6,0.41-1.05c0-0.46-0.14-0.81-0.41-1.06c-0.28-0.25-0.62-0.38-1.04-0.38
			c-0.41,0-0.75,0.13-1.04,0.38C229,453.94,228.86,454.29,228.86,454.75z M236.61,460.83v1.26h-7.63v-3.7h1.58v2.44H236.61z
			 M236.35,459.17h-1.61v-7.93h1.61V459.17z"/>
		<path fill="#999999" d="M247.09,454.75c0,0.4-0.08,0.77-0.23,1.12c-0.15,0.34-0.36,0.64-0.64,0.89s-0.59,0.44-0.95,0.58
			c-0.36,0.14-0.76,0.21-1.18,0.21c-0.42,0-0.82-0.07-1.19-0.21c-0.37-0.14-0.69-0.33-0.95-0.58s-0.48-0.54-0.64-0.89
			c-0.16-0.34-0.23-0.72-0.23-1.12c0-0.41,0.08-0.78,0.23-1.13c0.16-0.34,0.37-0.64,0.64-0.89s0.59-0.44,0.95-0.58
			c0.37-0.14,0.76-0.21,1.19-0.21c0.42,0,0.82,0.07,1.18,0.21c0.36,0.14,0.68,0.33,0.95,0.58s0.48,0.54,0.64,0.89
			C247.01,453.96,247.09,454.34,247.09,454.75z M242.62,454.75c0,0.45,0.14,0.8,0.43,1.05c0.28,0.25,0.63,0.38,1.04,0.38
			c0.42,0,0.76-0.13,1.04-0.38c0.28-0.25,0.41-0.6,0.41-1.05c0-0.46-0.14-0.81-0.41-1.06c-0.28-0.25-0.62-0.38-1.04-0.38
			c-0.41,0-0.75,0.13-1.04,0.38C242.76,453.94,242.62,454.29,242.62,454.75z M250.37,460.83v1.26h-7.63v-3.7h1.58v2.44H250.37z
			 M250.11,459.17h-1.61v-7.93h1.61V459.17z"/>
		<path fill="#999999" d="M261.51,451.22v11.05h-1.49v-5.52h-0.91v5.03h-1.46v-3.2l-0.89,1.19c-0.5-0.26-0.91-0.61-1.23-1.04
			c-0.33-0.43-0.59-0.92-0.79-1.48c-0.18,0.64-0.44,1.21-0.76,1.72s-0.75,0.91-1.27,1.21l-0.95-1.2c0.41-0.24,0.75-0.54,1.03-0.89
			c0.28-0.36,0.5-0.75,0.67-1.19c0.17-0.44,0.29-0.91,0.36-1.41c0.07-0.5,0.11-1.02,0.11-1.55v-0.3h-1.81v-1.28h4.99v1.28h-1.66v0.3
			c0,0.48,0.04,0.95,0.11,1.42c0.08,0.46,0.2,0.9,0.37,1.3c0.17,0.4,0.39,0.77,0.68,1.09c0.28,0.32,0.63,0.59,1.04,0.81v-7.15h1.46
			v4.06h0.91v-4.24H261.51z"/>
	</g>
	<g enable-background="new    ">
		<path fill="#999999" d="M470.99,439.67h-5.22v-5.71h1.57v1.68h2.1v-1.68h1.55v1.1h1.97v-1.84h1.58v8.16h-1.58v-2.69h-1.97V439.67z
			 M474.79,442.83v1.26h-7.54v-3.49h1.58v2.23H474.79z M469.45,436.85h-2.1v1.56h2.1V436.85z M470.99,436.34v1.1h1.97v-1.1H470.99z"
			/>
		<path fill="#999999" d="M480.49,441.08c0.43-0.02,0.86-0.05,1.27-0.08s0.82-0.08,1.22-0.14l0.12,1.14
			c-0.58,0.11-1.17,0.2-1.76,0.26c-0.59,0.06-1.17,0.11-1.75,0.14c-0.57,0.03-1.13,0.04-1.67,0.05s-1.04,0.01-1.51,0.01l-0.19-1.28
			c0.4,0,0.82,0,1.27,0c0.45,0,0.92-0.01,1.4-0.02v-0.94c-0.58-0.11-1.04-0.35-1.39-0.7c-0.35-0.36-0.52-0.79-0.52-1.29
			c0-0.31,0.07-0.6,0.2-0.85s0.32-0.48,0.56-0.66c0.24-0.18,0.52-0.33,0.85-0.43c0.33-0.1,0.69-0.15,1.09-0.15
			c0.39,0,0.75,0.05,1.08,0.15c0.33,0.1,0.62,0.24,0.86,0.43c0.24,0.18,0.42,0.4,0.56,0.66c0.13,0.26,0.2,0.54,0.2,0.85
			c0,0.5-0.17,0.93-0.52,1.29c-0.35,0.36-0.81,0.59-1.38,0.7V441.08z M482.93,435.69h-6.5v-1.25h2.47v-1.16h1.58v1.16h2.45V435.69z
			 M478.48,438.21c0,0.29,0.11,0.51,0.33,0.66c0.22,0.15,0.51,0.23,0.87,0.23c0.36,0,0.65-0.08,0.88-0.23
			c0.22-0.15,0.33-0.37,0.33-0.66s-0.11-0.51-0.33-0.66c-0.22-0.15-0.51-0.23-0.88-0.23c-0.36,0-0.65,0.08-0.87,0.23
			C478.59,437.7,478.48,437.92,478.48,438.21z M486.51,439.04h-1.38v5.24h-1.58v-11.05h1.58v4.5h1.38V439.04z"/>
		<path fill="#999999" d="M491.44,440.73c0.43-0.02,0.86-0.04,1.27-0.08s0.83-0.08,1.24-0.13l0.13,1.14
			c-0.58,0.11-1.16,0.2-1.75,0.25s-1.17,0.1-1.73,0.13c-0.57,0.03-1.12,0.04-1.65,0.04c-0.53,0-1.03,0-1.49,0l-0.19-1.28
			c0.39,0,0.81,0,1.25,0c0.44,0,0.89,0,1.36-0.01v-1.56c-0.33-0.07-0.63-0.19-0.9-0.34c-0.27-0.16-0.51-0.35-0.71-0.58
			c-0.2-0.23-0.35-0.49-0.46-0.78s-0.16-0.61-0.16-0.94c0-0.39,0.08-0.76,0.23-1.09s0.36-0.62,0.63-0.86s0.58-0.43,0.95-0.56
			c0.37-0.14,0.76-0.2,1.19-0.2c0.43,0,0.83,0.07,1.19,0.2c0.36,0.14,0.68,0.32,0.95,0.56s0.48,0.53,0.63,0.86s0.23,0.7,0.23,1.09
			c0,0.34-0.05,0.65-0.16,0.94s-0.26,0.55-0.45,0.77c-0.2,0.23-0.43,0.42-0.7,0.58s-0.57,0.27-0.88,0.34V440.73z M489.16,436.59
			c0,0.43,0.14,0.77,0.42,1.01c0.28,0.24,0.63,0.37,1.05,0.37s0.78-0.12,1.06-0.37c0.28-0.24,0.42-0.58,0.42-1.01
			c0-0.43-0.14-0.77-0.42-1.01s-0.63-0.36-1.06-0.36s-0.78,0.12-1.05,0.36C489.3,435.82,489.16,436.16,489.16,436.59z
			 M497.56,438.87h-1.45v5.4h-1.58v-11.05h1.58v4.34h1.45V438.87z"/>
		<path fill="#999999" d="M507.25,435.41h-6.06v-1.24h2.32v-1.03h1.58v1.03h2.16V435.41z M506.87,437.91c0,0.3-0.07,0.59-0.2,0.85
			s-0.31,0.48-0.54,0.67c-0.23,0.19-0.5,0.33-0.82,0.44c-0.32,0.1-0.66,0.16-1.03,0.16c-0.37,0-0.71-0.05-1.03-0.16
			c-0.32-0.1-0.59-0.25-0.82-0.44c-0.23-0.19-0.41-0.41-0.55-0.67s-0.2-0.54-0.2-0.85s0.07-0.59,0.2-0.85
			c0.13-0.26,0.31-0.48,0.55-0.67c0.23-0.19,0.51-0.33,0.82-0.44c0.32-0.1,0.66-0.16,1.03-0.16c0.37,0,0.71,0.05,1.03,0.16
			c0.32,0.1,0.59,0.25,0.82,0.44c0.23,0.19,0.41,0.41,0.54,0.67C506.81,437.32,506.87,437.61,506.87,437.91z M502.87,440.75h7.52
			v3.54h-1.58v-2.28h-5.94V440.75z M503.17,437.91c0,0.29,0.1,0.51,0.31,0.68c0.21,0.16,0.48,0.25,0.81,0.25
			c0.32,0,0.59-0.08,0.8-0.25s0.32-0.39,0.32-0.68s-0.11-0.51-0.32-0.67s-0.48-0.24-0.8-0.24c-0.33,0-0.6,0.08-0.81,0.24
			C503.27,437.4,503.17,437.62,503.17,437.91z M510.39,433.23v7.03h-1.58v-1.18h-1.45v-1.26h1.45v-0.86h-1.42v-1.26h1.42v-2.47
			H510.39z"/>
		<path fill="#999999" d="M518.16,439.63c-0.62-0.21-1.14-0.51-1.56-0.9c-0.42-0.39-0.75-0.85-0.99-1.37
			c-0.26,0.56-0.6,1.05-1.03,1.48c-0.43,0.43-0.97,0.75-1.62,0.98l-0.8-1.26c0.46-0.15,0.85-0.36,1.18-0.62
			c0.33-0.26,0.61-0.56,0.82-0.88c0.22-0.32,0.37-0.67,0.47-1.03c0.1-0.36,0.15-0.73,0.15-1.1v-1.08h1.61v1.08
			c0,0.36,0.05,0.72,0.15,1.07c0.1,0.35,0.25,0.68,0.46,0.98c0.21,0.3,0.47,0.58,0.8,0.82s0.71,0.43,1.16,0.58L518.16,439.63z
			 M521.65,442.83v1.26h-7.63v-3.56h1.58v2.3H521.65z M521.38,441.29h-1.61v-8.05h1.61V441.29z"/>
		<path fill="#999999" d="M533.21,437.68v1.24h-9.98v-1.24H533.21z M528.22,437.15c-1.26,0-2.25-0.16-2.95-0.48
			c-0.7-0.32-1.05-0.79-1.05-1.4c0-0.61,0.35-1.07,1.05-1.4s1.68-0.49,2.95-0.49c1.27,0,2.26,0.16,2.96,0.49s1.05,0.79,1.05,1.4
			c0,0.62-0.35,1.08-1.05,1.4C530.48,436.99,529.49,437.15,528.22,437.15z M525.95,443.01h6.34v1.19h-7.91v-2.9h6.06v-0.59h-6.07
			v-1.16H532v2.84h-6.05V443.01z M528.22,434.55c-0.8,0-1.39,0.06-1.78,0.17c-0.38,0.12-0.58,0.3-0.58,0.55
			c0,0.26,0.19,0.44,0.58,0.56c0.38,0.12,0.98,0.17,1.78,0.17c0.81,0,1.4-0.06,1.79-0.17s0.58-0.3,0.58-0.56
			c0-0.25-0.19-0.43-0.58-0.55C529.63,434.61,529.03,434.55,528.22,434.55z"/>
		<path fill="#999999" d="M546.99,440.6h-4.24v3.71h-1.58v-3.71H537v-1.26h9.98V440.6z M537.47,437.47
			c0.56-0.07,1.06-0.19,1.49-0.35c0.43-0.16,0.8-0.35,1.09-0.56c0.3-0.22,0.53-0.45,0.7-0.71s0.27-0.52,0.31-0.79h-3.18v-1.26h8.2
			v1.26h-3.13c0.04,0.26,0.14,0.53,0.31,0.79s0.39,0.5,0.69,0.71s0.66,0.4,1.09,0.56s0.92,0.28,1.48,0.35l-0.56,1.24
			c-0.97-0.14-1.78-0.4-2.45-0.79s-1.16-0.87-1.5-1.43c-0.34,0.57-0.84,1.05-1.5,1.43s-1.48,0.65-2.45,0.79L537.47,437.47z"/>
		<path fill="#999999" d="M558.04,441.74v1.3h-10.01v-1.3h4.2v-2.3h-3.04v-5.45h7.7v1.27h-6.1v2.9h6.17v1.27h-3.16v2.3H558.04z"/>
		<path fill="#999999" d="M563.04,434.86h2.4v1.26h-6.43v-1.26h2.45v-1.44h1.58V434.86z M562.26,436.75c0.4,0,0.77,0.06,1.11,0.19
			c0.34,0.13,0.63,0.31,0.88,0.55c0.25,0.24,0.44,0.51,0.58,0.83c0.14,0.32,0.21,0.67,0.21,1.06c0,0.39-0.07,0.75-0.21,1.07
			s-0.33,0.6-0.58,0.84s-0.54,0.42-0.88,0.55c-0.34,0.13-0.71,0.19-1.11,0.19c-0.4,0-0.77-0.06-1.11-0.19
			c-0.34-0.13-0.64-0.31-0.89-0.55c-0.25-0.24-0.45-0.52-0.59-0.84s-0.21-0.68-0.21-1.07c0-0.38,0.07-0.74,0.21-1.06
			c0.14-0.32,0.33-0.6,0.59-0.83c0.25-0.24,0.55-0.42,0.89-0.55C561.49,436.81,561.86,436.75,562.26,436.75z M562.27,440.73
			c0.37,0,0.68-0.12,0.92-0.35c0.24-0.24,0.36-0.57,0.36-1c0-0.42-0.12-0.74-0.36-0.98c-0.24-0.24-0.55-0.36-0.92-0.36
			s-0.68,0.12-0.93,0.36c-0.24,0.24-0.36,0.57-0.36,1c0,0.42,0.12,0.75,0.36,0.99S561.9,440.73,562.27,440.73z M569.33,438.86h-1.58
			v5.42h-1.58v-11.05h1.58v4.32h1.58V438.86z"/>
		<path fill="#999999" d="M580.12,441.68v1.27h-10v-1.27h3.53v-3.8h1.58v3.8H580.12z M577.13,440.35c0.21-1.04,0.33-1.96,0.38-2.75
			s0.07-1.51,0.07-2.15h-6.44v-1.26h8.03v1.06c0,0.34,0,0.7-0.01,1.08s-0.02,0.78-0.05,1.21c-0.03,0.43-0.07,0.89-0.13,1.39
			c-0.06,0.5-0.15,1.04-0.26,1.62L577.13,440.35z"/>
		<path fill="#999999" d="M589.9,438.68c-0.63-0.18-1.16-0.46-1.59-0.83c-0.43-0.37-0.77-0.79-1.01-1.27
			c-0.26,0.53-0.61,0.99-1.06,1.39c-0.45,0.4-1,0.69-1.64,0.89l-0.77-1.24c0.46-0.14,0.85-0.33,1.18-0.56
			c0.33-0.23,0.61-0.5,0.82-0.79c0.22-0.3,0.38-0.61,0.48-0.94c0.1-0.33,0.16-0.67,0.16-1v-0.83h1.61v0.83
			c0,0.33,0.05,0.65,0.15,0.97c0.1,0.32,0.26,0.61,0.47,0.89c0.21,0.28,0.48,0.52,0.8,0.74s0.71,0.39,1.16,0.52L589.9,438.68z
			 M593.33,442.97v1.22h-7.63v-3.04h5.78v-0.65h-5.8v-1.21h7.37v2.99h-5.78v0.68H593.33z M593.04,438.81h-1.58v-5.57h1.58V438.81z"
			/>
		<path fill="#999999" d="M599.34,440.31c0.14-0.02,0.27-0.03,0.4-0.04c0.13-0.01,0.25-0.03,0.37-0.04l0.12,1.15
			c-0.42,0.09-0.87,0.16-1.34,0.21c-0.47,0.05-0.94,0.09-1.41,0.12c-0.47,0.03-0.92,0.05-1.35,0.05c-0.43,0.01-0.82,0.01-1.15,0.01
			l-0.17-1.28h0.88v-4.75H595v-1.27h5.04v1.27h-0.7V440.31z M597.1,440.45c0.14-0.01,0.27-0.01,0.41-0.02
			c0.14,0,0.28-0.01,0.41-0.02v-4.68h-0.83V440.45z M604.38,433.23v11.06h-1.49v-5.54h-0.85v5.02h-1.46v-10.33h1.46v4.03h0.85v-4.24
			H604.38z"/>
		<path fill="#999999" d="M615.96,438.2v1.14h-10.01v-1.14H615.96z M608.67,443.12h6.41v1.07h-7.98v-2.68h6.11v-0.55h-6.12v-1.07
			h7.69v2.63h-6.11V443.12z M613.18,434.49h-6v-1.07h7.56v2.6h-5.98v0.58h6.17v1.07h-7.73v-2.65h5.98V434.49z"/>
		<path fill="#999999" d="M629.73,440.77h-4.25v3.5h-1.58v-3.5h-4.19v-1.28h10.02V440.77z M628.56,438.4h-7.58v-4.58h7.46v1.26
			h-5.86v2.06h5.98V438.4z"/>
		<path fill="#999999" d="M632.71,440.54c0.67-0.01,1.32-0.03,1.93-0.07s1.27-0.11,1.97-0.21l0.12,1.3
			c-0.41,0.06-0.8,0.11-1.19,0.15s-0.77,0.06-1.15,0.08c-0.38,0.02-0.76,0.03-1.15,0.04c-0.39,0.01-0.79,0.01-1.21,0.01h-0.89v-4.67
			h3.35v-1.76h-3.37v-1.26h4.93v4.27h-3.35V440.54z M640.02,433.22v11.09h-1.61v-4.46h-1.84v-1.27h1.84v-1.73h-1.81v-1.27h1.81
			v-2.35H640.02z"/>
		<path fill="#999999" d="M648.96,439.66c-0.49,0.09-0.97,0.16-1.46,0.21s-0.97,0.1-1.45,0.14v3.95h-1.58v-3.86
			c-0.46,0.02-0.9,0.03-1.32,0.03c-0.42,0-0.83,0.01-1.21,0.01l-0.18-1.28c0.51,0,1.06,0,1.64-0.01s1.18-0.02,1.79-0.04
			c0.61-0.02,1.23-0.06,1.85-0.1s1.23-0.11,1.82-0.19L648.96,439.66z M645.34,438.22c-0.41,0-0.78-0.06-1.13-0.17
			c-0.34-0.11-0.64-0.27-0.89-0.46c-0.25-0.2-0.44-0.43-0.58-0.71c-0.14-0.28-0.21-0.59-0.21-0.92s0.07-0.64,0.21-0.92
			c0.14-0.28,0.33-0.51,0.58-0.71s0.54-0.36,0.89-0.47c0.34-0.11,0.72-0.17,1.13-0.17s0.78,0.06,1.12,0.17
			c0.34,0.11,0.63,0.27,0.88,0.47s0.44,0.44,0.58,0.71c0.14,0.28,0.21,0.58,0.21,0.92s-0.07,0.64-0.21,0.92s-0.33,0.52-0.58,0.71
			c-0.25,0.2-0.54,0.35-0.88,0.46C646.12,438.17,645.75,438.22,645.34,438.22z M645.33,434.89c-0.39,0-0.72,0.09-0.96,0.28
			c-0.25,0.19-0.37,0.45-0.37,0.79c0,0.34,0.12,0.61,0.37,0.79s0.57,0.28,0.96,0.28s0.71-0.09,0.95-0.28s0.36-0.45,0.36-0.79
			c0-0.34-0.12-0.6-0.36-0.79C646.05,434.98,645.73,434.89,645.33,434.89z M651.16,433.23v11.04h-1.58v-2.41h-2.22v-1.2h2.22v-7.43
			H651.16z"/>
		<path fill="#999999" d="M656.81,434.86h2.4v1.26h-6.43v-1.26h2.45v-1.44h1.58V434.86z M656.03,436.75c0.4,0,0.77,0.06,1.11,0.19
			c0.34,0.13,0.63,0.31,0.88,0.55c0.25,0.24,0.44,0.51,0.58,0.83c0.14,0.32,0.21,0.67,0.21,1.06c0,0.39-0.07,0.75-0.21,1.07
			s-0.33,0.6-0.58,0.84s-0.54,0.42-0.88,0.55c-0.34,0.13-0.71,0.19-1.11,0.19c-0.4,0-0.77-0.06-1.11-0.19
			c-0.34-0.13-0.64-0.31-0.89-0.55c-0.25-0.24-0.45-0.52-0.59-0.84s-0.21-0.68-0.21-1.07c0-0.38,0.07-0.74,0.21-1.06
			c0.14-0.32,0.33-0.6,0.59-0.83c0.25-0.24,0.55-0.42,0.89-0.55C655.26,436.81,655.63,436.75,656.03,436.75z M656.04,440.73
			c0.37,0,0.68-0.12,0.92-0.35c0.24-0.24,0.36-0.57,0.36-1c0-0.42-0.12-0.74-0.36-0.98c-0.24-0.24-0.55-0.36-0.92-0.36
			s-0.68,0.12-0.93,0.36c-0.24,0.24-0.36,0.57-0.36,1c0,0.42,0.12,0.75,0.36,0.99S655.67,440.73,656.04,440.73z M663.1,438.86h-1.58
			v5.42h-1.58v-11.05h1.58v4.32h1.58V438.86z"/>
		<path fill="#999999" d="M668.15,436.21c0,0.45,0.06,0.9,0.17,1.35c0.11,0.45,0.28,0.88,0.51,1.28c0.23,0.4,0.51,0.76,0.85,1.08
			s0.74,0.58,1.21,0.77l-0.86,1.25c-0.65-0.28-1.19-0.68-1.63-1.19c-0.44-0.51-0.78-1.1-1.03-1.78c-0.25,0.73-0.59,1.38-1.04,1.94
			s-0.99,1-1.64,1.3l-0.9-1.26c0.46-0.21,0.87-0.48,1.21-0.83s0.63-0.73,0.86-1.15c0.23-0.42,0.4-0.87,0.51-1.34
			c0.11-0.48,0.17-0.95,0.17-1.42v-0.61h-2.3v-1.31h6.19v1.31h-2.28V436.21z M673.04,433.23v11.05h-1.58v-11.05H673.04z"/>
		<path fill="#999999" d="M683.61,436.35c0,0.38-0.07,0.72-0.22,1.04c-0.15,0.32-0.35,0.59-0.62,0.82
			c-0.26,0.23-0.58,0.41-0.94,0.53c-0.36,0.13-0.75,0.19-1.16,0.19c-0.42,0-0.81-0.06-1.17-0.19c-0.36-0.13-0.67-0.31-0.93-0.53
			c-0.26-0.23-0.47-0.5-0.62-0.82c-0.15-0.32-0.22-0.66-0.22-1.04c0-0.38,0.07-0.72,0.22-1.04c0.15-0.32,0.35-0.59,0.62-0.82
			c0.26-0.23,0.57-0.41,0.93-0.53c0.36-0.13,0.75-0.19,1.17-0.19c0.42,0,0.8,0.06,1.16,0.19c0.36,0.13,0.67,0.31,0.94,0.53
			c0.26,0.23,0.47,0.5,0.62,0.82C683.53,435.63,683.61,435.97,683.61,436.35z M680.14,442.71c0.3-0.02,0.59-0.06,0.88-0.11
			c0.29-0.05,0.57-0.12,0.85-0.21l0.22,1.25c-0.46,0.16-0.91,0.26-1.36,0.31c-0.45,0.04-0.95,0.07-1.49,0.07h-0.61v-4.27h1.52
			V442.71z M679.25,436.35c0,0.41,0.13,0.72,0.4,0.95c0.27,0.22,0.61,0.34,1.01,0.34s0.75-0.11,1.01-0.34
			c0.27-0.22,0.4-0.54,0.4-0.95c0-0.41-0.13-0.73-0.4-0.95c-0.27-0.23-0.61-0.34-1.01-0.34s-0.75,0.11-1.01,0.34
			C679.39,435.62,679.25,435.94,679.25,436.35z M685.25,439.77h1.98v1.14h-5.53v-1.14h2.02v-0.78h1.54V439.77z M684.46,441.19
			c0.63,0,1.15,0.14,1.54,0.41c0.4,0.28,0.59,0.65,0.59,1.13c0,0.24-0.05,0.46-0.16,0.65c-0.1,0.19-0.25,0.36-0.44,0.49
			c-0.19,0.14-0.41,0.24-0.68,0.31c-0.26,0.07-0.55,0.11-0.86,0.11c-0.31,0-0.6-0.04-0.86-0.11c-0.26-0.07-0.49-0.18-0.68-0.31
			c-0.19-0.14-0.33-0.3-0.44-0.49c-0.1-0.19-0.16-0.41-0.16-0.65c0-0.48,0.2-0.86,0.59-1.13
			C683.31,441.32,683.83,441.19,684.46,441.19z M684.46,443.23c0.22,0,0.39-0.04,0.53-0.12c0.14-0.08,0.2-0.2,0.2-0.37
			c0-0.16-0.07-0.28-0.2-0.36c-0.14-0.08-0.31-0.12-0.53-0.12c-0.21,0-0.38,0.04-0.52,0.12s-0.21,0.2-0.21,0.36
			c0,0.17,0.07,0.29,0.21,0.37S684.25,443.23,684.46,443.23z M687.81,435.51v1.31h-1.46v1.86h-1.58v-5.45h1.58v2.28H687.81z"/>
		<path fill="#999999" d="M698.69,438.61v1.27h-10.01v-1.27H698.69z M691.42,442.78h6.24v1.27h-7.85v-3.3h1.61V442.78z
			 M697.59,437.48h-7.67v-3.85h1.58v2.59h6.08V437.48z"/>
	</g>
	<g enable-background="new    ">
		<path fill="#999999" d="M570.44,459.74v1.3h-10.01v-1.3h4.2v-2.3h-3.04v-5.45h7.7v1.27h-6.1v2.9h6.17v1.27h-3.16v2.3H570.44z"/>
		<path fill="#999999" d="M577.36,457.87c-0.61-0.2-1.12-0.49-1.53-0.86s-0.73-0.82-0.96-1.32c-0.25,0.55-0.59,1.04-1.03,1.45
			c-0.44,0.42-0.98,0.73-1.63,0.95l-0.79-1.26c0.46-0.14,0.85-0.34,1.18-0.59s0.6-0.52,0.81-0.83s0.37-0.63,0.47-0.97
			c0.1-0.34,0.15-0.69,0.15-1.04v-0.16h-2.17v-1.26h5.94v1.26h-2.16v0.14c0,0.33,0.05,0.65,0.14,0.98c0.1,0.32,0.25,0.63,0.45,0.92
			c0.2,0.29,0.46,0.55,0.78,0.79c0.32,0.24,0.69,0.43,1.12,0.57L577.36,457.87z M580.97,460.83v1.26h-7.54v-3.47h1.58v2.21H580.97z
			 M579.13,454.09v-2.86h1.58v8.06h-1.58v-3.92h-1.73v-1.28H579.13z"/>
		<path fill="#999999" d="M588.4,457.51c-0.6-0.2-1.11-0.49-1.52-0.86c-0.42-0.37-0.74-0.8-0.98-1.29
			c-0.24,0.56-0.58,1.05-1.01,1.48c-0.44,0.43-0.98,0.75-1.62,0.97l-0.8-1.25c0.44-0.15,0.82-0.35,1.14-0.59
			c0.32-0.24,0.59-0.52,0.8-0.82c0.21-0.3,0.37-0.62,0.48-0.96c0.11-0.34,0.17-0.68,0.19-1.03h-2.17v-1.27h5.94v1.27h-2.16
			c0.01,0.31,0.06,0.62,0.17,0.94c0.1,0.31,0.26,0.61,0.46,0.88c0.2,0.28,0.46,0.53,0.77,0.75c0.31,0.22,0.67,0.4,1.1,0.54
			L588.4,457.51z M588.02,458.05c0.58,0,1.11,0.05,1.58,0.14c0.47,0.1,0.86,0.23,1.19,0.41c0.32,0.18,0.57,0.4,0.75,0.67
			c0.18,0.26,0.26,0.56,0.26,0.9s-0.09,0.64-0.26,0.9c-0.18,0.26-0.43,0.49-0.75,0.67c-0.32,0.18-0.72,0.32-1.19,0.41
			c-0.47,0.1-0.99,0.14-1.58,0.14c-0.59,0-1.12-0.05-1.59-0.14c-0.47-0.1-0.86-0.23-1.19-0.41c-0.32-0.18-0.57-0.4-0.75-0.67
			c-0.18-0.26-0.26-0.56-0.26-0.9s0.09-0.64,0.26-0.9c0.18-0.26,0.43-0.49,0.75-0.67c0.32-0.18,0.72-0.32,1.19-0.41
			C586.9,458.09,587.43,458.05,588.02,458.05z M588.02,461.09c0.73,0,1.28-0.08,1.64-0.23c0.37-0.15,0.55-0.38,0.55-0.7
			c0-0.31-0.18-0.54-0.55-0.7c-0.37-0.15-0.92-0.23-1.64-0.23c-1.47,0-2.21,0.31-2.21,0.92S586.55,461.09,588.02,461.09z
			 M590.17,453.89v-2.66h1.58v6.58h-1.58v-2.63h-1.66v-1.28H590.17z"/>
		<path fill="#999999" d="M599.53,457.63c-0.62-0.21-1.14-0.51-1.56-0.9c-0.42-0.39-0.75-0.85-0.99-1.37
			c-0.26,0.56-0.6,1.05-1.03,1.48s-0.97,0.75-1.62,0.98l-0.8-1.26c0.46-0.15,0.85-0.36,1.18-0.62c0.33-0.26,0.61-0.56,0.82-0.88
			s0.37-0.67,0.47-1.03c0.1-0.36,0.15-0.73,0.15-1.1v-1.08h1.61v1.08c0,0.36,0.05,0.72,0.15,1.07c0.1,0.35,0.25,0.68,0.46,0.98
			c0.21,0.3,0.48,0.58,0.8,0.82s0.71,0.43,1.16,0.58L599.53,457.63z M603.01,460.83v1.26h-7.63v-3.56h1.58v2.3H603.01z
			 M602.75,459.29h-1.61v-8.05h1.61V459.29z"/>
	</g>
	<g enable-background="new    ">
		<path fill="#1F98D5" d="M218.74,403.83c-1.25-0.32-2.3-0.81-3.14-1.46s-1.53-1.42-2.04-2.28c-0.48,1.01-1.16,1.89-2.03,2.64
			s-1.95,1.31-3.23,1.68l-1.51-2.47c0.88-0.24,1.64-0.57,2.28-0.98c0.64-0.42,1.17-0.89,1.58-1.42c0.42-0.53,0.72-1.1,0.92-1.7
			c0.2-0.61,0.31-1.22,0.32-1.85h-4.32v-2.47h4.32v-2.38h3.17v2.38h4.37v2.47h-4.37c0.02,0.56,0.12,1.11,0.32,1.66
			c0.2,0.54,0.51,1.06,0.92,1.54c0.42,0.48,0.94,0.91,1.58,1.3c0.64,0.38,1.4,0.69,2.28,0.91L218.74,403.83z M217.13,404.94
			c1.15,0,2.19,0.1,3.11,0.29c0.92,0.19,1.7,0.47,2.35,0.83c0.65,0.36,1.14,0.8,1.49,1.32c0.34,0.52,0.52,1.11,0.52,1.76
			c0,0.66-0.17,1.24-0.52,1.76c-0.34,0.52-0.84,0.96-1.49,1.32c-0.65,0.36-1.43,0.63-2.35,0.82c-0.92,0.18-1.96,0.28-3.11,0.28
			s-2.19-0.09-3.12-0.28c-0.93-0.18-1.72-0.46-2.36-0.82c-0.65-0.36-1.14-0.8-1.49-1.32c-0.34-0.52-0.52-1.11-0.52-1.76
			c0-0.66,0.17-1.24,0.52-1.76c0.34-0.52,0.84-0.96,1.49-1.32c0.65-0.36,1.44-0.64,2.36-0.83
			C214.94,405.03,215.98,404.94,217.13,404.94z M217.13,410.89c1.42,0,2.5-0.14,3.23-0.42c0.73-0.28,1.09-0.72,1.09-1.33
			c0-0.61-0.36-1.05-1.09-1.33c-0.73-0.28-1.8-0.42-3.23-0.42c-2.9,0-4.34,0.58-4.34,1.75
			C212.78,410.31,214.23,410.89,217.13,410.89z M227.28,396.39v2.59h-2.93v5.54h-3.17v-13.32h3.17v5.18H227.28z"/>
		<path fill="#1F98D5" d="M229.13,406.31c0.98,0,2.03,0,3.17-0.01c1.14-0.01,2.31-0.04,3.53-0.08c1.22-0.05,2.44-0.12,3.67-0.22
			c1.23-0.1,2.43-0.23,3.6-0.41l0.19,2.28c-1.18,0.24-2.39,0.43-3.61,0.56c-1.22,0.14-2.43,0.24-3.61,0.3
			c-1.18,0.06-2.33,0.1-3.43,0.12c-1.1,0.02-2.14,0.02-3.1,0.02L229.13,406.31z M236.14,392.67c0.86,0,1.67,0.14,2.41,0.41
			c0.74,0.27,1.39,0.65,1.93,1.13c0.54,0.48,0.97,1.06,1.28,1.73c0.31,0.67,0.47,1.4,0.47,2.18c0,0.8-0.16,1.53-0.47,2.2
			s-0.74,1.24-1.28,1.72c-0.54,0.48-1.19,0.86-1.93,1.13c-0.74,0.27-1.55,0.41-2.41,0.41c-0.86,0-1.67-0.14-2.41-0.41
			c-0.74-0.27-1.38-0.65-1.92-1.13c-0.54-0.48-0.96-1.05-1.27-1.72s-0.47-1.4-0.47-2.2c0-0.78,0.16-1.51,0.47-2.18
			c0.31-0.67,0.74-1.25,1.27-1.73c0.54-0.48,1.18-0.86,1.92-1.13C234.47,392.81,235.27,392.67,236.14,392.67z M236.12,395.39
			c-0.87,0-1.59,0.24-2.16,0.72c-0.57,0.48-0.86,1.15-0.86,2.02s0.29,1.54,0.86,2.02c0.57,0.48,1.29,0.72,2.16,0.72
			c0.87,0,1.59-0.24,2.16-0.72c0.57-0.48,0.86-1.15,0.86-2.02s-0.29-1.54-0.86-2.02C237.71,395.63,236.99,395.39,236.12,395.39z
			 M247.46,391.19v22.18h-3.17v-22.18H247.46z"/>
	</g>
	<g enable-background="new    ">
		<path fill="#1F98D5" d="M580.97,408.23v2.59h-20.02v-2.59h8.4v-4.61h-6.07v-10.9h15.41v2.54H566.5v5.81h12.34v2.54h-6.31v4.61
			H580.97z"/>
		<path fill="#1F98D5" d="M594.79,404.48c-1.22-0.4-2.24-0.98-3.07-1.73c-0.83-0.75-1.47-1.63-1.93-2.64
			c-0.5,1.1-1.18,2.07-2.05,2.9c-0.87,0.83-1.96,1.46-3.25,1.9l-1.58-2.52c0.91-0.29,1.7-0.68,2.35-1.18
			c0.66-0.5,1.2-1.05,1.62-1.66c0.42-0.61,0.74-1.26,0.94-1.94s0.3-1.38,0.3-2.09v-0.31h-4.34v-2.52h11.88v2.52h-4.32v0.29
			c0,0.66,0.1,1.31,0.29,1.96c0.19,0.65,0.49,1.26,0.9,1.84s0.93,1.1,1.56,1.57s1.38,0.85,2.24,1.14L594.79,404.48z M602.02,410.41
			v2.52h-15.07v-6.94h3.17v4.42H602.02z M598.34,396.92v-5.71h3.17v16.13h-3.17v-7.85h-3.46v-2.57H598.34z"/>
	</g>
	<line id="선_103" fill="none" stroke="#E7E7E7" x1="405.5" y1="554.75" x2="405.5" y2="614.75"/>
	<g id="그룹_459" transform="translate(228 494)">
		<line id="선_100" fill="none" stroke="#E7E7E7" x1="0.25" y1="0.25" x2="0.25" y2="60.25"/>
		<line id="선_101" fill="none" stroke="#E7E7E7" x1="354" y1="0.25" x2="354" y2="60.25"/>
		<line id="선_102" fill="none" stroke="#E7E7E7" x1="0" y1="60.75" x2="354" y2="60.75"/>
	</g>
	<circle id="타원_14" fill="#1F98D5" cx="228.5" cy="554.75" r="3.5"/>
	<circle id="타원_15" fill="#1F98D5" cx="405.5" cy="554.75" r="3.5"/>
	<circle id="타원_16" fill="#1F98D5" cx="582.5" cy="554.75" r="3.5"/>
</g>
</svg>
