<?xml version="1.0" encoding="utf-8"?>
<!-- Generator: Adobe Illustrator 25.1.0, SVG Export Plug-In . SVG Version: 6.00 Build 0)  -->
<svg version="1.1" id="Layer_1" xmlns="http://www.w3.org/2000/svg" xmlns:xlink="http://www.w3.org/1999/xlink" x="0px" y="0px"
	 viewBox="0 0 312 201" enable-background="new 0 0 312 201" xml:space="preserve">
<g id="그룹_470" transform="translate(-24 -238)">
	<g id="사각형_153" transform="translate(24 238)">
		<rect fill="none" width="150" height="141"/>
		<rect x="0.5" y="0.5" fill="none" stroke="#E7E7E7" width="149" height="140"/>
	</g>
	<g id="사각형_154" transform="translate(186 238)">
		<rect fill="none" width="150" height="141"/>
		<rect x="0.5" y="0.5" fill="none" stroke="#E7E7E7" width="149" height="140"/>
	</g>
	<g enable-background="new    ">
		<path fill="#1F98D5" d="M92.05,278.44c-0.94-0.24-1.72-0.61-2.36-1.1s-1.15-1.06-1.53-1.71c-0.36,0.76-0.87,1.42-1.52,1.98
			c-0.65,0.56-1.46,0.98-2.42,1.26l-1.13-1.85c0.66-0.18,1.23-0.43,1.71-0.74c0.48-0.31,0.88-0.67,1.19-1.06
			c0.31-0.4,0.54-0.82,0.69-1.28s0.23-0.92,0.24-1.39h-3.24v-1.85h3.24v-1.78h2.38v1.78h3.28v1.85H89.3
			c0.01,0.42,0.09,0.83,0.24,1.24c0.15,0.41,0.38,0.79,0.69,1.15c0.31,0.36,0.71,0.68,1.19,0.97s1.05,0.52,1.71,0.68L92.05,278.44z
			 M90.85,279.27c0.86,0,1.64,0.07,2.33,0.22c0.69,0.14,1.28,0.35,1.76,0.62c0.49,0.27,0.86,0.6,1.12,0.99
			c0.26,0.39,0.39,0.83,0.39,1.32s-0.13,0.93-0.39,1.32c-0.26,0.39-0.63,0.72-1.12,0.99c-0.49,0.27-1.07,0.47-1.76,0.61
			s-1.47,0.21-2.33,0.21c-0.86,0-1.64-0.07-2.34-0.21s-1.29-0.34-1.77-0.61c-0.49-0.27-0.86-0.6-1.12-0.99
			c-0.26-0.39-0.39-0.83-0.39-1.32s0.13-0.93,0.39-1.32c0.26-0.39,0.63-0.72,1.12-0.99c0.49-0.27,1.08-0.48,1.77-0.62
			C89.2,279.34,89.98,279.27,90.85,279.27z M90.85,283.73c1.07,0,1.88-0.11,2.42-0.32c0.55-0.21,0.82-0.54,0.82-1s-0.27-0.79-0.82-1
			c-0.55-0.21-1.35-0.32-2.42-0.32c-2.17,0-3.26,0.44-3.26,1.31S88.67,283.73,90.85,283.73z M98.46,272.86v1.94h-2.2v4.16h-2.38
			v-9.99h2.38v3.89H98.46z"/>
		<path fill="#1F98D5" d="M99.85,280.29c0.73,0,1.52,0,2.38-0.01c0.85-0.01,1.73-0.03,2.65-0.06c0.91-0.04,1.83-0.09,2.75-0.16
			c0.92-0.07,1.82-0.17,2.7-0.31l0.14,1.71c-0.89,0.18-1.79,0.32-2.71,0.42c-0.92,0.1-1.82,0.18-2.71,0.23s-1.75,0.08-2.57,0.09
			c-0.83,0.01-1.6,0.02-2.32,0.02L99.85,280.29z M105.1,270.07c0.65,0,1.25,0.1,1.81,0.31s1.04,0.49,1.45,0.85
			c0.41,0.36,0.73,0.79,0.96,1.3c0.23,0.5,0.35,1.05,0.35,1.64c0,0.6-0.12,1.15-0.35,1.65c-0.23,0.5-0.56,0.93-0.96,1.29
			s-0.89,0.64-1.45,0.85c-0.56,0.21-1.16,0.31-1.81,0.31s-1.25-0.1-1.81-0.31c-0.56-0.2-1.04-0.49-1.44-0.85
			c-0.4-0.36-0.72-0.79-0.95-1.29s-0.35-1.05-0.35-1.65c0-0.59,0.12-1.13,0.35-1.64s0.55-0.94,0.95-1.3
			c0.4-0.36,0.88-0.64,1.44-0.85S104.45,270.07,105.1,270.07z M105.09,272.1c-0.65,0-1.19,0.18-1.62,0.54
			c-0.43,0.36-0.64,0.86-0.64,1.51c0,0.65,0.21,1.15,0.64,1.51c0.43,0.36,0.97,0.54,1.62,0.54c0.65,0,1.19-0.18,1.62-0.54
			s0.64-0.86,0.64-1.51c0-0.65-0.21-1.15-0.64-1.51C106.28,272.28,105.74,272.1,105.09,272.1z M113.6,268.95v16.63h-2.38v-16.63
			H113.6z"/>
	</g>
	<g enable-background="new    ">
		<path fill="#999999" d="M53.03,305.12c0,0.85-0.08,1.65-0.24,2.42s-0.43,1.48-0.82,2.16c-0.39,0.68-0.91,1.3-1.55,1.88
			s-1.46,1.11-2.45,1.58l-0.83-1.25c0.7-0.34,1.31-0.7,1.82-1.09c0.51-0.39,0.94-0.81,1.28-1.27c0.34-0.45,0.61-0.94,0.8-1.46
			c0.19-0.52,0.31-1.09,0.37-1.71h-3.68v-1.26H53.03z M56.33,303.97v11.05h-1.61v-11.05H56.33z"/>
		<path fill="#999999" d="M68.15,309.73V311h-10v-1.27h4.19v-1.51h1.58v1.51H68.15z M58.6,307.75c0.54-0.06,1.01-0.15,1.42-0.29
			s0.75-0.3,1.03-0.48c0.28-0.18,0.5-0.39,0.67-0.61c0.16-0.22,0.27-0.44,0.32-0.67h-2.96v-1.26h8.18v1.26h-2.99
			c0.05,0.22,0.15,0.45,0.31,0.67c0.16,0.22,0.38,0.42,0.67,0.61c0.28,0.18,0.63,0.34,1.03,0.48c0.4,0.14,0.88,0.23,1.42,0.29
			l-0.56,1.26c-1.03-0.12-1.88-0.38-2.55-0.78c-0.67-0.4-1.15-0.89-1.43-1.46c-0.29,0.58-0.76,1.06-1.43,1.46
			c-0.66,0.4-1.51,0.66-2.54,0.78L58.6,307.75z M60.95,313.58h6.07v1.26h-7.66v-3.16h1.58V313.58z"/>
		<path fill="#999999" d="M76,306.44c0,0.5,0.05,0.99,0.15,1.48c0.1,0.49,0.25,0.95,0.46,1.38s0.47,0.82,0.79,1.17
			c0.32,0.35,0.7,0.63,1.15,0.85l-0.96,1.25c-0.58-0.3-1.06-0.7-1.45-1.21c-0.39-0.51-0.71-1.1-0.94-1.76
			c-0.24,0.7-0.57,1.33-0.99,1.89c-0.42,0.56-0.94,0.99-1.57,1.29l-0.95-1.28c0.46-0.22,0.87-0.5,1.21-0.86
			c0.34-0.36,0.62-0.76,0.84-1.21c0.22-0.45,0.38-0.93,0.49-1.43c0.11-0.51,0.16-1.02,0.16-1.53v-1.61H76V306.44z M82.18,309.55
			h-1.61v5.48h-1.58v-11.05h1.58v4.25h1.61V309.55z"/>
		<path fill="#999999" d="M92.96,312.43v1.27h-10v-1.27h3.53v-3.8h1.58v3.8H92.96z M89.98,311.1c0.21-1.04,0.33-1.96,0.38-2.75
			s0.07-1.51,0.07-2.15h-6.44v-1.26H92v1.06c0,0.34,0,0.7-0.01,1.08c0,0.38-0.02,0.78-0.05,1.21c-0.03,0.43-0.07,0.89-0.13,1.39
			s-0.15,1.04-0.26,1.62L89.98,311.1z"/>
		<path fill="#999999" d="M104,308.95v1.14H94v-1.14H104z M96.71,313.87h6.41v1.07h-7.98v-2.68h6.11v-0.55h-6.12v-1.07h7.69v2.63
			h-6.11V313.87z M101.22,305.24h-6v-1.07h7.56v2.6H96.8v0.58h6.17v1.07h-7.73v-2.65h5.98V305.24z"/>
		<path fill="#999999" d="M109.78,311.26c0.39,0,0.77-0.01,1.12-0.02s0.71-0.03,1.06-0.05c0.35-0.02,0.69-0.05,1.04-0.08
			c0.34-0.04,0.7-0.08,1.06-0.14l0.14,1.26c-0.42,0.06-0.84,0.12-1.24,0.16c-0.4,0.04-0.8,0.07-1.21,0.09
			c-0.41,0.02-0.83,0.03-1.26,0.04c-0.43,0.01-0.88,0.01-1.36,0.01h-0.94v-7.64h5.2v1.28h-3.61v1.8h3.46v1.24h-3.46V311.26z
			 M118.02,309.48h-1.61v5.57h-1.58v-11.06h1.58v4.19h1.61V309.48z"/>
		<path fill="#999999" d="M124.09,311.04c0.22-0.02,0.43-0.03,0.64-0.05c0.21-0.02,0.42-0.04,0.63-0.07l0.1,1.15
			c-0.56,0.1-1.13,0.17-1.72,0.23c-0.58,0.06-1.16,0.11-1.73,0.14c-0.57,0.03-1.13,0.05-1.67,0.06s-1.05,0.01-1.52,0.01l-0.17-1.3
			h1.24v-4.94h-0.95V305h6.1v1.27h-0.95V311.04z M121.42,311.18c0.19-0.01,0.38-0.01,0.57-0.02c0.19,0,0.39-0.01,0.58-0.02v-4.87
			h-1.15V311.18z M129.06,309.46h-1.61v5.58h-1.58v-11.05h1.58v4.16h1.61V309.46z"/>
		<path fill="#999999" d="M133.81,305.61h2.4v1.26h-6.43v-1.26h2.45v-1.44h1.58V305.61z M133.03,307.5c0.4,0,0.77,0.06,1.11,0.19
			s0.63,0.31,0.88,0.55c0.25,0.24,0.44,0.51,0.58,0.83c0.14,0.32,0.21,0.67,0.21,1.06c0,0.39-0.07,0.75-0.21,1.07
			s-0.33,0.6-0.58,0.84c-0.25,0.24-0.54,0.42-0.88,0.55s-0.71,0.19-1.11,0.19c-0.4,0-0.77-0.06-1.11-0.19s-0.64-0.31-0.89-0.55
			s-0.45-0.52-0.59-0.84s-0.21-0.68-0.21-1.07c0-0.38,0.07-0.74,0.21-1.06c0.14-0.32,0.34-0.6,0.59-0.83
			c0.25-0.24,0.55-0.42,0.89-0.55S132.63,307.5,133.03,307.5z M133.04,311.48c0.37,0,0.68-0.12,0.92-0.35s0.36-0.57,0.36-1
			c0-0.42-0.12-0.74-0.36-0.98c-0.24-0.24-0.55-0.36-0.92-0.36c-0.37,0-0.68,0.12-0.93,0.36c-0.24,0.24-0.36,0.57-0.36,1
			c0,0.42,0.12,0.75,0.36,0.99C132.35,311.36,132.66,311.48,133.04,311.48z M140.1,309.61h-1.58v5.42h-1.58v-11.05h1.58v4.32h1.58
			V309.61z"/>
		<path fill="#999999" d="M150.89,312.43v1.27h-10v-1.27h3.53v-3.8H146v3.8H150.89z M147.9,311.1c0.21-1.04,0.33-1.96,0.38-2.75
			s0.07-1.51,0.07-2.15h-6.44v-1.26h8.03v1.06c0,0.34,0,0.7-0.01,1.08c0,0.38-0.02,0.78-0.05,1.21c-0.03,0.43-0.07,0.89-0.13,1.39
			s-0.15,1.04-0.26,1.62L147.9,311.1z"/>
	</g>
	<g enable-background="new    ">
		<path fill="#999999" d="M44.72,326.16v1.25H34.71v-1.25H44.72z M37.46,331.71h6.41v1.19h-8.02v-3h6.1v-0.62h-6.11v-1.19h7.72v2.93
			h-6.1V331.71z M43.58,325.45h-7.62v-3.36h1.58v2.11h6.04V325.45z"/>
		<path fill="#999999" d="M57.94,321.97v11.05h-1.49v-5.47h-0.9v4.98h-1.46v-3.26l-0.91,1.22c-0.47-0.26-0.86-0.61-1.17-1.04
			s-0.56-0.91-0.74-1.46c-0.19,0.61-0.45,1.15-0.78,1.64c-0.33,0.48-0.74,0.88-1.23,1.18l-0.98-1.16c0.42-0.25,0.77-0.55,1.05-0.91
			c0.28-0.36,0.51-0.75,0.69-1.18c0.18-0.43,0.3-0.88,0.38-1.34s0.12-0.94,0.12-1.41v-1.86h1.52v1.74c0,0.48,0.03,0.95,0.1,1.4
			s0.18,0.88,0.34,1.28c0.16,0.4,0.37,0.76,0.63,1.08c0.26,0.32,0.59,0.59,0.97,0.8v-7.08h1.46v4.12h0.9v-4.31H57.94z"/>
		<path fill="#999999" d="M69.52,330.52v1.3H59.51v-1.3h4.2v-1.64h-3.05v-3.74h6.17v-1.19h-6.18v-1.26h7.74v3.68h-6.16v1.24h6.41
			v1.27H65.3v1.64H69.52z"/>
		<path fill="#999999" d="M80.55,327.34v1.26h-4.1v1.9h-1.61v-1.9h-4.28v-1.26H80.55z M75.55,326.77c-0.59,0-1.13-0.05-1.62-0.16
			c-0.49-0.11-0.91-0.26-1.25-0.46c-0.35-0.2-0.62-0.44-0.81-0.72c-0.19-0.28-0.29-0.6-0.29-0.95c0-0.34,0.1-0.66,0.29-0.94
			c0.19-0.28,0.46-0.53,0.81-0.73c0.35-0.2,0.77-0.35,1.25-0.46c0.49-0.11,1.03-0.16,1.62-0.16c0.6,0,1.14,0.05,1.63,0.16
			c0.49,0.11,0.91,0.26,1.25,0.46c0.35,0.2,0.62,0.44,0.8,0.73c0.19,0.28,0.28,0.6,0.28,0.94c0,0.35-0.09,0.67-0.28,0.95
			c-0.19,0.28-0.46,0.52-0.8,0.72c-0.35,0.2-0.77,0.35-1.25,0.46C76.69,326.71,76.15,326.77,75.55,326.77z M73.33,331.58h6.14v1.26
			h-7.75v-3.31h1.61V331.58z M75.55,323.44c-0.7,0-1.25,0.09-1.65,0.26s-0.61,0.43-0.61,0.77c0,0.34,0.2,0.6,0.61,0.77
			s0.95,0.26,1.65,0.26c0.7,0,1.26-0.09,1.66-0.26s0.61-0.43,0.61-0.77c0-0.34-0.2-0.6-0.61-0.77S76.25,323.44,75.55,323.44z"/>
		<path fill="#999999" d="M90.01,328.42h-5.22v-5.71h1.57v1.68h2.1v-1.68h1.55v1.1h1.97v-1.84h1.58v8.16h-1.58v-2.69h-1.97V328.42z
			 M93.8,331.58v1.26h-7.54v-3.49h1.58v2.23H93.8z M88.46,325.6h-2.1v1.56h2.1V325.6z M90.01,325.09v1.1h1.97v-1.1H90.01z"/>
		<path fill="#999999" d="M99.5,329.83c0.43-0.02,0.86-0.05,1.27-0.08c0.42-0.03,0.82-0.08,1.22-0.14l0.12,1.14
			c-0.58,0.11-1.17,0.2-1.76,0.26c-0.59,0.06-1.17,0.11-1.75,0.14c-0.57,0.03-1.13,0.04-1.67,0.05c-0.54,0-1.04,0.01-1.51,0.01
			l-0.19-1.28c0.4,0,0.82,0,1.27,0c0.45,0,0.92-0.01,1.4-0.02v-0.94c-0.58-0.11-1.04-0.35-1.39-0.7c-0.35-0.36-0.52-0.79-0.52-1.29
			c0-0.31,0.07-0.6,0.2-0.85c0.13-0.26,0.32-0.48,0.56-0.66c0.24-0.18,0.52-0.33,0.85-0.43c0.33-0.1,0.69-0.15,1.09-0.15
			c0.39,0,0.75,0.05,1.08,0.15c0.33,0.1,0.62,0.24,0.86,0.43c0.24,0.18,0.42,0.4,0.56,0.66c0.13,0.26,0.2,0.54,0.2,0.85
			c0,0.5-0.17,0.93-0.52,1.29c-0.35,0.36-0.81,0.59-1.38,0.7V329.83z M101.95,324.44h-6.5v-1.25h2.47v-1.16h1.58v1.16h2.45V324.44z
			 M97.49,326.96c0,0.29,0.11,0.51,0.33,0.66c0.22,0.15,0.51,0.23,0.87,0.23s0.65-0.08,0.87-0.23s0.33-0.37,0.33-0.66
			s-0.11-0.51-0.33-0.66c-0.22-0.15-0.51-0.23-0.87-0.23s-0.65,0.08-0.87,0.23C97.6,326.45,97.49,326.67,97.49,326.96z
			 M105.52,327.79h-1.38v5.24h-1.58v-11.05h1.58v4.5h1.38V327.79z"/>
		<path fill="#999999" d="M116.41,326.95v1.14H106.4v-1.14H116.41z M109.11,331.87h6.41v1.07h-7.98v-2.68h6.11v-0.55h-6.12v-1.07
			h7.69v2.63h-6.11V331.87z M113.62,323.24h-6v-1.07h7.56v2.6h-5.98v0.58h6.17v1.07h-7.73v-2.65h5.98V323.24z"/>
		<path fill="#999999" d="M130.17,330.46v1.28h-10.01v-1.28h4.2v-2.24h-3.14v-5.42h7.86v5.42h-3.13v2.24H130.17z M122.77,326.97
			h4.76v-2.93h-4.76V326.97z"/>
		<path fill="#999999" d="M135.93,328.12c-0.46-0.19-0.86-0.45-1.18-0.77c-0.32-0.32-0.58-0.68-0.77-1.09
			c-0.21,0.47-0.48,0.89-0.82,1.27c-0.34,0.37-0.77,0.67-1.28,0.89l-0.84-1.24c0.38-0.17,0.71-0.38,0.98-0.62
			c0.27-0.25,0.49-0.52,0.67-0.82c0.17-0.3,0.3-0.6,0.38-0.92c0.08-0.32,0.12-0.64,0.12-0.95v-1.28l1.25,0.01h0.28v1.27
			c0,0.3,0.04,0.61,0.11,0.91s0.2,0.58,0.36,0.85s0.38,0.51,0.64,0.73c0.26,0.22,0.57,0.41,0.94,0.56L135.93,328.12z M133.01,329.18
			h7.6v3.86h-1.57v-2.62h-6.02V329.18z M140.61,321.98v6.71h-1.49v-2.75h-0.88v2.69h-1.46v-6.48h1.46v2.52h0.88v-2.69H140.61z"/>
		<path fill="#999999" d="M146.21,323.61h2.4v1.26h-6.43v-1.26h2.45v-1.44h1.58V323.61z M145.43,325.5c0.4,0,0.77,0.06,1.11,0.19
			s0.63,0.31,0.88,0.55c0.25,0.24,0.44,0.51,0.58,0.83c0.14,0.32,0.21,0.67,0.21,1.06c0,0.39-0.07,0.75-0.21,1.07
			s-0.33,0.6-0.58,0.84c-0.25,0.24-0.54,0.42-0.88,0.55s-0.71,0.19-1.11,0.19c-0.4,0-0.77-0.06-1.11-0.19s-0.64-0.31-0.89-0.55
			s-0.45-0.52-0.59-0.84s-0.21-0.68-0.21-1.07c0-0.38,0.07-0.74,0.21-1.06c0.14-0.32,0.34-0.6,0.59-0.83
			c0.25-0.24,0.55-0.42,0.89-0.55S145.03,325.5,145.43,325.5z M145.44,329.48c0.37,0,0.68-0.12,0.92-0.35s0.36-0.57,0.36-1
			c0-0.42-0.12-0.74-0.36-0.98c-0.24-0.24-0.55-0.36-0.92-0.36c-0.37,0-0.68,0.12-0.93,0.36c-0.24,0.24-0.36,0.57-0.36,1
			c0,0.42,0.12,0.75,0.36,0.99C144.76,329.36,145.06,329.48,145.44,329.48z M152.5,327.61h-1.58v5.42h-1.58v-11.05h1.58v4.32h1.58
			V327.61z"/>
		<path fill="#999999" d="M163.29,327.36v1.27h-10.01v-1.27H163.29z M156.02,331.53h6.24v1.27h-7.85v-3.3h1.61V331.53z
			 M162.19,326.23h-7.67v-3.85h1.58v2.59h6.08V326.23z"/>
	</g>
	<g enable-background="new    ">
		<path fill="#999999" d="M70.93,346.29c-0.62-0.16-1.15-0.4-1.57-0.73c-0.42-0.33-0.76-0.71-1.02-1.14
			c-0.24,0.5-0.58,0.94-1.01,1.32s-0.97,0.66-1.61,0.84l-0.76-1.24c0.44-0.12,0.82-0.28,1.14-0.49c0.32-0.21,0.58-0.44,0.79-0.71
			c0.21-0.26,0.36-0.55,0.46-0.85c0.1-0.3,0.15-0.61,0.16-0.92h-2.16v-1.24h2.16v-1.19h1.58v1.19h2.18v1.24h-2.18
			c0.01,0.28,0.06,0.56,0.16,0.83c0.1,0.27,0.25,0.53,0.46,0.77s0.47,0.46,0.79,0.65c0.32,0.19,0.7,0.34,1.14,0.46L70.93,346.29z
			 M70.12,346.84c0.58,0,1.09,0.05,1.55,0.14c0.46,0.1,0.85,0.23,1.18,0.41c0.32,0.18,0.57,0.4,0.74,0.66
			c0.17,0.26,0.26,0.55,0.26,0.88s-0.09,0.62-0.26,0.88c-0.17,0.26-0.42,0.48-0.74,0.66c-0.32,0.18-0.72,0.32-1.18,0.41
			c-0.46,0.09-0.98,0.14-1.55,0.14s-1.1-0.05-1.56-0.14c-0.46-0.09-0.86-0.23-1.18-0.41c-0.32-0.18-0.57-0.4-0.74-0.66
			c-0.17-0.26-0.26-0.55-0.26-0.88s0.09-0.62,0.26-0.88c0.17-0.26,0.42-0.48,0.74-0.66c0.32-0.18,0.72-0.32,1.18-0.41
			C69.03,346.89,69.55,346.84,70.12,346.84z M70.12,349.82c0.71,0,1.25-0.07,1.61-0.21c0.36-0.14,0.55-0.36,0.55-0.67
			c0-0.3-0.18-0.53-0.55-0.67c-0.36-0.14-0.9-0.21-1.61-0.21c-1.45,0-2.17,0.29-2.17,0.88S68.67,349.82,70.12,349.82z M75.2,342.57
			v1.3h-1.46v2.77h-1.58v-6.66h1.58v2.59H75.2z"/>
		<path fill="#999999" d="M76.12,347.53c0.49,0,1.02,0,1.58-0.01c0.57,0,1.16-0.02,1.76-0.04c0.61-0.02,1.22-0.06,1.84-0.11
			c0.62-0.05,1.22-0.12,1.8-0.2l0.1,1.14c-0.59,0.12-1.19,0.21-1.81,0.28c-0.61,0.07-1.21,0.12-1.81,0.15
			c-0.59,0.03-1.16,0.05-1.72,0.06c-0.55,0.01-1.07,0.01-1.55,0.01L76.12,347.53z M79.63,340.71c0.43,0,0.83,0.07,1.21,0.2
			s0.69,0.32,0.97,0.56c0.27,0.24,0.49,0.53,0.64,0.86c0.16,0.34,0.23,0.7,0.23,1.09c0,0.4-0.08,0.77-0.23,1.1
			c-0.16,0.33-0.37,0.62-0.64,0.86c-0.27,0.24-0.59,0.43-0.97,0.56s-0.77,0.2-1.21,0.2c-0.43,0-0.83-0.07-1.21-0.2
			c-0.37-0.14-0.69-0.32-0.96-0.56c-0.27-0.24-0.48-0.53-0.64-0.86c-0.16-0.33-0.23-0.7-0.23-1.1c0-0.39,0.08-0.76,0.23-1.09
			c0.16-0.34,0.37-0.62,0.64-0.86c0.27-0.24,0.59-0.43,0.96-0.56C78.79,340.78,79.19,340.71,79.63,340.71z M79.62,342.07
			c-0.43,0-0.79,0.12-1.08,0.36c-0.29,0.24-0.43,0.58-0.43,1.01c0,0.43,0.14,0.77,0.43,1.01c0.28,0.24,0.64,0.36,1.08,0.36
			c0.43,0,0.79-0.12,1.08-0.36c0.29-0.24,0.43-0.58,0.43-1.01c0-0.43-0.14-0.77-0.43-1.01C80.41,342.19,80.05,342.07,79.62,342.07z
			 M85.29,339.97v11.09h-1.58v-11.09H85.29z"/>
		<path fill="#999999" d="M92.99,346.26c-0.61-0.2-1.12-0.49-1.53-0.86c-0.41-0.38-0.74-0.81-0.97-1.31
			c-0.25,0.54-0.58,1.03-1.02,1.45c-0.43,0.42-0.97,0.73-1.62,0.94l-0.8-1.25c0.44-0.15,0.82-0.35,1.15-0.59
			c0.33-0.24,0.6-0.51,0.81-0.81s0.37-0.62,0.47-0.95s0.16-0.68,0.17-1.02h-2.17v-1.26h5.94v1.26h-2.16
			c0.01,0.31,0.06,0.63,0.16,0.94c0.1,0.32,0.25,0.62,0.46,0.9s0.46,0.54,0.77,0.77c0.31,0.23,0.68,0.41,1.1,0.56L92.99,346.26z
			 M88.82,347.05h7.54v4h-1.58v-2.74h-5.95V347.05z M96.35,339.99v6.56h-1.58v-2.66h-1.63v-1.27h1.63v-2.63H96.35z"/>
		<path fill="#999999" d="M104.32,343.5c0,0.4-0.08,0.77-0.23,1.12c-0.15,0.34-0.36,0.64-0.64,0.89s-0.59,0.44-0.95,0.58
			c-0.36,0.14-0.76,0.21-1.18,0.21c-0.42,0-0.82-0.07-1.19-0.21c-0.37-0.14-0.69-0.33-0.95-0.58s-0.48-0.54-0.64-0.89
			c-0.16-0.34-0.23-0.72-0.23-1.12c0-0.41,0.08-0.78,0.23-1.13c0.16-0.34,0.37-0.64,0.64-0.89s0.59-0.44,0.95-0.58
			c0.37-0.14,0.76-0.21,1.19-0.21c0.42,0,0.82,0.07,1.18,0.21c0.36,0.14,0.68,0.33,0.95,0.58s0.48,0.54,0.64,0.89
			C104.25,342.71,104.32,343.09,104.32,343.5z M99.86,343.5c0,0.45,0.14,0.8,0.43,1.05c0.28,0.25,0.63,0.38,1.04,0.38
			c0.42,0,0.76-0.13,1.04-0.38c0.28-0.25,0.41-0.6,0.41-1.05c0-0.46-0.14-0.81-0.41-1.06c-0.28-0.25-0.62-0.38-1.04-0.38
			c-0.41,0-0.75,0.13-1.04,0.38C100,342.69,99.86,343.04,99.86,343.5z M107.61,349.58v1.26h-7.63v-3.7h1.58v2.44H107.61z
			 M107.35,347.92h-1.61v-7.93h1.61V347.92z"/>
		<path fill="#999999" d="M118.09,343.5c0,0.4-0.08,0.77-0.23,1.12c-0.15,0.34-0.36,0.64-0.64,0.89s-0.59,0.44-0.95,0.58
			c-0.36,0.14-0.76,0.21-1.18,0.21c-0.42,0-0.82-0.07-1.19-0.21c-0.37-0.14-0.69-0.33-0.95-0.58s-0.48-0.54-0.64-0.89
			c-0.16-0.34-0.23-0.72-0.23-1.12c0-0.41,0.08-0.78,0.23-1.13c0.16-0.34,0.37-0.64,0.64-0.89s0.59-0.44,0.95-0.58
			c0.37-0.14,0.76-0.21,1.19-0.21c0.42,0,0.82,0.07,1.18,0.21c0.36,0.14,0.68,0.33,0.95,0.58s0.48,0.54,0.64,0.89
			C118.01,342.71,118.09,343.09,118.09,343.5z M113.62,343.5c0,0.45,0.14,0.8,0.43,1.05c0.28,0.25,0.63,0.38,1.04,0.38
			c0.42,0,0.76-0.13,1.04-0.38c0.28-0.25,0.41-0.6,0.41-1.05c0-0.46-0.14-0.81-0.41-1.06c-0.28-0.25-0.62-0.38-1.04-0.38
			c-0.41,0-0.75,0.13-1.04,0.38C113.76,342.69,113.62,343.04,113.62,343.5z M121.37,349.58v1.26h-7.63v-3.7h1.58v2.44H121.37z
			 M121.11,347.92h-1.61v-7.93h1.61V347.92z"/>
		<path fill="#999999" d="M132.51,339.97v11.05h-1.49v-5.52h-0.91v5.03h-1.46v-3.2l-0.89,1.19c-0.5-0.26-0.91-0.61-1.23-1.04
			c-0.33-0.43-0.59-0.92-0.79-1.48c-0.18,0.64-0.44,1.21-0.76,1.72s-0.75,0.91-1.27,1.21l-0.95-1.2c0.41-0.24,0.75-0.54,1.03-0.89
			c0.28-0.36,0.5-0.75,0.67-1.19c0.17-0.44,0.29-0.91,0.36-1.41c0.07-0.5,0.11-1.02,0.11-1.55v-0.3h-1.81v-1.28h4.99v1.28h-1.66v0.3
			c0,0.48,0.04,0.95,0.11,1.42c0.08,0.46,0.2,0.9,0.37,1.3c0.17,0.4,0.39,0.77,0.68,1.09c0.28,0.32,0.63,0.59,1.04,0.81v-7.15h1.46
			v4.06h0.91v-4.24H132.51z"/>
	</g>
	<g enable-background="new    ">
		<path fill="#1F98D5" d="M260.23,281.73v1.94h-15.01v-1.94h6.3v-3.46h-4.55v-8.17h11.56v1.91h-9.14v4.36h9.25v1.91h-4.73v3.46
			H260.23z"/>
		<path fill="#1F98D5" d="M270.59,278.92c-0.91-0.3-1.68-0.73-2.3-1.3c-0.62-0.56-1.1-1.22-1.44-1.98
			c-0.37,0.83-0.89,1.55-1.54,2.18c-0.65,0.62-1.47,1.1-2.44,1.42l-1.19-1.89c0.68-0.22,1.27-0.51,1.76-0.88
			c0.49-0.37,0.9-0.79,1.21-1.24s0.55-0.94,0.7-1.46c0.15-0.52,0.22-1.04,0.22-1.57v-0.23h-3.26v-1.89h8.91v1.89H268v0.22
			c0,0.49,0.07,0.98,0.22,1.47c0.14,0.49,0.37,0.94,0.68,1.38c0.31,0.43,0.7,0.83,1.17,1.18c0.47,0.35,1.04,0.64,1.68,0.86
			L270.59,278.92z M276.01,283.37v1.89h-11.3v-5.2h2.38v3.31H276.01z M273.26,273.25v-4.28h2.38v12.1h-2.38v-5.89h-2.59v-1.93
			H273.26z"/>
	</g>
	<g enable-background="new    ">
		<path fill="#999999" d="M209.28,310.42h-5.22v-5.71h1.57v1.68h2.1v-1.68h1.55v1.1h1.97v-1.84h1.58v8.16h-1.58v-2.69h-1.97V310.42z
			 M213.07,313.58v1.26h-7.54v-3.49h1.58v2.23H213.07z M207.73,307.6h-2.1v1.56h2.1V307.6z M209.28,307.09v1.1h1.97v-1.1H209.28z"/>
		<path fill="#999999" d="M218.77,311.83c0.43-0.02,0.86-0.05,1.27-0.08s0.82-0.08,1.22-0.14l0.12,1.14
			c-0.58,0.11-1.17,0.2-1.76,0.26c-0.59,0.06-1.17,0.11-1.75,0.14c-0.57,0.03-1.13,0.04-1.67,0.05s-1.04,0.01-1.51,0.01l-0.19-1.28
			c0.4,0,0.82,0,1.27,0c0.45,0,0.92-0.01,1.4-0.02v-0.94c-0.58-0.11-1.04-0.35-1.39-0.7c-0.35-0.36-0.52-0.79-0.52-1.29
			c0-0.31,0.07-0.6,0.2-0.85s0.32-0.48,0.56-0.66c0.24-0.18,0.52-0.33,0.85-0.43c0.33-0.1,0.69-0.15,1.09-0.15
			c0.39,0,0.75,0.05,1.08,0.15c0.33,0.1,0.62,0.24,0.86,0.43c0.24,0.18,0.42,0.4,0.56,0.66c0.13,0.26,0.2,0.54,0.2,0.85
			c0,0.5-0.17,0.93-0.52,1.29c-0.35,0.36-0.81,0.59-1.38,0.7V311.83z M221.22,306.44h-6.5v-1.25h2.47v-1.16h1.58v1.16h2.45V306.44z
			 M216.77,308.96c0,0.29,0.11,0.51,0.33,0.66c0.22,0.15,0.51,0.23,0.87,0.23c0.36,0,0.65-0.08,0.88-0.23
			c0.22-0.15,0.33-0.37,0.33-0.66s-0.11-0.51-0.33-0.66c-0.22-0.15-0.51-0.23-0.88-0.23c-0.36,0-0.65,0.08-0.87,0.23
			C216.88,308.45,216.77,308.67,216.77,308.96z M224.8,309.79h-1.38v5.24h-1.58v-11.05h1.58v4.5h1.38V309.79z"/>
		<path fill="#999999" d="M229.73,311.48c0.43-0.02,0.86-0.04,1.27-0.08s0.83-0.08,1.24-0.13l0.13,1.14
			c-0.58,0.11-1.16,0.2-1.75,0.25s-1.17,0.1-1.73,0.13c-0.57,0.03-1.12,0.04-1.65,0.04c-0.53,0-1.03,0-1.49,0l-0.19-1.28
			c0.39,0,0.81,0,1.25,0c0.44,0,0.89,0,1.36-0.01v-1.56c-0.33-0.07-0.63-0.19-0.9-0.34c-0.27-0.16-0.51-0.35-0.71-0.58
			c-0.2-0.23-0.35-0.49-0.46-0.78s-0.16-0.61-0.16-0.94c0-0.39,0.08-0.76,0.23-1.09s0.36-0.62,0.63-0.86s0.58-0.43,0.95-0.56
			c0.37-0.14,0.76-0.2,1.19-0.2c0.43,0,0.83,0.07,1.19,0.2c0.36,0.14,0.68,0.32,0.95,0.56s0.48,0.53,0.63,0.86s0.23,0.7,0.23,1.09
			c0,0.34-0.05,0.65-0.16,0.94s-0.26,0.55-0.45,0.77c-0.2,0.23-0.43,0.42-0.7,0.58s-0.57,0.27-0.88,0.34V311.48z M227.45,307.34
			c0,0.43,0.14,0.77,0.42,1.01c0.28,0.24,0.63,0.37,1.05,0.37s0.78-0.12,1.06-0.37c0.28-0.24,0.42-0.58,0.42-1.01
			c0-0.43-0.14-0.77-0.42-1.01s-0.63-0.36-1.06-0.36s-0.78,0.12-1.05,0.36C227.59,306.57,227.45,306.91,227.45,307.34z
			 M235.85,309.62h-1.45v5.4h-1.58v-11.05h1.58v4.34h1.45V309.62z"/>
		<path fill="#999999" d="M245.53,306.16h-6.06v-1.24h2.32v-1.03h1.58v1.03h2.16V306.16z M245.16,308.66c0,0.3-0.07,0.59-0.2,0.85
			s-0.31,0.48-0.54,0.67c-0.23,0.19-0.5,0.33-0.82,0.44c-0.32,0.1-0.66,0.16-1.03,0.16c-0.37,0-0.71-0.05-1.03-0.16
			c-0.32-0.1-0.59-0.25-0.82-0.44c-0.23-0.19-0.41-0.41-0.55-0.67s-0.2-0.54-0.2-0.85s0.07-0.59,0.2-0.85
			c0.13-0.26,0.31-0.48,0.55-0.67c0.23-0.19,0.51-0.33,0.82-0.44c0.32-0.1,0.66-0.16,1.03-0.16c0.37,0,0.71,0.05,1.03,0.16
			c0.32,0.1,0.59,0.25,0.82,0.44c0.23,0.19,0.41,0.41,0.54,0.67C245.09,308.07,245.16,308.36,245.16,308.66z M241.15,311.5h7.52
			v3.54h-1.58v-2.28h-5.94V311.5z M241.45,308.66c0,0.29,0.1,0.51,0.31,0.68c0.21,0.16,0.48,0.25,0.81,0.25
			c0.32,0,0.59-0.08,0.8-0.25s0.32-0.39,0.32-0.68s-0.11-0.51-0.32-0.67s-0.48-0.24-0.8-0.24c-0.33,0-0.6,0.08-0.81,0.24
			C241.56,308.15,241.45,308.37,241.45,308.66z M248.68,303.98v7.03h-1.58v-1.18h-1.45v-1.26h1.45v-0.86h-1.42v-1.26h1.42v-2.47
			H248.68z"/>
		<path fill="#999999" d="M256.45,310.38c-0.62-0.21-1.14-0.51-1.56-0.9c-0.42-0.39-0.75-0.85-0.99-1.37
			c-0.26,0.56-0.6,1.05-1.03,1.48c-0.43,0.43-0.97,0.75-1.62,0.98l-0.8-1.26c0.46-0.15,0.85-0.36,1.18-0.62
			c0.33-0.26,0.61-0.56,0.82-0.88c0.22-0.32,0.37-0.67,0.47-1.03c0.1-0.36,0.15-0.73,0.15-1.1v-1.08h1.61v1.08
			c0,0.36,0.05,0.72,0.15,1.07c0.1,0.35,0.25,0.68,0.46,0.98c0.21,0.3,0.47,0.58,0.8,0.82s0.71,0.43,1.16,0.58L256.45,310.38z
			 M259.93,313.58v1.26h-7.63v-3.56h1.58v2.3H259.93z M259.67,312.04h-1.61v-8.05h1.61V312.04z"/>
		<path fill="#999999" d="M271.5,308.43v1.24h-9.98v-1.24H271.5z M266.51,307.9c-1.26,0-2.25-0.16-2.95-0.48
			c-0.7-0.32-1.05-0.79-1.05-1.4c0-0.61,0.35-1.07,1.05-1.4s1.68-0.49,2.95-0.49c1.27,0,2.26,0.16,2.96,0.49s1.05,0.79,1.05,1.4
			c0,0.62-0.35,1.08-1.05,1.4C268.77,307.74,267.78,307.9,266.51,307.9z M264.24,313.76h6.34v1.19h-7.91v-2.9h6.06v-0.59h-6.07
			v-1.16h7.63v2.84h-6.05V313.76z M266.51,305.3c-0.8,0-1.39,0.06-1.78,0.17c-0.38,0.12-0.58,0.3-0.58,0.55
			c0,0.26,0.19,0.44,0.58,0.56c0.38,0.12,0.98,0.17,1.78,0.17c0.81,0,1.4-0.06,1.79-0.17s0.58-0.3,0.58-0.56
			c0-0.25-0.19-0.43-0.58-0.55C267.91,305.36,267.32,305.3,266.51,305.3z"/>
		<path fill="#999999" d="M285.28,311.35h-4.24v3.71h-1.58v-3.71h-4.16v-1.26h9.98V311.35z M275.76,308.22
			c0.56-0.07,1.06-0.19,1.49-0.35c0.43-0.16,0.8-0.35,1.09-0.56c0.3-0.22,0.53-0.45,0.7-0.71s0.27-0.52,0.31-0.79h-3.18v-1.26h8.2
			v1.26h-3.13c0.04,0.26,0.14,0.53,0.31,0.79s0.39,0.5,0.69,0.71s0.66,0.4,1.09,0.56s0.92,0.28,1.48,0.35l-0.56,1.24
			c-0.97-0.14-1.78-0.4-2.45-0.79s-1.16-0.87-1.5-1.43c-0.34,0.57-0.84,1.05-1.5,1.43s-1.48,0.65-2.45,0.79L275.76,308.22z"/>
		<path fill="#999999" d="M296.33,312.49v1.3h-10.01v-1.3h4.2v-2.3h-3.04v-5.45h7.7v1.27h-6.1v2.9h6.17v1.27h-3.16v2.3H296.33z"/>
		<path fill="#999999" d="M301.33,305.61h2.4v1.26h-6.43v-1.26h2.45v-1.44h1.58V305.61z M300.55,307.5c0.4,0,0.77,0.06,1.11,0.19
			c0.34,0.13,0.63,0.31,0.88,0.55c0.25,0.24,0.44,0.51,0.58,0.83c0.14,0.32,0.21,0.67,0.21,1.06c0,0.39-0.07,0.75-0.21,1.07
			s-0.33,0.6-0.58,0.84s-0.54,0.42-0.88,0.55c-0.34,0.13-0.71,0.19-1.11,0.19c-0.4,0-0.77-0.06-1.11-0.19
			c-0.34-0.13-0.64-0.31-0.89-0.55c-0.25-0.24-0.45-0.52-0.59-0.84s-0.21-0.68-0.21-1.07c0-0.38,0.07-0.74,0.21-1.06
			c0.14-0.32,0.33-0.6,0.59-0.83c0.25-0.24,0.55-0.42,0.89-0.55C299.78,307.56,300.15,307.5,300.55,307.5z M300.56,311.48
			c0.37,0,0.68-0.12,0.92-0.35c0.24-0.24,0.36-0.57,0.36-1c0-0.42-0.12-0.74-0.36-0.98c-0.24-0.24-0.55-0.36-0.92-0.36
			s-0.68,0.12-0.93,0.36c-0.24,0.24-0.36,0.57-0.36,1c0,0.42,0.12,0.75,0.36,0.99S300.18,311.48,300.56,311.48z M307.62,309.61
			h-1.58v5.42h-1.58v-11.05h1.58v4.32h1.58V309.61z"/>
		<path fill="#999999" d="M318.41,312.43v1.27h-10v-1.27h3.53v-3.8h1.58v3.8H318.41z M315.42,311.1c0.21-1.04,0.33-1.96,0.38-2.75
			s0.07-1.51,0.07-2.15h-6.44v-1.26h8.03v1.06c0,0.34,0,0.7-0.01,1.08s-0.02,0.78-0.05,1.21c-0.03,0.43-0.07,0.89-0.13,1.39
			c-0.06,0.5-0.15,1.04-0.26,1.62L315.42,311.1z"/>
	</g>
	<g enable-background="new    ">
		<path fill="#999999" d="M209.62,327.43c-0.63-0.18-1.16-0.46-1.59-0.83c-0.43-0.37-0.77-0.79-1.01-1.27
			c-0.26,0.53-0.61,0.99-1.06,1.39c-0.45,0.4-1,0.69-1.64,0.89l-0.77-1.24c0.46-0.14,0.85-0.33,1.18-0.56
			c0.33-0.23,0.61-0.5,0.82-0.79c0.22-0.3,0.38-0.61,0.48-0.94c0.1-0.33,0.16-0.67,0.16-1v-0.83h1.61v0.83
			c0,0.33,0.05,0.65,0.15,0.97c0.1,0.32,0.26,0.61,0.47,0.89c0.21,0.28,0.48,0.52,0.8,0.74s0.71,0.39,1.16,0.52L209.62,327.43z
			 M213.05,331.72v1.22h-7.63v-3.04h5.78v-0.65h-5.8v-1.21h7.37v2.99h-5.78v0.68H213.05z M212.76,327.56h-1.58v-5.57h1.58V327.56z"
			/>
		<path fill="#999999" d="M219.06,329.06c0.14-0.02,0.27-0.03,0.4-0.04c0.13-0.01,0.25-0.03,0.37-0.04l0.12,1.15
			c-0.42,0.09-0.87,0.16-1.34,0.21c-0.47,0.05-0.94,0.09-1.41,0.12c-0.47,0.03-0.92,0.05-1.35,0.05c-0.43,0.01-0.82,0.01-1.15,0.01
			l-0.17-1.28h0.88v-4.75h-0.68v-1.27h5.04v1.27h-0.7V329.06z M216.82,329.2c0.14-0.01,0.27-0.01,0.41-0.02
			c0.14,0,0.28-0.01,0.41-0.02v-4.68h-0.83V329.2z M224.1,321.98v11.06h-1.49v-5.54h-0.85v5.02h-1.46v-10.33h1.46v4.03h0.85v-4.24
			H224.1z"/>
		<path fill="#999999" d="M235.68,326.95v1.14h-10.01v-1.14H235.68z M228.38,331.87h6.41v1.07h-7.98v-2.68h6.11v-0.55h-6.12v-1.07
			h7.69v2.63h-6.11V331.87z M232.9,323.24h-6v-1.07h7.56v2.6h-5.98v0.58h6.17v1.07h-7.73v-2.65h5.98V323.24z"/>
		<path fill="#999999" d="M249.44,329.52h-4.25v3.5h-1.58v-3.5h-4.19v-1.28h10.02V329.52z M248.28,327.15h-7.58v-4.58h7.46v1.26
			h-5.86v2.06h5.98V327.15z"/>
		<path fill="#999999" d="M252.42,329.29c0.67-0.01,1.32-0.03,1.93-0.07s1.27-0.11,1.97-0.21l0.12,1.3
			c-0.41,0.06-0.8,0.11-1.19,0.15s-0.77,0.06-1.15,0.08c-0.38,0.02-0.76,0.03-1.15,0.04c-0.39,0.01-0.79,0.01-1.21,0.01h-0.89v-4.67
			h3.35v-1.76h-3.37v-1.26h4.93v4.27h-3.35V329.29z M259.74,321.97v11.09h-1.61v-4.46h-1.84v-1.27h1.84v-1.73h-1.81v-1.27h1.81
			v-2.35H259.74z"/>
		<path fill="#999999" d="M268.68,328.41c-0.49,0.09-0.97,0.16-1.46,0.21s-0.97,0.1-1.45,0.14v3.95h-1.58v-3.86
			c-0.46,0.02-0.9,0.03-1.32,0.03c-0.42,0-0.83,0.01-1.21,0.01l-0.18-1.28c0.51,0,1.06,0,1.64-0.01s1.18-0.02,1.79-0.04
			c0.61-0.02,1.23-0.06,1.85-0.1s1.23-0.11,1.82-0.19L268.68,328.41z M265.06,326.97c-0.41,0-0.78-0.06-1.13-0.17
			c-0.34-0.11-0.64-0.27-0.89-0.46c-0.25-0.2-0.44-0.43-0.58-0.71c-0.14-0.28-0.21-0.59-0.21-0.92s0.07-0.64,0.21-0.92
			c0.14-0.28,0.33-0.51,0.58-0.71s0.54-0.36,0.89-0.47c0.34-0.11,0.72-0.17,1.13-0.17s0.78,0.06,1.12,0.17
			c0.34,0.11,0.63,0.27,0.88,0.47s0.44,0.44,0.58,0.71c0.14,0.28,0.21,0.58,0.21,0.92s-0.07,0.64-0.21,0.92s-0.33,0.52-0.58,0.71
			c-0.25,0.2-0.54,0.35-0.88,0.46C265.84,326.92,265.46,326.97,265.06,326.97z M265.05,323.64c-0.39,0-0.72,0.09-0.96,0.28
			c-0.25,0.19-0.37,0.45-0.37,0.79c0,0.34,0.12,0.61,0.37,0.79s0.57,0.28,0.96,0.28s0.71-0.09,0.95-0.28s0.36-0.45,0.36-0.79
			c0-0.34-0.12-0.6-0.36-0.79C265.76,323.73,265.44,323.64,265.05,323.64z M270.88,321.98v11.04h-1.58v-2.41h-2.22v-1.2h2.22v-7.43
			H270.88z"/>
		<path fill="#999999" d="M276.53,323.61h2.4v1.26h-6.43v-1.26h2.45v-1.44h1.58V323.61z M275.74,325.5c0.4,0,0.77,0.06,1.11,0.19
			c0.34,0.13,0.63,0.31,0.88,0.55c0.25,0.24,0.44,0.51,0.58,0.83c0.14,0.32,0.21,0.67,0.21,1.06c0,0.39-0.07,0.75-0.21,1.07
			s-0.33,0.6-0.58,0.84s-0.54,0.42-0.88,0.55c-0.34,0.13-0.71,0.19-1.11,0.19c-0.4,0-0.77-0.06-1.11-0.19
			c-0.34-0.13-0.64-0.31-0.89-0.55c-0.25-0.24-0.45-0.52-0.59-0.84s-0.21-0.68-0.21-1.07c0-0.38,0.07-0.74,0.21-1.06
			c0.14-0.32,0.33-0.6,0.59-0.83c0.25-0.24,0.55-0.42,0.89-0.55C274.97,325.56,275.34,325.5,275.74,325.5z M275.75,329.48
			c0.37,0,0.68-0.12,0.92-0.35c0.24-0.24,0.36-0.57,0.36-1c0-0.42-0.12-0.74-0.36-0.98c-0.24-0.24-0.55-0.36-0.92-0.36
			s-0.68,0.12-0.93,0.36c-0.24,0.24-0.36,0.57-0.36,1c0,0.42,0.12,0.75,0.36,0.99S275.38,329.48,275.75,329.48z M282.82,327.61
			h-1.58v5.42h-1.58v-11.05h1.58v4.32h1.58V327.61z"/>
		<path fill="#999999" d="M287.87,324.96c0,0.45,0.06,0.9,0.17,1.35c0.11,0.45,0.28,0.88,0.51,1.28c0.23,0.4,0.51,0.76,0.85,1.08
			s0.74,0.58,1.21,0.77l-0.86,1.25c-0.65-0.28-1.19-0.68-1.63-1.19c-0.44-0.51-0.78-1.1-1.03-1.78c-0.25,0.73-0.59,1.38-1.04,1.94
			s-0.99,1-1.64,1.3l-0.9-1.26c0.46-0.21,0.87-0.48,1.21-0.83s0.63-0.73,0.86-1.15c0.23-0.42,0.4-0.87,0.51-1.34
			c0.11-0.48,0.17-0.95,0.17-1.42v-0.61h-2.3v-1.31h6.19v1.31h-2.28V324.96z M292.75,321.98v11.05h-1.58v-11.05H292.75z"/>
		<path fill="#999999" d="M303.32,325.1c0,0.38-0.07,0.72-0.22,1.04c-0.15,0.32-0.35,0.59-0.62,0.82c-0.26,0.23-0.58,0.41-0.94,0.53
			c-0.36,0.13-0.75,0.19-1.16,0.19c-0.42,0-0.81-0.06-1.17-0.19c-0.36-0.13-0.67-0.31-0.93-0.53c-0.26-0.23-0.47-0.5-0.62-0.82
			c-0.15-0.32-0.22-0.66-0.22-1.04c0-0.38,0.07-0.72,0.22-1.04c0.15-0.32,0.35-0.59,0.62-0.82c0.26-0.23,0.57-0.41,0.93-0.53
			c0.36-0.13,0.75-0.19,1.17-0.19c0.42,0,0.8,0.06,1.16,0.19c0.36,0.13,0.67,0.31,0.94,0.53c0.26,0.23,0.47,0.5,0.62,0.82
			C303.25,324.38,303.32,324.72,303.32,325.1z M299.86,331.46c0.3-0.02,0.59-0.06,0.88-0.11c0.29-0.05,0.57-0.12,0.85-0.21
			l0.22,1.25c-0.46,0.16-0.91,0.26-1.36,0.31c-0.45,0.04-0.95,0.07-1.49,0.07h-0.61v-4.27h1.52V331.46z M298.97,325.1
			c0,0.41,0.13,0.72,0.4,0.95c0.27,0.22,0.61,0.34,1.01,0.34s0.75-0.11,1.01-0.34c0.27-0.22,0.4-0.54,0.4-0.95
			c0-0.41-0.13-0.73-0.4-0.95c-0.27-0.23-0.61-0.34-1.01-0.34s-0.75,0.11-1.01,0.34C299.1,324.37,298.97,324.69,298.97,325.1z
			 M304.97,328.52h1.98v1.14h-5.53v-1.14h2.02v-0.78h1.54V328.52z M304.18,329.94c0.63,0,1.15,0.14,1.54,0.41
			c0.4,0.28,0.59,0.65,0.59,1.13c0,0.24-0.05,0.46-0.16,0.65c-0.1,0.19-0.25,0.36-0.44,0.49c-0.19,0.14-0.41,0.24-0.68,0.31
			c-0.26,0.07-0.55,0.11-0.86,0.11c-0.31,0-0.6-0.04-0.86-0.11c-0.26-0.07-0.49-0.18-0.68-0.31c-0.19-0.14-0.33-0.3-0.44-0.49
			c-0.1-0.19-0.16-0.41-0.16-0.65c0-0.48,0.2-0.86,0.59-1.13C303.03,330.07,303.54,329.94,304.18,329.94z M304.18,331.98
			c0.22,0,0.39-0.04,0.53-0.12c0.14-0.08,0.2-0.2,0.2-0.37c0-0.16-0.07-0.28-0.2-0.36c-0.14-0.08-0.31-0.12-0.53-0.12
			c-0.21,0-0.38,0.04-0.52,0.12s-0.21,0.2-0.21,0.36c0,0.17,0.07,0.29,0.21,0.37S303.97,331.98,304.18,331.98z M307.52,324.26v1.31
			h-1.46v1.86h-1.58v-5.45h1.58v2.28H307.52z"/>
		<path fill="#999999" d="M318.41,327.36v1.27H308.4v-1.27H318.41z M311.14,331.53h6.24v1.27h-7.85v-3.3h1.61V331.53z M317.3,326.23
			h-7.67v-3.85h1.58v2.59h6.08V326.23z"/>
	</g>
	<g enable-background="new    ">
		<path fill="#999999" d="M249.44,348.49v1.3h-10.01v-1.3h4.2v-2.3h-3.04v-5.45h7.7v1.27h-6.1v2.9h6.17v1.27h-3.16v2.3H249.44z"/>
		<path fill="#999999" d="M256.36,346.62c-0.61-0.2-1.12-0.49-1.53-0.86s-0.73-0.82-0.96-1.32c-0.25,0.55-0.59,1.04-1.03,1.45
			c-0.44,0.42-0.98,0.73-1.63,0.95l-0.79-1.26c0.46-0.14,0.85-0.34,1.18-0.59s0.6-0.52,0.81-0.83s0.37-0.63,0.47-0.97
			c0.1-0.34,0.15-0.69,0.15-1.04v-0.16h-2.17v-1.26h5.94v1.26h-2.16v0.14c0,0.33,0.05,0.65,0.14,0.98c0.1,0.32,0.25,0.63,0.45,0.92
			c0.2,0.29,0.46,0.55,0.78,0.79c0.32,0.24,0.69,0.43,1.12,0.57L256.36,346.62z M259.97,349.58v1.26h-7.54v-3.47h1.58v2.21H259.97z
			 M258.13,342.84v-2.86h1.58v8.06h-1.58v-3.92h-1.73v-1.28H258.13z"/>
		<path fill="#999999" d="M267.4,346.26c-0.6-0.2-1.11-0.49-1.52-0.86c-0.42-0.37-0.74-0.8-0.98-1.29
			c-0.24,0.56-0.58,1.05-1.01,1.48c-0.44,0.43-0.98,0.75-1.62,0.97l-0.8-1.25c0.44-0.15,0.82-0.35,1.14-0.59
			c0.32-0.24,0.59-0.52,0.8-0.82c0.21-0.3,0.37-0.62,0.48-0.96c0.11-0.34,0.17-0.68,0.19-1.03h-2.17v-1.27h5.94v1.27h-2.16
			c0.01,0.31,0.06,0.62,0.17,0.94c0.1,0.31,0.26,0.61,0.46,0.88c0.2,0.28,0.46,0.53,0.77,0.75c0.31,0.22,0.67,0.4,1.1,0.54
			L267.4,346.26z M267.02,346.8c0.58,0,1.11,0.05,1.58,0.14c0.47,0.1,0.86,0.23,1.19,0.41c0.32,0.18,0.57,0.4,0.75,0.67
			c0.18,0.26,0.26,0.56,0.26,0.9s-0.09,0.64-0.26,0.9c-0.18,0.26-0.43,0.49-0.75,0.67c-0.32,0.18-0.72,0.32-1.19,0.41
			c-0.47,0.1-0.99,0.14-1.58,0.14c-0.59,0-1.12-0.05-1.59-0.14c-0.47-0.1-0.86-0.23-1.19-0.41c-0.32-0.18-0.57-0.4-0.75-0.67
			c-0.18-0.26-0.26-0.56-0.26-0.9s0.09-0.64,0.26-0.9c0.18-0.26,0.43-0.49,0.75-0.67c0.32-0.18,0.72-0.32,1.19-0.41
			C265.9,346.84,266.43,346.8,267.02,346.8z M267.02,349.84c0.73,0,1.28-0.08,1.64-0.23c0.37-0.15,0.55-0.38,0.55-0.7
			c0-0.31-0.18-0.54-0.55-0.7c-0.37-0.15-0.92-0.23-1.64-0.23c-1.47,0-2.21,0.31-2.21,0.92S265.55,349.84,267.02,349.84z
			 M269.17,342.64v-2.66h1.58v6.58h-1.58v-2.63h-1.66v-1.28H269.17z"/>
		<path fill="#999999" d="M278.53,346.38c-0.62-0.21-1.14-0.51-1.56-0.9c-0.42-0.39-0.75-0.85-0.99-1.37
			c-0.26,0.56-0.6,1.05-1.03,1.48s-0.97,0.75-1.62,0.98l-0.8-1.26c0.46-0.15,0.85-0.36,1.18-0.62c0.33-0.26,0.61-0.56,0.82-0.88
			s0.37-0.67,0.47-1.03c0.1-0.36,0.15-0.73,0.15-1.1v-1.08h1.61v1.08c0,0.36,0.05,0.72,0.15,1.07c0.1,0.35,0.25,0.68,0.46,0.98
			c0.21,0.3,0.48,0.58,0.8,0.82s0.71,0.43,1.16,0.58L278.53,346.38z M282.01,349.58v1.26h-7.63v-3.56h1.58v2.3H282.01z
			 M281.75,348.04h-1.61v-8.05h1.61V348.04z"/>
	</g>
	<line id="선_106" fill="none" stroke="#E7E7E7" x1="180.5" y1="409" x2="180.5" y2="439"/>
	<g id="그룹_462" transform="translate(99 379)">
		<line id="선_100" fill="none" stroke="#E7E7E7" x1="0.12" y1="0" x2="0.12" y2="29.5"/>
		<line id="선_101" fill="none" stroke="#E7E7E7" x1="162.5" y1="0" x2="162.5" y2="29.5"/>
		<line id="선_102" fill="none" stroke="#E7E7E7" x1="0" y1="30" x2="163" y2="30"/>
	</g>
	<circle id="타원_20" fill="#1F98D5" cx="99.5" cy="409.5" r="2.5"/>
	<circle id="타원_21" fill="#1F98D5" cx="180.5" cy="409.5" r="2.5"/>
	<circle id="타원_22" fill="#1F98D5" cx="261.5" cy="409.5" r="2.5"/>
</g>
<g>
</g>
<g>
</g>
<g>
</g>
<g>
</g>
<g>
</g>
<g>
</g>
</svg>
