<?xml version="1.0" encoding="utf-8"?>
<!-- Generator: Adobe Illustrator 25.1.0, SVG Export Plug-In . SVG Version: 6.00 Build 0)  -->
<svg version="1.1" id="Layer_1" xmlns="http://www.w3.org/2000/svg" xmlns:xlink="http://www.w3.org/1999/xlink" x="0px" y="0px"
	 viewBox="0 0 1380 262" enable-background="new 0 0 1380 262" xml:space="preserve">
<g id="그룹_474" transform="translate(-200 -442)">
	<line id="선_103" fill="none" stroke="#E7E7E7" x1="890.5" y1="643.75" x2="890.5" y2="703.75"/>
	<g id="사각형_146" transform="translate(200 442)">
		<rect y="0.25" fill="none" width="678" height="141"/>
		<rect x="0.5" y="0.75" fill="none" stroke="#E7E7E7" width="677" height="140"/>
	</g>
	<g id="사각형_147" transform="translate(902 442)">
		<rect y="0.25" fill="none" width="678" height="141"/>
		<rect x="0.5" y="0.75" fill="none" stroke="#E7E7E7" width="677" height="140"/>
	</g>
	<g enable-background="new    ">
		<path fill="#999999" d="M366.35,528.89c0,0.99-0.09,1.93-0.28,2.82c-0.19,0.89-0.51,1.73-0.96,2.52c-0.45,0.79-1.06,1.52-1.81,2.2
			c-0.76,0.68-1.71,1.29-2.86,1.84l-0.97-1.46c0.82-0.39,1.53-0.82,2.13-1.27s1.1-0.95,1.5-1.48s0.71-1.1,0.93-1.71
			s0.36-1.28,0.43-2h-4.3v-1.47H366.35z M370.2,527.55v12.89h-1.88v-12.89H370.2z"/>
		<path fill="#999999" d="M383.99,534.27v1.48h-11.66v-1.48h4.89v-1.76h1.85v1.76H383.99z M372.85,531.96
			c0.62-0.07,1.18-0.18,1.65-0.34s0.88-0.35,1.2-0.56c0.33-0.21,0.59-0.45,0.78-0.71c0.19-0.26,0.31-0.51,0.37-0.78h-3.46v-1.47
			h9.55v1.47h-3.49c0.06,0.26,0.18,0.52,0.36,0.78c0.19,0.26,0.45,0.49,0.78,0.71c0.33,0.21,0.73,0.4,1.2,0.56
			c0.47,0.16,1.02,0.27,1.66,0.34l-0.66,1.47c-1.2-0.14-2.2-0.44-2.98-0.91c-0.78-0.47-1.34-1.04-1.67-1.71
			c-0.34,0.67-0.89,1.24-1.67,1.71c-0.77,0.47-1.76,0.77-2.97,0.91L372.85,531.96z M375.59,538.76h7.08v1.47h-8.93v-3.68h1.85
			V538.76z"/>
		<path fill="#999999" d="M393.15,530.43c0,0.58,0.06,1.15,0.18,1.72s0.3,1.11,0.54,1.61c0.24,0.5,0.55,0.96,0.92,1.37
			c0.37,0.41,0.82,0.74,1.34,0.99l-1.12,1.46c-0.67-0.35-1.24-0.82-1.7-1.41c-0.46-0.6-0.82-1.28-1.1-2.06
			c-0.28,0.82-0.67,1.56-1.16,2.21c-0.49,0.65-1.1,1.15-1.83,1.5l-1.11-1.5c0.54-0.25,1.01-0.59,1.41-1.01
			c0.4-0.42,0.72-0.89,0.98-1.41c0.26-0.52,0.45-1.08,0.57-1.67s0.19-1.19,0.19-1.79v-1.88h1.88V530.43z M400.36,534.06h-1.88v6.4
			h-1.85v-12.89h1.85v4.96h1.88V534.06z"/>
		<path fill="#999999" d="M412.94,537.42v1.48h-11.66v-1.48h4.12v-4.44h1.85v4.44H412.94z M409.46,535.86
			c0.24-1.21,0.39-2.28,0.44-3.21s0.08-1.77,0.08-2.51h-7.52v-1.47h9.37v1.23c0,0.4,0,0.82-0.01,1.26s-0.02,0.91-0.06,1.41
			c-0.03,0.5-0.08,1.04-0.15,1.62c-0.07,0.58-0.17,1.21-0.3,1.89L409.46,535.86z"/>
		<path fill="#999999" d="M425.82,533.36v1.33h-11.68v-1.33H425.82z M417.31,539.1h7.48v1.25h-9.31v-3.12h7.13v-0.64h-7.14v-1.25
			h8.97v3.07h-7.13V539.1z M422.58,529.03h-7v-1.25h8.82v3.04h-6.97v0.67h7.2v1.25h-9.02v-3.09h6.97V529.03z"/>
		<path fill="#999999" d="M432.56,536.06c0.46,0,0.89-0.01,1.31-0.02c0.42-0.01,0.83-0.03,1.23-0.06c0.41-0.02,0.81-0.06,1.21-0.1
			s0.81-0.1,1.23-0.16l0.17,1.47c-0.49,0.07-0.98,0.13-1.44,0.18c-0.47,0.05-0.94,0.08-1.41,0.1c-0.48,0.02-0.97,0.04-1.47,0.05
			c-0.5,0.01-1.03,0.01-1.58,0.01h-1.09v-8.92h6.06v1.5h-4.21v2.1h4.03v1.44h-4.03V536.06z M442.18,533.97h-1.88v6.5h-1.85v-12.91
			h1.85v4.89h1.88V533.97z"/>
		<path fill="#999999" d="M449.26,535.79c0.25-0.02,0.5-0.04,0.75-0.06s0.49-0.05,0.73-0.08l0.11,1.34c-0.65,0.11-1.32,0.2-2,0.27
			c-0.68,0.07-1.36,0.12-2.02,0.16c-0.67,0.04-1.32,0.06-1.95,0.07c-0.63,0.01-1.22,0.01-1.77,0.01l-0.2-1.51h1.44v-5.77h-1.11
			v-1.48h7.11v1.48h-1.11V535.79z M446.14,535.96c0.22-0.01,0.44-0.02,0.67-0.02c0.23,0,0.45-0.01,0.68-0.02v-5.68h-1.34V535.96z
			 M455.06,533.96h-1.88v6.51h-1.85v-12.89h1.85v4.86h1.88V533.96z"/>
		<path fill="#999999" d="M460.6,529.46h2.8v1.47h-7.5v-1.47h2.86v-1.68h1.85V529.46z M459.68,531.66c0.47,0,0.9,0.07,1.29,0.22
			c0.4,0.15,0.74,0.36,1.03,0.64c0.29,0.28,0.51,0.6,0.68,0.97s0.24,0.78,0.24,1.23c0,0.46-0.08,0.88-0.24,1.25
			c-0.16,0.38-0.39,0.7-0.68,0.98c-0.29,0.28-0.63,0.49-1.03,0.64c-0.4,0.15-0.83,0.22-1.29,0.22c-0.47,0-0.9-0.08-1.3-0.22
			c-0.4-0.15-0.75-0.36-1.04-0.64s-0.52-0.6-0.68-0.98c-0.16-0.38-0.24-0.8-0.24-1.25c0-0.45,0.08-0.86,0.24-1.23
			s0.39-0.7,0.68-0.97s0.64-0.49,1.04-0.64C458.78,531.74,459.22,531.66,459.68,531.66z M459.7,536.31c0.44,0,0.79-0.14,1.07-0.41
			c0.28-0.28,0.42-0.67,0.42-1.17c0-0.48-0.14-0.87-0.42-1.15c-0.28-0.28-0.64-0.42-1.07-0.42s-0.8,0.14-1.08,0.42
			s-0.42,0.67-0.42,1.16c0,0.49,0.14,0.88,0.42,1.16S459.26,536.31,459.7,536.31z M467.94,534.13h-1.85v6.33h-1.85v-12.89h1.85v5.04
			h1.85V534.13z"/>
		<path fill="#999999" d="M480.52,537.42v1.48h-11.66v-1.48h4.12v-4.44h1.85v4.44H480.52z M477.04,535.86
			c0.24-1.21,0.39-2.28,0.44-3.21s0.08-1.77,0.08-2.51h-7.52v-1.47h9.37v1.23c0,0.4,0,0.82-0.01,1.26s-0.02,0.91-0.06,1.41
			c-0.03,0.5-0.08,1.04-0.15,1.62c-0.07,0.58-0.17,1.21-0.3,1.89L477.04,535.86z"/>
		<path fill="#999999" d="M496.58,532.43v1.46H484.9v-1.46H496.58z M488.11,538.91h7.48v1.39h-9.35v-3.5h7.11v-0.73h-7.13v-1.39h9
			v3.42h-7.11V538.91z M495.25,531.61h-8.89v-3.92h1.85v2.46h7.04V531.61z"/>
		<path fill="#999999" d="M512.01,527.55v12.89h-1.74v-6.38h-1.05v5.81h-1.71v-3.81l-1.07,1.43c-0.55-0.31-1.01-0.71-1.37-1.21
			c-0.36-0.5-0.65-1.07-0.86-1.7c-0.22,0.71-0.52,1.35-0.91,1.91c-0.38,0.56-0.86,1.02-1.44,1.38l-1.15-1.36
			c0.49-0.29,0.89-0.64,1.23-1.06c0.33-0.42,0.6-0.88,0.81-1.38c0.21-0.5,0.35-1.02,0.45-1.57s0.14-1.09,0.14-1.65v-2.17h1.78v2.03
			c0,0.56,0.04,1.1,0.12,1.63c0.08,0.53,0.21,1.02,0.4,1.49c0.19,0.47,0.43,0.89,0.74,1.26c0.31,0.37,0.68,0.69,1.13,0.94v-8.26
			h1.71v4.8h1.05v-5.03H512.01z"/>
		<path fill="#999999" d="M525.52,537.53v1.51h-11.68v-1.51h4.9v-1.92h-3.56v-4.37h7.2v-1.39h-7.21v-1.47h9.03v4.3h-7.18v1.44h7.48
			v1.48h-3.91v1.92H525.52z"/>
		<path fill="#999999" d="M538.38,533.82v1.47h-4.79v2.21h-1.88v-2.21h-5v-1.47H538.38z M532.54,533.15c-0.69,0-1.32-0.06-1.89-0.19
			c-0.57-0.13-1.06-0.3-1.46-0.53c-0.41-0.23-0.72-0.51-0.95-0.84s-0.34-0.7-0.34-1.11c0-0.4,0.11-0.77,0.34-1.1
			s0.54-0.61,0.95-0.85c0.41-0.23,0.89-0.41,1.46-0.54c0.57-0.13,1.2-0.19,1.89-0.19c0.7,0,1.33,0.06,1.9,0.19s1.06,0.31,1.46,0.54
			c0.41,0.23,0.72,0.52,0.94,0.85s0.33,0.7,0.33,1.1c0,0.41-0.11,0.78-0.33,1.11s-0.53,0.61-0.94,0.84
			c-0.41,0.23-0.89,0.41-1.46,0.53S533.25,533.15,532.54,533.15z M529.96,538.76h7.17v1.47h-9.04v-3.86h1.88V538.76z M532.54,529.27
			c-0.81,0-1.45,0.1-1.92,0.3c-0.47,0.2-0.71,0.5-0.71,0.9c0,0.4,0.24,0.7,0.71,0.9c0.47,0.2,1.11,0.3,1.92,0.3
			c0.82,0,1.47-0.1,1.94-0.3c0.47-0.2,0.71-0.5,0.71-0.9c0-0.4-0.24-0.7-0.71-0.9C534.01,529.37,533.37,529.27,532.54,529.27z"/>
		<path fill="#999999" d="M549.42,535.08h-6.09v-6.66h1.83v1.96h2.45v-1.96h1.81v1.29h2.3v-2.14h1.85v9.52h-1.85v-3.14h-2.3V535.08z
			 M553.84,538.76v1.47h-8.79v-4.07h1.85v2.6H553.84z M547.61,531.79h-2.45v1.82h2.45V531.79z M549.42,531.19v1.29h2.3v-1.29H549.42
			z"/>
		<path fill="#999999" d="M560.49,536.72c0.5-0.03,1-0.06,1.48-0.1s0.96-0.09,1.43-0.17l0.14,1.33c-0.68,0.13-1.37,0.23-2.06,0.31
			c-0.69,0.08-1.37,0.13-2.04,0.16c-0.67,0.03-1.32,0.05-1.95,0.06c-0.63,0-1.22,0.01-1.76,0.01l-0.22-1.5c0.47,0,0.96,0,1.48,0
			c0.52,0,1.07-0.01,1.64-0.03v-1.09c-0.67-0.13-1.21-0.4-1.62-0.82c-0.41-0.42-0.61-0.92-0.61-1.5c0-0.36,0.08-0.7,0.23-0.99
			c0.15-0.3,0.37-0.55,0.65-0.77c0.28-0.21,0.61-0.38,0.99-0.5c0.38-0.12,0.81-0.18,1.27-0.18c0.46,0,0.88,0.06,1.26,0.18
			c0.39,0.12,0.72,0.28,1,0.5c0.28,0.21,0.5,0.47,0.65,0.77c0.15,0.3,0.23,0.63,0.23,0.99c0,0.59-0.2,1.09-0.61,1.5
			s-0.94,0.69-1.61,0.82V536.72z M563.35,530.43h-7.59v-1.46h2.88v-1.36h1.85v1.36h2.86V530.43z M558.15,533.37
			c0,0.34,0.13,0.59,0.39,0.77c0.26,0.18,0.6,0.27,1.02,0.27c0.42,0,0.76-0.09,1.02-0.27c0.26-0.18,0.39-0.43,0.39-0.77
			s-0.13-0.59-0.39-0.77c-0.26-0.18-0.6-0.27-1.02-0.27c-0.42,0-0.76,0.09-1.02,0.27C558.28,532.78,558.15,533.03,558.15,533.37z
			 M567.52,534.34h-1.61v6.12h-1.85v-12.89h1.85v5.25h1.61V534.34z"/>
		<path fill="#999999" d="M580.21,533.36v1.33h-11.68v-1.33H580.21z M571.7,539.1h7.48v1.25h-9.31v-3.12H577v-0.64h-7.14v-1.25h8.97
			v3.07h-7.13V539.1z M576.97,529.03h-7v-1.25h8.82v3.04h-6.97v0.67h7.2v1.25H570v-3.09h6.97V529.03z"/>
		<path fill="#999999" d="M596.27,537.46v1.5H584.6v-1.5h4.9v-2.62h-3.67v-6.33H595v6.33h-3.65v2.62H596.27z M587.63,533.38h5.56
			v-3.42h-5.56V533.38z"/>
		<path fill="#999999" d="M602.99,534.73c-0.54-0.22-1-0.52-1.37-0.9c-0.37-0.37-0.67-0.8-0.9-1.27c-0.24,0.55-0.56,1.04-0.96,1.48
			c-0.4,0.43-0.89,0.78-1.49,1.04l-0.98-1.44c0.45-0.2,0.83-0.44,1.15-0.73s0.58-0.61,0.78-0.95c0.2-0.35,0.35-0.71,0.44-1.08
			c0.09-0.37,0.14-0.74,0.14-1.11v-1.5l1.46,0.01h0.32v1.48c0,0.35,0.04,0.71,0.13,1.06c0.09,0.35,0.23,0.68,0.42,0.99
			c0.19,0.31,0.44,0.59,0.74,0.85c0.3,0.26,0.67,0.48,1.1,0.66L602.99,534.73z M599.59,535.96h8.86v4.51h-1.83v-3.05h-7.03V535.96z
			 M608.45,527.56v7.83h-1.74v-3.21h-1.02v3.14h-1.71v-7.56h1.71v2.94h1.02v-3.14H608.45z"/>
		<path fill="#999999" d="M614.99,529.46h2.8v1.47h-7.5v-1.47h2.86v-1.68h1.85V529.46z M614.07,531.66c0.47,0,0.9,0.07,1.29,0.22
			c0.4,0.15,0.74,0.36,1.03,0.64c0.29,0.28,0.51,0.6,0.68,0.97s0.24,0.78,0.24,1.23c0,0.46-0.08,0.88-0.24,1.25
			c-0.16,0.38-0.39,0.7-0.68,0.98c-0.29,0.28-0.63,0.49-1.03,0.64c-0.4,0.15-0.83,0.22-1.29,0.22c-0.47,0-0.9-0.08-1.3-0.22
			c-0.4-0.15-0.75-0.36-1.04-0.64s-0.52-0.6-0.68-0.98c-0.16-0.38-0.24-0.8-0.24-1.25c0-0.45,0.08-0.86,0.24-1.23
			s0.39-0.7,0.68-0.97s0.64-0.49,1.04-0.64C613.17,531.74,613.61,531.66,614.07,531.66z M614.09,536.31c0.44,0,0.79-0.14,1.07-0.41
			c0.28-0.28,0.42-0.67,0.42-1.17c0-0.48-0.14-0.87-0.42-1.15c-0.28-0.28-0.64-0.42-1.07-0.42s-0.8,0.14-1.08,0.42
			s-0.42,0.67-0.42,1.16c0,0.49,0.14,0.88,0.42,1.16S613.65,536.31,614.09,536.31z M622.33,534.13h-1.85v6.33h-1.85v-12.89h1.85
			v5.04h1.85V534.13z"/>
		<path fill="#999999" d="M634.91,533.83v1.48h-11.68v-1.48H634.91z M626.43,538.7h7.28v1.48h-9.16v-3.85h1.88V538.7z
			 M633.62,532.52h-8.95v-4.49h1.85v3.02h7.1V532.52z"/>
		<path fill="#999999" d="M646.17,534.92c-0.73-0.19-1.34-0.47-1.83-0.85c-0.5-0.38-0.89-0.83-1.19-1.33
			c-0.28,0.59-0.67,1.1-1.18,1.54s-1.14,0.76-1.88,0.98l-0.88-1.44c0.51-0.14,0.96-0.33,1.33-0.57c0.37-0.24,0.68-0.52,0.92-0.83
			s0.42-0.64,0.54-0.99c0.12-0.35,0.18-0.71,0.19-1.08h-2.52v-1.44h2.52v-1.39h1.85v1.39h2.55v1.44h-2.55
			c0.01,0.33,0.07,0.65,0.19,0.97c0.12,0.32,0.3,0.62,0.54,0.9s0.55,0.53,0.92,0.76c0.37,0.22,0.82,0.4,1.33,0.53L646.17,534.92z
			 M645.23,535.57c0.67,0,1.28,0.06,1.81,0.17c0.54,0.11,0.99,0.27,1.37,0.48s0.67,0.47,0.87,0.77c0.2,0.3,0.3,0.65,0.3,1.03
			c0,0.38-0.1,0.73-0.3,1.03c-0.2,0.3-0.49,0.56-0.87,0.77s-0.84,0.37-1.37,0.48c-0.54,0.11-1.14,0.16-1.81,0.16
			s-1.28-0.05-1.82-0.16c-0.54-0.11-1-0.27-1.38-0.48s-0.67-0.47-0.87-0.77c-0.2-0.3-0.3-0.65-0.3-1.03c0-0.38,0.1-0.73,0.3-1.03
			c0.2-0.3,0.49-0.56,0.87-0.77s0.84-0.37,1.38-0.48C643.95,535.62,644.56,535.57,645.23,535.57z M645.23,539.04
			c0.83,0,1.46-0.08,1.88-0.25s0.64-0.42,0.64-0.78c0-0.35-0.21-0.61-0.64-0.78s-1.05-0.25-1.88-0.25c-1.69,0-2.53,0.34-2.53,1.02
			C642.7,538.7,643.54,539.04,645.23,539.04z M651.15,530.58v1.51h-1.71v3.23h-1.85v-7.77h1.85v3.02H651.15z"/>
		<path fill="#999999" d="M652.23,536.37c0.57,0,1.19,0,1.85-0.01s1.35-0.02,2.06-0.05c0.71-0.03,1.42-0.07,2.14-0.13
			c0.72-0.06,1.42-0.13,2.1-0.24l0.11,1.33c-0.69,0.14-1.39,0.25-2.11,0.33c-0.71,0.08-1.42,0.14-2.11,0.17
			c-0.69,0.04-1.36,0.06-2,0.07c-0.64,0.01-1.25,0.01-1.81,0.01L652.23,536.37z M656.32,528.41c0.5,0,0.97,0.08,1.41,0.24
			c0.43,0.16,0.81,0.38,1.13,0.66c0.32,0.28,0.57,0.62,0.75,1.01c0.18,0.39,0.27,0.82,0.27,1.27c0,0.47-0.09,0.89-0.27,1.28
			c-0.18,0.39-0.43,0.72-0.75,1s-0.69,0.5-1.13,0.66c-0.43,0.16-0.9,0.24-1.41,0.24s-0.97-0.08-1.41-0.24
			c-0.43-0.16-0.81-0.38-1.12-0.66c-0.31-0.28-0.56-0.61-0.74-1s-0.27-0.81-0.27-1.28c0-0.46,0.09-0.88,0.27-1.27
			c0.18-0.39,0.43-0.73,0.74-1.01c0.31-0.28,0.69-0.5,1.12-0.66C655.35,528.49,655.81,528.41,656.32,528.41z M656.31,530
			c-0.51,0-0.93,0.14-1.26,0.42s-0.5,0.67-0.5,1.18s0.17,0.9,0.5,1.18c0.33,0.28,0.75,0.42,1.26,0.42c0.51,0,0.93-0.14,1.26-0.42
			c0.33-0.28,0.5-0.67,0.5-1.18s-0.17-0.9-0.5-1.18S656.82,530,656.31,530z M662.93,527.55v12.94h-1.85v-12.94H662.93z"/>
		<path fill="#999999" d="M671.91,534.88c-0.71-0.23-1.31-0.57-1.79-1.01c-0.48-0.44-0.86-0.95-1.13-1.53
			c-0.29,0.63-0.68,1.2-1.19,1.69c-0.5,0.49-1.13,0.86-1.89,1.1l-0.94-1.46c0.51-0.18,0.96-0.41,1.34-0.69s0.7-0.59,0.94-0.95
			c0.25-0.35,0.43-0.72,0.55-1.11c0.12-0.39,0.19-0.79,0.2-1.19h-2.53v-1.47h6.93v1.47h-2.52c0.01,0.36,0.07,0.73,0.19,1.1
			c0.12,0.37,0.29,0.72,0.53,1.05c0.24,0.33,0.54,0.63,0.9,0.9c0.36,0.27,0.79,0.48,1.29,0.65L671.91,534.88z M667.04,535.81h8.79
			v4.66h-1.85v-3.19h-6.94V535.81z M675.83,527.57v7.66h-1.85v-3.11h-1.9v-1.48h1.9v-3.07H675.83z"/>
		<path fill="#999999" d="M685.13,531.66c0,0.47-0.09,0.9-0.27,1.3c-0.18,0.4-0.42,0.75-0.74,1.04s-0.69,0.52-1.11,0.68
			c-0.42,0.16-0.88,0.25-1.38,0.25s-0.96-0.08-1.39-0.25c-0.43-0.16-0.8-0.39-1.11-0.68c-0.31-0.29-0.56-0.63-0.74-1.04
			c-0.18-0.4-0.27-0.83-0.27-1.3c0-0.48,0.09-0.92,0.27-1.32c0.18-0.4,0.43-0.75,0.74-1.04c0.31-0.29,0.68-0.52,1.11-0.68
			c0.43-0.16,0.89-0.25,1.39-0.25s0.95,0.08,1.38,0.25s0.8,0.39,1.11,0.68c0.32,0.29,0.56,0.63,0.74,1.04
			C685.04,530.75,685.13,531.19,685.13,531.66z M679.92,531.66c0,0.52,0.17,0.93,0.5,1.22c0.33,0.29,0.73,0.44,1.21,0.44
			c0.49,0,0.89-0.15,1.21-0.44c0.32-0.29,0.48-0.7,0.48-1.22c0-0.53-0.16-0.95-0.48-1.24c-0.32-0.29-0.73-0.44-1.21-0.44
			c-0.48,0-0.88,0.15-1.21,0.44C680.09,530.72,679.92,531.13,679.92,531.66z M688.97,538.76v1.47h-8.9v-4.31h1.85v2.84H688.97z
			 M688.66,536.83h-1.88v-9.25h1.88V536.83z"/>
		<path fill="#999999" d="M701.19,531.66c0,0.47-0.09,0.9-0.27,1.3c-0.18,0.4-0.42,0.75-0.74,1.04s-0.69,0.52-1.11,0.68
			c-0.42,0.16-0.88,0.25-1.38,0.25s-0.96-0.08-1.39-0.25c-0.43-0.16-0.8-0.39-1.11-0.68c-0.31-0.29-0.56-0.63-0.74-1.04
			c-0.18-0.4-0.27-0.83-0.27-1.3c0-0.48,0.09-0.92,0.27-1.32c0.18-0.4,0.43-0.75,0.74-1.04c0.31-0.29,0.68-0.52,1.11-0.68
			c0.43-0.16,0.89-0.25,1.39-0.25s0.95,0.08,1.38,0.25s0.8,0.39,1.11,0.68c0.32,0.29,0.56,0.63,0.74,1.04
			C701.1,530.75,701.19,531.19,701.19,531.66z M695.98,531.66c0,0.52,0.17,0.93,0.5,1.22c0.33,0.29,0.73,0.44,1.21,0.44
			c0.49,0,0.89-0.15,1.21-0.44c0.32-0.29,0.48-0.7,0.48-1.22c0-0.53-0.16-0.95-0.48-1.24c-0.32-0.29-0.73-0.44-1.21-0.44
			c-0.48,0-0.88,0.15-1.21,0.44C696.15,530.72,695.98,531.13,695.98,531.66z M705.02,538.76v1.47h-8.9v-4.31h1.85v2.84H705.02z
			 M704.72,536.83h-1.88v-9.25h1.88V536.83z"/>
		<path fill="#999999" d="M718.02,527.55v12.89h-1.74V534h-1.06v5.87h-1.71v-3.74l-1.04,1.39c-0.58-0.31-1.06-0.71-1.44-1.22
			s-0.69-1.08-0.92-1.72c-0.21,0.75-0.51,1.41-0.89,2c-0.38,0.59-0.88,1.06-1.48,1.41l-1.11-1.4c0.48-0.28,0.88-0.63,1.2-1.04
			c0.33-0.42,0.59-0.88,0.78-1.39c0.2-0.51,0.34-1.06,0.42-1.65s0.13-1.19,0.13-1.81v-0.35h-2.11v-1.5h5.82v1.5h-1.93v0.35
			c0,0.56,0.04,1.11,0.13,1.65s0.23,1.05,0.43,1.52c0.2,0.47,0.46,0.9,0.79,1.27s0.73,0.69,1.21,0.94v-8.34h1.71v4.73h1.06v-4.94
			H718.02z"/>
	</g>
	<g enable-background="new    ">
		<path fill="#999999" d="M1084.14,535.08h-6.09v-6.66h1.83v1.96h2.45v-1.96h1.81v1.29h2.3v-2.14h1.85v9.52h-1.85v-3.14h-2.3V535.08
			z M1088.57,538.76v1.47h-8.79v-4.07h1.85v2.6H1088.57z M1082.34,531.79h-2.45v1.82h2.45V531.79z M1084.14,531.19v1.29h2.3v-1.29
			H1084.14z"/>
		<path fill="#999999" d="M1095.22,536.72c0.5-0.03,1-0.06,1.48-0.1s0.96-0.09,1.43-0.17l0.14,1.33c-0.68,0.13-1.37,0.23-2.06,0.31
			c-0.69,0.08-1.37,0.13-2.04,0.16c-0.67,0.03-1.32,0.05-1.95,0.06c-0.63,0-1.22,0.01-1.76,0.01l-0.22-1.5c0.47,0,0.96,0,1.48,0
			c0.52,0,1.07-0.01,1.64-0.03v-1.09c-0.67-0.13-1.21-0.4-1.62-0.82s-0.61-0.92-0.61-1.5c0-0.36,0.08-0.7,0.23-0.99
			s0.37-0.55,0.65-0.77c0.28-0.21,0.61-0.38,0.99-0.5c0.38-0.12,0.81-0.18,1.27-0.18c0.46,0,0.88,0.06,1.26,0.18
			c0.39,0.12,0.72,0.28,1,0.5s0.5,0.47,0.65,0.77s0.23,0.63,0.23,0.99c0,0.59-0.2,1.09-0.61,1.5s-0.94,0.69-1.61,0.82V536.72z
			 M1098.07,530.43h-7.59v-1.46h2.88v-1.36h1.85v1.36h2.86V530.43z M1092.88,533.37c0,0.34,0.13,0.59,0.39,0.77
			c0.26,0.18,0.6,0.27,1.02,0.27c0.42,0,0.76-0.09,1.02-0.27c0.26-0.18,0.39-0.43,0.39-0.77s-0.13-0.59-0.39-0.77
			c-0.26-0.18-0.6-0.27-1.02-0.27c-0.42,0-0.76,0.09-1.02,0.27C1093.01,532.78,1092.88,533.03,1092.88,533.37z M1102.25,534.34
			h-1.61v6.12h-1.85v-12.89h1.85v5.25h1.61V534.34z"/>
		<path fill="#999999" d="M1108,536.31c0.5-0.02,1-0.05,1.48-0.09s0.97-0.09,1.44-0.15l0.15,1.33c-0.67,0.13-1.35,0.23-2.04,0.29
			c-0.69,0.07-1.36,0.11-2.02,0.15c-0.66,0.03-1.3,0.05-1.92,0.05s-1.2,0-1.74,0l-0.22-1.5c0.46,0,0.94,0,1.46,0
			c0.51,0,1.04,0,1.58-0.01v-1.82c-0.38-0.08-0.73-0.22-1.05-0.4c-0.32-0.18-0.59-0.41-0.83-0.67c-0.23-0.27-0.41-0.57-0.54-0.91
			s-0.19-0.71-0.19-1.1c0-0.46,0.09-0.88,0.27-1.27s0.42-0.73,0.73-1.01c0.31-0.28,0.68-0.5,1.11-0.66
			c0.43-0.16,0.89-0.24,1.38-0.24c0.5,0,0.97,0.08,1.39,0.24c0.42,0.16,0.79,0.38,1.11,0.66c0.32,0.28,0.56,0.62,0.74,1.01
			c0.18,0.39,0.27,0.82,0.27,1.27c0,0.39-0.06,0.76-0.19,1.09c-0.13,0.34-0.3,0.64-0.53,0.9c-0.23,0.27-0.5,0.49-0.81,0.67
			c-0.32,0.18-0.66,0.31-1.03,0.4V536.31z M1105.34,531.48c0,0.5,0.16,0.9,0.49,1.18c0.32,0.29,0.73,0.43,1.23,0.43
			s0.91-0.14,1.24-0.43s0.49-0.68,0.49-1.18c0-0.5-0.16-0.9-0.49-1.18c-0.33-0.28-0.74-0.42-1.24-0.42s-0.91,0.14-1.23,0.42
			C1105.5,530.58,1105.34,530.98,1105.34,531.48z M1115.14,534.14h-1.69v6.3h-1.85v-12.89h1.85v5.07h1.69V534.14z"/>
		<path fill="#999999" d="M1126.44,530.11h-7.07v-1.44h2.7v-1.2h1.85v1.2h2.52V530.11z M1126,533.02c0,0.36-0.08,0.68-0.23,0.99
			c-0.15,0.3-0.36,0.57-0.63,0.78c-0.27,0.22-0.58,0.39-0.95,0.51c-0.37,0.12-0.77,0.18-1.2,0.18c-0.43,0-0.83-0.06-1.2-0.18
			c-0.37-0.12-0.69-0.29-0.96-0.51c-0.27-0.22-0.48-0.48-0.64-0.78c-0.15-0.3-0.23-0.63-0.23-0.99c0-0.35,0.08-0.68,0.23-0.99
			c0.15-0.3,0.37-0.56,0.64-0.78c0.27-0.22,0.59-0.39,0.96-0.51c0.37-0.12,0.77-0.18,1.2-0.18c0.43,0,0.83,0.06,1.2,0.18
			c0.37,0.12,0.69,0.29,0.95,0.51c0.27,0.22,0.48,0.48,0.63,0.78C1125.93,532.34,1126,532.67,1126,533.02z M1121.33,536.34h8.78
			v4.13h-1.85v-2.66h-6.93V536.34z M1121.68,533.02c0,0.34,0.12,0.6,0.37,0.79c0.24,0.19,0.56,0.29,0.94,0.29
			c0.38,0,0.69-0.1,0.94-0.29c0.25-0.19,0.37-0.45,0.37-0.79c0-0.34-0.12-0.6-0.37-0.78s-0.56-0.28-0.94-0.28
			c-0.38,0-0.7,0.09-0.94,0.28S1121.68,532.68,1121.68,533.02z M1130.11,527.56v8.2h-1.85v-1.37h-1.69v-1.47h1.69v-1.01h-1.65v-1.47
			h1.65v-2.88H1130.11z"/>
		<path fill="#999999" d="M1139.17,535.02c-0.72-0.24-1.33-0.59-1.82-1.05c-0.49-0.46-0.88-0.99-1.16-1.6
			c-0.3,0.65-0.7,1.23-1.2,1.73c-0.5,0.5-1.13,0.88-1.89,1.14l-0.94-1.47c0.53-0.18,0.99-0.42,1.38-0.73
			c0.39-0.31,0.71-0.65,0.96-1.03c0.25-0.38,0.44-0.78,0.55-1.2c0.12-0.42,0.17-0.85,0.17-1.28v-1.26h1.88v1.26
			c0,0.42,0.06,0.83,0.18,1.25c0.12,0.41,0.3,0.79,0.54,1.15c0.24,0.36,0.55,0.67,0.93,0.95s0.83,0.5,1.36,0.67L1139.17,535.02z
			 M1143.24,538.76v1.47h-8.9v-4.16h1.85v2.69H1143.24z M1142.93,536.97h-1.88v-9.39h1.88V536.97z"/>
		<path fill="#999999" d="M1156.73,532.75v1.44h-11.65v-1.44H1156.73z M1150.91,532.14c-1.47,0-2.62-0.19-3.44-0.56
			s-1.22-0.92-1.22-1.64c0-0.71,0.41-1.25,1.22-1.63s1.96-0.57,3.44-0.57c1.48,0,2.63,0.19,3.45,0.57s1.23,0.92,1.23,1.63
			c0,0.72-0.41,1.26-1.23,1.64S1152.39,532.14,1150.91,532.14z M1148.26,538.97h7.39v1.39h-9.23v-3.39h7.07v-0.69h-7.08v-1.36h8.9
			v3.32h-7.06V538.97z M1150.91,529.1c-0.93,0-1.62,0.07-2.07,0.2c-0.45,0.14-0.67,0.35-0.67,0.64c0,0.3,0.22,0.52,0.67,0.65
			c0.45,0.14,1.14,0.2,2.07,0.2c0.94,0,1.64-0.07,2.09-0.2c0.45-0.13,0.67-0.35,0.67-0.65c0-0.29-0.22-0.5-0.67-0.64
			C1152.55,529.17,1151.85,529.1,1150.91,529.1z"/>
		<path fill="#999999" d="M1172.81,536.16h-4.94v4.33h-1.85v-4.33h-4.86v-1.47h11.65V536.16z M1161.7,532.5
			c0.65-0.08,1.23-0.22,1.74-0.41c0.5-0.19,0.93-0.41,1.27-0.66c0.34-0.25,0.62-0.53,0.81-0.83c0.2-0.3,0.32-0.61,0.36-0.92h-3.71
			v-1.47h9.56v1.47h-3.65c0.05,0.31,0.17,0.61,0.36,0.92c0.19,0.3,0.46,0.58,0.81,0.83c0.34,0.25,0.77,0.47,1.27,0.66
			c0.5,0.19,1.08,0.32,1.73,0.41l-0.66,1.44c-1.13-0.16-2.08-0.46-2.86-0.92c-0.77-0.45-1.36-1.01-1.75-1.67
			c-0.39,0.66-0.98,1.22-1.75,1.67c-0.77,0.45-1.73,0.76-2.86,0.92L1161.7,532.5z"/>
		<path fill="#999999" d="M1185.7,537.49V539h-11.68v-1.51h4.9v-2.69h-3.54v-6.36h8.99v1.48h-7.11v3.39h7.2v1.48h-3.68v2.69H1185.7z
			"/>
		<path fill="#999999" d="M1191.54,529.46h2.8v1.47h-7.5v-1.47h2.86v-1.68h1.85V529.46z M1190.62,531.66c0.47,0,0.9,0.07,1.29,0.22
			c0.4,0.15,0.74,0.36,1.03,0.64s0.51,0.6,0.68,0.97s0.24,0.78,0.24,1.23c0,0.46-0.08,0.88-0.24,1.25c-0.16,0.38-0.39,0.7-0.68,0.98
			s-0.63,0.49-1.03,0.64c-0.4,0.15-0.83,0.22-1.29,0.22c-0.46,0-0.9-0.08-1.3-0.22c-0.4-0.15-0.75-0.36-1.04-0.64
			c-0.29-0.28-0.52-0.6-0.68-0.98c-0.16-0.38-0.24-0.8-0.24-1.25c0-0.45,0.08-0.86,0.24-1.23s0.39-0.7,0.68-0.97
			c0.29-0.28,0.64-0.49,1.04-0.64S1190.16,531.66,1190.62,531.66z M1190.63,536.31c0.44,0,0.79-0.14,1.07-0.41
			c0.28-0.28,0.42-0.67,0.42-1.17c0-0.48-0.14-0.87-0.42-1.15c-0.28-0.28-0.64-0.42-1.07-0.42s-0.8,0.14-1.08,0.42
			s-0.42,0.67-0.42,1.16c0,0.49,0.14,0.88,0.42,1.16S1190.2,536.31,1190.63,536.31z M1198.87,534.13h-1.85v6.33h-1.85v-12.89h1.85
			v5.04h1.85V534.13z"/>
		<path fill="#999999" d="M1211.46,537.42v1.48h-11.66v-1.48h4.12v-4.44h1.85v4.44H1211.46z M1207.97,535.86
			c0.24-1.21,0.39-2.28,0.44-3.21c0.05-0.93,0.08-1.77,0.08-2.51h-7.52v-1.47h9.37v1.23c0,0.4,0,0.82-0.01,1.26
			s-0.02,0.91-0.06,1.41c-0.03,0.5-0.08,1.04-0.15,1.62c-0.07,0.58-0.17,1.21-0.3,1.89L1207.97,535.86z"/>
		<path fill="#999999" d="M1222.87,533.92c-0.74-0.21-1.36-0.54-1.85-0.97c-0.5-0.43-0.89-0.92-1.18-1.48
			c-0.3,0.62-0.71,1.16-1.23,1.62s-1.16,0.81-1.92,1.04l-0.9-1.44c0.53-0.17,0.99-0.39,1.38-0.66c0.39-0.27,0.71-0.58,0.96-0.92
			c0.25-0.34,0.44-0.71,0.56-1.1c0.12-0.39,0.18-0.78,0.18-1.17v-0.97h1.88v0.97c0,0.38,0.06,0.76,0.17,1.13
			c0.12,0.37,0.3,0.71,0.55,1.04c0.25,0.32,0.56,0.61,0.94,0.87s0.83,0.46,1.35,0.61L1222.87,533.92z M1226.87,538.93v1.43h-8.9
			v-3.54h6.75v-0.76h-6.76v-1.41h8.6v3.49h-6.75v0.8H1226.87z M1226.54,534.07h-1.85v-6.5h1.85V534.07z"/>
		<path fill="#999999" d="M1233.89,535.82c0.16-0.02,0.31-0.04,0.46-0.05c0.15-0.01,0.29-0.03,0.43-0.05l0.14,1.34
			c-0.5,0.1-1.02,0.18-1.57,0.24c-0.55,0.06-1.1,0.11-1.65,0.14c-0.55,0.03-1.07,0.05-1.57,0.06c-0.5,0.01-0.95,0.01-1.34,0.01
			l-0.2-1.5h1.02v-5.54h-0.8V529h5.88v1.48h-0.81V535.82z M1231.27,535.99c0.16-0.01,0.32-0.02,0.48-0.02
			c0.16,0,0.32-0.01,0.48-0.02v-5.46h-0.97V535.99z M1239.77,527.56v12.91h-1.74V534h-0.99v5.85h-1.71V527.8h1.71v4.7h0.99v-4.94
			H1239.77z"/>
		<path fill="#999999" d="M1253.28,533.36v1.33h-11.68v-1.33H1253.28z M1244.77,539.1h7.48v1.25h-9.31v-3.12h7.13v-0.64h-7.14v-1.25
			h8.97v3.07h-7.13V539.1z M1250.03,529.03h-7v-1.25h8.82v3.04h-6.97v0.67h7.2v1.25h-9.02v-3.09h6.97V529.03z"/>
		<path fill="#999999" d="M1269.33,536.35h-4.96v4.09h-1.85v-4.09h-4.89v-1.5h11.69V536.35z M1267.98,533.59h-8.85v-5.35h8.71v1.47
			H1261v2.41h6.97V533.59z"/>
		<path fill="#999999" d="M1272.81,536.09c0.78-0.01,1.54-0.04,2.25-0.08s1.48-0.12,2.3-0.25l0.14,1.51
			c-0.48,0.07-0.94,0.13-1.39,0.17s-0.89,0.07-1.34,0.1s-0.89,0.04-1.34,0.05c-0.45,0.01-0.92,0.01-1.41,0.01h-1.04v-5.45h3.91
			v-2.06h-3.93v-1.47h5.75v4.98h-3.91V536.09z M1281.35,527.55v12.94h-1.88v-5.21h-2.14v-1.48h2.14v-2.02h-2.11v-1.48h2.11v-2.74
			H1281.35z"/>
		<path fill="#999999" d="M1291.78,535.06c-0.57,0.1-1.14,0.18-1.7,0.24c-0.56,0.06-1.13,0.12-1.69,0.16v4.61h-1.85v-4.51
			c-0.53,0.02-1.04,0.03-1.54,0.03c-0.5,0-0.97,0.01-1.41,0.01l-0.21-1.5c0.6,0,1.24,0,1.92-0.01c0.68,0,1.38-0.02,2.09-0.05
			c0.71-0.03,1.43-0.07,2.16-0.12c0.72-0.05,1.43-0.12,2.12-0.22L1291.78,535.06z M1287.55,533.38c-0.48,0-0.91-0.07-1.32-0.2
			c-0.4-0.13-0.75-0.31-1.04-0.54c-0.29-0.23-0.52-0.51-0.68-0.83c-0.16-0.33-0.25-0.69-0.25-1.08c0-0.39,0.08-0.75,0.25-1.07
			c0.16-0.32,0.39-0.6,0.68-0.83s0.63-0.42,1.04-0.55s0.84-0.2,1.32-0.2c0.48,0,0.91,0.07,1.31,0.2c0.4,0.13,0.74,0.31,1.03,0.55
			c0.29,0.23,0.52,0.51,0.68,0.83c0.16,0.32,0.25,0.68,0.25,1.07c0,0.39-0.08,0.75-0.25,1.08c-0.16,0.33-0.39,0.6-0.68,0.83
			c-0.29,0.23-0.63,0.41-1.03,0.54C1288.46,533.32,1288.03,533.38,1287.55,533.38z M1287.54,529.49c-0.46,0-0.83,0.11-1.12,0.33
			c-0.29,0.22-0.44,0.52-0.44,0.92c0,0.4,0.14,0.71,0.44,0.92s0.67,0.32,1.12,0.32c0.46,0,0.83-0.11,1.11-0.32s0.42-0.52,0.42-0.92
			c0-0.39-0.14-0.7-0.42-0.92C1288.37,529.6,1288,529.49,1287.54,529.49z M1294.34,527.56v12.88h-1.85v-2.81h-2.59v-1.4h2.59v-8.67
			H1294.34z"/>
		<path fill="#999999" d="M1300.93,529.46h2.8v1.47h-7.5v-1.47h2.86v-1.68h1.85V529.46z M1300.02,531.66c0.47,0,0.9,0.07,1.29,0.22
			c0.4,0.15,0.74,0.36,1.03,0.64s0.51,0.6,0.68,0.97s0.24,0.78,0.24,1.23c0,0.46-0.08,0.88-0.24,1.25c-0.16,0.38-0.39,0.7-0.68,0.98
			s-0.63,0.49-1.03,0.64c-0.4,0.15-0.83,0.22-1.29,0.22c-0.46,0-0.9-0.08-1.3-0.22c-0.4-0.15-0.75-0.36-1.04-0.64
			c-0.29-0.28-0.52-0.6-0.68-0.98c-0.16-0.38-0.24-0.8-0.24-1.25c0-0.45,0.08-0.86,0.24-1.23s0.39-0.7,0.68-0.97
			c0.29-0.28,0.64-0.49,1.04-0.64S1299.55,531.66,1300.02,531.66z M1300.03,536.31c0.44,0,0.79-0.14,1.07-0.41
			c0.28-0.28,0.42-0.67,0.42-1.17c0-0.48-0.14-0.87-0.42-1.15c-0.28-0.28-0.64-0.42-1.07-0.42s-0.8,0.14-1.08,0.42
			s-0.42,0.67-0.42,1.16c0,0.49,0.14,0.88,0.42,1.16S1299.59,536.31,1300.03,536.31z M1308.27,534.13h-1.85v6.33h-1.85v-12.89h1.85
			v5.04h1.85V534.13z"/>
		<path fill="#999999" d="M1314.16,531.03c0,0.52,0.07,1.05,0.2,1.58c0.13,0.53,0.33,1.02,0.59,1.49c0.27,0.47,0.6,0.89,0.99,1.26
			c0.4,0.37,0.87,0.67,1.41,0.9l-1.01,1.46c-0.76-0.33-1.39-0.79-1.9-1.39s-0.91-1.29-1.2-2.07c-0.29,0.85-0.69,1.61-1.21,2.27
			c-0.52,0.66-1.16,1.17-1.91,1.51l-1.05-1.47c0.54-0.24,1.01-0.56,1.41-0.97s0.73-0.85,1-1.34c0.27-0.49,0.46-1.01,0.59-1.57
			c0.13-0.56,0.2-1.11,0.2-1.66v-0.71h-2.69v-1.53h7.22v1.53h-2.66V531.03z M1319.86,527.56v12.89h-1.85v-12.89H1319.86z"/>
		<path fill="#999999" d="M1332.2,531.2c0,0.44-0.09,0.84-0.26,1.21c-0.17,0.37-0.41,0.69-0.72,0.95c-0.31,0.27-0.67,0.47-1.09,0.62
			s-0.87,0.22-1.36,0.22c-0.49,0-0.95-0.07-1.36-0.22c-0.42-0.15-0.78-0.36-1.08-0.62c-0.31-0.27-0.55-0.58-0.72-0.95
			s-0.26-0.77-0.26-1.21s0.09-0.84,0.26-1.22c0.17-0.37,0.41-0.69,0.72-0.96c0.31-0.27,0.67-0.47,1.08-0.62
			c0.42-0.15,0.87-0.22,1.36-0.22c0.49,0,0.94,0.08,1.36,0.22s0.78,0.36,1.09,0.62c0.31,0.27,0.55,0.58,0.72,0.96
			C1332.11,530.36,1332.2,530.76,1332.2,531.2z M1328.15,538.62c0.35-0.03,0.69-0.07,1.02-0.13c0.33-0.06,0.67-0.14,0.99-0.25
			l0.25,1.46c-0.53,0.19-1.06,0.31-1.59,0.36c-0.53,0.05-1.11,0.08-1.74,0.08h-0.71v-4.98h1.78V538.62z M1327.11,531.2
			c0,0.48,0.16,0.84,0.47,1.11c0.31,0.26,0.71,0.39,1.18,0.39c0.48,0,0.87-0.13,1.18-0.39c0.31-0.26,0.47-0.63,0.47-1.11
			c0-0.48-0.16-0.85-0.47-1.11c-0.31-0.27-0.71-0.4-1.18-0.4c-0.48,0-0.87,0.13-1.18,0.4S1327.11,530.72,1327.11,531.2z
			 M1334.11,535.19h2.31v1.33h-6.45v-1.33h2.35v-0.91h1.79V535.19z M1333.19,536.84c0.74,0,1.34,0.16,1.8,0.48s0.69,0.76,0.69,1.32
			c0,0.28-0.06,0.53-0.18,0.76c-0.12,0.22-0.29,0.42-0.51,0.57c-0.22,0.16-0.48,0.28-0.79,0.36c-0.31,0.08-0.64,0.13-1.01,0.13
			c-0.36,0-0.7-0.04-1.01-0.13c-0.31-0.08-0.57-0.21-0.79-0.36c-0.22-0.16-0.39-0.35-0.51-0.57c-0.12-0.22-0.18-0.48-0.18-0.76
			c0-0.56,0.23-1,0.69-1.32S1332.45,536.84,1333.19,536.84z M1333.19,539.22c0.25,0,0.46-0.05,0.62-0.14
			c0.16-0.09,0.24-0.24,0.24-0.43c0-0.19-0.08-0.33-0.24-0.42c-0.16-0.09-0.36-0.14-0.62-0.14c-0.24,0-0.45,0.05-0.61,0.14
			c-0.16,0.09-0.25,0.23-0.25,0.42c0,0.2,0.08,0.34,0.25,0.43C1332.74,539.18,1332.95,539.22,1333.19,539.22z M1337.09,530.22v1.53
			h-1.71v2.17h-1.85v-6.36h1.85v2.66H1337.09z"/>
		<path fill="#999999" d="M1349.79,533.83v1.48h-11.68v-1.48H1349.79z M1341.31,538.7h7.28v1.48h-9.16v-3.85h1.88V538.7z
			 M1348.5,532.52h-8.95v-4.49h1.85v3.02h7.1V532.52z"/>
		<path fill="#999999" d="M1365.85,537.49V539h-11.68v-1.51h4.9v-2.69h-3.54v-6.36h8.99v1.48h-7.11v3.39h7.2v1.48h-3.68v2.69
			H1365.85z"/>
		<path fill="#999999" d="M1373.91,535.3c-0.71-0.23-1.3-0.57-1.79-1.01c-0.48-0.44-0.86-0.95-1.12-1.54
			c-0.29,0.64-0.69,1.21-1.2,1.69s-1.14,0.85-1.9,1.11l-0.92-1.47c0.53-0.17,0.99-0.4,1.37-0.69c0.38-0.29,0.7-0.61,0.95-0.97
			c0.25-0.35,0.43-0.73,0.55-1.13c0.12-0.4,0.17-0.81,0.17-1.22v-0.18h-2.53v-1.47h6.93v1.47h-2.52v0.17c0,0.38,0.06,0.76,0.17,1.14
			s0.29,0.74,0.53,1.07c0.24,0.34,0.54,0.64,0.91,0.92c0.37,0.28,0.81,0.5,1.31,0.67L1373.91,535.3z M1378.13,538.76v1.47h-8.79
			v-4.05h1.85v2.58H1378.13z M1375.99,530.89v-3.33h1.85v9.41h-1.85v-4.58h-2.02v-1.5H1375.99z"/>
		<path fill="#999999" d="M1386.79,534.88c-0.7-0.23-1.29-0.57-1.78-1c-0.48-0.43-0.87-0.94-1.14-1.5
			c-0.28,0.65-0.67,1.23-1.18,1.73c-0.51,0.5-1.14,0.88-1.89,1.13l-0.94-1.46c0.51-0.18,0.96-0.41,1.33-0.69
			c0.37-0.28,0.68-0.6,0.93-0.95c0.25-0.35,0.43-0.72,0.56-1.12c0.13-0.4,0.2-0.79,0.22-1.2h-2.53v-1.48h6.93v1.48h-2.52
			c0.01,0.36,0.08,0.73,0.2,1.09c0.12,0.36,0.3,0.71,0.54,1.03c0.24,0.32,0.54,0.61,0.9,0.88c0.36,0.26,0.79,0.47,1.28,0.63
			L1386.79,534.88z M1386.36,535.51c0.68,0,1.3,0.06,1.84,0.17c0.55,0.11,1.01,0.27,1.39,0.48s0.67,0.47,0.88,0.78
			c0.21,0.31,0.31,0.66,0.31,1.05c0,0.39-0.1,0.74-0.31,1.05s-0.5,0.57-0.88,0.78s-0.84,0.37-1.39,0.48
			c-0.55,0.11-1.16,0.17-1.84,0.17c-0.69,0-1.31-0.06-1.85-0.17c-0.55-0.11-1.01-0.27-1.39-0.48s-0.67-0.47-0.88-0.78
			c-0.21-0.31-0.31-0.66-0.31-1.05c0-0.39,0.1-0.74,0.31-1.05c0.21-0.31,0.5-0.57,0.88-0.78s0.84-0.37,1.39-0.48
			C1385.05,535.57,1385.67,535.51,1386.36,535.51z M1386.36,539.07c0.85,0,1.49-0.09,1.92-0.27c0.43-0.18,0.64-0.45,0.64-0.81
			c0-0.36-0.21-0.63-0.64-0.81c-0.43-0.18-1.07-0.27-1.92-0.27c-1.72,0-2.58,0.36-2.58,1.08S1384.64,539.07,1386.36,539.07z
			 M1388.87,530.67v-3.11h1.85v7.67h-1.85v-3.07h-1.93v-1.5H1388.87z"/>
		<path fill="#999999" d="M1399.78,535.02c-0.72-0.24-1.33-0.59-1.82-1.05c-0.49-0.46-0.88-0.99-1.16-1.6
			c-0.3,0.65-0.7,1.23-1.2,1.73c-0.5,0.5-1.13,0.88-1.89,1.14l-0.94-1.47c0.53-0.18,0.99-0.42,1.38-0.73
			c0.39-0.31,0.71-0.65,0.96-1.03c0.25-0.38,0.44-0.78,0.55-1.2c0.12-0.42,0.17-0.85,0.17-1.28v-1.26h1.88v1.26
			c0,0.42,0.06,0.83,0.17,1.25c0.12,0.41,0.3,0.79,0.54,1.15c0.24,0.36,0.55,0.67,0.93,0.95c0.38,0.28,0.83,0.5,1.36,0.67
			L1399.78,535.02z M1403.85,538.76v1.47h-8.9v-4.16h1.85v2.69H1403.85z M1403.54,536.97h-1.88v-9.39h1.88V536.97z"/>
	</g>
	<g enable-background="new    ">
		<path fill="#1F98D5" d="M528.19,495.6c-1.46-0.37-2.68-0.94-3.67-1.71c-0.99-0.76-1.78-1.65-2.38-2.66
			c-0.56,1.18-1.35,2.2-2.37,3.08c-1.02,0.88-2.27,1.53-3.77,1.96l-1.76-2.88c1.03-0.28,1.91-0.66,2.66-1.15
			c0.75-0.49,1.36-1.04,1.85-1.65s0.84-1.28,1.08-1.99c0.23-0.71,0.36-1.43,0.38-2.16h-5.04v-2.88h5.04v-2.77h3.7v2.77h5.1v2.88
			h-5.1c0.02,0.65,0.14,1.3,0.38,1.93s0.59,1.23,1.08,1.79c0.49,0.56,1.1,1.06,1.85,1.51c0.75,0.45,1.63,0.8,2.66,1.06L528.19,495.6
			z M526.32,496.89c1.34,0,2.55,0.11,3.63,0.34c1.07,0.22,1.99,0.55,2.74,0.97c0.76,0.42,1.33,0.93,1.74,1.54
			c0.4,0.61,0.6,1.29,0.6,2.06s-0.2,1.45-0.6,2.06s-0.98,1.12-1.74,1.54c-0.76,0.42-1.67,0.74-2.74,0.95
			c-1.07,0.21-2.28,0.32-3.63,0.32c-1.34,0-2.56-0.11-3.64-0.32s-2-0.53-2.76-0.95s-1.33-0.93-1.74-1.54s-0.6-1.29-0.6-2.06
			s0.2-1.45,0.6-2.06c0.4-0.61,0.98-1.12,1.74-1.54c0.76-0.42,1.67-0.74,2.76-0.97C523.76,497,524.97,496.89,526.32,496.89z
			 M526.32,503.83c1.66,0,2.92-0.16,3.77-0.49c0.85-0.33,1.27-0.84,1.27-1.55c0-0.71-0.42-1.23-1.27-1.55
			c-0.85-0.33-2.1-0.49-3.77-0.49c-3.38,0-5.07,0.68-5.07,2.04S522.94,503.83,526.32,503.83z M538.16,486.92v3.02h-3.42v6.47h-3.7
			v-15.54h3.7v6.05H538.16z"/>
		<path fill="#1F98D5" d="M540.32,498.48c1.14,0,2.37,0,3.7-0.01c1.33-0.01,2.7-0.04,4.12-0.1c1.42-0.06,2.85-0.14,4.28-0.25
			c1.44-0.11,2.84-0.27,4.2-0.48l0.22,2.66c-1.38,0.28-2.79,0.5-4.21,0.66c-1.43,0.16-2.83,0.28-4.21,0.35
			c-1.38,0.08-2.72,0.12-4,0.14c-1.29,0.02-2.49,0.03-3.61,0.03L540.32,498.48z M548.49,482.58c1.01,0,1.95,0.16,2.81,0.48
			c0.87,0.32,1.62,0.76,2.25,1.32c0.63,0.56,1.13,1.23,1.5,2.02s0.55,1.63,0.55,2.55c0,0.93-0.18,1.79-0.55,2.56s-0.86,1.44-1.5,2
			s-1.39,1-2.25,1.32s-1.81,0.48-2.81,0.48c-1.01,0-1.95-0.16-2.81-0.48s-1.62-0.76-2.24-1.32s-1.12-1.23-1.48-2
			c-0.36-0.77-0.55-1.63-0.55-2.56c0-0.91,0.18-1.76,0.55-2.55c0.36-0.78,0.86-1.46,1.48-2.02c0.62-0.56,1.37-1,2.24-1.32
			C546.55,482.74,547.48,482.58,548.49,482.58z M548.48,485.74c-1.01,0-1.85,0.28-2.52,0.84c-0.67,0.56-1,1.34-1,2.35
			c0,1.01,0.33,1.79,1,2.35c0.67,0.56,1.5,0.84,2.52,0.84s1.85-0.28,2.52-0.84c0.67-0.56,1-1.34,1-2.35c0-1.01-0.33-1.79-1-2.35
			C550.33,486.02,549.49,485.74,548.48,485.74z M561.71,480.84v25.87h-3.7v-25.87H561.71z"/>
	</g>
	<g enable-background="new    ">
		<path fill="#1F98D5" d="M1239.8,500.72v3.02h-23.35v-3.02h9.8v-5.38h-7.08v-12.71h17.98v2.97h-14.22v6.78h14.39v2.97h-7.36v5.38
			H1239.8z"/>
		<path fill="#1F98D5" d="M1255.92,496.35c-1.42-0.47-2.61-1.14-3.58-2.02c-0.97-0.88-1.71-1.9-2.25-3.08
			c-0.58,1.29-1.38,2.42-2.39,3.39c-1.02,0.97-2.28,1.71-3.79,2.21l-1.85-2.94c1.06-0.34,1.98-0.79,2.74-1.37
			c0.77-0.58,1.4-1.22,1.89-1.93c0.49-0.71,0.86-1.47,1.09-2.27c0.23-0.8,0.35-1.61,0.35-2.44v-0.36h-5.07v-2.94h13.86v2.94h-5.04
			v0.34c0,0.77,0.11,1.53,0.34,2.28c0.22,0.76,0.57,1.47,1.05,2.14c0.48,0.67,1.08,1.28,1.82,1.83c0.74,0.55,1.61,0.99,2.62,1.33
			L1255.92,496.35z M1264.35,503.27v2.94h-17.58v-8.09h3.7v5.15H1264.35z M1260.07,487.53v-6.66h3.7v18.82h-3.7v-9.16h-4.03v-3
			H1260.07z"/>
	</g>
	<g id="그룹_459">
		<line id="선_100" fill="none" stroke="#E7E7E7" x1="539.5" y1="583.25" x2="539.5" y2="643.25"/>
		<line id="선_101" fill="none" stroke="#E7E7E7" x1="1241" y1="583.25" x2="1241" y2="643.25"/>
		<line id="선_102" fill="none" stroke="#E7E7E7" x1="539" y1="643.75" x2="1241.5" y2="643.75"/>
	</g>
	<circle id="타원_8" fill="#1F98D5" cx="539.5" cy="643.75" r="3.5"/>
	<circle id="타원_9" fill="#1F98D5" cx="1241.5" cy="643.75" r="3.5"/>
	<circle id="타원_10" fill="#1F98D5" cx="890.5" cy="643.75" r="3.5"/>
</g>
</svg>
